<svg width="100" height="34" fill="none" xmlns="http://www.w3.org/2000/svg"><path d="M52.458 7.354h1.373l-.53-1.782h-.312l-.531 1.782zm1.656.936H52.19l-.41 1.388h-1.041l1.606-5.134h1.635l1.613 5.134h-1.069l-.41-1.388zm3.267-2.79v4.178h-1.073V4.544h3.712V5.5h-2.639zm7.351 3.22v.958h-3.855V4.544h3.776V5.5h-2.711v1.078h2.11v.934h-2.11V8.72h2.79zm5.426-4.176v5.134h-1.074V7.527h-2.279v2.15h-1.074V4.545h1.074v1.999h2.279v-2h1.074zm4.854.942H73.41v4.192h-1.077V5.486H70.73v-.942h4.283v.942zm4.998 2.616c-.157 1.012-.936 1.718-2.128 1.718-1.556 0-2.442-1.084-2.442-2.638 0-1.555.893-2.638 2.442-2.638 1.135 0 1.9.641 2.078 1.575h-1.114c-.121-.406-.457-.627-.964-.627-.914 0-1.35.742-1.35 1.69 0 .941.436 1.69 1.35 1.69.55 0 .921-.285 1.021-.77h1.107zm4.712-2.616h-1.604v4.192h-1.076V5.486h-1.604v-.942h4.284v.942zm3.886 2.646c0-.432-.268-.655-.82-.655h-1.272v1.288h1.257c.538 0 .835-.203.835-.633zm-.145-2.128c0-.38-.247-.568-.734-.568h-1.213V6.58h1.22c.488-.001.727-.188.727-.576zm1.256 2.185c0 .855-.56 1.489-1.786 1.489h-2.498V4.544h2.432c1.148 0 1.706.626 1.706 1.359 0 .467-.21.87-.544 1.035v.144c.37.151.69.596.69 1.107zm4.614-1.007c0-.941-.439-1.69-1.401-1.69-.955 0-1.4.749-1.4 1.69s.445 1.69 1.4 1.69c.962 0 1.4-.749 1.4-1.69zm1.098 0c0 1.497-.877 2.638-2.5 2.638s-2.498-1.14-2.498-2.638.875-2.638 2.499-2.638c1.622 0 2.499 1.14 2.499 2.638zm-43.276 6.774v3.588h.141l1.912-3.588h1.385v5.134h-.995v-3.666h-.141l-1.955 3.666h-1.335v-5.134h.988zm9.15 0v5.134H60.23v-2.15h-2.279v2.15h-1.074v-5.134h1.074v2h2.279v-2h1.074zm5.569 0v5.134H65.8v-2.15h-2.28v2.15h-1.074v-5.134h1.074v2h2.28v-2h1.074zm4.756 2.638c0-.94-.438-1.69-1.4-1.69-.956 0-1.401.75-1.401 1.69 0 .942.445 1.69 1.4 1.69.963 0 1.4-.748 1.4-1.69zm1.098 0c0 1.498-.877 2.639-2.499 2.639-1.623 0-2.498-1.141-2.498-2.639 0-1.497.875-2.638 2.498-2.638 1.622 0 2.499 1.141 2.499 2.638zm4.172.95c0-.432-.268-.654-.82-.654h-1.272v1.287h1.257c.538 0 .835-.202.835-.633zm-.145-2.128c0-.38-.247-.567-.734-.567h-1.213v1.144h1.22c.488-.002.727-.189.727-.577zm1.256 2.185c0 .856-.56 1.49-1.786 1.49h-2.497v-5.135h2.431c1.148 0 1.706.626 1.706 1.36 0 .467-.21.87-.544 1.034v.145c.37.15.69.596.69 1.106zm2.148-.834h1.373l-.531-1.783h-.311l-.531 1.783zm1.656.936H79.89l-.41 1.387h-1.04l1.606-5.134h1.635l1.613 5.134h-1.07l-.41-1.387zm6.16 1.407h-3.968v-5.154h1.058v4.194h2.158v-4.194h1.058v4.194h.724v2.224h-1.03V19.11zm2.875-5.154v3.588h.141l1.91-3.588h1.387v5.134h-.995v-3.666h-.141l-1.955 3.666h-1.335v-5.134h.988zm8.276-1.284c-.057.674-.54 1.093-1.343 1.093-.803 0-1.287-.419-1.343-1.093h.782c.028.24.212.44.56.44.342 0 .526-.19.562-.44h.782zm-2.564 1.349v3.542h.141l1.912-3.542H100v5.068h-.995v-3.62h-.143l-1.953 3.62h-1.335v-5.068h.988zm-45.395 9.492h1.678l.835 2.05h.143l.835-2.05h1.65v5.134h-1.002v-4.005h-.144l-.935 2.287h-.98l-.935-2.287h-.144v4.005h-1.001v-5.134zm9.896 2.497c0-.942-.438-1.69-1.4-1.69-.955 0-1.4.748-1.4 1.69 0 .94.445 1.689 1.4 1.689.962 0 1.4-.749 1.4-1.69zm1.098 0c0 1.496-.876 2.637-2.498 2.637-1.624 0-2.499-1.14-2.499-2.638 0-1.497.875-2.638 2.499-2.638 1.622 0 2.498 1.14 2.498 2.638zm5.284.919c-.157 1.013-.936 1.718-2.128 1.718-1.556 0-2.441-1.083-2.441-2.638 0-1.554.892-2.638 2.441-2.638 1.135 0 1.9.642 2.078 1.576H66.28c-.122-.407-.457-.628-.964-.628-.914 0-1.35.742-1.35 1.69 0 .941.436 1.69 1.35 1.69.55 0 .921-.285 1.021-.77h1.107zm.999-3.416h1.078v2.006h1.192l.978-2.006h1.113l-1.186 2.496 1.251 2.638h-1.114l-1.033-2.158h-1.201v2.158h-1.078v-5.134zm8.313 3.588c0-.432-.268-.654-.82-.654h-1.272v1.287h1.257c.538 0 .835-.202.835-.633zm-.145-2.128c0-.38-.247-.567-.734-.567h-1.213v1.143h1.22c.488-.001.727-.188.727-.576zm1.256 2.185c0 .856-.56 1.489-1.786 1.489h-2.497v-5.134h2.431c1.148 0 1.706.626 1.706 1.359 0 .468-.21.87-.544 1.035v.145c.37.15.69.596.69 1.106zm5.492 1.489h1.076v-5.134h-1.075v5.134zm-1.675-1.697c0-.482-.26-.755-.976-.755h-.91v1.51h.91c.716 0 .975-.266.975-.755zm-2.96 1.697v-5.134H79.8v1.74h1.075c1.207 0 1.913.64 1.913 1.69 0 1.064-.708 1.704-1.913 1.704h-2.15zM8.59 29.5c-.224.276-.566.37-.768.208-.178-.142-.183-.437-.028-.695a.538.538 0 00-.317.211c-.19.276-.08.687.251.918.331.233.756.195.947-.08.134-.19.118-.449-.015-.665a.894.894 0 01-.07.102zM19.922 9.923c-.4-.381-.282-1.135-.282-1.135-.168.14-.382 1.126-.026 1.624.411.579.78.66 1.106 1.289.04-.09-.01-.315-.096-.484-.128-.257-.178-.47.124-.557.853-.248 1.647.983 2.113.962.653-.028.799-.613.827-.64.028-.029-.343.252-.763.202-.665-.08-.973-.827-1.72-.98-.479-.096-.883.102-1.283-.28zm-.454 13.709c-.222.324-.053.783.535.954.53.155.88.315 1.14.576.38.381.558.428.65.426L5.524 3.037l-.216.157S14.697 16.209 18.872 22c.156.215.791 1.345.596 1.633zm-.064 1.027c-.618.016-1.328.236-2.042-.425-.927-.856-1.892-.31-1.892-.31s.61.609.27.86c-.553.408-.146.887-.195 1.074-.05.186-.606.225-1.537-.2a2.296 2.296 0 00-1.333-.185c-.241.04-.16.215-.107.265 0 0 .392.358.544.458.123.078.435.337.552.253.113-.082-.134-.54-.134-.54s1.835.613 2.477.613c.746 0 .047-1.241.634-1.3.296-.03.666.432 1.275.52.424.061.833-.12 1.25-.224.445-.111.613.44.675.925.011.079.027.28.112.427.146-.7.342-2.231-.549-2.21zm4.645 1.436c-.242-.652-.703-.37-.91-.442-.207-.072-.475-.33-.561-1.022-.087-.693-.675-.318-.675-.318s.68 1.365.955 2.092c.275.726.506.163.84.562.338.399.299 2.446.108 3.105a3.757 3.757 0 01-1.284 1.903c.473-.055 1.356-.984 1.604-1.593.285-.7.122-1.345.122-1.345l.398-.035-.244-.635.385-.058c.003 0-.497-1.565-.738-2.214zM8.233 27.391a3.872 3.872 0 00-1.531-.089c-.537.08-.97.232-1.418.21-.447-.012-.866-.187-1.138-.51a1.548 1.548 0 01-.277-.485c.216-.447.636-.899 1.383-1.315 2.614-1.453 1.75-3.091 1.586-4.99-.083-.965.113-1.844.609-2.289.7-.63 1.876-.553 1.876-.553-.134-.171-1.71-.736-2.912-.387-1.288.375-1.527 1.308-1.748 1.97-.191.575-.442 1.251-1.58 1.729-1.915.804-1.786 2.31-1.786 2.31s-.694-1.488 1.166-2.745c2.363-1.597 1.454-2.823 2.244-3.555.617-.57 1.355-.48 2.482-.172-.202-.24-3.197-1.495-3.544 1.172-.294 2.268-2.46 1.952-2.836 4.085-.264 1.514 1.167 2.782 1.167 2.782s-1.144-2.292 1.107-3.218c1.557-.64 2.444-1.379 2.675-2.108a9.56 9.56 0 00-.004.752c.024 1.027.512 1.828.362 3.27-.082.795-1.533 1.588-2.343 2.403.028-.366.127-.72.31-1.014.204-.312.538-.648.685-1.017a1.85 1.85 0 00-.094-1.696c-.037.014-.07.029-.105.04.164.384.256.968-.06 1.534-.158.325-.437.555-.734.935-.27.377-.457.851-.482 1.368-.007.164.009.332.037.5-.331.868.046 1.988.348 2.505.362.617.701 1.068.525 1.784-.178.716.444.468.885.475.138.002.283.003.415.003.29-.001.409-.212.231-.496-.308-.491-.797-1.219-1.187-1.53-.348-.278-.916-1.01-.864-1.857.514.61 1.092.802 1.569.846.561.05 1.09-.162 1.522-.23.452-.072.916-.06 1.336.043.419.104.8.296 1.093.553.299.255.463.594.55.921.161.645-.282 1.249-.64 1.566.022.025.05.048.075.07.625-.377.962-1.035.84-1.82-.114-.773-.812-1.512-1.795-1.75zm-.51-12.07c.768.81 1.594.484 1.962.528.37.043.794.989.57 1.905-.224.917-.313.759-.466 1.334-.192.725.705 1.244.497 1.911-.058.186-.187.453-.03.66.241.326.634-.103 1.13-.03.388.056.73-.074.9-.176-.059-.283-1.178-.11-1.428-.567-.11-.202-.403-2.285.245-3.217.597-.853.043-1.12-.365-1.81.56-.308 1.875-.962 1.875-.962.43.496.735.924.997 1.522.139.297.234.617.223.938.008.326-.114.647-.32.937.273-.042.523-.53.598-.906.072-.377.018-.764-.085-1.123-.38-1.162-1.263-1.994-1.263-1.994s-1.196.41-2.305 1.011c-.349-.656-.7-.54-1.138-.502-.433.038-.695-.419-.695-.419.336.107.804.125 1.43-.122 1.405-.554.872-1.715.872-1.715s.03.842-.81.962c-.523.072-1.894-.267-1.894-.267s1.098-.127 1.322-.76c.305-.865 1.176-.525 1.176-.525s-.465-.547-1.182-.119c-.437.264-1.162.348-2.052-.103-.889-.45-1.211.296-1.391.315-.18.02-.32-.274-.22-.58.102-.308 1.123-.597 2.66-.656 1.016-.039 1.513.16 1.734.302.002-.084-.272-.46-1.108-.665-.836-.207-.782-.549-.743-1.138.04-.59-.818-.354-1.026-.428-.208-.074-.014-.538-.014-.538-.3.087-.529.329-.518.69.006.24.238.414.468.527.23.115.268.321-.146.562a13.52 13.52 0 01-1.457.724c-1.43.612.355 1.669-.273 1.992-.63.324-.784.747-.82.978-.077.524.273.914.273.914 1.23-.667 2.049-.2 2.817.61zm7.278-1.874c0-.526.135-.778.28-.784.443-.019.538.609.544.779.019.5-.35.739-.35.739.316.027.566-.41.607-.69.06-.412-.013-.554-.16-.827 0 0 .927.896.828 1.89-.111 1.127-1.382 1.718-1.382 1.718.376.135 1.465.026 2.162-.862.384-.49.552-1.235.086-2.41-.422-1.068-1.228-1.972-.371-4.017.835-1.994 3.044-2.254 4.373-1.307a.442.442 0 01.166.213c.086.236-.534.545-.263.687.188.099.432.124.644.285.194.147.233.272.331.363.074.07.107.083.179.083-.601-.704-.701-1.507-.799-2.354-.472-.122-1.22-.505-1.96-.59-.464-.056-1.587-.129-2.713.425-1.268.622-2.61 1.834-2.61 4.644 0 1.209.408 2.084.408 2.015zM.884 19.987c.654-.177.654-.662.663-.761.104.138.14.29.143.487.289-.376.22-1.027-.488-1.416 0 0 .04.855-.507 1.157-.571.314-.66.514-.692.824a.669.669 0 00.099.432c.074.123.2.21.317.238-.172-.232-.207-.778.465-.96zM14.557 8.025c-1.602.091-2.162-.483-3.256-1.01-1.098-.53-2.042-.143-2.207.107.51.031 1.09.234 2.189.924 2.217 1.393 3.274-.02 3.274-.02zm-.718-3.398c-.233.062-.796.153-.533 1.453.264 1.3.966.986 1.155.82 0 0-.954-.1-.982-1.228-.027-1.129 1.275-.921 1.275-.921-.078-.088-.546-.223-.915-.124zm14.274 16.531c-.316-1.122-1.321-3.41-2.009-4.453-.691-1.045-1.044-.296-1.32-.06s-1.084 1.597-1.438-.157c-.356-1.754-2.166-3.273-2.166-3.273.374 1.32.274 2.287.177 3.135-.098.846.118 1.143.118 1.653 0 .513-1.534.849-1.616 1.243-.077.394 2.285 2.012 4.535.39.677-.487 1.098 1.404 1.313 1.916.218.513-.216.672.296 1.262.513.591.118 1.09.118 1.458 0 .345 1.015 1.213 1.202 1.024.327-.326-.414-2.267-.709-2.936-.296-.672-.768-2.84-1.102-3.43-.192-.338-1.18-.099-1.18-.099l-.07-.262s.138-.175.264-.31c1.027-1.064.946-.63 2.01.67 1.063 1.3-.218 1.815.707 2.485.927.67 1.184.868.87-.256zM11.25 3.72s.197.067.574.075c.378.008.565-.343.565-.343-.919-.09-1.188-.415-1.188-.415s.877-.045 1.32-.104c.443-.06 1.251-.276 1.251-.276s-.03.725-.037 1.146c-.003.42.537.328.717.27.228-.071.263-.91.301-1.627.028-.543-.373-.547-.604-.451-.338.14-.98.471-1.676.684-.695.212-1.783.057-1.783.057l-.06.226.916.563-.296.195zm1.506 3.44l.248-.105s-.19-.556-.203-1.047c-.011-.494.19-1.584.19-1.584h-.234s-.107.801-.246 1.503c-.138.701-.505.564-.685.55-.18-.013-1.61-.218-1.61-.218v.21l.813.117c.724.104 1.727.575 1.727.575zm.89 3.089c-.588.378-1.558.19-1.558.19.13.183.833.4 1.187.393.307-.006.579-.127.82-.392.525-.575.311-1.533.183-1.654.002 0-.057 1.094-.631 1.463zm-1.363 17.059c-1.354-1.352-.86-1.216 0-2.422.637-.894 3.745-1.683 5.31-2.03l-.03-.143c-.794.036-1.983.077-3.177.076-2.047-.001-2.872-.78-3.403-.682-2.034.38-.588 2.713-2.974 2.383-2.387-.33-2.308 2.145-2.308 2.145.677-1.377 1.377-1.183 1.916-1.207.625-.026 1.234.434 2.11-.302.192-.16 1.064-1.572.938-.867-.072.412-.43.882-.714 1.206-.203.23-.321.407.092.64l.592.341c.967.556.806 1.187.177 1.155-.448-.024-.978-.244-1.422-.29-.18-.019-.385.055-.1.192.15.071.319.175.467.322.709.709-.138.429 1.89.32a6.71 6.71 0 00.958-.11c.807-.176-.144-.55-.322-.727zm10.436 1.18c-.163-.255-.294-.611-.447-.93-.323-.677-.006-.547-.205-.937-.224-.431-.336-.008-.9-.872-.11-.171-.335-.096-.361.318-.03.412.662.8.977 1.8.318 1.002.578 1.118.32 1.732-.254.615-1.51.577-1.51.577.98 1.02 2.973-.37 2.126-1.689zm10.554 4.704l-.407-.148L44.876 0l.406.148-12.008 33.044z" opacity=".6" fill-rule="evenodd" clip-rule="evenodd" fill="#131316"/></svg>