<svg width="191" height="94" xmlns="http://www.w3.org/2000/svg"><defs><linearGradient x1="50.002%" y1="108.033%" x2="50.002%" y2=".358%" id="a"><stop stop-color="#60C5FF" offset="0%"/><stop stop-color="#2BB673" offset="100%"/></linearGradient></defs><g fill="none"><path d="M142.382 0c-10.977 0-21.688 4.988-33.715 15.693-12.593 11.194-28.832 25.187-29 25.32a2.242 2.242 0 1 0 2.925 3.4c.16-.14 16.455-14.154 29.056-25.376 14.65-13.048 24.557-14.56 30.727-14.56 24.418 0 43.546 18.492 43.546 42.098 0 24.011-19.128 42.817-43.546 42.817-7.066 0-18.806-3.442-26.642-9.795-17.127-13.95-43.181-35.513-59.916-49.905-7.283-6.261-14.196-11.446-25.103-11.446a30.021 30.021 0 1 0 0 60.043c7.906 0 15.959-2.882 23.298-8.333C60.945 64.8 69.2 57.027 69.544 56.663a2.242 2.242 0 0 0-3.079-3.26c-.084.077-8.395 7.927-15.126 12.922-6.562 4.898-13.692 7.451-20.625 7.451-14.104 0-25.537-11.433-25.537-25.536 0-14.104 11.433-25.537 25.537-25.537 8.563 0 14.188 3.498 22.178 10.362 16.792 14.412 42.86 36.01 60.008 49.982 8.64 7.038 21.633 10.83 29.468 10.83a48.205 48.205 0 0 0 33.96-13.692 46.63 46.63 0 0 0 14.084-33.582c0-26.118-21.094-46.575-48.023-46.575" fill="url(#a)"/><path d="M22.227 41.775H25.6a2.54 2.54 0 1 1 0 5.072h-3.093a1.56 1.56 0 0 0-.28 0v-5.072zm9.704 2.526a6.073 6.073 0 0 0-6.296-6.22h-5.45c-.885 0-1.603.717-1.603 1.602v15.693c0 .885.718 1.602 1.602 1.602h.47c.884 0 1.601-.717 1.601-1.602v-4.618l6.402 5.807a1.6 1.6 0 0 0 1.077.413h.7a1.602 1.602 0 0 0 1.07-2.798l-4.274-3.862a6.024 6.024 0 0 0 4.715-6.024l-.014.007zm12.125-2.547c.885 0 1.602-.717 1.602-1.602v-.469c0-.885-.717-1.602-1.602-1.602h-8.724c-.885 0-1.603.717-1.603 1.602v15.693c0 .885.718 1.602 1.603 1.602h8.724c.885 0 1.602-.717 1.602-1.602v-.469c0-.885-.717-1.602-1.602-1.602h-6.668v-3.904h5.842c.885 0 1.603-.717 1.603-1.602v-.497c0-.885-.718-1.602-1.603-1.602h-5.842v-3.925l6.668-.02zm62.729.028a5.36 5.36 0 0 1 3.932 1.665c.488.492.88 1.071 1.154 1.707.25.594.832.98 1.477.98h.552a1.602 1.602 0 0 0 1.4-2.414 9.753 9.753 0 0 0-1.924-2.833 9.095 9.095 0 0 0-6.577-2.799 9.18 9.18 0 0 0-6.583 2.799 9.676 9.676 0 0 0-2.708 6.8 9.361 9.361 0 0 0 2.722 6.751 9.095 9.095 0 0 0 13.139 0 10.096 10.096 0 0 0 2-3.015 1.602 1.602 0 0 0-1.469-2.232h-.58c-.65 0-1.237.392-1.484.994a5.002 5.002 0 0 1-1.16 1.679 5.436 5.436 0 0 1-3.926 1.672 5.52 5.52 0 0 1-3.946-1.693 5.702 5.702 0 0 1-1.644-4.142 5.947 5.947 0 0 1 1.658-4.247 5.422 5.422 0 0 1 3.94-1.665m22.863-3.547h-.609a1.602 1.602 0 0 0-1.357.756l-4.065 6.506-4.065-6.506a1.602 1.602 0 0 0-1.357-.756h-.609a1.602 1.602 0 0 0-1.357 2.449l5.513 8.83v5.995c0 .885.718 1.602 1.602 1.602h.497c.885 0 1.602-.717 1.602-1.602V49.52l5.541-8.822a1.602 1.602 0 0 0-1.357-2.449m10.823 3.533a5.36 5.36 0 0 1 3.94 1.665 5.597 5.597 0 0 1 1.154 1.707c.25.594.832.98 1.476.98h.553a1.602 1.602 0 0 0 1.399-2.414 9.753 9.753 0 0 0-1.924-2.833 9.095 9.095 0 0 0-6.577-2.799 9.18 9.18 0 0 0-6.583 2.799 9.676 9.676 0 0 0-2.708 6.8 9.361 9.361 0 0 0 2.722 6.751 9.095 9.095 0 0 0 13.139 0 10.068 10.068 0 0 0 2.001-3.015 1.602 1.602 0 0 0-1.47-2.232h-.538c-.65 0-1.236.392-1.483.994a5.023 5.023 0 0 1-1.162 1.679 5.436 5.436 0 0 1-3.925 1.672 5.52 5.52 0 0 1-3.945-1.693 5.702 5.702 0 0 1-1.645-4.142 5.954 5.954 0 0 1 1.659-4.247 5.43 5.43 0 0 1 3.938-1.665m13.203-3.582h-.49c-.885 0-1.602.717-1.602 1.602v15.693c0 .885.717 1.602 1.602 1.602h8.83c.884 0 1.601-.717 1.601-1.602v-.504c0-.885-.717-1.602-1.602-1.602h-6.737V39.823c0-.885-.718-1.602-1.602-1.602m21.989 3.673a1.602 1.602 0 0 0 1.602-1.602v-.469c0-.885-.717-1.602-1.602-1.602h-8.703a1.602 1.602 0 0 0-1.603 1.602v15.693a1.602 1.602 0 0 0 1.603 1.602h8.745c.885 0 1.602-.717 1.602-1.602v-.469c0-.885-.717-1.602-1.602-1.602h-6.667V49.52h5.639c.884 0 1.602-.717 1.602-1.602v-.497c0-.885-.718-1.602-1.602-1.602h-5.64v-3.925h6.626z" fill="#414042"/></g></svg>