<?xml version="1.0" encoding="utf-8"?>
<!-- Generator: Adobe Illustrator 23.0.2, SVG Export Plug-In . SVG Version: 6.00 Build 0)  -->
<svg version="1.1" id="Слой_1" xmlns="http://www.w3.org/2000/svg" xmlns:xlink="http://www.w3.org/1999/xlink" x="0px" y="0px"
	 viewBox="0 0 1280 600" style="enable-background:new 0 0 1280 600;" xml:space="preserve">
<style type="text/css">
	.st0{fill:#020203;}
</style>
<path d="M290.9,206.4c0,0-0.6,1.2-1.7,3.6c-1.1,2.4-1.9,4-2.3,4.8c-1.7,6.7-3.1,14.3-4.4,22.9c-1.2,8.6-1.9,16.1-1.9,22.3
	c0,3.3,0.1,5.6,0.3,6.9l-11.2,38.7l-3.1,11.6c-7.1,25-13.4,46.1-19,63.2c-5.6,17.2-10.1,25.8-13.4,25.8c-3.1,0-7.8-0.8-14-2.5
	c-6.9-1.5-11.3-2.2-13.4-2.2c0-0.8-0.6-1.8-1.7-3c-1.1-1.1-2-1.9-2.7-2.3l-9.7-30.9c0.2-0.4,0.3-1,0.3-1.9c0-2.7-1.7-7.2-5-13.4
	c-1.2-2.7-2.4-5.5-3.6-8.3c-1.1-2.8-1.7-5.2-1.7-7c0-1,0.1-1.8,0.3-2.2l-15.6-50.3c0-1,0.3-1.8,0.8-2.2c0.5-0.4,1-0.8,1.4-1.2
	l-3.7-2.2c-0.2-0.6-1.9-5.7-5.2-15.1c-3.2-9.5-5.8-14.2-7.6-14.2c-1.2,0-4.1,10.5-8.4,31.5l-3.4,12.2
	c-20.8,75.1-34.4,112.7-40.9,112.7c-1.7,0-4.7-0.5-9.1-1.4c-4.4-0.9-6.6-1.8-6.6-2.7c-0.2,0-1.1,0.4-2.8,1.2
	c-1.7,0.8-3.5,1.2-5.6,1.2c-2.7,0-6.4-6-11.1-18.1c-4.7-12.1-8.5-23.4-11.4-34l-9.4-35l0.3-1.6c0-2.5-1.6-7.5-4.7-15
	c-1.5-3.5-2.8-7.2-4.1-10.9s-1.9-6.8-1.9-9.1l0.3-1.9c-1.7-4.8-3.6-10.9-5.8-18.3c-2.2-7.4-4-13.5-5.5-18.3c-0.6-2.3-2-6.1-4.1-11.6
	c-2.1-5.4-3.6-9.8-4.5-13.3c-0.9-3.4-1.4-6.7-1.4-9.8c0-2.7,1.9-4.4,5.6-5.2c3.7-0.7,8.8-1.1,15.3-1.1c4.2,0,7.5,0.3,10.1,0.8
	c2.6,0.5,3.9,1.7,3.9,3.6c0,0.2-0.1,1.7-0.2,4.4c-0.1,2.7-0.9,4.6-2.3,5.6c1.7,1.7,2.5,3.5,2.5,5.6c1.7,10,3.7,19.3,6.2,27.8
	c2.5,8.5,5.8,18.5,10,30c0.8,2.7,2.4,7.5,4.8,14.5c2.4,7,4.4,13.6,6.1,19.8v1.9l15.6,48.1c0,0.4,0.1,0.6,0.3,0.6
	c0.4,0,1.4-0.9,2.8-2.7c1.5-1.8,2.2-3,2.2-3.6l25.3-90.2v-7.8c0.6-2.7,1.9-7.4,3.7-14c1.9-6.7,3.7-12.9,5.6-18.7
	c2.3-7.9,4.4-15,6.2-21.2c1.9-1.9,4-3.1,6.4-3.6c2.4-0.5,5.7-0.8,9.8-0.8c17.3,0,25.9,1.5,25.9,4.4c0,1.7-1,3.4-3,5.3
	c-2,1.9-3,3.7-3,5.6c0,2.9,0.7,6.3,2,10.1c1.4,3.9,3.3,8.9,5.8,15.1c2.9,7.1,4.8,12.3,5.6,15.6c4.8,9.8,8.9,19,12.3,27.8
	c3.4,8.7,5.2,16.2,5.2,22.5l11.6,30.9c-0.2,0.4-0.3,0.9-0.3,1.6c0,2.3,0.9,4.9,2.8,8c1.9,3,3.6,4.9,5.3,5.8c3.5-5.8,6.7-15.5,9.5-29
	c2.8-13.5,6.6-33.8,11.4-60.9c3.5-21.6,6.4-37.6,8.7-47.9c2.3-10.3,4.5-15.7,6.6-16.1c1.5,0,3.2,0.3,5.2,0.9c2,0.6,4.2,0.9,6.7,0.9
	c1.9,0,4.1-0.7,6.7-2c2.6-1.4,4.5-2,5.8-2c1.7,0,3.2,1.1,4.7,3.4c1.5,2.3,2.2,4.2,2.2,5.6C290.9,205.9,290.9,206.4,290.9,206.4z
	 M53.7,267.9c-0.2-0.6-0.6-1.8-1.2-3.6c-0.6-1.8-1.5-3.5-2.5-5.2c-1.5-2.3-3-8.1-4.7-17.5c-1.9-10-3.9-17.5-5.9-22.6
	c-2.1-5.1-5.6-7.6-10.6-7.6v-2.2c-0.8,0-2.1,0.2-3.7,0.6c-1.7,0.4-3,0.9-4.1,1.6c1.9,2.3,3.6,6.4,5.3,12.2c0.4,0.8,0.8,1.9,1.1,3.1
	c0.3,1.2,0.8,2.5,1.4,3.7c0.6,1,1.3,3.1,2,6.2c0.7,3.1,1.3,5.5,1.7,7.2c0.6,0,1.8-0.3,3.4-0.9c1.7-0.6,3.1-1.6,4.4-2.8l-7.8,7.5v0.9
	c0,2.3,0.8,5.3,2.3,9.1c1.6,3.7,3.4,5.6,5.5,5.6c0.4,0,1.4-0.3,2.8-0.9c1.5-0.6,2.5-0.9,3.1-0.9c-1,0.6-2,1.6-2.8,3
	c-0.8,1.4-1.2,2.6-1.2,3.6c0,2.3,1.5,3.4,4.4,3.4c0.6,0,1.1-0.1,1.6-0.3c-1,0.8-2.3,2-3.7,3.6c-1.5,1.6-2.2,2.7-2.2,3.3l-0.3,0.3
	c0,0.2,0.3,0.8,0.9,1.7c0.6,0.9,1.1,1.7,1.6,2.3C50.6,277.9,53.7,273.1,53.7,267.9z M50.2,310.9c1.5,4.7,3.2,8.7,5.3,12
	c1.9,0,3.6-0.9,5.2-2.7c1.6-1.8,2.8-3.6,3.7-5.5c0.9-1.9,1.5-3.2,1.7-4.1H53.7v-3.1h9.7v-8.4c-1,0-2.2,0.7-3.6,2
	c-1.4,1.4-2.4,2-3.3,2c0-1.9,0.6-4.1,1.9-6.6c0.2-0.6,0.5-1.6,0.9-2.8c0.4-1.2,0.6-2.5,0.6-3.7l-0.3-1.6c-0.2-0.8-0.9-3.1-2-6.7
	c-1.1-3.6-2.1-5.5-3-5.5c-1.7,0-3.1,1.1-4.4,3.4c-1.2,2.3-2.6,5.2-4.1,8.7l-0.6,2.5h10c-0.6,0.2-1.6,0.7-3,1.4
	c-1.4,0.7-2.4,1.5-3.3,2.3c-0.8,0.8-1.2,1.9-1.2,3.1C48.1,301.9,48.8,306.2,50.2,310.9z M60.2,340.7c0.6,2.7,1.5,4.7,2.5,5.9
	c1,1.2,2.9,1.9,5.6,1.9c2.1,0,3.7-0.3,5-0.8c1.2-0.5,1.9-1.7,1.9-3.6c0-1.2-0.4-2.7-1.2-4.4c-0.8-1.7-1.8-2.7-2.8-3.1
	c-0.2,1-0.9,2.2-2.2,3.6c-1.2,1.4-2.1,2-2.5,2l-0.9-0.3c0.4-1.2,1.2-3.2,2.3-5.8c1.1-2.6,1.7-5.2,1.7-7.7c0-6.4-1.1-9.7-3.4-9.7
	c-2.5,1.5-4.7,3.4-6.6,5.9c-1.9,2.5-2.8,4.1-2.8,4.7v0.3h8.7l-7.5,4.7C59.1,336.1,59.8,338.2,60.2,340.7z M65.5,361.3
	c2.1,0,4.3-1.2,6.6-3.6c2.3-2.4,3.4-4.5,3.4-6.4l-0.3-1.2l-11.9,1.9c-0.2,0-0.3,1-0.3,3.1v1.6C63,359.7,63.9,361.3,65.5,361.3z
	 M67.7,369.7h3.4c2.9,0,4.9-0.6,6.1-1.7c1.1-1.1,1.7-3.9,1.7-8.3c0-2.5-0.6-3.8-1.9-4.1C70.8,359.4,67.7,364.1,67.7,369.7z
	 M123.3,313.2c-3.1,1-5.7,4.2-7.8,9.5c-2.1,5.3-4.2,12.4-6.2,21.4c-2.9,12.1-5.4,19.8-7.5,23.1c-1,1.7-2.9,3.7-5.5,6.2
	c-2.6,2.5-4.8,3.7-6.7,3.7c-1.5,0-2.5-0.3-3.1-0.9c-0.6-0.6-1.4-1.7-2.3-3.1c-0.9-1.5-2.1-2.2-3.6-2.2h-1.9c-5,0-7.5,0.9-7.5,2.8
	c0,0.6,0.5,1.7,1.4,3.3c0.9,1.6,1.8,2.8,2.7,3.6c1.2,0,3.7-0.6,7.5-1.9l-3.7,5.9l1.9,0.3c3.3,0,6.4-0.6,9.2-1.9s6.7-3.2,11.7-5.9
	l21.5-59.6V313.2z M100.2,382.8c-5,0-10.8,1.8-17.5,5.3c0.6,1.2,2.3,2.3,5.2,3.1c2.8,0.8,5.6,1.2,8.3,1.2
	C98.8,390.8,100.2,387.6,100.2,382.8z M127.2,304.5c1.6-2.5,2.3-6,2.3-10.6c-4.4,0-7.2,1.6-8.4,4.8c-1.2,3.2-1.9,7.4-1.9,12.6
	C123,309.3,125.6,307,127.2,304.5z M134.5,278.9c-5.2,0-7.8,1.1-7.8,3.4c0,2.3,0.7,3.6,2.2,4.1c-0.8,0-2,0.4-3.6,1.1
	c-1.6,0.7-2.3,1.3-2.3,1.7c0,0.4,0.2,1,0.6,1.7c0.4,0.7,0.9,1.2,1.6,1.4C130,288.5,133.1,284.1,134.5,278.9z M139.4,265.6
	c0.9-2.6,1.4-4.9,1.4-7c-4,0-7.3,1.9-10,5.8c-2.7,3.9-4.1,8-4.1,12.3c2.5,0,4.8-0.4,7-1.2c2.2-0.8,3.3-2.3,3.3-4.4l-4.1-2.2
	c0.8,0.4,1.5,0.6,1.9,0.6C136.9,269.5,138.4,268.2,139.4,265.6z M132,252.5c-0.8,0.7-1.2,2.4-1.2,5.2c1.9,0,4-0.4,6.2-1.2
	c2.3-0.8,3.4-2.1,3.4-3.7c0-0.8-1.1-1.2-3.4-1.2C134.5,251.4,132.9,251.8,132,252.5z M139.1,240.6c2.4-1.1,4.2-2,5.5-2.7
	c-0.4-0.8-1-1.4-1.7-1.6c-0.7-0.2-1.5-0.3-2.3-0.3c-2.3,0-4.3,2.1-5.9,6.2C135.2,242.3,136.7,241.8,139.1,240.6z M142.7,243.6
	c-3.1,0-5.8,1.4-8.1,4.1h8.1V243.6z M163.6,242.5c2.5,0.3,5.8,0.5,10,0.5c0-2.7-0.7-6.5-2-11.4c-1.4-4.9-3.2-9.2-5.5-13
	c-2.3-3.7-4.7-5.6-7.2-5.6c-2.3,0-4.3,0.3-5.9,0.8c-1.7,0.5-3.3,1.6-5,3.3l4.1-3.7c0-0.2-0.5-0.6-1.4-1.1c-0.9-0.5-1.8-0.8-2.7-0.8
	c-2.9,0-4.7,1.3-5.3,3.9c-0.6,2.6-0.9,5.8-0.9,9.5h4.7c-0.2,0.2-1.3,1-3.3,2.5c-2,1.5-3,3.3-3,5.6c1.5,0,3-0.4,4.5-1.2
	c1.6-0.8,2.7-1.9,3.3-3.1c0.4,1.7,1.8,3.4,4.1,5.2c2.3,1.8,4.3,2.7,5.9,2.7c2.3,0,4.3-2,5.9-5.9c1.5,1.5,2.2,2.4,2.2,2.8
	c0,0.4-0.7,1.5-2.2,3.1c-1.5,1.7-2.8,2.9-4.1,3.7C159.8,241.4,161.1,242.2,163.6,242.5z M164.5,249.1c0.4,0.5,0.8,0.8,1.2,0.8
	c0.6,0,1.6-0.5,3-1.4c1.4-0.9,2.2-1.7,2.7-2.3l-1.9-0.3c-2.1,0-4,0.6-5.6,1.9C163.9,248.1,164.1,248.5,164.5,249.1z M170.9,265.3
	c0.5,0.3,1.3,0.5,2.3,0.5c1.7,0,3.1-0.9,4.4-2.7c1.2-1.8,1.9-3.6,1.9-5.5c0-3.1-1.5-7-4.4-11.6c-0.6,0.6-2.1,2-4.5,4.2
	c-2.4,2.2-3.6,3.6-3.6,4.2c0,2.3,1.9,3.4,5.6,3.4c2.5,0,4-0.1,4.4-0.3c-3.5,1.9-6,3.7-7.5,5.6C169.9,264.3,170.4,265,170.9,265.3z
	 M177.2,268.7c-1.6,2.4-2.3,4.4-2.3,6.1h10.3c-0.2-0.2-0.4-1.7-0.6-4.4c-0.2-2.7-1-4.5-2.5-5.3C180.3,265.1,178.7,266.3,177.2,268.7
	z M176.7,284c1,0.5,1.9,0.8,2.5,0.8c3.5-3.5,5.4-5.5,5.6-5.9c-0.8-0.4-2.1-0.6-3.7-0.6c-2.1,0-3.6,0.2-4.5,0.6
	c-0.9,0.4-1.4,1.6-1.4,3.4C175.1,282.9,175.6,283.5,176.7,284z M184.8,305.7c2.3-1.2,3.8-2.4,4.7-3.4c0.8-1,1.2-2.4,1.2-4.1
	c0-0.8-0.1-1.7-0.3-2.5c-0.2-0.8-0.7-1.4-1.6-1.6c1-1,1.6-2.1,1.6-3.1c0-1.2-0.4-2.7-1.2-4.2c-0.8-1.6-2-2.3-3.4-2.3
	c-1,0-2.4,1-4.2,3c-1.8,2-2.7,3.2-2.7,3.6c0.2,0.6,0.6,1.5,1.2,2.5c0.6,1,0.9,1.9,0.9,2.5c-0.2,0.4-0.6,0.9-1.2,1.4
	c-0.6,0.5-0.9,1.1-0.9,1.7h-0.3C178.3,299.2,180.4,301.3,184.8,305.7z M190.4,315.1c-1.5,1.2-2.5,2.3-3.1,3.1
	c-0.6,0.8-0.9,2-0.9,3.4c1.7,0,2.9-0.3,3.6-0.8c0.7-0.5,1.4-1.2,2-2c1-2.3,3.2-3.5,6.6-3.7l-4.4-13.4c-2.5,0-5.6,3.2-9.4,9.7
	C186,312.8,187.9,314,190.4,315.1z M196.5,320.2c-1.4,1.1-3.4,3.4-6.1,6.7c4.2,0,7.2-0.5,9.1-1.6c1.9-1,2.8-3.3,2.8-6.9
	C199.8,318.5,197.9,319.1,196.5,320.2z M191.5,338.3c0.7,1.6,1.4,2.3,2,2.3c2.3,0,4.5-1.5,6.7-4.4c2.2-2.9,3.3-5.6,3.3-8.1
	c-8.7,0-13.1,2.1-13.1,6.2C190.4,335.5,190.8,336.8,191.5,338.3z M197,346.8c0.4,0.5,0.9,1,1.6,1.4h2.5c2.3,0,4.1-0.3,5.3-0.9
	c1.2-0.6,1.9-1.9,1.9-3.7c0-4.2-1.4-7.2-4.1-9.1c-5.2,6.5-7.8,10.1-7.8,10.9C196.4,345.8,196.6,346.3,197,346.8z M202.3,361.3
	c5.2-5.2,7.8-9.6,7.8-13.1c-0.6,0.4-2.7,1-6.2,1.9c-3.5,0.8-5.3,1.7-5.3,2.5C198.5,357.3,199.8,360.3,202.3,361.3z M205.9,377.7
	c1.1,0.9,3.2,1.4,6.1,1.4l3.7-0.3l-3.7-1.6c0.4-0.6,1.2-1.8,2.3-3.4c1.1-1.7,1.7-3.2,1.7-4.7c-3.7,0-7.7,0.6-11.9,1.9
	C204.2,374.5,204.7,376.7,205.9,377.7z M213.8,359.4c0-2.3-0.6-3.5-1.9-3.7c-4.8,2.7-7.2,6-7.2,10c2.7,0,4.9-0.3,6.6-0.9
	c1.7-0.6,2.5-2,2.5-4.1V359.4z M215.7,392.5l11.2-9.7v-2.5c-1.9,0-4.7,0.4-8.4,1.2c-3.1,1-6,1.6-8.7,1.6c0,1,0.5,2.9,1.6,5.6
	c1,2.7,2.2,4.1,3.4,4.1C215.2,392.8,215.5,392.7,215.7,392.5z M233.2,391.7c1.2-2.2,1.9-5.5,1.9-9.8c-2.9,0-5.4,1.4-7.3,4.2
	c-2,2.8-3,5.8-3,8.9C229.1,395,231.9,393.9,233.2,391.7z M242.6,361.3c-1,0.6-3.9,3-8.4,7.2l-7.2,6.2
	C235.3,374.7,240.5,370.2,242.6,361.3z M244.1,356c2.9-5,4.4-9.7,4.4-14c-9.4,7.5-14,11.9-14,13.1c0,0.4,0.6,0.9,1.7,1.6
	c1.1,0.6,2,0.9,2.7,0.9c-1.5,0.2-2.9,0.6-4.4,1.2c-1.5,0.6-2.5,1.5-3.1,2.5c0,0.4,0.2,0.9,0.6,1.4c0.4,0.5,0.7,0.8,0.9,0.8
	C237.5,363.5,241.2,361,244.1,356z M248.5,336.6h-11.9v9.1C240,345.7,243.9,342.7,248.5,336.6z M256.3,317.6
	c-2.7,0.6-5.9,2.4-9.7,5.3c-3.7,2.9-5.6,5.6-5.6,8.1c0,1.2,1.6,1.9,4.7,1.9C252.8,332.9,256.3,327.8,256.3,317.6z M245.2,316.6
	c-0.9,1-1.8,2.5-2.7,4.4l0.9,0.3c1,0,2.2-0.7,3.6-2.2c1.4-1.5,2-2.8,2-4.1C247.4,315.1,246.1,315.6,245.2,316.6z M260.5,307.3
	c2.4-2.7,3.6-7.1,3.6-13.1c-4.2,1.7-8.1,4.5-11.7,8.6c-3.6,4.1-5.7,6.3-6.1,6.7l2.2,1.9C254.1,311.3,258.1,310,260.5,307.3z
	 M255,296c2.5-1.5,4.8-3.4,6.9-5.9h-2.2c-4.6,0-7.6,0.7-9.1,2c-1.5,1.4-2.2,4.5-2.2,9.5C250.4,299.4,252.5,297.5,255,296z
	 M261.8,285.9c2.6-0.7,4.6-2.4,5.9-5c1.4-2.6,2-6.6,2-12c-1.2,1-3.7,3-7.5,5.8c-3.7,2.8-6.7,5.3-8.9,7.5c-2.2,2.2-3.3,3.8-3.3,4.8
	C255.3,287,259.2,286.6,261.8,285.9z M253.3,268.4c-2,2.2-3,4.5-3,7c2.3,0,4.4-0.5,6.2-1.6c1.9-1,3.7-2.4,5.6-4.2
	c1.9-1.8,3.6-3.2,5.3-4.2l-5.6-0.3C258.2,265.1,255.3,266.2,253.3,268.4z M253.3,246.9c-0.9,2-1.4,3.6-1.4,4.8l0.3,1.9
	c2.7-1,5.9-2.7,9.7-4.8c3.7-2.2,6.3-3.8,7.8-4.8h-13.4C255.3,243.9,254.3,244.9,253.3,246.9z M270.2,258c2.4-2.3,3.6-6.2,3.6-11.9
	h-2.2l-17.5,13.1l3.7,2.2C263.7,261.4,267.8,260.2,270.2,258z M261.8,222.4c-2.8,1-4.2,3.1-4.2,6.2l0.3,4.1
	c8.1-5,13.3-8.9,15.6-11.9h-0.9C268.2,220.8,264.6,221.3,261.8,222.4z M259.7,211.4c0,1.2,0.4,2,1.1,2.3c0.7,0.3,1.1,0.7,1.1,1.1
	c0,0.6-0.3,1.5-0.8,2.5c-0.5,1-1,1.7-1.4,1.9c8.3,0,13.5-0.7,15.6-2.2v-7.5c-4.2,0-8.6-0.7-13.4-2.2
	C260.5,207.8,259.7,209.1,259.7,211.4z M272.8,237.7c3.1-1.9,4.7-5.2,4.7-10c0-0.6-0.3-1.2-0.8-1.9c-0.5-0.6-1-0.9-1.4-0.9
	c-1.2,1-3.3,2.4-6.1,4.2c-2.8,1.8-5.1,3.5-6.9,5.3c-1.8,1.8-2.7,3.8-2.7,6.1C265.3,240.5,269.7,239.5,272.8,237.7z"/>
<path d="M785.5,330.1c-0.2,2.3-0.7,7.7-1.6,16.2c-0.8,8.5-1.2,16.5-1.2,24c0,3.3,0.4,8.3,1.2,15c0.8,7.1,1.2,12.2,1.2,15.3
	c0,2.7-0.3,4.5-0.9,5.3c-0.6,0.8-2.3,1.2-5,1.2c-7.1,0-12-0.5-14.7-1.6c-2.7-1-6.2-3.8-10.6-8.4c-1.9,0-6.5,1.4-13.7,4.1
	c-3.7,1.2-7.6,2.5-11.7,3.7c-4.1,1.2-7.4,1.9-10.1,1.9c-1.5,0-2.5-0.5-3.1-1.6c-1.7,0.2-4.4,0.3-8.1,0.3c-12.5,0-23.5-3.4-32.9-10.3
	c-9.5-6.9-16.8-15.9-22-27.2c-5.2-11.2-7.8-23.1-7.8-35.6c0-5.6,0.8-12.6,2.3-20.9c1.6-8.3,3.3-15.1,5.2-20.3
	c1.2-1.5,2.7-3.3,4.4-5.5c1.7-2.2,2.8-3.9,3.4-5.2v-0.9c4.2-6.4,8.9-10.9,14.4-13.4c5.4-2.5,12.8-4.5,22.2-5.9
	c1.2-0.2,2.4-0.5,3.4-0.9c1-0.4,2-0.7,2.8-0.9c3.3-1.5,5.8-2.2,7.5-2.2v2.2c1.2-1.5,3.2-2.2,5.9-2.2c3.1,0,6.1,0.4,9.1,1.2
	c2.9,0.8,6.6,2.1,10.9,3.7c3.1,1.2,6.4,2.3,9.8,3.3c3.4,0.9,6.6,1.4,9.5,1.4l0.6-35l0.3-11.6c0-15-1.4-25.7-4.1-32.2h30.6
	c0.4,0.8,0.8,2.4,1.2,4.8c0.4,2.4,0.7,4.6,0.9,6.7c-0.2,0.2-0.3,0.5-0.3,0.9c0,0.6,0.3,1.6,0.9,2.8c0.6,1.2,1,2.2,1.2,2.8
	c0,0.6-0.2,1.6-0.5,3c-0.3,1.4-0.8,2.7-1.4,3.9c0,8.5,0.6,21.5,1.9,39c1.2,16.7,1.9,29.2,1.9,37.8
	C788.6,298.1,787.5,311.8,785.5,330.1z M654.3,339c-0.6,0.9-0.9,2.7-0.9,5.2c1.9,0,3.6-1,5.2-3c1.6-2,2.5-3.2,3-3.6h-2.8
	C656.4,337.6,655,338,654.3,339z M654.7,353.5c5,0,8.7-0.6,11.1-1.9c2.4-1.2,3.6-4.1,3.6-8.4c0-2.1-0.5-3.2-1.6-3.4
	C659,344.3,654.7,348.9,654.7,353.5z M660.4,327.4c-3.4,1.4-5.2,3.2-5.2,5.5l0.3,0.9l12.2,1.6c0.6,0,1.1-1,1.6-3.1
	c0.4-2.1,0.6-4.4,0.6-6.9C667,325.4,663.9,326.1,660.4,327.4z M668.4,283.2c-3.7,3.5-6.8,7.8-9.2,12.6c-2.4,4.9-3.6,9.2-3.6,13
	c0,0.2,0.4,0.6,1.1,1.1c0.7,0.5,1.4,0.8,2,0.8c2.5,0,6.3-2.3,11.6-7c5.2-4.7,8-8.2,8.4-10.5l2.2-4.1c0.6-0.4,1.9-0.9,3.9-1.6
	c2-0.6,3.5-1.3,4.5-2c1-0.7,1.6-1.7,1.6-3l-0.3-0.9c-3.1,1.2-7.7,1.9-13.7,1.9c1.7,0,2.8-0.3,3.4-0.9c0.6-0.6,0.9-1.6,0.9-2.8
	c0-0.8-0.1-1.4-0.3-1.6c-0.2-0.2-0.7-0.3-1.6-0.3C675.8,277.9,672.1,279.7,668.4,283.2z M655.6,320.4v5.6l12.2-5.6H655.6z
	 M665.3,366.9c3.7,0,7.1-0.8,10-2.5l-2.2-3.7c-3.1,1.2-4.9,2.5-5.3,3.7l-0.3-0.9c0.2-0.6,0.7-1.7,1.4-3.3c0.7-1.6,1.5-2.8,2.3-3.6
	c-0.4-1.2-1.8-1.9-4.1-1.9c-6.2,0-9.4,1-9.4,3.1C657.8,363.9,660.3,366.9,665.3,366.9z M659.6,314.5l4.7,0.3h1.2
	c2.1,0,3.6-0.3,4.5-0.8c0.9-0.5,1.4-1.8,1.4-3.9C667.6,310.1,663.6,311.5,659.6,314.5z M665.6,374.7c1,0.8,1.9,1.4,2.5,1.6
	c1.7,0,3.4-0.7,5.2-2c1.8-1.4,3-2.8,3.6-4.2c-0.6-1-1.5-1.6-2.5-1.6c-0.8,0-2.6,0.6-5.2,1.7c-2.6,1.1-4.6,1.9-6.1,2.3
	C663.7,373.2,664.5,373.9,665.6,374.7z M672.6,381.9c0.5,0.2,1.4,0.3,2.7,0.3c1.2,0,2.6-0.4,4.1-1.2c1.5-0.8,2.6-1.9,3.4-3.1h-1.6
	c-3.5,0-6.9,0.7-10,2.2C671.6,381.1,672.1,381.7,672.6,381.9z M683.7,357.2c3.1,5.6,5.8,9.7,8.1,12.3c2.3,2.6,5.6,4.6,9.8,6.1
	c4.3,1.5,10.2,2.2,17.9,2.2c6.4,0,12.5-1.8,18.1-5.3c5.6-3.5,10.1-8.2,13.4-14c3.3-5.8,5-12.1,5-18.7c0-6.7-0.6-12.9-1.7-18.7
	c-1.1-5.8-3.8-11.2-8-16.2c-4.6-5.4-10-10.7-16.4-15.8c-6.4-5.1-11.8-7.6-16.4-7.6c-3.5,0-7.5,1.9-11.9,5.6
	c-4.4,3.7-6.9,5.8-7.5,6.2c-6.7,5.6-11,11.2-13,16.7c-2,5.5-3,12.9-3,22l0.3,17.2L683.7,357.2z M681.8,387.8c0.2,0,1.7-0.4,4.4-1.2
	c2.7-0.8,4.7-2.4,5.9-4.7c-1.7-1.5-3.5-2.2-5.6-2.2c-1.5,0-2.6,0.3-3.4,0.9c-0.8,0.6-1.7,1.5-2.5,2.7c-0.8,1.1-1.5,1.9-1.9,2.3
	C679.5,386.7,680.6,387.4,681.8,387.8z M688.7,274.2l-4.4,1.6c1.2,0.4,2.6,0.8,4.1,1.2c1.5,0.4,2.7,0.7,3.7,0.9
	c2.9,0,6.2-1.5,10-4.4c0.4-0.2,1.4-0.8,3-1.9c1.6-1,3.2-1.6,4.8-1.6h20.9c-1.5-0.4-3.5-1-6.2-1.9c-2.7-0.8-5.1-1.5-7.2-1.9
	c-2.3,0-4.7,0.3-7.2,0.9c-2.5,0.6-4.6,1.6-6.2,2.8v-1.9c-9.6,1.2-16.1,2.6-19.7,4.1L688.7,274.2z M694.6,391.7
	c0.6-1.1,1.1-3.2,1.6-6.1c-0.2,0.2-1.6,0.8-4.2,1.9c-2.6,1-4.3,2.5-5.2,4.4c0.2,1,1.6,1.6,4.1,1.6
	C692.7,393.4,694,392.9,694.6,391.7z M703.5,395.9c0.9-0.8,1.4-1.9,1.4-3.1c-1.5,0-2.7,0.2-3.7,0.6c-1,0.4-2.1,1-3.1,1.9
	c0,0.4,0.2,0.8,0.6,1.2c0.4,0.4,0.9,0.6,1.6,0.6C701.5,397.2,702.6,396.8,703.5,395.9z M707.7,395.3c1.5-0.2,2.7-0.7,3.6-1.4
	c0.9-0.7,1.4-1.7,1.4-3C709.6,390.9,707.9,392.4,707.7,395.3z M721.5,398.1c2.5-1,4.5-3.1,5.9-6.2l-4.4-0.3c-2.5,0-5.1,0.7-7.8,2.2
	c-2.7,1.5-4.1,3.4-4.1,5.9C715.5,399.7,719,399.2,721.5,398.1z M740.8,390.8c4.2-2.8,7.8-6.1,10.9-9.8c3.1-3.7,4.7-7,4.7-9.7
	l-0.3-1.2c-1.2,1.2-4.3,4-9.1,8.1c-9.6,7.5-15,13.2-16.2,17.2C733.3,395.1,736.7,393.6,740.8,390.8z M733,275.7
	c0.4,1,1.3,2.6,2.7,4.7c1.4,2.1,2.7,3.1,3.9,3.1l10.6-3.7c-1.9,0-3.1-0.2-3.7-0.6c-0.6-0.4-1.4-1.1-2.2-2.2c-0.6-1-1.4-1.8-2.3-2.3
	c-0.9-0.5-2.8-0.8-5.5-0.8C734.4,273.9,733.2,274.5,733,275.7z M758,282.6c-3.5,0.4-6.5,0.9-8.7,1.6c-2.3,0.6-4.5,1.8-6.6,3.4
	c0.8,1.5,2.2,3,4.1,4.5c1.9,1.6,3.6,2.6,5.3,3c7.7-5.8,15.4-10.3,23.1-13.4c-0.4-0.4-0.8-1-1.2-1.7c-0.4-0.7-0.6-1.4-0.6-2
	c0-1,0.7-3.1,2-6.2c1.4-3.1,2-5.5,2-7.2h-4.1l-9.7,11.2l-0.3,1.2c0,0.6,0.7,1.2,2.2,1.9c1.5,0.6,2.8,0.9,4.1,0.9
	C767.2,280.8,763.4,281.8,758,282.6z M753.9,303.5c5,0,8.9-1.5,11.9-4.4h-2.2c-1.5,0-3.4,0.3-5.8,0.8c-2.4,0.5-3.7,0.9-3.9,1.1
	V303.5z M768.4,374.1c1.6-0.2,3.2-0.7,4.8-1.6c0-1.7-0.3-2.8-0.8-3.3c-0.5-0.5-1.5-0.8-3-0.8c-3.1,0-6.4,1.9-9.7,5.6l3.7,0.3
	C765.3,374.4,766.9,374.3,768.4,374.1z M763,195.5c-0.8,0.6-1.2,2.4-1.2,5.3c0,5.6,1.2,8.4,3.7,8.4l1.9-0.6l-1.6,3.7h5.6
	c-2.1,0.4-3.8,1.4-5.2,2.8c-1.4,1.5-2,3.1-2,5c3.1,0,5.8-1.6,8-4.8c2.2-3.2,3.3-6.5,3.3-9.8c0-3.7-0.3-6.5-0.9-8.3
	c-0.6-1.8-2.5-2.7-5.6-2.7S763.8,194.9,763,195.5z M776.1,292c2.3-1,3.4-3.5,3.4-7.5c-3.3,0-6.2,0.7-8.7,2c-2.5,1.4-5.5,3.6-9.1,6.7
	l4.1,0.3C770.4,293.5,773.8,293,776.1,292z M765.8,356.9c2.1-1,3.8-2.3,5.3-3.7c1.5-1.5,2.2-3,2.2-4.7c-4,0-6.9,0.7-8.7,2
	c-1.9,1.4-2.8,4.1-2.8,8.3C762.4,358.6,763.7,358,765.8,356.9z M766,384.2c1.4-1.4,2-2.8,2-4.2h-6.2v6.2
	C763.2,386.3,764.6,385.6,766,384.2z M773.1,304.9c3-1.4,4.5-3.7,4.5-7c-2.7,0-5.3,0.9-7.8,2.7c-2.5,1.8-4.6,3.9-6.2,6.4
	C766.9,307,770.1,306.3,773.1,304.9z M775.5,330.4c1.2-2.5,1.9-6.1,1.9-10.9l-0.3-10.6c-2.9,0.6-5.6,2.1-8,4.5c-2.4,2.4-3.6,5-3.6,8
	c0,2.1,0.3,3.4,0.9,3.9c0.6,0.5,2.3,0.8,5,0.8c-3.1,3.1-4.7,5.8-4.7,8.1C771.3,334.1,774.2,332.9,775.5,330.4z M766.3,239.7
	c0.3,1.8,0.7,2.9,1.1,3.3c4-2.3,5.9-5.7,5.9-10.3c-1.9,0-3.6,0.3-5.2,0.8c-1.6,0.5-2.3,1.2-2.3,2C765.8,236.5,766,237.9,766.3,239.7
	z M771.4,337.6h-1.9c-1,0-1.9,0.1-2.5,0.3c-0.6,0.2-1,0.8-1.2,1.9C766.6,339.7,768.5,339,771.4,337.6z M773.3,356.6
	c-2.3,0-4.8,1.4-7.5,4.1l2.5,0.3C771.6,361,773.3,359.5,773.3,356.6z M773.3,397.2c-0.4-1.5-1.8-2.2-4.1-2.2l-3.4,0.3v1.9H773.3z
	 M771.7,344.9c1-0.7,1.6-2.4,1.6-5.2c-1.7,0.4-3.2,1.1-4.7,2.2c-1.5,1-2.2,2.4-2.2,4.1C768.9,346,770.7,345.6,771.7,344.9z
	 M775.8,218h-2.5l-5.9,9.7C773,227.7,775.8,224.4,775.8,218z M772.4,256.1c0,1.2-0.2,2.1-0.5,2.5c-0.3,0.4-0.9,0.8-1.9,1.2
	c-0.9,0.4-1.8,1.2-2.7,2.5l2.2,2.2l5.6-5.9v-16.2c-1.7,0-3.4,1.5-5.2,4.4c-1.8,2.9-2.7,5.3-2.7,7.2c0,1.7,0.7,2.5,2.2,2.5
	L772.4,256.1z M773.3,383.5c-1.2,0-2.3,0.4-3.1,1.2c-0.8,0.8-1.2,2-1.2,3.4C771.8,388.1,773.3,386.6,773.3,383.5z"/>
<path d="M818.9,353.8c-0.7-3.5-1.1-8.1-1.1-13.7c0-16,3.1-30,9.4-42c6.2-12,15-21.2,26.2-27.6c11.2-6.4,24.2-9.7,39-9.7l6.9,0.3
	l-4.1,1.9c0.6,0,3.1-0.3,7.5-0.9c2.3-0.6,4.5-0.9,6.6-0.9c13.7,0,22,1.8,24.7,5.3l0.3,8.1c0,2.5-0.4,6-1.2,10.6
	c-1,3.7-1.6,7.4-1.6,10.9c-9,0-19-3.4-30.3-10.3h-26.8c-1.9,0-4.5,1.6-7.8,4.8c-3.3,3.2-6.5,7.1-9.5,11.7c-3,4.6-4.9,8.7-5.8,12.5
	c-0.2,1.2-0.6,3.7-1.1,7.3c-0.5,3.6-1.5,6.4-3,8.3c2.1,12.3,5,21.9,8.9,28.7c3.8,6.9,10.6,13.3,20.1,19.4v2.2c2.1,0,4.8,0.2,8.1,0.6
	c2.9,0.6,5.6,0.9,8.1,0.9c7.5,0,14.3-0.5,20.4-1.6c6.1-1,11.9-3.1,17.3-6.2c0.4,1.7,1.5,5.1,3.3,10.3c1.8,5.2,2.7,9.3,2.7,12.2
	c0,3.5-2,5.9-6.1,7c-4.1,1.1-9.6,1.7-16.7,1.7c-12.7,0-24-0.5-33.9-1.4c-9.9-0.9-19.5-3.5-28.9-7.8c-9.4-4.3-16.2-10.9-20.6-19.8
	c-0.4-0.8-0.8-2.1-1.1-3.9c-0.3-1.8-0.7-3.1-1.2-4.1c-0.5-0.9-1.7-1.5-3.6-1.7C821.3,361.7,819.6,357.3,818.9,353.8z M832.6,361.3
	c3,7.5,5.3,11.2,6.7,11.2l7.8-5.6l0.3-0.9c0-3.3-1-7.7-3-13.3c-2-5.5-4.2-9.2-6.7-11.1l1.6-1.6c-0.2-0.8-0.3-2.2-0.3-4.1
	c0-8.1,1.2-17.2,3.7-27.2c2.5-10,5.3-15,8.4-15c2.1-4.6,4.5-8,7.3-10.3c2.8-2.3,5.7-3.8,8.6-4.5c2.9-0.7,6.9-1.4,11.9-2
	c8.5-0.4,15.3-2,20.3-4.7c-1-0.2-2.3-0.5-3.9-0.9c-1.6-0.4-2.9-0.6-3.9-0.6c-5.4,0-12.2,1.1-20.4,3.4c-8.2,2.3-14.8,4.9-19.8,7.8
	c-5,2.9-10.2,10.6-15.6,23.1c-1.2,3.3-3.1,10.6-5.6,21.9c-2.3,9.8-3.6,14.7-4.1,14.7C827.3,347.2,829.6,353.8,832.6,361.3z
	 M847.4,378.5c1.9,0,3.2-0.4,4.1-1.2c0.8-0.8,1.9-2.4,3.1-4.7c0-0.4-0.4-1-1.2-1.9c-0.8-0.8-1.6-1.4-2.2-1.6l-0.9-0.3
	c-1.2,0-2.8,1-4.5,3.1c-1.8,2.1-2.7,3.3-2.7,3.7C843.1,377.5,844.5,378.5,847.4,378.5z M859,388.1c1.7,0,3-0.4,3.9-1.2
	c0.9-0.8,2.1-2.4,3.6-4.7c-0.2-1-0.6-1.7-1.2-1.9c-0.6-0.2-1.6-0.3-2.8-0.3c-2.1,0-4.2,0.4-6.4,1.2c-2.2,0.8-3.3,2.1-3.3,3.7
	C852.7,387.1,854.8,388.1,859,388.1z M868.5,393c1.3,0.5,2.5,0.8,3.6,0.8c0.6,0,1.4-0.2,2.3-0.6c0.9-0.4,1.5-0.8,1.7-1.2
	c0-1.7-0.3-2.8-0.8-3.3c-0.5-0.5-1.5-0.8-3-0.8c-4,0-5.9,1-5.9,3.1C866.5,391.8,867.2,392.5,868.5,393z M882.6,391.3
	c-1.4,0.6-2.1,1.5-2.3,2.5L893,395c-0.2-1-1.1-2.1-2.8-3.1c-1.7-1-2.9-1.6-3.7-1.6C885.2,390.3,883.9,390.6,882.6,391.3z
	 M897.9,394.5c0.5,0.7,1.2,1.1,2,1.1c1.2,0,2.5-0.4,3.9-1.1c1.4-0.7,2.3-1.6,3-2.7h-9.7C897.1,392.9,897.3,393.8,897.9,394.5z
	 M908,278.2l12.2,3.7v-8.1l-6.6-0.9C909.9,275.2,908,277,908,278.2z M915.8,390.3c-2.1,1-3.7,2.8-5,5.3l2.8,0.3
	c3.1,0,5.6-0.5,7.3-1.6c1.8-1,2.7-3,2.7-5.9C920.5,388.7,917.9,389.3,915.8,390.3z"/>
<path d="M1084.9,322.1c2.1,38.6,3.1,64.3,3.1,77c-1,3.7-3.5,6.1-7.5,7.2c-4,1-9.2,1.6-15.6,1.6c-4.4,0-7.3-0.7-8.7-2.2
	c-1.5-1.5-2.2-4.3-2.2-8.4l0.3-9.1c-0.8,0.6-2.9,2.9-6.2,6.7c-3.3,3.9-8.1,7.1-14.4,9.7c-6.2,2.6-14.8,3.9-25.6,3.9
	c-15.2,0-26.8-6.4-35-19.2c-8.1-12.8-12.8-28.1-14-46l-2.2-23.1V316c2.5-12.5,3.7-19.5,3.7-20.9c0-2.5-0.3-6.2-0.9-11.2l-0.6-10
	v-3.1c0-3.1,0.6-6.3,1.7-9.5c1.1-3.2,3.1-4.8,5.8-4.8l19.4,2.2c1.5,0,2.5,2.1,3.3,6.4c0.7,4.3,1.1,8.4,1.1,12.3
	c0,4.6-0.2,9.2-0.6,13.7l1.9,1.9l-0.3,35.6c0,12.5,0.8,22.2,2.5,29c1.7,6.9,5,12,10,15.5c5,3.4,12.6,5.2,22.8,5.2
	c7.9,0,14.3-0.7,19-2.2c4.8-1.5,8.6-4.7,11.6-9.7l0.3-11.2c0-7.5-0.4-18.7-1.2-33.7c-1-12.5-1.6-23.8-1.6-34c0-4,0-8.1,0.2-12.3
	c0.1-4.3,0.3-7.2,0.5-8.9l3.4-1.9h21.5C1081.3,264.2,1082.8,283.5,1084.9,322.1z M966,325.7c0,7.7,0.8,11.6,2.5,11.6l10-9.4v-2.2
	H966z M971.8,303.5c-1.8,0.4-3.1,1.6-3.9,3.4c-0.8,1.9-1.2,4.9-1.2,9.1c3.3-2.3,6.4-4.7,9.4-7.3c2.9-2.6,4.4-4.5,4.4-5.8
	C976.4,302.9,973.5,303.1,971.8,303.5z M966.6,346.9h17.5c0.2,0,0.6-0.7,1.1-2c0.5-1.4,0.8-2.5,0.8-3.6c0-2.5-0.3-4.8-0.9-6.9
	c-0.2-0.8-0.4-1.8-0.6-2.8c-0.2-1-0.3-2.3-0.3-3.7C978.7,332.7,972.8,339,966.6,346.9z M968.5,295.4c0,2.1,0.6,3.2,1.9,3.4
	c0.6-1.9,1.7-3.6,3.3-5.2c1.6-1.6,2.4-2.4,2.7-2.7c2.1-2.1,3.6-3.8,4.5-5.2c0.9-1.4,1.4-3.1,1.4-5.2c0-4.2-0.5-6.3-1.6-6.4
	c-1-0.1-1.6-0.4-1.6-0.8c0-0.8,0.4-2.4,1.2-4.7c0-2.1-4-3.1-11.9-3.1v11.9l1.6,7.2c0,0.8-0.3,2.1-0.8,3.9c-0.5,1.8-0.8,3.5-0.8,5.2
	V295.4z M983.8,307.6c-1,0-4.4,2.2-10,6.6c-2.7,2.3-4.5,3.6-5.3,4.1v1.9l10.9,1.6c0.6-0.2,1.4-0.6,2.3-1.1c0.9-0.5,1.7-0.8,2.3-0.8
	v-11.6C984.1,307.8,984,307.6,983.8,307.6z M969.3,364.1c0.5,1.7,2,2.5,4.5,2.5c3.3,0,6.5-0.7,9.5-2c3-1.4,4.5-3.4,4.5-6.1
	c0-1.2-0.2-2.2-0.6-2.8c-0.4-0.6-1.5-0.9-3.1-0.9c-0.6,0.2-1.9,1.5-3.7,3.7c-1.9,2.3-3.2,4.3-4.1,5.9l-3.7-1.9
	c4.4-5,6.9-8.8,7.5-11.5c-1.5,0.2-3.3,0.3-5.5,0.3s-3.7,0.3-4.7,0.9c-0.9,0.6-1.4,2-1.4,4.1C968.5,359.8,968.7,362.4,969.3,364.1z
	 M991.6,393.1l11.6-5.6v-1.9h-3.7v-4.1h-17.5v-2.2l4.1,0.3c5,0,7.5-1.2,7.5-3.7c0-0.6-0.2-1.4-0.6-2.2c-0.4-0.8-0.8-1.5-1.2-1.9
	L986,376c0-1.2,0.3-2.8,0.9-4.7c0.6-1.9,0.9-3.5,0.9-5c-0.6,0.4-2.5,1-5.6,1.7c-3.1,0.7-5.6,1.5-7.3,2.3c-1.8,0.8-2.7,2.1-2.7,3.7
	l0.3,1.9l9.4,13.4C986.9,390.8,990.1,392.1,991.6,393.1z M981.1,299.8c1.4-0.6,2-2.5,2-5.6c0-0.8-0.4-2.5-1.2-5
	c-5.6,4.8-8.7,8.6-9.4,11.6C976.9,300.7,979.8,300.4,981.1,299.8z M1051.5,385.6l-4.1-0.3c-2.3,0-4.1,0.1-5.3,0.3
	c-1.2,0.2-2.7,0.8-4.4,1.9h-28.7c-0.8,0-2.9,1-6.1,3c-3.2,2-5.7,3.6-7.3,4.8c3.1,2.5,9.2,3.7,18.1,3.7c1.9,0,3.4-0.2,4.7-0.6
	c1.2-0.4,2.6-1.5,4.1-3.1v4.4c6,0,10.5-0.6,13.3-1.9s5.5-4.1,8-8.4l2.2,1.9L1051.5,385.6z M1078.4,371.9c-0.2-1-0.6-2.3-1.2-3.7
	c-0.6-1.5-1-2.2-1.3-2.2c-1.7,0-3.2,0.7-4.7,2.2c-1.5,1.5-2.3,2.2-2.5,2.2c0,0.8,0.2,1.6,0.6,2.3c0.4,0.7,0.9,1.2,1.6,1.4
	c-1.9,2.9-4.1,5.3-6.7,7.2c-2.6,1.9-4.4,2.8-5.5,2.8c0,1.2,0.3,2.1,0.9,2.5c0.6,0.4,1,0.7,1.2,0.9l11.6-7.8v-5
	c0.8,0,1.7,0.2,2.5,0.6c0.8,0.4,1.5,0.6,1.9,0.6C1077.8,376,1078.4,374.6,1078.4,371.9z M1064.9,311.3c-1.5,0.8-2.2,1.5-2.2,1.9
	c0,1,0.3,2.2,0.9,3.4c0.6,1.2,1.4,1.9,2.2,1.9c2.5,0,4.9-2.3,7.2-6.9c2.3-4.6,3.4-8.2,3.4-10.9c0-0.6-0.3-1.4-0.8-2.2
	c-0.5-0.8-1-1.2-1.4-1.2l-9.4,9.4l-0.3,0.6c0,0.8,0.4,1.5,1.2,2c0.8,0.5,1.8,0.8,2.8,0.8C1067.6,310.1,1066.4,310.5,1064.9,311.3z
	 M1068.4,288.9c0,0.4-0.9,1.6-2.7,3.4c-1.8,1.9-2.7,3.7-2.7,5.6c0,0.4,0.2,1,0.5,1.7c0.3,0.7,0.8,1.1,1.4,1.1
	c4.6-2.7,7.3-5.3,8.3-7.6c0.9-2.4,1.4-7.1,1.4-14.2c0-2.3-0.3-4.1-0.9-5.3c-0.6-1.2-2-1.9-4.1-1.9l-4.7,0.3l-1.9,14.4
	C1066.6,287.2,1068.4,288,1068.4,288.9z M1076.5,396.9v-1.6l-13.1,2.2l2.8,2.8L1076.5,396.9z M1067.6,329.3c0.7,1.4,1.8,2,3.3,2
	c-2.9,0-4.7,1.4-5.3,4.1c-0.6,2.7-0.9,6.1-0.9,10.3c3.1,0,5.8-1.2,8-3.7s3.3-5.3,3.3-8.4h-3.4c1.7-1.2,2.6-3.4,2.8-6.4
	c0.2-3,0.3-6.6,0.3-10.8c-2.7,0-4.9,1-6.6,3.1c-1.7,2.1-2.5,4.5-2.5,7.2C1066.5,327.1,1066.9,327.9,1067.6,329.3z M1078.4,386.9
	c0-1.9-0.2-3.3-0.5-4.2c-0.3-0.9-1-1.4-2-1.4c-2.3,0-4.6,1.1-7,3.4c-2.4,2.3-3.7,4.5-3.9,6.6l5.3,0.3
	C1075.7,391.6,1078.4,390,1078.4,386.9z M1066.5,360.4v2.2c0,2.3,0.7,3.5,2.2,3.7c4-4,5.9-6.1,5.9-6.6c0-0.6-0.7-1.3-2.2-2
	c-1.5-0.7-2.7-1.1-3.7-1.1C1067.2,356.6,1066.5,357.9,1066.5,360.4z M1075.6,351.8c1-0.9,1.6-3.4,1.6-7.3c-2.1,0-4.1,0.9-5.9,2.7
	c-1.9,1.8-2.8,3.8-2.8,6.1C1072.1,353.2,1074.5,352.7,1075.6,351.8z"/>
<path d="M1148.3,465.3c-1.5,0-2.8,0.2-4.1,0.6c-1.3,0.4-2.1,0.7-2.5,0.9c-2.1,1-4.2,1.6-6.2,1.6c-2.7,0-4.1-0.8-4.1-2.5V395
	c0-2.1-0.3-4.4-0.8-7c-0.5-2.6-0.8-4.2-0.8-4.8c0-3.1,0.3-7.6,0.9-13.4l0.6-13.4c0-5.8-0.3-10.7-0.9-14.7
	c-0.6-9.4-0.9-16.7-0.9-21.9c0-10.8,0.1-17.3,0.3-19.4l-2.2-1.6c0.4-1.9,0.8-4.2,1.2-6.9c0.4-2.7,0.7-5,0.9-6.9
	c0-0.4-0.7-4.3-2.2-11.6c0-5.2,0.9-8.4,2.8-9.7c1.9-1.2,5.8-1.9,11.9-1.9c3.7,0,6.2,0.1,7.5,0.3c1.2,0.2,2.4,0.9,3.4,2.2
	c1,1.2,2.2,2.9,3.4,5c6.9-3.5,14.1-6.6,21.7-9.2c7.6-2.6,14.4-3.9,20.4-3.9c21,0,37.5,6.1,49.5,18.4c12,12.3,18,28.4,18,48.4v13.7
	c0,13.5-1.2,23.2-3.7,29c-1.5,3.5-4.6,8.3-9.5,14.4c-4.9,6-10,11.3-15.5,15.9c-5.4,4.6-10,6.9-13.7,6.9c5.2-4.6,7.8-7,7.8-7.2
	c0-0.2-0.1-0.3-0.3-0.3c-0.4,0-3,1.6-7.8,4.7l-9.1,5.9c-0.6,0.8-1.2,1.2-1.9,1.2c-0.6,0-1.9-0.4-3.7-1.1c-1.9-0.7-3.4-1.1-4.7-1.1
	c-3.1,0-6,1.7-8.7,5c-1.5-0.2-7.3-1.6-17.5-4.1c-0.8-2.1-2.8-3.6-5.9-4.5c-3.1-0.9-5.7-1.4-7.8-1.4c-1,0-2.6,0.3-4.5,0.8
	c-2,0.5-3,1-3,1.4v61.8c1.2,3.3,1.9,7,1.9,10.9c0,1.2-1.7,2.3-5,3.3c-3.3,0.9-8.5,1.4-15.6,1.4c-3.5,0-6.2-0.1-8.1-0.3v-5.9
	C1142.1,472.4,1148.3,469.6,1148.3,465.3z M1135.9,316.8c1.1,0.9,2,1.4,2.7,1.4c0.4,0,0.9-0.5,1.6-1.6c0.6-1,0.9-2,0.9-2.8h-7.5
	C1134,314.9,1134.8,315.9,1135.9,316.8z M1137,280c0.8,2,1.6,3.1,2.2,3.3c1.2-1,2.5-2.3,3.9-3.7c1.4-1.5,2-2.5,2-3.1
	c0-1.2-1-2.3-3-3.3c-2-0.9-3.5-1.4-4.5-1.4c-0.4,0.2-0.9,0.7-1.4,1.6c-0.5,0.8-0.8,1.6-0.8,2.2C1135.7,276.5,1136.2,278,1137,280z
	 M1142,459.3c0.4,0.4,0.8,0.7,1.2,0.9c3.9,0,5.9-1.1,5.9-3.4c0-2.5-0.2-5.2-0.5-8.1c-0.3-2.9-0.5-5.1-0.5-6.6
	c-0.8-6.7-1.2-11.7-1.2-15c0-4.8-2.3-7.2-6.9-7.2c-0.8,0-1.7,0.4-2.7,1.1c-0.9,0.7-1.6,1.2-2,1.4h5.6c-1,1-1.9,2.2-2.7,3.4
	c-0.7,1.2-1.1,2.2-1.1,2.8c0.4,1.7,1.5,4.1,3.1,7.3c1.7,3.2,2.6,4.9,2.8,5.2l-2.2,1.6v15.6C1141.3,458.6,1141.6,458.9,1142,459.3z
	 M1139.2,372.7c-1.5,0.5-2.2,1.2-2.2,2l0.3,0.9c0.4-0.2,1.6-0.6,3.6-1.1c2-0.5,3.4-1.4,4.2-2.7h-0.9
	C1142.3,371.9,1140.7,372.2,1139.2,372.7z M1138.4,358.3c-0.7,1.4-1.1,3.3-1.1,5.8c2.5-1.5,4.1-2.8,4.8-4.1c0.7-1.2,1.1-3.1,1.1-5.6
	C1140.8,355.7,1139.2,357,1138.4,358.3z M1139.2,287h7.8v-4.4C1144.3,282.6,1141.7,284.1,1139.2,287z M1139.2,396.9l5.3,0.3
	c3.1,0,4.7-1.1,4.7-3.4c0-1-0.4-2.2-1.2-3.6c-0.8-1.4-1.8-2.3-2.8-3C1141.8,388.9,1139.8,392.1,1139.2,396.9z M1141.9,407.3
	c0.7,1.3,1.4,2.4,2,3.1c0.6,0.7,1.7,1.2,3.1,1.4c1.7-1.7,2.5-4,2.5-6.9c-3.5,0-5.6-0.8-6.2-2.5c-0.2,0-1.6,0.6-4.1,1.9
	C1140.3,405,1141.1,406,1141.9,407.3z M1154.8,361.9c0-0.6-0.2-1.6-0.5-2.8c-0.3-1.2-0.9-1.9-1.7-1.9c-0.6,0-1.2,0.3-1.9,0.9
	l-7.5,7.8C1151,366,1154.8,364.6,1154.8,361.9z M1145.1,336.9h1.9v-3.7L1145.1,336.9z M1149.4,313.4c1.4,1.4,2.4,2.2,3.3,2.7
	c1.5-0.8,2.7-2.8,3.6-5.8c0.9-3,1.7-4.9,2.3-5.8h-7.8l1.9-1.9l-0.9-0.3c-1.2,0-2.3,1-3.3,3c-0.9,2-1.4,3.6-1.4,4.8
	C1147.2,310.9,1148,312,1149.4,313.4z M1156.7,296.7c4.4,0,8.4-1.5,12-4.5c3.6-3,7.5-7.2,11.7-12.6c2.7-3.3,4.8-5.8,6.4-7.3
	c1.6-1.6,3.1-2.4,4.5-2.7c0,0.2-0.3,0.8-0.9,1.9c-0.6,1-0.9,1.8-0.9,2.2c0,0.4,0.3,1.1,0.8,2c0.5,0.9,0.9,1.5,1.1,1.7
	c2.3-1.2,4.3-2.2,5.9-2.8c4.2-1,7.3-3.2,9.4-6.6c-1.7-1-3.2-1.7-4.5-2c-1.4-0.3-3.2-0.5-5.5-0.5c-7.1,0-12.8,1-17.2,3.1
	c-4.4,2.1-8.7,5.7-13.1,10.9l0.6,0.3c0.6,0,1.4-0.3,2.3-0.9c0.9-0.6,1.9-1.1,3-1.6l0.3,0.9c0,1.5-1,3.1-3.1,4.8
	c-2.1,1.8-5.1,3.8-9.1,6.1c-4.6,2.9-7.2,4.8-7.8,5.6C1153.5,296,1154.8,296.7,1156.7,296.7z M1168.7,369.9
	c8,9.1,18.8,13.6,32.3,13.6c6.9,0,12.7-0.6,17.5-1.9c4.8-1.2,8.4-4,10.9-8.1c-0.6-0.2-1-0.7-1.2-1.4c-0.2-0.7-0.3-1.5-0.3-2.3
	c0-1,0.3-2,0.8-3c0.5-0.9,1.3-1.4,2.3-1.4c0-1.9,0.8-4.3,2.5-7.2c0.2-0.4,0.6-1.3,1.2-2.7c0.6-1.4,0.9-2.7,0.9-3.9
	c0-1-0.3-2.5-0.9-4.5c-0.6-2-0.9-3.5-0.9-4.5c0-0.6,0.4-1.5,1.1-2.5c0.7-1,1.2-1.7,1.4-1.9c0-0.6-1.1-2.2-3.4-4.7
	c-2.3-2.5-3.4-4.2-3.4-5c0-0.8,0.4-1.9,1.1-3.3c0.7-1.3,1.1-2.2,1.1-2.7c-0.4-0.6-1.1-2.1-2.2-4.4c-1-2.3-1.6-3.7-1.6-4.4v-5.3
	c0-1.9-0.3-3.3-0.9-4.2c-0.6-0.9-1.7-2.1-3.1-3.6c-2.7-1.9-4.1-4.3-4.1-7.2c-1.9,0-4.5-0.9-7.8-2.7c-3.3-1.8-5.6-3.1-6.9-3.9
	l-11.9,1.9v-2.2c-1.2,0-2.7,0.5-4.2,1.6c-1.6,1-3.1,2.2-4.5,3.4c-3.7,3.3-6.7,5-8.7,5c-0.8,0-1.5-0.1-1.9-0.3l-5.6,8.1h-1.9
	c-1.5,0-3.5,4.3-6.1,13c-2.6,8.6-3.9,14.9-3.9,18.9C1156.6,349.6,1160.7,360.8,1168.7,369.9z M1162,378.1c0.4-0.8,0.6-1.5,0.6-1.9
	c-0.4-1.5-1.2-2.5-2.5-3.3c-1.2-0.7-2.4-1.1-3.4-1.1l3.7,7.5C1161.1,379.4,1161.6,379,1162,378.1z M1172.3,398.8h7.5v-2.8
	C1175.2,395.9,1172.7,396.9,1172.3,398.8z M1198.5,396.9c-1.7-1-3.2-1.6-4.7-1.6c-2.9,0-4.7,1.7-5.3,5h14.4
	C1201.7,399.1,1200.2,397.9,1198.5,396.9z M1215.1,395h-6.6l3.7,3.7C1214.1,397.7,1215.1,396.5,1215.1,395z M1214.9,270.8
	c-0.7,0.8-1.1,1.8-1.1,2.8h6.6c0-1-0.3-2-0.8-2.8c-0.5-0.8-1.3-1.2-2.3-1.2C1216.4,269.5,1215.6,269.9,1214.9,270.8z M1241.6,289.5
	c-0.8,0.6-1.6,1.8-2.2,3.4l3.7,0.3h0.9c2.9,0,4.6-0.8,5-2.5c-0.6-1-1.2-1.7-1.7-1.9c-0.5-0.2-1.3-0.3-2.3-0.3
	C1243.6,288.5,1242.4,288.9,1241.6,289.5z M1243.2,312c7.7,0,11.6-1.7,11.6-5c0-0.4-0.2-1.1-0.5-2.2c-0.3-1-0.8-1.8-1.4-2.2
	c-2.7,1-5.6,2.4-8.7,4.1c-3.1,1.7-4.7,2.8-4.7,3.4C1239.4,311.3,1240.7,312,1243.2,312z M1250.7,344.6c2.1,0.9,3.4,1.6,4.1,2h0.9
	c1,0,1.8-2.4,2.3-7.3c0.5-4.9,0.8-8.8,0.8-11.7c0-1.7-0.4-3.4-1.1-5.3c-0.7-1.9-1.7-2.8-3-2.8c-2.5,2.5-4.6,4.1-6.4,4.8
	c-1.8,0.7-3,1.3-3.6,1.7c-0.6,0.4-0.9,1.3-0.9,2.5h10.3c0,0.2,0.1,0.7,0.3,1.4c0.2,0.7,0.3,1.6,0.3,2.7c0,1.5-0.9,3.2-2.7,5.3
	c-1.8,2.1-3.4,3.6-4.8,4.7C1247.4,343,1248.6,343.7,1250.7,344.6z M1255,357.2l-0.3-2.8c-1.2,0.4-2.9,1.2-5,2.3
	c-2.1,1.1-3.6,2.3-4.7,3.6l5.9,5.6C1253.7,364.1,1255,361.2,1255,357.2z M1248.5,376.6c0,1,0.2,2,0.6,2.8l3.7-3.7l-3.4-0.3
	C1248.8,375.5,1248.5,376,1248.5,376.6z"/>
<g>
	<g>
		<path class="st0" d="M530,120c1.2,0.3,2.3,0.1,3.2,0.4c1.5,0.6,4.3,1.6,4.3,2.4c0.1,3.3,2.2,4.6,4.4,6.4
			c4.3,3.8,9.2,7.3,10.2,13.7c0.3,1.7,1.5,2.2,3,1c1.6-1.2,3.3-2.3,4.7-3.6c0,0,0.1-0.1,0.1-0.1c1.4-1.3,3.7-1.3,5,0.2
			c1.3,1.2,2.6,2.5,3.9,3.7c0.8-1.7,1.7-3.4,2.7-5.1c0.5-0.8,0.9-1.9,1.9-2.1c1-0.3,2.7-0.6,3.2,0c3,3,5.7,6.3,8,9.8
			c1.4,2.4,3.5,5.6,0.8,8.5c-4.3,4.4-3.7,9-0.9,13.8c0.3,0.5,0.9,0.9,1,1.4c1.3,5.3,4.7,7.8,10.2,8.2c0.9,0.1,1.8,0.4,2.6,0.9
			c2.6,1.7,3.4,5.1,1.8,7.8c-1.9,2.6-4.2,5-6.7,6.9c-2.9,2.5-3.5,6.8-1.3,10c1.3,1.8,2.6,3.6,4.1,5.3c1.6,1.7,2.3,4,1.9,6.3
			c-0.1,1.6,0.7,3.2,2,4.1c3.1,1.7,6.6,2.6,9.7,4.4c2.5,1.4,4.6,3.7,3.7,6.9c-0.6,2.3-1.6,4.5-2.9,6.4c-2.6,3.5,0.3,9.9,2.9,11.8
			c3,2.6,5.9,5.4,8.5,8.4c1.1,1.4,2.4,2.6,3.8,3.6c2.4,1.3,3.6,3.3,2.6,5.4c-1.3,2.8-3.3,5.4-5.6,7.5c-1.8,1.3-2.7,3.5-2.3,5.7
			c0.5,2.9,1.5,5.7,3,8.3c2.1,3.7,2.4,7.8,0.1,9.9c-1.8,1.8-3.7,3.4-5.7,4.9c-2.8,2-2.8,3.7,0.2,5.9c2.7,1.8,5.1,3.9,7.2,6.3
			c2.5,2.9,2.4,7.3-0.4,10c-1.4,1.5-2.7,3.1-3.9,4.7c-1.9,2.6-4.1,5.1-6.6,7.3c-1.6,0.8-3.5,1-5.2,0.4c-3.3-1.1-4.1-0.8-4.6,2.7
			c-0.6,4.2-1.2,7.6-5.3,11c-3.5,3-5.3,3.6-8.7,1.2c-0.8-0.7-1.7-1.3-2.7-1.7c-1.5-0.4-3.6-1.4-3.4,1.7c0.1,3.6,0.5,7.3,0.5,10.9
			c0,1.8-0.2,3.6-0.6,5.4c0,0.4-1,0.6-1.5,0.8c-0.3-0.5-0.5-1-0.6-1.5c0.2-1.4,0.5-2.7,0.6-4.1c-0.1-0.7-0.6-1.3-0.9-2
			c-0.3,0.4-0.6,1-1.1,1.3c-1.1,0.8-2.4,1.3-3.7,1.5c-2.8-0.1-6.1-1.8-8.3-0.8c-3.4,1.6-6.2,0.4-9.2-0.1c-0.8,0-1.5,0.1-2.3,0.2
			c-6.3,1.2-10.2-0.8-13-6.9c-0.9-3-3.8-5-6.9-4.8c-4.3,0-8.4-1.5-11.6-4.3c-1.5-1.3-3-1.6-4.5,0c-1.4,1.6-3.6,2.2-5.6,1.5
			c-1.9-0.5-3.5,0.3-3.8,2.3s-0.4,4.3-0.9,6.3c-0.7,3.9-1.6,7.6-2.2,11.4c-1.4,11.7-2.7,23.4-4,35.1c-0.1,1.7-0.9,3.1-2.3,2.9
			c-2.2-0.2-4.2-1.1-5.9-2.4c-0.7-0.7,0-3.2,0.2-4.8c0.1-0.7,0.2-1.3,0.4-2l4.7-35c0.4-2.8,0.5-5.6,1.1-8.5c0.8-3.8,0.7-7-3.4-9.1
			c-1-0.6-1.5-2.8-1.8-4.4c-0.3-3.1-0.1-6.3-0.7-9.4c-1.2-5.6-2.9-11-4.5-16.5c-0.6-1-1.3-1.9-2.2-2.6c-0.4,1.2-1.2,2.5-1,3.5
			c1.7,6.6,3.6,13.1,5.4,19.6c0.8,3-0.2,4-3.1,4.6c-4.4,1-9.4-0.6-13.2,3.5c-1.7,0.9-3.7,1-5.4,0.1c-3.3-2-6.2-4.6-8.4-7.8
			c-1.7-2.9-3.4-2.2-5.2-1.6c-2.6,0.9-5.1,2.1-7.4,3.6c-5.9,3.2-8.7,3.1-13.5-1.6c-2.8-2.9-5.2-6.4-8-9.5
			c-3.3-3.7-6.6-7.3-10.1-10.8c-2.1-2.2-1-3.4,1-4.5c3.1-1.7,6.3-3.4,9.3-5.2c0.2-0.1,0.2-1.2,0-1.3c-2.2-0.5-4.4-0.9-6.7-1.1
			c-2.5-0.2-5.8,0.2-5.6-3.2c0.3-5,1.1-9.9,2.3-14.8c0.6-2.5,1-4-2-5.3c-4.5-1.9-8.9-4.2-11.2-8.9c-2.7-5.2-2.4-6.8,2.8-7.8
			c0.2,0,0.3-0.7,0.4-1c-1.1-3.2-2.3-6.5-3.1-9.9c-1-4.4,0.4-7.6,3.7-8.7c5.4-1.9,10.9-3.5,16.4-4.7c3.3-0.6,3.1-2.2,2.4-4.1
			c-1.2-3.2-2.7-6.4-4.1-9.6c-0.7-1.6-2.1-3.1-2.3-4.7c-0.1-2.3-0.1-5.2,1.2-6.6c1.9-2.1,5-2.4,7.3-0.8c0,0,0.1,0,0.1,0.1
			c1.9,1.6,4.8,1.2,6.3-0.7c3.6-3.5,7.6-6.6,11.8-9.4c2.4-1.1,3.8-3.5,3.6-6.1c0-4.4,0.2-8.9-0.2-13.3c-0.6-5.8,1.8-10,7.2-11.2
			c2.9-0.6,5.9-0.7,8.8-0.4c9.2,1,9.2,1.2,10.4-7.9c0,0,0,0,0,0c0.1-2.5,2.1-4.4,4.6-4.4c2.6-0.2,5.1-1.1,7.3-2.5
			c6.4-4.9,12.2-10.3,18.2-15.5c0.7-0.9,0.8-2.1,0.4-3.2c-2.8-4.4-3-6.6,0-10.6c1.8-2.3,4.7-3.7,6.1-6.2
			C520.4,117.8,524.9,118.2,530,120 M435.5,306.9c-0.7,0.4-1.3,0.9-1.8,1.4c-0.8,1.3-2.8,3.4-2.5,3.8c1.3,1.9,3,4.1,5,4.6
			c4.1,0.8,8,1.4,10.5,5.4c1.2,0.7,2.7,0.8,4,0.3c4.2-2.6,8.5-1.1,12.6-0.3c2,0.4,2.5,0.3,2.8-1.5c0.3-2.3,0.8-4.6,0.9-6.9
			c0.1-3.2,2.2-4.5,4.8-3.8c3.1,0.7,5.9,2,8.5,3.9c4.5,3.5,7.2,2.8,8.6-2.9c1.2-4.8,1.2-5.8,7.8-3.5c0.7,0.3,1.5,0.4,2.3,0.3
			c4.7-1.5,9.8-1.5,14.5-0.1c0.1,0,0.2,0,0.3,0c4.1,0.5,7.8-2.5,8.3-6.6c0.3-1.4,1-2.8,1.2-4.1c0.2-3.9,1.6-2.7,3.4-1
			c1.4,1.4,2.5,3.1,4,4.4c2.7,2.6,5.6,4.9,8.6,7c1.9,1.2,4.7-2.3,4.5-5.2c-0.3-6.8-0.7-13.5-0.9-20.2c-0.1-5.7,3.6-6.6,8.9-5.1
			c1.5,0.5,3,1.1,4.5,1.8c4.3,1.8,6.1,0.1,6.1-4.6c0-2.3-0.5-5.4,3.3-6.4c0.7-0.2,1.1-3.1,1-4.6c0-5.6-1-11.3-0.5-16.9
			c0.6-6.6,2.6-7.8,9.4-7.2c2.6,0.2,5.2,0.7,7.9,1.1c3.4,0.4,10.1-4.1,10.1-7.3c0.1-5.4-0.4-10.7-0.7-16c0-4.6-2.2-8.9-6-11.5
			c-2.2-1.5-2.7-4.4-1-7.7c2.4-4.6,6.5-7.1,10.2-10c1.9-1.5,1.6-2.9-0.2-3.3c-8.2-2.1-12.4-7.8-14.8-15.4c-0.5-1-1.2-1.9-1.6-3
			c-1.7-3.1-1.2-7,1.3-9.5c2-2,2.4-5.2,0.8-7.6c-1.5-2.6-3.3-5-5.3-7.2c-0.2-0.3-1.9,0-2.1,0.4c-1.1,2.1-2,4.3-3,6.4
			c-0.6,1.1-1.3,2-2,3c-0.4-0.7-0.8-1.5-1.2-2.2c-0.2-0.3-0.4-0.6-0.6-0.9c-1.7-1.6-4-4.8-4.9-4.5c-3,1.5-5.7,3.3-8.2,5.5
			c-0.7,0.5-1.4,1.1-2,1.7c-0.4-0.7-0.7-1.3-0.9-2c-2-6.7-5.7-12.7-10.8-17.4c-2.2-1.9-3.4,0.3-5.2,0.6c-0.5,0.1-1,0.3-1.5,0.4
			c-0.1-0.7-0.4-1.3-0.4-1.9c2.1-7.4,2-7.3-5.4-8.4c-3-0.4-5.3-0.3-7.4,2.3c-2.3,2.2-4.7,4.3-7.3,6.3c-2.3,2.2-1.8,4.4,0,6.8
			c3.3,4.3,3,4.9-1.1,8.4c-5.1,4.3-10,8.9-15,13.3c-3.1,3-7,4.9-11.3,5.5c-0.8,0.1-2,1.7-2.4,2.9c-0.1,1.3-0.1,2.7,0,4
			c-0.8,5.9-5.1,8-10.8,5.7c-3.7-1.4-7.8-1.3-11.4,0.1c-3.4,1.2-3.4,4.2-3.5,6.9c-0.1,5.8,0.5,11.7,0.3,17.6
			c-0.2,1.8-1.3,3.3-2.8,4.1c-6.2,2.1-9.8,7.5-14.6,11.2c-2.3,1.7-4.5,2.9-7.3,1.3c-0.5-0.3-1-0.5-1.5-0.6l-4.5-0.4
			c-0.1,1.6,0.1,3.3,0.5,4.8c1.8,4.4,4.2,8.5,5.8,12.8c1.9,5.4,1.4,7.5-4.8,8.5c-5.3,1-10.4,2.9-15.6,4.2c-0.3,0-0.5,0.1-0.8,0.2
			c-1.7,0.7-2.5,2.6-1.8,4.2c1.2,3.8,2.9,7.5,4.2,11.3c0.5,1.6,2.3,4-1.9,3.4c-1.1-0.1-2.2,0.8-3.3,1.3c0.7,1.4,1,3.3,2,3.9
			c4.1,2.6,8.4,4.8,12.9,6.7c2.2,0.9,2.9,1.2,1.5,3.7c-2.5,4.4-3.9,9.3-4.2,14.4c-0.2,3.1,0.8,4,3.9,3.7c4.3-0.6,7.4,2.2,10.8,4.1
			c0.1,0-0.5,1.2-0.7,1.9 M559.4,313.5c3.3,6.9,6.4,13.5,9.6,20c3.8,7.8,7.5,15.8,11.3,23.6c0.2,0.3,0.4,0.6,0.7,0.9
			c0.3-0.5,0.5-1,0.6-1.6c0.1-4.6-1.7-8.5-3.6-12.6c-8.5-18-16.8-36-25.2-54c-0.8-1.7-1.9-3.2-2.6-5c-0.2-1.1-0.3-2.2-0.1-3.3
			c0.9,0.7,2.2,1.2,2.7,2.1c1.7,3.1,2.9,6.3,4.5,9.5c5.6,12.2,11.2,24.4,16.9,36.7c2.2,4.7,4.4,9.5,6.7,14.2c0.2,0.5,1,0.7,1.5,1.1
			c0-0.7,0.4-1.7,0-2.1c-4.3-6.4-5.6-13.9-8.5-20.8c-2.6-6-6.2-11.5-9.2-17.8c-3-6.3-5.6-12.7-8.1-19.2c-1.6-3.7-5.4-5.8-9.3-5.3
			c-0.7,0.3-1.2,0.8-1.5,1.5c-0.5,3-1.1,5.9,2.5,7.9c1.3,1,2.3,2.4,2.8,4c2.8,6.7,5.4,13.5,8,20.3 M594.8,275.8
			c-4.4-9.1-8.5-17.8-12.7-26.5c-0.9-1.3-1.6-2.8-2.1-4.3c-0.4-2.6-2.2-1.8-3.6-2.2c0,1.1,0.2,2.1,0.6,3.1
			c3.8,8.1,8.1,16.1,11.4,24.4c3.4,7.4,6.1,15.2,7.9,23.2c1.4,8,6.1,15.3,9.5,22.8c2,4.4,4.5,8.6,6.6,13c0.3,0.6,0.1,1.2,0.3,2
			c0.2,0.9,0.6,1.7,0.9,2.6c0.8-0.5,1.5-1.2,2.1-2c1.5-2.1,1.7-4.7,0.7-7c-2.4-5.4-4.4-11-6.8-16.5c-4-8.9-8.2-17.8-12.3-26.8
			C596.5,279.7,595.7,277.8,594.8,275.8 M573,283.9c-2.4-4.5-4.5-8.7-6.7-12.7c-0.2-0.3-0.5-0.6-0.9-0.8c-0.1,0.3-0.2,0.6-0.3,0.9
			c-0.8,3.1,0.1,6.4,2.2,8.8c1.9,2.5,3.3,5.4,4.1,8.5c1.8,5.6,4.2,11.1,7.2,16.2c3.3,5.4,5.2,11.7,7.8,17.6c2.1,5,4.2,10.1,6.4,14.9
			c1.6,3.1,3.3,6.1,5.3,9c0.3,0.5,0.9,0.8,1.5,1.1c0.2-0.5,0.4-1,0.5-1.6c1.1-4.9,0.1-10.1-2.8-14.3c-3.1-5.4-5.8-11.1-8-16.9
			c-3.2-7-7.7-13.4-11.4-20.2C576,291,574.6,287.4,573,283.9 M609.6,281.5c1.5,4.2,2.9,8.1,4.2,12c0.1,0.4,0.2,0.9,0.1,1.4
			c-1.3,0.4-3.1,0.8-1.4,2.6c0.1,0.1,0.2,0.3,0.4,0.4c1.4,1.3,3.7,1.2,5-0.2c3.4-3,3.3-5.5-0.2-8.5c-0.6-0.5-1.2-1-1.6-1.7
			c-0.6-1-2.2-1.4-0.3-3.5c1.4-1.5,0.6-6.1-0.6-8.8c-4.5-9.4-9.6-18.4-14.6-27.6c-1.4-2.6-3-5.2-4.7-7.6c-0.5-0.7-1.8-0.9-2.6-1.3
			c-0.4,1.2-1.3,2.6-1,3.5c0.9,2.6,2.5,4.9,3.7,7.5c3.9,8.6,7.7,17.3,11.6,26C608.4,277.5,608.9,279.5,609.6,281.5 M569.8,359.6
			c0.7,0.3,1.4,0.6,2,1c0.7,0.3,1.5,0.5,2.3,0.7c0-0.7-0.2-1.4-0.4-2.1c-4.4-8.6-8.9-17.1-13.4-25.8c-4.5-8.5-9-17-13.6-25.4
			c-0.3-0.6-0.9-1-1.4-1.6c-0.2,0.6-0.8,1.4-0.7,1.9c0.5,1.9,1.3,3.7,2,5.5c2.3,6.5,4.3,12.9,6.7,19.2c1.5,4.3,3.4,8.4,5.2,12.6
			c1.6,3.7,3.5,7.3,4.9,11c0.9,2.4,1.7,4.1,4.6,2.8C568.5,359.3,569.1,359.6,569.8,359.6 M571.4,255.7c-0.1-0.6-0.4-1.2-0.8-1.7
			c-0.6-1-1.2-2.1-1.8-3.1c-0.3,1.4-0.4,2.8-0.3,4.2c0.3,5.5,3,9.9,5.7,14.6c5.5,9.7,9.8,20.1,14.6,30.1c3.5,7.1,7,14.2,10.6,21.3
			c1.6,3.2,3.1,6.6,5,9.7c0.5,0.9,1.8,1.4,2.8,2.1c0.2-1.2,0.2-2.4,0-3.5c-2.4-5.4-4.9-10.8-7.5-16c-5.4-11-10.8-22-16.2-32.8
			C579.5,272.3,575.4,264,571.4,255.7 M580.6,321.6c-6.2-12.4-12.1-24.5-18-36.5c-0.4-0.9-1.6-1.4-2.4-2.2c0,1.2,0.1,2.3,0.3,3.4
			c3.1,11.2,9.4,20.7,14.7,30.8c1.3,3,2.5,6,3.5,9.1c2.3,6.5,5,13,8.1,19.2c1.3,2.5,5.1,3.7,7.9,5.4c0.1,0,0.8-0.8,0.8-1
			c-0.5-1.3-0.9-3.4-1.8-3.8c-4.6-1.7-5.1-5.8-6.6-9.6C585,331.5,582.8,326.6,580.6,321.6 M522.8,318.4c3.7,9.5,7.1,18.6,10.3,27.7
			c0.7,2.1,2.9,3.3,5.1,2.7c0.9-0.2,2.4-0.5,1.6-2.6c-4.4-10.9-8.5-21.9-12.8-32.9c-0.7-2.1-1.7-4-2.7-5.9c-0.5-1-1.6-3-2,0.1
			c-0.3,2.1-0.5,4.1-0.5,6.2C521.9,315.2,522.3,316.8,522.8,318.4 M611.6,300.4c-2.7-6.7-4.7-12.9-7-19c-1.4-3.7-3-7.5-4.8-11.1
			c-3.4-7-6.9-14-10.4-20.9c-0.5-1.7-1.4-3.2-2.4-4.6c-0.9-1-2.7-1-4-1.5c0.2,0.9,0.5,1.8,0.8,2.7c3.3,7.2,6.6,14.3,9.9,21.5
			c5.2,11.4,10.4,22.9,15.7,34.3c0.6,0.9,1.3,1.7,2,2.5C611.5,302.9,611.5,301.6,611.6,300.4 M609.5,258.4l7.8,12.8
			c0.2,0.4,0.5,0.7,0.8,1.1c1.4-1.5,2.6-3.2,3.8-4.9c0.4-1,0.2-2-0.4-2.9c-2.6-2-5.1-4.2-7.4-6.5c-3.2-3.8-5.9-8-8.2-12.5
			c-3.2-6.9-5.5-14.2-8.3-21.2c-0.2-0.5-0.8-0.9-1.3-1.4c-0.2,1-0.4,2-0.4,3c0.3,5.7,1.9,11.2,4.7,16.2
			C603.8,247.5,606.6,253,609.5,258.4 M527.3,306.2c2,5.7,4.3,10.7,6.3,15.7c4.5,11,8.8,22.2,13.2,33.2c0.4,0.8,0.9,1.6,1.6,2.2
			c0.8,0.9,1.6,1.6,2.6,2.4c0-1.3,0.5-3-0.2-3.8c-2.4-3.3-2-6.8-2.8-10.7c-0.7-3.8-3.1-7.4-4.9-11c-3.3-6.3-6.9-12.4-9.8-18.8
			c-2.3-4.9-3.8-10.3-5.8-15.5c-0.2-0.5-0.9-1.2-1.4-1.2c-0.5,0-1.2,0.7-1.4,1.3C523.7,302.7,525.1,304.6,527.3,306.2 M575.2,352.9
			c-2.8-5.5-5-10.8-7.7-15.8c-7.2-13.8-13.5-28.1-18.9-42.7c-0.6-1.3-1.3-2.5-2.2-3.6c-0.1,1.4-0.3,2.9-0.3,4.2
			c0.2,8.8,5.5,15.6,9,23c4,8.3,8.9,16,13.3,24.1c2.7,5.3,5.1,10.7,7.7,16c0.5,0.6,1,1.1,1.7,1.6c0-0.9,0.5-1.9,0.2-2.6
			C577.2,355.7,576.1,354.3,575.2,352.9 M507.3,338.7c0.6,2.1,0.7,3.8,1.1,5.5c0.3,1,1,2.8,1.5,2.8c1.4-0.1,2.7-0.6,3.8-1.5
			c0.7-1,0.8-2.2,0.4-3.3c-3.1-8.7-6.3-17.3-9.5-25.9c-0.5-1.6-1.2-3.2-2-4.7c-0.4-0.8-1.5-1.1-2.3-1.6c-0.3,0.9-0.4,1.8-0.4,2.8
			c0.9,3.7,2,7.5,3.1,11.2C504.4,328.9,505.9,333.9,507.3,338.7 M580.6,258.8c-2.8-5.4-5.1-10.5-7.6-15.5c-0.6-0.6-1.5-0.8-2.3-0.6
			c-1.9,1.1-1.8,4.1-0.5,6c3.1,4.7,6,9.6,8.6,14.7c4.1,8.1,7.7,16.4,11.6,24.6c0.1,0.2,0.2,0.4,0.4,0.6l1.7,1.5
			c0.1-0.8,0.1-1.6,0-2.3c-2.2-5.9-4.6-11.6-7.1-17.6c-1.5-3.8-3.3-7.6-4.9-11.4 M520.8,338.4c1.5,2.1,3.2,4.1,5.1,5.8
			c0.3-0.6,1-1.4,0.8-1.9c-1.3-4.1-2.8-7.9-4.1-12c-1.9-5.5-3.6-11.2-5.4-16.8c-0.3-0.8-0.8-1.5-1.3-2.2c-0.3,0.9-1,1.9-0.9,2.6
			c0.6,2.9,1.1,5.7,1.8,8.6c1,4.2,2.2,8.3,3.2,12.5l0.8,3.5 M471.3,323.2c1.7,6.1,3.6,11.4,5.5,16.8c0.2,0.4,0.4,0.9,0.6,1.3
			c0.5-0.3,1.3-0.4,1.4-0.8c0.6-1.5,0.8-3,0.6-4.6c-1.7-6.9-3.6-13.7-5.7-20.5c-0.3-1-1.7-1.7-2.6-2.5c-0.5,1.1-1.6,2.1-1.5,3.1
			C470,318.5,470.6,320.9,471.3,323.2 M516.2,338.9c1.9,0.3,2.1,0,1.6-1.8c-0.9-4.1-2-8-3-12.2c-1.1-3.4-1.9-6.8-2.6-10.2
			c-0.7-3.2-2.8-4.6-5.2-5.9c-0.6-0.1-1.1-0.2-1.7-0.1c0,0.6,0.2,1.2,0.3,1.8C509,319.9,512.6,329.5,516.2,338.9 M504.1,336.3
			c-2.5-8-4.6-15.7-6.8-23.4c-0.1-0.9-0.4-1.7-0.9-2.4c-1-0.6-2-1.1-3.1-1.4c0.2,0.7,0.5,1.5,0.7,2.3c2.1,7.3,4.3,14.6,6.3,21.9
			c0.7,2.8,2.6,5.6,1.1,8.9c-0.1,0.3,1.6,1.3,2.4,2c0.3-0.6,0.9-1.2,1-1.9C504.6,340.4,504.4,338.3,504.1,336.3 M573.9,281.3
			c2.9,5.2,5.5,10.2,8.2,15.2c1,1.6,2.2,3.1,3.4,4.5c-0.2-1.8-0.6-3.5-1.2-5.2c-2.9-6-6.1-12-9.2-17.9c-1.5-2.8-2.8-5.5-4.5-8.2
			c-0.2-0.5-1.2-0.5-1.9-0.7c0.1,0.6,0.2,1.2,0.5,1.8c1.6,3.5,3.2,6.9,4.8,10.4 M441,321.1l-2.9-0.4c-3-0.6-3.4,0.2-3.2,3.4
			c0.4,4.9,3.2,7.7,6.4,10.5c0.5,0.4,1,0.7,1.6,1c0.3-0.8,1-1.6,0.9-2.4c-0.3-2.4-1-4.8-1.6-7.2C441.8,324.4,441.3,322.8,441,321.1
			 M459.5,327.3c0.7,0.7,1.5,1.4,2.3,2.1c1.6,1.2,3.1,2.5,4.5,3.9c2,2.1,3.7,4.5,5.4,6.8c0.4,0.3,0.8,0.6,1.3,0.7
			c0.2-0.5,0.4-1,0.4-1.6c-0.3-1.1-0.7-2.2-1.2-3.3c-0.8-1.5-2.6-3-2.4-4.4c0.5-7.3-5-5.9-8.9-6.4c-2.6-0.4-2.1,0.8-1.2,2.3
			 M453.2,324.8c-2.8,1.2-4.5,2.2-4.1,5.4c0.4,1.3-1.3,2.9-2,4.2c-0.5,1.1-1,2.1-1.6,3.2c1,0,2-0.2,3-0.6c2.6-1.1,5.1-2.5,7.5-4.1
			c2.1-1.7,1.1-3.9,0.2-6C455.4,325.6,455.7,323.3,453.2,324.8 M481.1,319.3c1.5,4.5,3.3,8.9,5.3,13.2c0.8,1.7,1.8,3.3,2.9,4.8
			c0.2,0.3,1.3,0.2,2,0.3c0.1-0.7,0.5-1.4,0.3-2c-1.5-4.8-2.7-9.7-4.6-14.3c-1.1-2-3.6-2.9-5.7-2.1 M557.6,353.2
			c-2,2.1-2.1,2-2.8-0.4c-0.9-2.7-1.4-5.6-2.1-8.3c-0.4-0.8-1-1.6-1.6-2.2c0,0.7,0,1.5-0.1,2.2c-0.7,3.9-0.8,7.7,2.4,10.7
			c0.4,0.5,0.7,1.1,0.7,1.8c0.7,2.5,3.3,3.9,5.8,3.3c0.4-0.1,0.9-0.8,0.8-1.1c-0.7-2.2-1.6-4.5-2.5-6.6c-0.2,0.3-0.4,0.5-0.6,0.8
			 M539,321.4c2.5,4.2,4.7,7.8,7,11.6c0.4,0.7,0.9,1.3,1.4,1.9l2.3,3.1c-0.4-1.3-0.4-2.9-1.2-3.9c-5.7-6.6-7.8-15-11.6-22.6
			c-0.8-1.2-1.7-2.3-2.7-3.3c0.1,1.3,0.3,2.6,0.7,3.9C536.1,315.2,537.6,318.3,539,321.4 M545,325.7l3,4.7c0.3,0.3,0.7,0.6,1.1,0.8
			c0-0.4,0-0.8-0.1-1.2c-2.1-5.9-4.3-11.7-6.4-17.6c-0.2-0.6-0.6-1.2-1-1.6c-0.6-0.3-1.2-0.6-1.9-0.8c-0.1,0.7,0,1.4,0.1,2
			c1.7,4.6,3.5,9.1,5.4,13.6 M615.8,314.7c0.8,2.8,1.8,5.5,3.1,8.1c0.6,0.8,1.3,1.5,2,2.1c0.6-0.7,1.1-1.5,1.4-2.4
			c1.1-3.6-2.8-10-6.6-10.9c-0.3-0.1-0.9,0.7-0.9,1C615,313.3,615.4,314,615.8,314.7 M602.2,223.7c-1,0.4-1.6,1-1.5,1.2
			c1.5,3.2,3.2,6.4,4.8,9.7c0.3,0.6,0.7,1.1,1.2,1.6c0.5-0.5,1-1,1.4-1.6c1.9-3.5,1.5-5.1-1.6-7.5L602.2,223.7 M424.6,314.3
			c-0.7,0.8-1.3,1.5-1.1,1.5c2.1,2.5,4.3,4.9,6.6,7.2c0.2,0.3,0.7,0.6,0.9,0.6c0.4-0.2,0.8-0.5,0.9-0.9c0-0.3,0.1-0.6,0.1-1
			C432,317.7,428.7,314.4,424.6,314.3 M484.5,338.3c-1.1-4.2-2.4-8.4-3.9-12.5c-0.1-0.3-0.6-0.4-0.8-0.7c-0.2,0.3-0.4,0.7-0.3,0.9
			c1.3,3.8,2.5,7.7,4,11.5C483.5,337.9,484.1,338.1,484.5,338.3 M599.3,326.5c-1.2-2.4-2.5-4.7-4-6.9c-0.2-0.3-0.3-0.7-0.4-1
			c-0.1,0.5-0.5,1-0.4,1.2c1.2,2.7,2.5,5.4,3.8,8c0.2,0.2,0.9,0.1,1.4,0.2C599.6,327.5,599.4,327.1,599.3,326.5 M566.6,283.7
			c-0.4-0.8-0.3-1.2-0.5-1.3c-0.7-0.6-1.5-1.1-2.2-1.6c0.1,0.9,0.3,1.8,0.6,2.7c0.6,1.2,1.2,2.3,1.9,3.4c0.5,0.7,1.1,1.3,1.7,1.9
			c-0.1-0.9-0.2-1.8-0.4-2.7C567.4,285.2,567,284.5,566.6,283.7 M501,396.5c0.6-1.2,1.1-2.5,1.4-3.8c0-0.1-0.3-0.3-0.4-0.5
			c-0.2,0.2-0.4,0.4-0.5,0.7C501.3,394,501.1,395.3,501,396.5 M586,200c0.2,0.3,0.4,0.6,0.5,1c0.2,0.8,0.3,1.5,0.5,2.3
			c0.3-0.4,0.9-1,0.8-1.2C587.3,201.3,586.6,200.6,586,200 M478,315.9c-0.6,0.5-0.9,1.2-1,1.9c0,0.1,0.7,0.4,1,0.6
			C478,317.6,478,316.7,478,315.9 M593.5,181.9c0.6,0.3,1.2,0.4,1.9,0.4c0-0.1-0.1-0.4-0.1-0.4C594.7,181.8,594,182,593.5,181.9"/>
	</g>
</g>
<g>
	<g>
		<path class="st0" d="M590.6,293.8c-0.1-0.3-0.2-0.7-0.1-1.1C590.6,293.1,590.7,293.5,590.6,293.8"/>
		<path class="st0" d="M397.1,331.1c2.8,0.5,5.6,0.9,8.4,1c3.3,0.6,5.4,3.7,4.9,7c-0.4,1.2-1.4,2.7,1.3,3c1,0.1,2,1.6,2.8,2.6
			c0.9,1.5,2.9,2,4.4,1.1c0.5-0.3,0.9-0.7,1.2-1.3c2.4-3.3,4.7-6.5,7.4-9.5c1.1-0.6,2.4-0.7,3.5-0.2c3,1.6,6.1,3.1,7.3,6.7
			c0.5,1.4,0.8,2.8,0.9,4.2c0.2,1.8,0.5,2.5,2.4,1.2c3.9-2.9,7.4-6.6,12.6-7.2c6.5-0.9,7-6.9,9.6-11.2c0.9-1.5,1.6-3.2,2.6-4.8
			c0.6-0.3,1.4-0.3,2,0c1.9,2.9,4.5,2.6,7.4,1.9c1.1-0.1,2.2,0.2,2.9,1c1.8,2.5,3.4,3,6,1.2c4.4-3,4.4-3.1,8.1,0.5
			c1.4,1.3,1.8,0.9,2.4-0.5c2.4-4.9,1.5-9.7,0-14.5c-1.5-4.3-0.9-6,3.1-8.3c3-1.6,2.3-4.7,3.2-7.2l0.9-2.4c0.9,0.3,1.7,0.8,2.5,1.2
			c0.4,0.3,0.8,0.7,1.1,1.1c0.9,1,1.8,2.1,2.4-0.3c0.4-1.6,2.1-2.5,3.6-2.1c0.2,0.1,0.4,0.1,0.6,0.2c3.3,1.5,4.1-1.3,4.1-2.8
			c0-4.1,1.8-8.6-1.6-12.3c-0.2-0.5-0.2-1,0.1-1.4c0.4-0.3,0.9-0.3,1.4-0.1c2.7,1.7,4.2,0.9,5.4-2c0.3-0.7,2.7-0.6,4.1-0.8
			c0.9-0.2,1.8-0.2,2.7-0.2c0-0.9-0.2-1.7-0.6-2.5c-3.9-5.9-6.8-12.9-14.1-15.9c-1.4-0.5-2.8-1-4.3-1.4c-0.9-0.1-1.9-0.4-2.7-0.9
			c-0.6-0.5-0.6-1.6-0.8-2.4c0.6-0.2,1.3-0.4,2-0.4c1.2,0.1,2.5,0.4,3.8,0.6c0.7,0.1,1.4,0.3,2.2,0.5c0-1,0.2-2.1-0.2-2.9
			c-1.4-3-3.1-6-5-8.7c-3-3.7-3.9-8.1-5-12.4c-0.2-0.9,0.7-2,1.1-3c0.6,0.7,1.8,1.4,1.8,2.1c0,7.9,6,12.9,9.1,19.3
			c0.9,1.9,2.3,3.5,1.6,6c-0.1,1.2,0.4,2.3,1.3,3c6,4.1,9,10.7,12.7,16.6c0.7,1.2,0.8,2.7,0.2,4c-1.3,1.2-3.1,1.7-4.9,1.5
			c-2-0.6-2.7,0-3.3,1.5c0,0.3-0.2,0.5-0.4,0.7c-4.4,2.2-3.4,6.1-3.3,9.7c0.2,2.8-1.1,5.6-3.3,7.3c-0.4,0.4-0.9,0.7-1.5,0.7
			c-2.5,0-5.1-0.4-6.4,2.7c0,0.2-2.1-0.2-3.2-0.6c-1.4-0.5-2.3-0.9-2.3,1.2c0.1,2.9-1.6,5.5-4.3,6.5c-2.4,0.9-1.2,3-0.9,4.5
			c1.2,5,2.3,9.8,0.3,14.9c-1.8,4.6-4.1,5.7-7.6,2.3c-2-1.8-3.2-1-5,0c-1.8,0.8-3.7,1.5-5.7,1.9c-0.7,0.1-1.3-0.2-1.8-0.7
			c-0.7-2.2-3-3.4-5.2-2.7c-0.3,0.1-0.5,0.2-0.7,0.3c-0.5,0.2-1,0.2-1.5,0c-3.3-3.1-3.9-0.6-5.3,2.1c-1.8,3.6-3.8,7.1-6,10.4
			c-0.4,0.6-1.2,1-2,1.1c-5.8-1.2-9.1,3.1-13.1,6c-1.2,1-2.6,1.7-4.1,2c-2.2,0.4-3.4-1.1-3.8-3.3c-0.6-2.9-0.3-6.5-4.9-6.7
			c-0.4,0-0.7-1.3-1.2-2c-0.5-0.7-0.9-1.1-1.4-1.6c-0.6,0.6-1.6,1.1-1.6,1.8c0,2.4,0.2,4.9,0.5,7.3c0.9,4.8,2,9.6,3.1,14.4
			c1,4.3,2.2,8.6,3.2,12.9c1.8,8.5,6.4,15.8,10.5,23.3c0.9,1.1,2.2,1.8,3.7,2c2.5,0.4,4.9-0.1,7.4,0.2c3.9,0.4,7.7,1.1,11.5,1.9
			c0.7,0.1,1.2,1.2,1.8,1.8c-0.7,0.4-1.4,1.1-2.1,1.1c-6.3-0.1-12.6-0.6-18.8-0.5c-3.2,0.2-6.4,0.6-9.6,1.3c-1,0.1-1.9,0.4-2.9,0.5
			s-1.8-0.3-2.4,0c-4.7,3.1-10-0.7-14.8,1.1c-2.7,0.8-5.6,1.3-8.4,1.3c-2.2-0.1-4.3-0.2-6.5-0.5c-2.3,0-4.6,0-6.9,0
			c-0.5,0-1.4-0.4-1.3-0.5c0.1-0.7,0.3-1.6,0.7-1.8c2.5-1.1,5.2-1.9,7.9-2.5c5.7-0.7,5.8-0.9,6.7-6.4c0.6-4.2,1.8-8.3,2.5-12.5
			c0.6-4.7,0.8-9.4,1.2-14.1c0.3-3.1,0.8-6.2,1.3-9.3c0-0.7,0.6-1.3,0.5-2c-0.2-0.8-0.4-1.7-0.7-2.5c-0.5,0.6-1,1.2-1.5,1.8
			c0,0-0.1,0.2-0.2,0.2c-0.6,1.1-9.6,5.6-10.7,5.1c-0.7-0.3-1.2-0.8-1.5-1.4c-1.1-2.3-2-4.7-2.8-7.1c-0.4-1.2-0.7-1.4-2-0.7
			c-2.7,1.4-4.3,0.2-4.5-2.8c-0.1-1.6-0.3-3.1-0.6-4.7c-0.2-0.6-0.6-1.2-1-1.8c-0.6,0.5-1.1,1-1.5,1.6c-1.3,2.8-2.5,5.7-3.6,8.6
			c-0.7,1.6-4.5,3.7-5.3,2.6c-2.3-3.5-6.4-5.8-6.5-10.5c0-2.3,0-4.5,0-6.8c0-1.2,0.7-2.9-1.8-1.2c-2.4,1.8-5.2,2.8-8.2,2.8
			c-1.6,0-3.5,1.9-4.7,3.5c-1.5,1.9-3.2,4.1-5.3,3.5c-2.1-0.5-3.5-2.7-4.7-4.6c-1.5-2.5-2.5-5.3-3.8-7.9c-0.1-0.4-0.6-0.6-0.9-0.9
			c-1.4-1.7-5.1-0.7-4.9-4.3c-0.6,0.2-1.2,0.4-1.8,0.7c-1.6,0.9-3,2-4.7,2.8c-2.8,1.2-4.3,0.2-4.2-2.8c0-5.3,0-10.5-2.6-15.2
			c-1.3-2.6-1.5-5.6-0.7-8.4c0.2-0.9,0.3-1.8,0.2-2.7c-0.2-1.3-0.7-2.2-2.1-0.9c-1.3,1.2-2.7,2.4-4.1,3.4c-1,0.5-2.2,0.8-3.3,0.9
			c0.1-1,0.1-2.1,0-3.1c0-1.7-0.1-3.5-0.4-5.2c-0.9-5.6-2.3-11-2.9-16.6c-0.4-3.4-0.2-6.6-3.3-8.7c-1.1-0.6-2.4-0.7-3.5-0.2
			c-3.9,2.3-7.5,2.4-9.3-0.4c-0.4-0.5-0.7-1.1-0.7-1.8c-0.3-3.8-0.3-7.6,0.1-11.4c0.4-2,2.6-3.8,3.9-5.7c0.5-0.7,1.5-1.4,1.4-2.1
			c0-2.2,1-4.3,2.7-5.7c2.2-2.3,4.3-4.5,6.3-7c0.7-0.9,1.5-1.8-0.6-2.7c-3.1-1.3-4.4-3.6-2.8-7.2c0.3-1.3,0.2-2.6-0.4-3.8
			c-1.4-3.9-1.4-4.8,2.4-5.1c3.8-0.3,6.4-2.6,9.5-4c2.2-0.9,4.6-1.5,7-1.8c1.5-0.2,1-0.6,0.7-1.4c-1.6-6.2-1-8.1,5.6-10.3
			c1.9-0.4,3.5-1.7,4.4-3.4c1.5-2.3,4.1-3.6,6.8-3.3c2.5,0,4.1-0.6,4.8-3.5c1.1-4.6,4-6,8.8-4.5c1.7,0.5,3.5-0.2,4.4-1.8
			c2.9-4.2,6.8-7.4,11.4-9.5c0.5-0.2,0.9-0.4,1.3-0.7c4-2.9,6.9-2.3,8.8,2.2c1.2,2.5,2.1,2.5,3.8,0.6c1.1-1.2,2.3-2.2,3.6-3.1
			c1.5-1.3,3.5-1.9,5.4-1.5c2.4,0.4,5.1-1.3,7.8-1.8c2.2-0.4,4.7-0.2,5.8,2c1.4,2.7,3.4,2,5.3,1.5c1.9-0.4,3.7-1.1,5.3-2.2
			c3.5-3.2,7.4-2.4,11.3-1.6c2.3,0.6,4.5,1.5,6.4,2.9c1.3,1,3,1.2,4.5,0.7c2.6-1,5.4,0.2,6.6,2.7c1.3,1.8,2.8,3.5,4.7,4.7
			c0.4,0.4,1.4,0.2,2,0c1.4-0.5,2.8-1.2,4-2.1c2.7-2,6.2-2.1,8,1.7c1.8,3.8,4.9,5.3,9.2,5.4c2.3,0.4,4.6,1.2,6.7,2.3
			c4,1.8,8,3.7,11.8,5.7c0.5,0.2,0.7,1.3,0.9,2c0.7,4.2,1.2,8.4,1.9,12.6c0.1,0.7,0.4,1.3,0.9,1.8c4.1,3.8,8.4,7.5,12.4,11.4
			c0.6,0.5,0.5,1.8,0.7,2.7c-0.9-0.2-2.2,0-2.7-0.6c-2-2-3.9-4.3-5.9-6.3c-1.2-1.7-2.9-3.1-4.7-4.1c-3.1-1-3.8-3.5-4.3-5.9
			c-0.4-2.3-0.7-4.7-0.7-7c-0.1-2.4-0.2-4.1-3.1-5.3c-4.4-1.8-8.3-4.7-12.8-6.1c-2.1-0.7-5.1,0.8-7.4,1.9c-1.7,0.7-2.7,2-5,1.1
			c-3.3-1.3-7.4,3.3-6.4,6.8c1.8,6,3.5,11.9,4.9,18c0.5,2,0.8,4.4-1.5,6.1c-0.8,0.6-0.9,2-1.5,3c-0.6,0.8-1.2,1.6-1.9,2.3
			c-0.9-1.2-1.7-2.5-2.3-3.8c-0.2-0.5,0.7-1.8,1.3-2.1c4.1-2,3.3-5.4,2.2-8.4c-3.1-8.9-5.2-18.1-6.2-27.4c-0.2-1.4-1.8-2.7-2.8-3.9
			c-1.4-1.5-3.2-2.8-4.4-4.4c-1.4-1.9-2.6-2.4-4.7-1.2c-1.7,1.2-4.1,0.8-5.3-0.9c0,0,0,0,0,0c-3.9-4-10-4.9-14.8-2.2
			c-3.2,1.5-6.5,2.7-9.9,3.5c-1.5,0.1-3-0.7-3.8-1.9c-1.7-3.3-3.6-3.1-6.5-1.8c-2.1,0.6-4.2,1.2-6.4,1.5c-1.5,0.4-2.8,1-4.1,1.8
			c-1.5,1.1-2.8,2.2-4.1,3.5c-0.9,1.2-2.6,1.4-3.7,0.5c-0.3-0.2-0.5-0.4-0.7-0.7c-0.4-0.6-0.8-1.1-1.1-1.8c-2.5-3.7-2.2-3.2-6.3-1.2
			c-3.5,1.4-6.6,3.5-9.2,6.3c-0.7,0.8-1.4,1.7-2,2.6c-1.7,2.2-4.5,3.1-7.1,2.3c-1.7-0.4-3.4-0.2-4.9,0.6c-1.7,1.3-2,3.6-0.7,5.3
			c0,0.1,0.1,0.1,0.2,0.2c0.9,1.4,0.3,1.4-0.9,1.5c-2.8,0.2-5.6,0.2-8.4,0.7c-1.5,0.2-3,1-2.7,3.1c0.2,1.6-0.4,2.3-2.2,2.4
			c-1.8,0.2-3.6,0.6-5.3,1.2c-2.4,0.6-3.9,3.1-3.2,5.5c0.1,0.2,0.1,0.4,0.2,0.6c1.1,3.5,0.4,4.9-3.1,5.6c-3.7,0.4-6.5,3.4-6.7,7
			c-0.4,2.6-0.4,5.3-0.7,7.8c-0.2,1.8,0.2,2.5,2.3,2.5c9.1,0,15.6,9.8,12.4,18.2c-0.9,2.3-1.3,4.8-1,7.2c0.2,1.3,2.4,2.6,3.9,3.4
			c1.5,0.8,2-0.5,2.7-1.8c2-3.4,4.2-6.7,6.6-9.9c0.5-0.7,2.2-0.6,3.3-0.9c0,1-0.2,2-0.6,3c-2.2,3.3-4.6,6.5-6.8,9.9
			c-0.2,0.3,0.3,1.6,0.4,1.6c1.7-0.4,3.3,0.7,3.7,2.4c0,0.2,0.1,0.4,0.1,0.6c-0.1,2-0.7,4-1.9,5.7c-1.8,2.5-4.2,4.5-5.8,7
			c-1.5,3.1-0.3,6.8,2.8,8.4c0.5,0.3,1.1,0.4,1.6,0.6c3.9,0.8,7.9,1.4,11.8,1.8c3,0.5,5.1,3.1,5.1,6.1c0.1,1.2,0.2,2.4,0.4,3.5
			c0.6,3.9,2.7,4.9,6.8,3.5c0.6-0.3,1.2-0.5,1.9-0.6c1,0.1,2,0.4,3,0.7c-0.7,0.6-1.4,1.2-2.1,1.8c-2.2,1.5-3.9,5.9-2.6,8.1
			c1.5,2.7,4.4,1.5,6.9,1.8c3.8,0.2,7.5,0.2,11.2,0.7c0.9,0.1,1.4,2,2.2,3l3.1,4.3c0.4,0.6,1.2,1.4,1.1,1.8c-1.4,4.1,1.5,3,3.5,3.1
			C395.4,330.9,396.2,330.9,397.1,331.1 M420,369.4c-0.2,0-0.4,0-0.6,0c0.3,0.2,0.5,0.4,0.6,0.7c0,0.2,0.1,0.5,0.2,0.8
			c0.1-0.1,0.3-0.1,0.4-0.1C420.3,370.3,420.1,369.9,420,369.4 M426.4,392c0.3-0.5,0.7-0.9,1.2-1.2c0.1-0.3,0.3-0.5,0.6-0.6
			c1.5-0.9,2.9-1.9,4.2-3c0.4-0.4,0-1.8,0-2.6c-0.7,0.2-1.8,0.2-2,0.6c-1,1.7-1.8,3.4-2.8,5.1c-0.1,0.3-0.3,0.5-0.6,0.6
			c-0.3,0.5-0.7,0.9-1.2,1.2v0.6C426,392.3,426.2,392.1,426.4,392 M421.5,348.9c0.1,0.8,0.2,1.8,0.3,2.8c0.2,1.5,0.4,3.1,0.7,4.5
			c0,0.1,0.5,0.1,0.8,0.1c0.2-1.2,0.3-2.3,0.2-3.5c0-0.5-1.1-1-1.8-1.8c-0.1-0.7,0.1-1.5,0.3-2.2c0-0.2,0-0.4,0-0.6
			C422,348.6,421.7,348.8,421.5,348.9 M353.1,331l1.4-2.4c-0.2,0-0.6-0.2-0.6-0.1c-0.4,0.9-0.9,1.7-1.5,2.5
			c-0.1,0.3-0.3,0.5-0.6,0.6c-0.9,0.6-1.8,1.2-2.8,1.5c1.8-3.4,3.5-6.8,5.3-10.2s3.1-6.3,4.7-9.5c0.3-0.6,0.6-1.1,1-1.6
			c0.2,0.6,0.6,1.2,0.8,1.8c0.4,1.1,0.7,2.1,1.2,3.1c0.4-1.1,0.9-2.1,1.3-3.2c0.1-0.4,0-0.8,0-1.2c0.5-2.9-2.1-2-3.3-2.7
			c-0.2-0.1-1.1,1.1-1.6,1.6c-0.4,0.4-0.8,0.9-1.1,1.4c-3.4,5.3-6.8,10.3-10,15.6c-1.6,2.7-0.9,4.9,1.2,6.1c1.1,2.7,2,5.5,3.3,8.1
			c0.5,0.9,1.8,1.4,2.8,2c0.6-1.1,2.1-2.5,1.8-3.2c-1-2.6,0.6-4.1,1.6-6c2.4-4,4.9-8,7-12.1c0.4-0.8,0-2,0-3.1c-1,0-2.5-0.2-2.9,0.3
			c-1.4,1.9-2.7,4-3.8,6.1c-1.9,3.3-3.7,6.7-5.6,10c-0.1,0.2-0.4,0.4-0.7,0.7c-0.2-0.3-0.5-0.6-0.5-0.9c0.1-1.6,0.4-3.2,0.9-4.7
			c0.1-0.3,0.3-0.5,0.6-0.6 M439.5,395.9c0.2,0,0.4,0,0.6,0c-0.3-0.2-0.5-0.4-0.6-0.7c-0.8-2.3-1.8-4.6-2.6-6.9
			c-0.1-0.3-0.6-0.5-0.8-0.7c-0.1,0.4-0.4,0.8-0.2,1.1C437.1,391,438.3,393.3,439.5,395.9 M326.6,292.2c2.5-2.8,4.9-5.7,7.3-8.6
			c0.3-0.5,0.4-1.1,0.4-1.8c0-0.3-0.3-0.6-0.6-0.9c-0.2,0.1-0.4,0.2-0.6,0.4c-2.3,3.5-4.6,7-7.1,10.7v0.6
			C326.2,292.5,326.4,292.3,326.6,292.2 M311.5,264.7c-0.4,0.4-1.1,0.8-1.2,1.3c-0.6,1.5-1.1,3-1.8,4.4c2.3,0.8,3.5-1.1,4.4-2.4
			c4.3-5.8,8.4-11.7,12.7-17.6c0.6-0.8,1.4-1.5,2.2-2.1c0,1.1,0.2,2.2,0.2,3.3c0,0.3-0.6,0.6-0.7,0.9c-3.9,5.7-7.8,11.3-11.5,17.1
			c-1.2,1.8-3,3.6-1.3,6.1c0.3,0.2,0.7,0.3,1.1,0.2c4.4-7.5,10.9-13.4,14.2-21.9c2.2-5.5-1.6-14.1-6.5-15.2
			c-2.8-0.6-5.9-1.6-8.3,0.9c-2.8,2.8-5.3,6-7.9,9.1c-0.7,0.6-1.2,1.3-1.5,2.1c0,1,0.2,2,0.5,3c0.6-0.5,1.2-1,1.8-1.6
			c3.1-3.5,6.2-7,9.4-10.5c0.4-0.4,1.2-0.5,1.8-0.7c0,0.7-0.1,1.4-0.2,2c-0.1,0.5-0.4,0.9-0.7,1.3c-3,3.5-6.3,6.8-9,10.4
			c-2.1,3-4,6.1-5.7,9.4c-0.4,0.7-1,1.4-1.5,2.2c-0.3-0.9-1.1-1.8-0.9-2.5c0.4-1.6,1-3.1,1.8-4.5c0.4-0.9,0.8-1.8,1.1-2.5
			c-1,0.2-1.9,0.6-2.7,1.1c-2.1,1.3-3.2,3.8-2.8,6.2c0.3,2.3,0.5,4.6,0.6,6.9c0.1,2.3,2,3.1,3.7,1.8c1.1-0.9,1.9-2,2.7-3.2
			c1.8-3,3.5-6.1,5.5-9.1c3.8-5.6,7.8-11.1,11.8-16.7c0.7-1,1.6-1.8,2.5-2.7c0,1.4,0.2,2.8,0.2,4.3c0,0.4-0.2,0.8-0.4,1.1
			C320.6,252.2,316,258.2,311.5,264.7 M404.3,337.8c-2.3,2.9-4.7,5.8-6.8,8.8c-0.4,0.6,0.2,2,0.7,2.8c1.5,2.4,3.9,4.4,4.7,6.9
			c0.9,2.5,1.4,3.5,3.5,1.2c0.5-0.6,1.3-0.9,2-1.1c4.1-0.2,5.7-3.3,7.4-6.2c0.3-0.6,0.5-1.3,0.7-1.9c-0.9,0-2-0.2-2.6,0.2
			c-0.8,0.7-1.5,1.5-2,2.5c-0.5,0.9-1.1,1.7-1.8,2.3c-0.8,0.4-1.6,0.7-2.5,0.9c0-0.9,0.2-1.7,0.6-2.5c1.4-1.7,1.7-4.1,0.5-6
			c-0.3-0.6-0.8-1.2-1.2-1.8c-0.4,0.6-1,1.1-1.2,1.8c-0.7,2.1-1.2,4.2-1.9,6.3c-0.2,0.5-0.8,0.8-1.2,1.2c-0.1-0.5-0.4-1-0.6-1.4
			c-1.7-2.8,0.4-4.9,1.5-7.1C405.3,342.3,406.9,340.3,404.3,337.8 M349.8,304.7c1.5-1.9,3.1-3.8,4.6-5.8c0.4-0.8,0.6-1.6,0.7-2.5
			c-1,0-1.9,0.2-2.8,0.6c-0.8,0.5-1.5,1.1-2,1.9c-1.6,2.3-3,4.7-4.7,6.9c-4.3,5.7-7.2,12.5-13,17c-0.3,0.2-0.5,0.6-0.5,1
			c-0.2,2-0.5,4-0.6,5.9c0.1,0.6,0.3,1.1,0.5,1.6c0.4-0.2,1.1-0.4,1.3-0.7c0.7-0.9,1.3-1.9,1.8-3c0.6-1.5,1.2-3,2-4.4
			C341.1,317.2,345.3,311.1,349.8,304.7 M379.3,343c0.1-0.6,0.2-1.2,0.5-1.8c1.5-2.7,3.3-5.3,4.7-7.9c0.6-1.3,1.1-2.7,1.5-4.2
			c-1.1,1-2.2,2-3.2,3c-0.3,0.2-0.5,0.4-0.7,0.6c-2.1,4.2-6.2,7.5-5.2,12.9c0.4,1.3,0.9,2.5,1.5,3.7c1.1-0.4,2-0.9,2.9-1.7
			c3.3-3.9,6.4-8,9.6-11.9c0.4-0.6,0.8-1.1,1.1-1.8c-0.7-0.2-1.6-0.7-2.2-0.5c-1.1,0.3-2.2,1-3,1.9c-2,2.8-3.7,5.8-5.6,8.8
			c-0.3,0.5-1,0.6-1.6,0.9C379.5,344.6,379.4,344.2,379.3,343 M328.5,280.5c-1.7,2.1-3.3,4.1-5,6.2c-3.4,4.4-7,8.8-4.5,14.8
			c0.2,0.4,0.3,0.8,0.6,1.1c0.4-0.3,1.1-0.5,1.2-0.9c0.5-2.1,3.1-3.9,1.4-6.6c-0.3-0.4,0.2-1.5,0.6-2.1c2-3.3,4.2-6.5,6.6-9.6
			c2.6-3.1,4.1-7.7,9.3-7.6c0.4,0,0.9-0.4,1.2-0.6c-0.9-1.1-1.8-2.2-2.6-3.2c0,0-0.6,0.3-0.9,0.6
			C333.9,275.1,331.4,277.6,328.5,280.5 M344.8,323.2c0.5-0.4,0.9-0.9,1.2-1.4c2.6-4.3,5.5-8.6,8-12.9c1-1.9,1.8-4,2.5-6
			c0-0.4-0.5-1-0.8-1.5c-0.4,0.3-0.7,0.6-1,1c-2.4,3.3-4.6,6.5-6.9,9.8c-2.9,4.3-5.8,8.6-8.6,13c-0.4,0.5-0.2,1.4-0.2,2
			c0.9,0,2,0.4,2.5,0C342.7,326,343.8,324.7,344.8,323.2 M323.6,270.6c-2.3,2.8-4.7,5.6-7.1,8.4c-0.3,0.4-0.5,0.9-0.5,1.4
			c0.2,2.8,0.4,5.7,0.7,8.6c0,0.5,0.6,0.9,0.9,1.3c0.3-0.5,0.6-1,0.8-1.5c0.1-1.2,0.3-2.4,0.5-3.5c2.5-7,7.6-12.4,11.9-18.1
			c0.3-0.5,0.7-0.9,1-1.4c-0.6-0.3-1.2-0.6-1.8-0.7C326.2,264.6,325.7,268.2,323.6,270.6 M327.9,295.1c-2,2.4-3.9,4.7-0.1,7.3
			c0.4,0.2,0.3,1.3,0.5,1.9c0.1,0.4,0.3,0.8,0.5,1.2c0.4-0.2,0.9-0.4,1.2-0.8c1.1-1.9,2.4-3.7,3.8-5.5c2.7-2.9,3.2-7.2,1.3-10.6
			c-0.2-0.5-0.4-0.9-0.6-1.4c-0.4,0.3-0.9,0.7-1.2,1.1c-1.7,2.2-3.3,4.4-5.3,6.9 M339.9,304.2c-0.9,1.1-1.8,2.1-2.6,3.2
			c-2.2,3.2-4.6,6.3-6.5,9.6c-0.5,1,0,2.6,0,4c0.8-0.8,1.5-1.5,2.3-2.2c0,0,0-0.2,0-0.2c4.9-7,9.9-14.2,14.8-21.3
			c0.4-0.5,0.6-1.2,1-1.9c-0.8-0.2-1.6-0.2-2.4,0c-0.7,0.3-1.3,0.9-1.8,1.5C343.2,299.1,341.7,301.5,339.9,304.2 M460,185.9
			c-3.2,1.5-4.3,4.3-3,8.3c0,0.1,0.5,0.2,0.8,0.1c3-0.6,6-1.2,9-1.9c0.7-0.2,1.8-0.5,1.8-0.9c0-0.8-0.2-1.5-0.7-2.1
			c-0.9-1.1-2.3-1.8-2.8-2.9C463.9,183.7,462.3,184,460,185.9 M339.6,300.2c0.7-1.2,1.5-2.2,2.2-3.5c0.3-0.8,0.6-1.5,0.7-2.4
			c-0.9,0.2-1.8,0.6-2.5,1.2c-2.3,2.7-4.4,5.6-6.5,8.3c-1.8,2.3-3.5,4.7-5.1,7.1c-0.6,0.9,0,2.6,0.2,3.9c0.6-0.7,1.1-1.5,1.8-2.2
			c0.2-0.2,0.4-0.4,0.6-0.7C333.7,308.1,336.5,304.2,339.6,300.2 M400.9,336.1c1.5,0.1,3.1,0.2,4.5,0.2c0.4,0,0.7-0.4,1-0.7
			c-0.3-0.2-0.5-0.4-0.9-0.5c-1.6-0.6-3.3-1-5.1-1.2c-2-0.1-4.1,0.3-5.9,1.2c-1.4,0.7-2,2.8-3,4.2c-1.8,2.5,1.9,2.8,1.9,4.6
			c0,0.4,0.7,0.6,1,0.9c0.3-0.4,0.6-0.8,0.8-1.2C397.1,341.3,398.8,338.9,400.9,336.1 M368.5,328.5c0.9-1.9,1.8-3.7,2.6-5.7
			c0.2-0.8,0.3-1.5,0.3-2.3c-0.9,0.5-2,0.9-2.6,1.8c-1.7,2.4-3.1,5-4.6,7.6c-1.5,2.6-3.2,5.6-4.7,8.5c-0.1,0.4-0.2,0.8-0.2,1.2
			c0.4-0.1,0.7-0.2,1-0.3c2.4-0.9,4.2-2.9,4.9-5.3C366.1,332,367.3,330.2,368.5,328.5 M423.7,381.8c-1.8,2.2-3.6,4.4-5.4,6.7
			c-0.4,0.5-0.7,1.1-0.7,1.8c0,0.6,0.1,1.5,0.4,1.6c0.6,0.1,1.8,0.1,2-0.2c3.4-4.9,6.7-9.9,10-14.9c0.4-0.5,0.2-1.4,0.2-2
			c-0.7,0.3-1.6,0.4-2,0.9C426.4,377.5,424.9,379.5,423.7,381.8 M372.8,325.4c-1.5,2.8-3.1,5.7-4.6,8.5c-0.6,1.2-1.1,2.5-1.6,3.8
			c1.3-0.9,3.1-1.5,3.9-2.8c2.9-3.9,5.4-8.1,8.1-12.3c0.2-0.4,0.4-0.8,0.6-1.3c-0.5-0.1-1-0.2-1.5-0.2
			C375.3,321.2,374.1,323.1,372.8,325.4 M378.7,333.1c1.2-1.4,2.3-2.9,3.2-4.5c0.8-1.7,1.3-3.6,1.8-5.4c0-0.4-0.5-1-0.8-1.5
			c-0.5,0.3-0.9,0.7-1.2,1.2c-1.3,2.1-2.6,4.1-3.7,6.3c-0.9,1.7-1.6,3.4-2.1,5.3c-0.2,0.8,0.5,1.9,0.9,2.9c0.5-0.9,1-1.8,1.5-2.7
			c0.3-0.4,0.5-0.8,0.6-1.3 M427.7,367.9c-0.1-0.5-0.3-1.1-0.4-1.8c-0.3,0.4-0.6,0.8-0.9,1.2c-1.8,2.6-3.5,5-5.1,7.6
			c-1.2,1.9-2.2,3.8-3.2,5.7c-0.3,0.6,0,1.5,0,2.3c0.6-0.5,1.5-0.8,1.8-1.4c2.1-3.5,4.1-7,6.2-10.5c0.5-0.9,0.9-1.9,1.5-3.1
			 M335.6,269.7c0-0.7,0-1.4,0.1-2.2c-0.9,0.1-1.7,0.4-2.4,0.9c-1.1,1.1-2.1,2.3-3.1,3.5c-2.4,3.1-4.6,6.3-6.9,9.4
			c-0.3,0.6-0.5,1.2-0.6,1.9c0.5-0.3,1-0.7,1.5-1.1C327.9,278.1,331.6,274,335.6,269.7 M313.4,229.6c-0.7,1.4-1.3,2.9-1.8,4.4
			c-0.1,0.6-2.5,1.2-0.3,2c1.1,0.5,2.6,1.8,3.3-0.6c0.6-1.6,1-3.3,1.2-5C315.9,229.3,315.4,227.8,313.4,229.6 M433.5,397.2
			c0-1.8-0.1-3.5-0.2-5.3c0-0.2-0.5-0.7-0.6-0.6c-0.1,0.1-0.9,0.5-0.8,0.8c0.1,0.8,0.2,1.6,0.4,2.5c0,0.3,0.1,0.8,0,0.9
			c-1.1,0.8-2.3,1.5-3.5,2.3l4.3-0.2C433,397.6,433.1,397.5,433.5,397.2 M311.5,229c0.9-1.4,1.9-2.7,2.8-4c0-0.1-0.2-0.6-0.3-0.6
			c-1.4,0.1-2.8,0.3-4.3,0.4C310.1,226.3,310.7,227.7,311.5,229 M434.4,401.1c2.7,0,5.4,0,8.1,0c0.1,0,0.3-0.8,0.2-0.8
			c-0.3-0.2-0.6-0.3-1-0.4C439.3,400.2,436.8,400.6,434.4,401.1 M342.4,269.7l-2.3-1.4c0.2,1.5,0.3,3,0.5,4.5c0,0.2,0.7,0.4,1.1,0.6
			C342,272.2,342.2,270.9,342.4,269.7 M413.2,400.3c0.6,0.7,1.2,1.3,1.8,2c0.4-1,0.8-2,1.1-3c0-0.2-0.7-0.8-0.8-0.7
			C414.4,398.9,413.7,399.5,413.2,400.3 M425.2,365.5c0.6-0.9,1.1-1.8,1.5-2.8c0.2-0.6,0.2-1.2,0.2-1.8c-0.5,0.2-1,0.3-1.5,0.6
			C423.6,362.5,425.2,364,425.2,365.5 M419.7,399.4l2.7-1.5c-0.2-0.1-0.4-0.4-0.6-0.4c-1.1,0.3-2.2,0.7-3.2,1c0,0-0.2,0.1-0.2,0.2
			l-0.7,1.8C418.4,400.2,419,399.8,419.7,399.4 M422.1,368l2.1-1.9c-0.8-0.2-1.6-0.4-2.4-0.5C421.6,366.3,421.7,367.2,422.1,368
			 M421.8,357.8c-0.3-0.3-0.7-0.5-1-0.9c-0.3,1-0.5,2.1-0.6,3.1c0,0.1,0.5,0.5,0.5,0.4c0.4-0.2,0.8-0.5,1.1-0.9
			C422,359.3,421.8,358.8,421.8,357.8 M420,362.8c0.4-0.3,0.8-0.6,1.2-1c-0.1-0.2-0.3-0.4-0.4-0.6
			C420.4,361.7,420.1,362.2,420,362.8 M426.2,402.2c-0.1,0-0.3-0.2-0.4-0.2C425.7,401.9,425.8,402.3,426.2,402.2 M424.9,402.2
			c-0.1,0-0.2-0.2-0.4-0.2C424.4,401.9,424.6,402.3,424.9,402.2 M416.9,402.2c-0.1,0-0.2-0.2-0.4-0.2
			C416.4,401.9,416.6,402.3,416.9,402.2 M425.2,397.6c-0.1,0.1-0.1,0.3-0.2,0.4C425.2,398,425.4,398,425.2,397.6 M420.3,364.3
			c0.1-0.1,0.2-0.2,0.2-0.4C420.3,363.9,420.2,363.9,420.3,364.3"/>
		<path class="st0" d="M440.5,288c2.4-0.6,4-3,3.5-5.4c-0.2-2.4,0-4.9,0-7.3c0-5.9-1.5-7.2-6.9-9.7c-2.9-1.4-4.9-4.4-7.1-7
			c-0.4-0.4,0.2-1.8,0.4-2.7c0.9,0.5,2.3,0.9,2.6,1.6c1.3,3.3,4.2,5.8,7.7,6.5c4.1,1.1,6.4,5,6.5,9.4c0,3.6,0.2,7.2,0.7,10.8
			c0.4,2.9-3.5,7.3-6.8,7.3c-1.1,0-2.1-0.9-3.1-1.4C438.7,289.4,439.6,288.7,440.5,288"/>
		<path class="st0" d="M374.4,247.2c-0.1-4.6,0.1-8.9,3.8-12c0.9-0.7,2.4-0.5,3.5-0.8c-0.3,1-0.4,2.4-1,3.1c-2.1,2-3.2,4.8-3,7.6
			c-0.3,3.1,0,6.2,0.7,9.2c0.6,1.8-2.2,4.5-3.5,6.9c-0.3-0.6-1-1.2-1-1.8c0-2.1,0.4-4.2,0.5-6.3
			C374.5,251.1,374.4,249.4,374.4,247.2"/>
		<path class="st0" d="M327.7,181.1c0-0.1,0.2-0.2,0.4-0.2C328.1,181,327.9,181.1,327.7,181.1C327.8,181.1,327.8,181.1,327.7,181.1"
			/>
		<path class="st0" d="M348.7,334.1c0-0.2,0-0.4,0.3-0.6C349,333.7,348.9,333.9,348.7,334.1"/>
	</g>
</g>
</svg>
