<?xml version="1.0" encoding="utf-8"?>
<!-- Generator: Adobe Illustrator 23.0.2, SVG Export Plug-In . SVG Version: 6.00 Build 0)  -->
<svg version="1.1" id="Слой_1" xmlns="http://www.w3.org/2000/svg" xmlns:xlink="http://www.w3.org/1999/xlink" x="0px" y="0px"
	 viewBox="0 0 1280 600" style="enable-background:new 0 0 1280 600;" xml:space="preserve">
<style type="text/css">
	.st0{fill:#020203;}
</style>
<path d="M283.6,179.5c0,0-0.6,1.2-1.8,3.7c-1.2,2.4-2,4.1-2.4,4.9c-1.7,6.8-3.2,14.6-4.5,23.4c-1.3,8.8-1.9,16.4-1.9,22.8
	c0,3.4,0.1,5.7,0.3,7L261.9,281l-3.2,11.8c-7.2,25.5-13.7,47.1-19.5,64.6c-5.7,17.5-10.3,26.3-13.7,26.3c-3.2,0-8-0.9-14.4-2.6
	c-7-1.5-11.6-2.2-13.7-2.2c0-0.8-0.6-1.9-1.8-3c-1.2-1.2-2.1-2-2.7-2.4l-9.9-31.6c0.2-0.4,0.3-1.1,0.3-1.9c0-2.8-1.7-7.3-5.1-13.7
	c-1.3-2.8-2.5-5.6-3.7-8.5c-1.2-2.9-1.8-5.3-1.8-7.2c0-1.1,0.1-1.8,0.3-2.2l-16-51.4c0-1.1,0.3-1.8,0.8-2.2c0.5-0.4,1-0.8,1.4-1.3
	l-3.8-2.2c-0.2-0.6-2-5.8-5.3-15.5c-3.3-9.7-5.9-14.5-7.8-14.5c-1.3,0-4.1,10.7-8.6,32.2l-3.5,12.4
	c-21.3,76.8-35.2,115.2-41.8,115.2c-1.7,0-4.8-0.5-9.3-1.4c-4.5-1-6.7-1.9-6.7-2.7c-0.2,0-1.2,0.4-2.9,1.3c-1.7,0.9-3.6,1.3-5.7,1.3
	c-2.8,0-6.5-6.2-11.3-18.5c-4.8-12.3-8.7-23.9-11.6-34.8l-9.6-35.7l0.3-1.6c0-2.6-1.6-7.7-4.8-15.3c-1.5-3.6-2.9-7.3-4.1-11.2
	c-1.3-3.8-1.9-6.9-1.9-9.3l0.3-1.9c-1.7-4.9-3.7-11.1-5.9-18.7c-2.2-7.5-4.1-13.8-5.6-18.7c-0.6-2.3-2-6.3-4.1-11.8
	c-2.1-5.5-3.7-10-4.6-13.6c-1-3.5-1.4-6.9-1.4-10.1c0-2.8,1.9-4.5,5.7-5.3c3.8-0.7,9-1.1,15.6-1.1c4.3,0,7.7,0.3,10.4,0.8
	c2.7,0.5,4,1.8,4,3.7c0,0.2-0.1,1.7-0.2,4.5c-0.1,2.8-0.9,4.7-2.4,5.7c1.7,1.7,2.6,3.6,2.6,5.7c1.7,10.2,3.8,19.7,6.4,28.4
	c2.6,8.7,6,18.9,10.2,30.6c0.8,2.8,2.5,7.7,4.9,14.8c2.4,7.1,4.5,13.9,6.2,20.3v1.9l16,49.1c0,0.4,0.1,0.6,0.3,0.6
	c0.4,0,1.4-0.9,2.9-2.7c1.5-1.8,2.2-3,2.2-3.7l25.8-92.2v-8c0.6-2.8,1.9-7.5,3.8-14.4c1.9-6.8,3.8-13.2,5.7-19.1
	c2.3-8.1,4.5-15.3,6.4-21.7c1.9-1.9,4.1-3.1,6.5-3.7c2.4-0.5,5.8-0.8,10.1-0.8c17.7,0,26.5,1.5,26.5,4.5c0,1.7-1,3.5-3,5.4
	c-2,1.9-3,3.8-3,5.7c0,3,0.7,6.4,2.1,10.4c1.4,3.9,3.4,9.1,5.9,15.5c3,7.2,4.9,12.6,5.7,16c4.9,10,9.1,19.5,12.6,28.4
	c3.5,8.9,5.3,16.6,5.3,23l11.8,31.6c-0.2,0.4-0.3,1-0.3,1.6c0,2.3,1,5.1,2.9,8.1c1.9,3.1,3.7,5.1,5.4,5.9c3.6-6,6.9-15.8,9.7-29.7
	c2.9-13.8,6.7-34.6,11.6-62.2c3.6-22.1,6.6-38.4,8.9-49c2.3-10.5,4.6-16,6.7-16.4c1.5,0,3.2,0.3,5.3,1c2,0.6,4.3,1,6.9,1
	c1.9,0,4.2-0.7,6.9-2.1c2.7-1.4,4.6-2.1,5.9-2.1c1.7,0,3.3,1.2,4.8,3.5c1.5,2.3,2.2,4.3,2.2,5.7C283.6,179,283.6,179.5,283.6,179.5z
	 M41.2,242.3c-0.2-0.6-0.6-1.9-1.3-3.7c-0.6-1.8-1.5-3.6-2.6-5.3c-1.5-2.3-3.1-8.3-4.8-17.9c-1.9-10.2-3.9-17.9-6.1-23.1
	c-2.1-5.2-5.7-7.8-10.8-7.8v-2.2c-0.9,0-2.1,0.2-3.8,0.6c-1.7,0.4-3.1,1-4.1,1.6c1.9,2.3,3.7,6.5,5.4,12.4c0.4,0.9,0.8,1.9,1.1,3.2
	c0.3,1.3,0.8,2.6,1.4,3.8c0.6,1.1,1.3,3.2,2.1,6.4c0.7,3.2,1.3,5.6,1.8,7.3c0.6,0,1.8-0.3,3.5-1c1.7-0.6,3.2-1.6,4.5-2.9l-8,7.7v1
	c0,2.3,0.8,5.4,2.4,9.3c1.6,3.8,3.5,5.7,5.6,5.7c0.4,0,1.4-0.3,2.9-1c1.5-0.6,2.6-1,3.2-1c-1.1,0.6-2,1.6-2.9,3
	c-0.9,1.4-1.3,2.6-1.3,3.7c0,2.3,1.5,3.5,4.5,3.5c0.6,0,1.2-0.1,1.6-0.3c-1.1,0.9-2.3,2.1-3.8,3.7c-1.5,1.6-2.2,2.7-2.2,3.4
	l-0.3,0.3c0,0.2,0.3,0.8,1,1.8c0.6,1,1.2,1.8,1.6,2.4C38,252.6,41.2,247.7,41.2,242.3z M37.7,286.2c1.5,4.8,3.3,8.9,5.4,12.3
	c1.9,0,3.7-0.9,5.3-2.7c1.6-1.8,2.9-3.7,3.8-5.6c1-1.9,1.5-3.3,1.8-4.1H41.2v-3.2h9.9v-8.6c-1.1,0-2.3,0.7-3.7,2.1
	c-1.4,1.4-2.5,2.1-3.4,2.1c0-1.9,0.6-4.1,1.9-6.7c0.2-0.6,0.5-1.6,1-2.9c0.4-1.3,0.6-2.6,0.6-3.8l-0.3-1.6c-0.2-0.8-0.9-3.1-2.1-6.9
	c-1.2-3.7-2.2-5.6-3-5.6c-1.7,0-3.2,1.2-4.5,3.5c-1.3,2.3-2.7,5.3-4.1,8.9l-0.6,2.6h10.2c-0.6,0.2-1.7,0.7-3,1.4
	c-1.4,0.7-2.5,1.5-3.4,2.4c-0.9,0.9-1.3,1.9-1.3,3.2C35.4,277,36.2,281.4,37.7,286.2z M47.9,316.7c0.6,2.8,1.5,4.8,2.6,6.1
	c1.1,1.3,3,1.9,5.7,1.9c2.1,0,3.8-0.3,5.1-0.8c1.3-0.5,1.9-1.8,1.9-3.7c0-1.3-0.4-2.8-1.3-4.5c-0.9-1.7-1.8-2.8-2.9-3.2
	c-0.2,1.1-1,2.3-2.2,3.7c-1.3,1.4-2.1,2.1-2.6,2.1l-1-0.3c0.4-1.3,1.2-3.2,2.4-5.9c1.2-2.7,1.8-5.3,1.8-7.8c0-6.6-1.2-9.9-3.5-9.9
	c-2.6,1.5-4.8,3.5-6.7,6.1c-1.9,2.6-2.9,4.1-2.9,4.8v0.3h8.9l-7.7,4.8C46.7,312,47.4,314.1,47.9,316.7z M53.3,337.7
	c2.1,0,4.4-1.2,6.7-3.7c2.3-2.4,3.5-4.6,3.5-6.5l-0.3-1.3l-12.1,1.9c-0.2,0-0.3,1.1-0.3,3.2v1.6C50.7,336.1,51.6,337.7,53.3,337.7z
	 M55.5,346.4H59c3,0,5.1-0.6,6.2-1.8c1.2-1.2,1.8-4,1.8-8.5c0-2.6-0.6-3.9-1.9-4.1C58.7,335.8,55.5,340.6,55.5,346.4z M112.3,288.6
	c-3.2,1.1-5.9,4.3-8,9.7c-2.1,5.4-4.3,12.7-6.4,21.9c-3,12.3-5.5,20.2-7.7,23.6c-1.1,1.7-2.9,3.8-5.6,6.4c-2.7,2.6-4.9,3.8-6.9,3.8
	c-1.5,0-2.6-0.3-3.2-1c-0.6-0.6-1.4-1.7-2.4-3.2c-1-1.5-2.2-2.2-3.7-2.2h-1.9c-5.1,0-7.7,1-7.7,2.9c0,0.6,0.5,1.8,1.4,3.3
	c1,1.6,1.9,2.8,2.7,3.7c1.3,0,3.8-0.6,7.7-1.9l-3.8,6.1l1.9,0.3c3.4,0,6.5-0.6,9.4-1.9c2.9-1.3,6.9-3.3,12-6.1l22-60.9V288.6z
	 M88.7,359.8c-5.1,0-11.1,1.8-17.9,5.4c0.6,1.3,2.4,2.3,5.3,3.2c2.9,0.9,5.7,1.3,8.5,1.3C87.3,367.9,88.7,364.6,88.7,359.8z
	 M116.3,279.7c1.6-2.6,2.4-6.2,2.4-10.8c-4.5,0-7.3,1.6-8.6,4.9c-1.3,3.3-1.9,7.6-1.9,12.9C112,284.6,114.7,282.2,116.3,279.7z
	 M123.8,253.5c-5.3,0-8,1.2-8,3.5c0,2.3,0.7,3.7,2.2,4.1c-0.9,0-2.1,0.4-3.7,1.1c-1.6,0.7-2.4,1.3-2.4,1.8c0,0.4,0.2,1,0.6,1.8
	c0.4,0.7,1,1.2,1.6,1.4C119.1,263.4,122.3,258.8,123.8,253.5z M128.7,240c1-2.7,1.4-5.1,1.4-7.2c-4,0-7.4,2-10.2,5.9
	c-2.8,3.9-4.1,8.1-4.1,12.6c2.6,0,4.9-0.4,7.2-1.3c2.2-0.8,3.3-2.3,3.3-4.5l-4.1-2.2c0.8,0.4,1.5,0.6,1.9,0.6
	C126.2,243.9,127.8,242.6,128.7,240z M121.2,226.6c-0.9,0.7-1.3,2.5-1.3,5.3c1.9,0,4-0.4,6.4-1.3c2.3-0.8,3.5-2.1,3.5-3.8
	c0-0.8-1.2-1.3-3.5-1.3C123.8,225.4,122.1,225.8,121.2,226.6z M128.4,214.4c2.4-1.2,4.3-2.1,5.6-2.7c-0.4-0.8-1-1.4-1.8-1.6
	c-0.7-0.2-1.5-0.3-2.4-0.3c-2.3,0-4.4,2.1-6.1,6.4C124.4,216.2,126,215.6,128.4,214.4z M132.1,217.5c-3.2,0-6,1.4-8.3,4.1h8.3V217.5
	z M153.5,216.3c2.6,0.3,6,0.5,10.2,0.5c0-2.8-0.7-6.6-2.1-11.6c-1.4-5-3.2-9.4-5.6-13.2c-2.3-3.8-4.8-5.7-7.3-5.7
	c-2.3,0-4.4,0.3-6.1,0.8c-1.7,0.5-3.4,1.7-5.1,3.4l4.1-3.8c0-0.2-0.5-0.6-1.4-1.1c-1-0.5-1.9-0.8-2.7-0.8c-3,0-4.8,1.3-5.4,4
	c-0.6,2.7-1,5.9-1,9.7h4.8c-0.2,0.2-1.3,1.1-3.3,2.6c-2,1.5-3,3.4-3,5.7c1.5,0,3-0.4,4.6-1.3c1.6-0.8,2.7-1.9,3.4-3.2
	c0.4,1.7,1.8,3.5,4.1,5.3c2.3,1.8,4.4,2.7,6.1,2.7c2.3,0,4.4-2,6.1-6.1c1.5,1.5,2.2,2.4,2.2,2.9c0,0.4-0.7,1.5-2.2,3.2
	c-1.5,1.7-2.9,3-4.1,3.8C149.6,215.2,150.9,216,153.5,216.3z M154.4,223c0.4,0.5,0.8,0.8,1.3,0.8c0.6,0,1.6-0.5,3-1.4
	c1.4-1,2.3-1.8,2.7-2.4l-1.9-0.3c-2.1,0-4,0.6-5.7,1.9C153.8,222,154,222.5,154.4,223z M161,239.6c0.5,0.3,1.3,0.5,2.4,0.5
	c1.7,0,3.2-0.9,4.5-2.7c1.3-1.8,1.9-3.7,1.9-5.6c0-3.2-1.5-7.1-4.5-11.8c-0.6,0.6-2.2,2.1-4.6,4.3c-2.4,2.2-3.7,3.7-3.7,4.3
	c0,2.3,1.9,3.5,5.7,3.5c2.6,0,4-0.1,4.5-0.3c-3.6,1.9-6.2,3.8-7.7,5.7C159.9,238.6,160.4,239.3,161,239.6z M167.3,243.1
	c-1.6,2.4-2.4,4.5-2.4,6.2h10.5c-0.2-0.2-0.4-1.7-0.6-4.5c-0.2-2.8-1.1-4.6-2.6-5.4C170.6,239.5,168.9,240.7,167.3,243.1z
	 M166.9,258.8c1.1,0.5,1.9,0.8,2.6,0.8c3.6-3.6,5.5-5.6,5.7-6.1c-0.9-0.4-2.1-0.6-3.8-0.6c-2.1,0-3.7,0.2-4.6,0.6
	c-1,0.4-1.4,1.6-1.4,3.5C165.3,257.7,165.8,258.3,166.9,258.8z M175.2,281c2.3-1.3,3.9-2.4,4.8-3.5c0.8-1.1,1.3-2.4,1.3-4.1
	c0-0.8-0.1-1.7-0.3-2.6c-0.2-0.8-0.7-1.4-1.6-1.6c1.1-1.1,1.6-2.1,1.6-3.2c0-1.3-0.4-2.7-1.3-4.3c-0.9-1.6-2-2.4-3.5-2.4
	c-1.1,0-2.5,1-4.3,3c-1.8,2-2.7,3.2-2.7,3.7c0.2,0.6,0.6,1.5,1.3,2.6c0.6,1.1,1,1.9,1,2.6c-0.2,0.4-0.6,0.9-1.3,1.4
	c-0.6,0.5-1,1.1-1,1.8h-0.3C168.6,274.3,170.7,276.5,175.2,281z M180.9,290.5c-1.5,1.3-2.6,2.3-3.2,3.2c-0.6,0.9-1,2-1,3.5
	c1.7,0,2.9-0.3,3.7-0.8c0.7-0.5,1.4-1.2,2.1-2.1c1.1-2.3,3.3-3.6,6.7-3.8l-4.5-13.7c-2.6,0-5.7,3.3-9.6,9.9
	C176.4,288.2,178.3,289.5,180.9,290.5z M187.1,295.8c-1.4,1.2-3.5,3.5-6.2,6.9c4.3,0,7.3-0.5,9.3-1.6c1.9-1.1,2.9-3.4,2.9-7
	C190.5,294,188.5,294.6,187.1,295.8z M182,314.3c0.7,1.6,1.4,2.4,2.1,2.4c2.3,0,4.6-1.5,6.9-4.5c2.2-3,3.4-5.7,3.4-8.3
	c-8.9,0-13.4,2.1-13.4,6.4C180.9,311.4,181.3,312.7,182,314.3z M187.6,322.9c0.4,0.5,1,1,1.6,1.4h2.6c2.3,0,4.1-0.3,5.4-1
	c1.3-0.6,1.9-1.9,1.9-3.8c0-4.3-1.4-7.3-4.1-9.3c-5.3,6.6-8,10.3-8,11.2C187,321.9,187.2,322.4,187.6,322.9z M193,337.7
	c5.3-5.3,8-9.8,8-13.4c-0.6,0.4-2.8,1.1-6.4,1.9c-3.6,0.9-5.4,1.7-5.4,2.6C189.2,333.7,190.5,336.7,193,337.7z M196.7,354.5
	c1.2,1,3.2,1.4,6.2,1.4l3.8-0.3l-3.8-1.6c0.4-0.6,1.2-1.8,2.4-3.5c1.2-1.7,1.8-3.3,1.8-4.8c-3.8,0-7.9,0.6-12.1,1.9
	C194.9,351.2,195.5,353.5,196.7,354.5z M204.8,335.8c0-2.3-0.6-3.6-1.9-3.8c-4.9,2.8-7.3,6.2-7.3,10.2c2.8,0,5-0.3,6.7-1
	c1.7-0.6,2.6-2,2.6-4.1V335.8z M206.7,369.6l11.5-9.9v-2.6c-1.9,0-4.8,0.4-8.6,1.3c-3.2,1.1-6.2,1.6-8.9,1.6c0,1.1,0.5,3,1.6,5.7
	c1.1,2.8,2.2,4.1,3.5,4.1C206.2,370,206.5,369.9,206.7,369.6z M224.6,368.8c1.3-2.2,1.9-5.6,1.9-10c-3,0-5.5,1.4-7.5,4.3
	c-2,2.9-3,5.9-3,9.1C220.5,372.2,223.3,371.1,224.6,368.8z M234.2,337.7c-1.1,0.6-3.9,3.1-8.6,7.3l-7.3,6.4
	C226.7,351.5,232,346.9,234.2,337.7z M235.8,332.3c3-5.1,4.5-9.9,4.5-14.4c-9.6,7.7-14.4,12.1-14.4,13.4c0,0.4,0.6,1,1.8,1.6
	c1.2,0.6,2.1,1,2.7,1c-1.5,0.2-3,0.6-4.5,1.3c-1.5,0.6-2.6,1.5-3.2,2.6c0,0.4,0.2,0.9,0.6,1.4c0.4,0.5,0.7,0.8,1,0.8
	C229,340,232.8,337.4,235.8,332.3z M240.2,312.5h-12.1v9.3C231.5,321.8,235.6,318.7,240.2,312.5z M248.2,293.1
	c-2.8,0.6-6.1,2.4-9.9,5.4c-3.8,3-5.7,5.7-5.7,8.3c0,1.3,1.6,1.9,4.8,1.9C244.6,308.7,248.2,303.5,248.2,293.1z M236.9,292.1
	c-1,1.1-1.9,2.6-2.7,4.5l1,0.3c1.1,0,2.3-0.7,3.7-2.2c1.4-1.5,2.1-2.9,2.1-4.1C239.2,290.5,237.8,291.1,236.9,292.1z M252.5,282.5
	c2.4-2.8,3.7-7.2,3.7-13.4c-4.3,1.7-8.2,4.6-12,8.8c-3.7,4.1-5.8,6.4-6.2,6.9l2.2,1.9C246,286.7,250.1,285.3,252.5,282.5z
	 M246.9,271.1c2.6-1.5,4.9-3.5,7-6.1h-2.2c-4.7,0-7.8,0.7-9.3,2.1c-1.5,1.4-2.2,4.6-2.2,9.7C242.2,274.5,244.4,272.6,246.9,271.1z
	 M253.8,260.7c2.7-0.7,4.7-2.4,6.1-5.1c1.4-2.7,2.1-6.8,2.1-12.3c-1.3,1.1-3.8,3-7.7,5.9s-6.9,5.4-9.1,7.7c-2.2,2.2-3.3,3.9-3.3,4.9
	C247.1,261.8,251.1,261.4,253.8,260.7z M245.2,242.8c-2,2.2-3,4.6-3,7.2c2.3,0,4.5-0.5,6.4-1.6c1.9-1.1,3.8-2.5,5.7-4.3
	c1.9-1.8,3.7-3.2,5.4-4.3l-5.7-0.3C250.1,239.5,247.2,240.6,245.2,242.8z M245.2,220.8c-1,2-1.4,3.7-1.4,4.9l0.3,1.9
	c2.8-1.1,6.1-2.7,9.9-4.9c3.8-2.2,6.5-3.9,8-4.9h-13.7C247.1,217.8,246.1,218.8,245.2,220.8z M262.4,232.1c2.4-2.3,3.7-6.4,3.7-12.1
	h-2.2L246,233.4l3.8,2.2C255.8,235.6,260,234.5,262.4,232.1z M253.8,195.8c-2.9,1.1-4.3,3.2-4.3,6.4l0.3,4.1
	c8.3-5.1,13.6-9.1,16-12.1h-1C260.3,194.2,256.7,194.7,253.8,195.8z M251.7,184.6c0,1.3,0.4,2.1,1.1,2.4c0.7,0.3,1.1,0.7,1.1,1.1
	c0,0.6-0.3,1.5-0.8,2.6c-0.5,1.1-1,1.7-1.4,1.9c8.5,0,13.8-0.7,16-2.2v-7.7c-4.3,0-8.8-0.7-13.7-2.2
	C252.5,180.9,251.7,182.3,251.7,184.6z M265.1,211.4c3.2-1.9,4.8-5.3,4.8-10.2c0-0.6-0.3-1.3-0.8-1.9c-0.5-0.6-1-1-1.4-1
	c-1.3,1.1-3.3,2.5-6.2,4.3c-2.9,1.8-5.2,3.6-7,5.4c-1.8,1.8-2.7,3.9-2.7,6.2C257.5,214.3,261.9,213.3,265.1,211.4z"/>
<path d="M789,305.8c-0.2,2.3-0.7,7.9-1.6,16.6c-0.9,8.7-1.3,16.9-1.3,24.6c0,3.4,0.4,8.5,1.3,15.3c0.8,7.2,1.3,12.4,1.3,15.6
	c0,2.8-0.3,4.6-1,5.4c-0.6,0.8-2.3,1.3-5.1,1.3c-7.2,0-12.2-0.5-15-1.6c-2.8-1.1-6.4-3.9-10.8-8.6c-1.9,0-6.6,1.4-14,4.1
	c-3.8,1.3-7.8,2.6-12,3.8c-4.1,1.3-7.6,1.9-10.4,1.9c-1.5,0-2.6-0.5-3.2-1.6c-1.7,0.2-4.5,0.3-8.3,0.3c-12.8,0-24-3.5-33.7-10.5
	c-9.7-7-17.2-16.3-22.5-27.8c-5.3-11.5-8-23.6-8-36.4c0-5.7,0.8-12.9,2.4-21.4c1.6-8.5,3.4-15.4,5.3-20.7c1.3-1.5,2.8-3.3,4.5-5.6
	c1.7-2.2,2.9-4,3.5-5.3v-1c4.3-6.6,9.1-11.2,14.7-13.7c5.5-2.6,13.1-4.6,22.7-6.1c1.3-0.2,2.4-0.5,3.5-1c1.1-0.4,2-0.7,2.9-1
	c3.4-1.5,6-2.2,7.7-2.2v2.2c1.3-1.5,3.3-2.2,6.1-2.2c3.2,0,6.3,0.4,9.3,1.3c3,0.9,6.7,2.1,11.2,3.8c3.2,1.3,6.5,2.4,10,3.3
	c3.5,1,6.7,1.4,9.7,1.4l0.6-35.7l0.3-11.8c0-15.3-1.4-26.3-4.1-32.9h31.3c0.4,0.9,0.8,2.5,1.3,4.9c0.4,2.4,0.7,4.7,1,6.9
	c-0.2,0.2-0.3,0.5-0.3,1c0,0.6,0.3,1.6,1,2.9s1.1,2.2,1.3,2.9c0,0.6-0.2,1.7-0.5,3c-0.3,1.4-0.8,2.7-1.4,4c0,8.7,0.6,22,1.9,39.9
	c1.3,17,1.9,29.9,1.9,38.6C792.2,273.2,791.1,287.1,789,305.8z M655,314.9c-0.6,1-1,2.7-1,5.3c1.9,0,3.7-1,5.3-3
	c1.6-2,2.6-3.2,3-3.7h-2.9C657.1,313.5,655.6,314,655,314.9z M655.3,329.8c5.1,0,8.9-0.6,11.3-1.9c2.4-1.3,3.7-4.1,3.7-8.6
	c0-2.1-0.5-3.3-1.6-3.5C659.8,320.4,655.3,325.1,655.3,329.8z M661.2,303.1c-3.5,1.4-5.3,3.2-5.3,5.6l0.3,1l12.4,1.6
	c0.6,0,1.2-1.1,1.6-3.2c0.4-2.1,0.6-4.5,0.6-7C667.9,301.1,664.7,301.7,661.2,303.1z M669.3,258c-3.8,3.6-7,7.9-9.4,12.9
	c-2.4,5-3.7,9.4-3.7,13.2c0,0.2,0.4,0.6,1.1,1.1c0.7,0.5,1.4,0.8,2.1,0.8c2.6,0,6.5-2.4,11.8-7.2c5.3-4.8,8.2-8.3,8.6-10.7l2.2-4.1
	c0.6-0.4,2-1,4-1.6c2-0.6,3.6-1.3,4.6-2.1c1.1-0.7,1.6-1.8,1.6-3l-0.3-1c-3.2,1.3-7.9,1.9-14,1.9c1.7,0,2.9-0.3,3.5-1
	c0.6-0.6,1-1.6,1-2.9c0-0.8-0.1-1.4-0.3-1.6c-0.2-0.2-0.7-0.3-1.6-0.3C676.9,252.6,673.2,254.4,669.3,258z M656.3,295.9v5.7
	l12.4-5.7H656.3z M666.1,343.5c3.8,0,7.2-0.8,10.2-2.6l-2.2-3.8c-3.2,1.3-5,2.6-5.4,3.8l-0.3-1c0.2-0.6,0.7-1.8,1.4-3.3
	c0.7-1.6,1.5-2.8,2.4-3.7c-0.4-1.3-1.8-1.9-4.1-1.9c-6.4,0-9.6,1.1-9.6,3.2C658.5,340.4,661,343.5,666.1,343.5z M660.4,289.9
	l4.8,0.3h1.3c2.1,0,3.7-0.3,4.6-0.8c1-0.5,1.4-1.9,1.4-4C668.5,285.4,664.4,286.9,660.4,289.9z M666.5,351.5
	c1.1,0.9,1.9,1.4,2.6,1.6c1.7,0,3.5-0.7,5.3-2.1c1.8-1.4,3-2.8,3.7-4.3c-0.6-1.1-1.5-1.6-2.6-1.6c-0.9,0-2.6,0.6-5.3,1.8
	c-2.7,1.2-4.7,2-6.2,2.4C664.5,349.9,665.4,350.6,666.5,351.5z M673.6,358.8c0.5,0.2,1.4,0.3,2.7,0.3c1.3,0,2.7-0.4,4.1-1.3
	c1.5-0.8,2.7-1.9,3.5-3.2h-1.6c-3.6,0-7,0.7-10.2,2.2C672.6,357.9,673.1,358.6,673.6,358.8z M685,333.6c3.2,5.7,6,9.9,8.3,12.6
	c2.3,2.7,5.7,4.7,10.1,6.2c4.4,1.5,10.5,2.2,18.3,2.2c6.6,0,12.8-1.8,18.5-5.4c5.7-3.6,10.3-8.4,13.7-14.4c3.4-6,5.1-12.3,5.1-19.1
	c0-6.8-0.6-13.2-1.8-19.1c-1.2-6-3.9-11.5-8.1-16.6c-4.7-5.5-10.3-10.9-16.7-16.1c-6.5-5.2-12.1-7.8-16.7-7.8
	c-3.6,0-7.7,1.9-12.1,5.7c-4.5,3.8-7,6-7.7,6.4c-6.8,5.7-11.2,11.4-13.2,17.1c-2,5.6-3,13.1-3,22.5l0.3,17.5L685,333.6z
	 M683.1,364.9c0.2,0,1.7-0.4,4.5-1.3c2.8-0.8,4.8-2.4,6.1-4.8c-1.7-1.5-3.6-2.2-5.7-2.2c-1.5,0-2.7,0.3-3.5,1
	c-0.9,0.6-1.7,1.5-2.6,2.7c-0.9,1.2-1.5,2-1.9,2.4C680.7,363.7,681.8,364.4,683.1,364.9z M690.1,248.7l-4.5,1.6
	c1.3,0.4,2.7,0.9,4.1,1.3c1.5,0.4,2.8,0.7,3.8,1c3,0,6.4-1.5,10.2-4.5c0.4-0.2,1.4-0.8,3-1.9c1.6-1.1,3.2-1.6,4.9-1.6h21.4
	c-1.5-0.4-3.6-1.1-6.4-1.9c-2.8-0.8-5.2-1.5-7.3-1.9c-2.3,0-4.8,0.3-7.3,1c-2.6,0.6-4.7,1.6-6.4,2.9v-1.9
	c-9.8,1.3-16.5,2.7-20.1,4.1L690.1,248.7z M696.1,368.8c0.6-1.2,1.2-3.2,1.6-6.2c-0.2,0.2-1.7,0.9-4.3,1.9c-2.7,1.1-4.4,2.6-5.3,4.5
	c0.2,1.1,1.6,1.6,4.1,1.6C694.2,370.6,695.5,370,696.1,368.8z M705.2,373.2c1-0.8,1.4-1.9,1.4-3.2c-1.5,0-2.8,0.2-3.8,0.6
	c-1.1,0.4-2.1,1.1-3.2,1.9c0,0.4,0.2,0.9,0.6,1.3c0.4,0.4,1,0.6,1.6,0.6C703.1,374.4,704.3,374,705.2,373.2z M709.5,372.5
	c1.5-0.2,2.7-0.7,3.7-1.4c1-0.7,1.4-1.8,1.4-3C711.4,368,709.7,369.5,709.5,372.5z M723.6,375.4c2.6-1.1,4.6-3.2,6.1-6.4l-4.5-0.3
	c-2.6,0-5.2,0.7-8,2.2c-2.8,1.5-4.1,3.5-4.1,6.1C717.5,377,721,376.5,723.6,375.4z M743.3,367.9c4.3-2.9,8-6.2,11.2-10
	c3.2-3.8,4.8-7.1,4.8-9.9l-0.3-1.3c-1.3,1.3-4.4,4-9.3,8.3c-9.8,7.7-15.3,13.5-16.6,17.5C735.7,372.3,739.1,370.8,743.3,367.9z
	 M735.4,250.3c0.4,1.1,1.3,2.7,2.7,4.8c1.4,2.1,2.7,3.2,4,3.2l10.8-3.8c-1.9,0-3.2-0.2-3.8-0.6c-0.6-0.4-1.4-1.2-2.2-2.2
	c-0.6-1.1-1.4-1.9-2.4-2.4c-1-0.5-2.8-0.8-5.6-0.8C736.8,248.4,735.6,249,735.4,250.3z M760.9,257.3c-3.6,0.4-6.6,1-8.9,1.6
	c-2.3,0.6-4.6,1.8-6.7,3.5c0.8,1.5,2.2,3,4.1,4.6c1.9,1.6,3.7,2.6,5.4,3c7.9-6,15.7-10.5,23.6-13.7c-0.4-0.4-0.9-1-1.3-1.8
	c-0.4-0.7-0.6-1.4-0.6-2.1c0-1.1,0.7-3.2,2.1-6.4c1.4-3.2,2.1-5.6,2.1-7.3h-4.1l-9.9,11.5l-0.3,1.3c0,0.6,0.7,1.3,2.2,1.9
	c1.5,0.6,2.9,1,4.1,1C770.4,255.5,766.4,256.5,760.9,257.3z M756.7,278.7c5.1,0,9.1-1.5,12.1-4.5h-2.2c-1.5,0-3.5,0.3-5.9,0.8
	c-2.4,0.5-3.8,0.9-4,1.1V278.7z M771.6,350.8c1.6-0.2,3.2-0.7,4.9-1.6c0-1.7-0.3-2.8-0.8-3.3c-0.5-0.5-1.5-0.8-3-0.8
	c-3.2,0-6.5,1.9-9.9,5.7l3.8,0.3C768.3,351.1,770,351,771.6,350.8z M766,168.3c-0.9,0.6-1.3,2.4-1.3,5.4c0,5.7,1.3,8.6,3.8,8.6
	l1.9-0.6l-1.6,3.8h5.7c-2.1,0.4-3.9,1.4-5.3,2.9c-1.4,1.5-2.1,3.2-2.1,5.1c3.2,0,5.9-1.6,8.1-4.9c2.2-3.3,3.4-6.6,3.4-10.1
	c0-3.8-0.3-6.6-1-8.5c-0.6-1.8-2.6-2.7-5.7-2.7C768.9,167.4,766.8,167.7,766,168.3z M779.4,266.9c2.3-1.1,3.5-3.6,3.5-7.7
	c-3.4,0-6.4,0.7-8.9,2.1c-2.6,1.4-5.6,3.7-9.3,6.9l4.1,0.3C773.5,268.5,777.1,268,779.4,266.9z M768.9,333.3
	c2.1-1.1,3.9-2.3,5.4-3.8c1.5-1.5,2.2-3.1,2.2-4.8c-4,0-7,0.7-8.9,2.1c-1.9,1.4-2.9,4.2-2.9,8.5C765.4,335,766.7,334.3,768.9,333.3z
	 M769,361.2c1.4-1.4,2.1-2.8,2.1-4.3h-6.4v6.4C766.2,363.3,767.6,362.6,769,361.2z M776.4,280.2c3.1-1.4,4.6-3.8,4.6-7.2
	c-2.8,0-5.4,0.9-8,2.7c-2.6,1.8-4.7,4-6.4,6.5C770,282.2,773.3,281.5,776.4,280.2z M778.8,306.2c1.3-2.6,1.9-6.3,1.9-11.2l-0.3-10.8
	c-3,0.6-5.7,2.2-8.1,4.6c-2.4,2.4-3.7,5.2-3.7,8.1c0,2.1,0.3,3.5,1,4c0.6,0.5,2.3,0.8,5.1,0.8c-3.2,3.2-4.8,6-4.8,8.3
	C774.5,310,777.5,308.7,778.8,306.2z M769.3,213.5c0.3,1.8,0.7,2.9,1.1,3.3c4-2.3,6.1-5.8,6.1-10.5c-1.9,0-3.7,0.3-5.3,0.8
	c-1.6,0.5-2.4,1.2-2.4,2.1C768.9,210.2,769,211.7,769.3,213.5z M774.6,313.5h-1.9c-1.1,0-1.9,0.1-2.6,0.3c-0.6,0.2-1.1,0.9-1.3,1.9
	C769.7,315.7,771.6,315,774.6,313.5z M776.5,333c-2.3,0-4.9,1.4-7.7,4.1l2.6,0.3C774.8,337.4,776.5,335.9,776.5,333z M776.5,374.4
	c-0.4-1.5-1.8-2.2-4.1-2.2l-3.5,0.3v1.9H776.5z M774.9,321c1.1-0.7,1.6-2.5,1.6-5.3c-1.7,0.4-3.3,1.2-4.8,2.2
	c-1.5,1.1-2.2,2.4-2.2,4.1C772.1,322.1,773.9,321.7,774.9,321z M779.1,191.3h-2.6l-6.1,9.9C776.2,201.2,779.1,197.9,779.1,191.3z
	 M775.6,230.2c0,1.3-0.2,2.1-0.5,2.6c-0.3,0.4-1,0.9-1.9,1.3c-1,0.4-1.9,1.3-2.7,2.6l2.2,2.2l5.7-6.1v-16.6c-1.7,0-3.5,1.5-5.3,4.5
	c-1.8,3-2.7,5.4-2.7,7.3c0,1.7,0.7,2.6,2.2,2.6L775.6,230.2z M776.5,360.4c-1.3,0-2.3,0.4-3.2,1.3c-0.9,0.9-1.3,2-1.3,3.5
	C775,365.2,776.5,363.6,776.5,360.4z"/>
<path d="M823.1,330.1c-0.7-3.6-1.1-8.3-1.1-14c0-16.4,3.2-30.7,9.6-42.9c6.4-12.2,15.3-21.6,26.8-28.2c11.5-6.6,24.8-9.9,39.9-9.9
	l7,0.3l-4.1,1.9c0.6,0,3.2-0.3,7.7-1c2.3-0.6,4.6-1,6.7-1c14,0,22.4,1.8,25.2,5.4l0.3,8.3c0,2.6-0.4,6.2-1.3,10.8
	c-1.1,3.8-1.6,7.6-1.6,11.2c-9.1,0-19.5-3.5-30.9-10.5h-27.4c-1.9,0-4.6,1.6-8,4.9c-3.4,3.3-6.6,7.3-9.7,12
	c-3.1,4.7-5.1,8.9-5.9,12.8c-0.2,1.3-0.6,3.8-1.1,7.5c-0.5,3.7-1.5,6.5-3,8.5c2.1,12.6,5.2,22.3,9.1,29.4c3.9,7,10.8,13.6,20.6,19.8
	v2.2c2.1,0,4.9,0.2,8.3,0.6c3,0.6,5.7,1,8.3,1c7.7,0,14.6-0.5,20.9-1.6c6.3-1.1,12.2-3.2,17.7-6.4c0.4,1.7,1.5,5.2,3.4,10.5
	c1.8,5.3,2.7,9.5,2.7,12.4c0,3.6-2.1,6-6.2,7.2c-4.1,1.2-9.8,1.8-17.1,1.8c-13,0-24.5-0.5-34.6-1.4c-10.1-1-19.9-3.6-29.5-8
	c-9.6-4.4-16.6-11.1-21.1-20.3c-0.4-0.8-0.8-2.2-1.1-4c-0.3-1.8-0.7-3.2-1.3-4.1c-0.5-1-1.8-1.5-3.7-1.8
	C825.6,338.2,823.9,333.7,823.1,330.1z M837.1,337.7c3.1,7.7,5.4,11.5,6.9,11.5l8-5.7l0.3-1c0-3.4-1-7.9-3-13.6
	c-2-5.6-4.3-9.4-6.9-11.3l1.6-1.6c-0.2-0.8-0.3-2.2-0.3-4.1c0-8.3,1.3-17.5,3.8-27.8c2.6-10.2,5.4-15.3,8.6-15.3
	c2.1-4.7,4.6-8.2,7.5-10.5c2.9-2.3,5.8-3.9,8.8-4.6c3-0.7,7-1.4,12.1-2.1c8.7-0.4,15.6-2,20.7-4.8c-1.1-0.2-2.4-0.5-4-1
	c-1.6-0.4-2.9-0.6-4-0.6c-5.5,0-12.5,1.2-20.9,3.5c-8.4,2.3-15.2,5-20.3,8c-5.1,3-10.4,10.8-16,23.6c-1.3,3.4-3.2,10.8-5.7,22.3
	c-2.3,10-3.7,15-4.1,15C831.8,323.4,834.1,330.1,837.1,337.7z M852.3,355.3c1.9,0,3.3-0.4,4.1-1.3c0.8-0.8,1.9-2.4,3.2-4.8
	c0-0.4-0.4-1.1-1.3-1.9c-0.9-0.8-1.6-1.4-2.2-1.6l-1-0.3c-1.3,0-2.8,1.1-4.6,3.2c-1.8,2.1-2.7,3.4-2.7,3.8
	C847.8,354.3,849.3,355.3,852.3,355.3z M864.1,365.2c1.7,0,3-0.4,4-1.3c1-0.8,2.2-2.4,3.7-4.8c-0.2-1.1-0.6-1.7-1.3-1.9
	c-0.6-0.2-1.6-0.3-2.9-0.3c-2.1,0-4.3,0.4-6.5,1.3c-2.2,0.9-3.3,2.1-3.3,3.8C857.7,364.1,859.8,365.2,864.1,365.2z M873.8,370.1
	c1.4,0.5,2.6,0.8,3.7,0.8c0.6,0,1.4-0.2,2.4-0.6c1-0.4,1.5-0.8,1.8-1.3c0-1.7-0.3-2.8-0.8-3.3c-0.5-0.5-1.5-0.8-3-0.8
	c-4,0-6.1,1.1-6.1,3.2C871.8,368.9,872.4,369.6,873.8,370.1z M888.2,368.4c-1.4,0.6-2.2,1.5-2.4,2.6l13.1,1.3
	c-0.2-1.1-1.2-2.1-2.9-3.2c-1.7-1.1-3-1.6-3.8-1.6C890.9,367.4,889.6,367.7,888.2,368.4z M903.8,371.7c0.5,0.7,1.2,1.1,2.1,1.1
	c1.3,0,2.6-0.4,4-1.1c1.4-0.7,2.4-1.6,3-2.7H903C903,370.1,903.3,371,903.8,371.7z M914.2,252.9l12.4,3.8v-8.3l-6.7-1
	C916.1,249.8,914.2,251.6,914.2,252.9z M922.2,367.4c-2.1,1.1-3.8,2.9-5.1,5.4l2.9,0.3c3.2,0,5.7-0.5,7.5-1.6
	c1.8-1.1,2.7-3.1,2.7-6.1C927,365.7,924.3,366.3,922.2,367.4z"/>
<path d="M1095,297.7c2.1,39.5,3.2,65.7,3.2,78.6c-1.1,3.8-3.6,6.3-7.7,7.3c-4,1.1-9.4,1.6-16,1.6c-4.5,0-7.4-0.7-8.9-2.2
	c-1.5-1.5-2.2-4.4-2.2-8.6l0.3-9.3c-0.9,0.6-3,2.9-6.4,6.9c-3.4,3.9-8.3,7.2-14.7,9.9c-6.4,2.7-15.1,4-26.2,4
	c-15.5,0-27.4-6.5-35.7-19.6c-8.3-13.1-13.1-28.8-14.4-47.1l-2.2-23.6v-4.1c2.6-12.8,3.8-19.9,3.8-21.4c0-2.6-0.3-6.4-1-11.5
	l-0.6-10.2v-3.2c0-3.2,0.6-6.4,1.8-9.7c1.2-3.3,3.1-4.9,5.9-4.9l19.8,2.2c1.5,0,2.6,2.2,3.4,6.5c0.7,4.4,1.1,8.6,1.1,12.6
	c0,4.7-0.2,9.4-0.6,14l1.9,1.9l-0.3,36.4c0,12.8,0.8,22.7,2.6,29.7c1.7,7,5.1,12.3,10.2,15.8c5.1,3.5,12.9,5.3,23.3,5.3
	c8.1,0,14.6-0.7,19.5-2.2c4.9-1.5,8.8-4.8,11.8-9.9l0.3-11.5c0-7.7-0.4-19.1-1.3-34.5c-1.1-12.8-1.6-24.4-1.6-34.8
	c0-4,0-8.2,0.2-12.6c0.1-4.4,0.3-7.4,0.5-9.1l3.5-1.9h22C1091.3,238.5,1092.9,258.3,1095,297.7z M973.4,301.4
	c0,7.9,0.8,11.8,2.6,11.8l10.2-9.6v-2.2H973.4z M979.3,278.7c-1.8,0.4-3.1,1.6-4,3.5c-0.9,1.9-1.3,5-1.3,9.3
	c3.4-2.3,6.6-4.8,9.6-7.5c3-2.7,4.5-4.6,4.5-5.9C984.1,278.1,981.1,278.3,979.3,278.7z M974.1,323.1h17.9c0.2,0,0.6-0.7,1.1-2.1
	c0.5-1.4,0.8-2.6,0.8-3.7c0-2.6-0.3-4.9-1-7c-0.2-0.8-0.4-1.8-0.6-2.9c-0.2-1.1-0.3-2.3-0.3-3.8C986.4,308.5,980.5,315,974.1,323.1z
	 M976,270.4c0,2.1,0.6,3.3,1.9,3.5c0.6-1.9,1.8-3.7,3.4-5.3c1.6-1.6,2.5-2.5,2.7-2.7c2.1-2.1,3.7-3.9,4.6-5.3c1-1.4,1.4-3.1,1.4-5.3
	c0-4.3-0.5-6.4-1.6-6.5c-1.1-0.1-1.6-0.4-1.6-0.8c0-0.8,0.4-2.4,1.3-4.8c0-2.1-4-3.2-12.1-3.2v12.1l1.6,7.3c0,0.9-0.3,2.2-0.8,4
	c-0.5,1.8-0.8,3.6-0.8,5.3V270.4z M991.6,282.9c-1.1,0-4.5,2.2-10.2,6.7c-2.8,2.3-4.6,3.7-5.4,4.1v1.9l11.2,1.6
	c0.6-0.2,1.4-0.6,2.4-1.1c1-0.5,1.8-0.8,2.4-0.8v-11.8C991.9,283.1,991.8,282.9,991.6,282.9z M976.8,340.6c0.5,1.7,2.1,2.6,4.6,2.6
	c3.4,0,6.6-0.7,9.7-2.1c3.1-1.4,4.6-3.5,4.6-6.2c0-1.3-0.2-2.2-0.6-2.9c-0.4-0.6-1.5-1-3.2-1c-0.6,0.2-1.9,1.5-3.8,3.8
	c-1.9,2.3-3.3,4.4-4.1,6.1l-3.8-1.9c4.5-5.1,7-9,7.7-11.8c-1.5,0.2-3.3,0.3-5.6,0.3c-2.2,0-3.8,0.3-4.8,1c-1,0.6-1.4,2-1.4,4.1
	C976,336.3,976.3,338.9,976.8,340.6z M999.6,370.3l11.8-5.7v-1.9h-3.8v-4.1h-17.9v-2.2l4.1,0.3c5.1,0,7.7-1.3,7.7-3.8
	c0-0.6-0.2-1.4-0.6-2.2c-0.4-0.8-0.9-1.5-1.3-1.9l-5.7,4.1c0-1.3,0.3-2.9,1-4.8c0.6-1.9,1-3.6,1-5.1c-0.6,0.4-2.6,1-5.7,1.8
	c-3.2,0.7-5.7,1.5-7.5,2.4c-1.8,0.9-2.7,2.1-2.7,3.8l0.3,1.9l9.6,13.7C994.8,367.9,998.1,369.2,999.6,370.3z M988.9,274.9
	c1.4-0.6,2.1-2.6,2.1-5.7c0-0.8-0.4-2.6-1.3-5.1c-5.7,4.9-8.9,8.8-9.6,11.8C984.6,275.8,987.5,275.5,988.9,274.9z M1060.9,362.6
	l-4.1-0.3c-2.3,0-4.1,0.1-5.4,0.3c-1.3,0.2-2.8,0.9-4.5,1.9h-29.4c-0.9,0-2.9,1-6.2,3c-3.3,2-5.8,3.7-7.5,4.9
	c3.2,2.6,9.4,3.8,18.5,3.8c1.9,0,3.5-0.2,4.8-0.6c1.3-0.4,2.7-1.5,4.1-3.2v4.5c6.2,0,10.7-0.6,13.6-1.9c2.9-1.3,5.6-4.1,8.1-8.6
	l2.2,1.9L1060.9,362.6z M1088.3,348.6c-0.2-1.1-0.6-2.3-1.3-3.8c-0.6-1.5-1.1-2.2-1.3-2.2c-1.7,0-3.3,0.7-4.8,2.2
	c-1.5,1.5-2.3,2.2-2.6,2.2c0,0.9,0.2,1.6,0.6,2.4c0.4,0.7,1,1.2,1.6,1.4c-1.9,3-4.2,5.4-6.9,7.3c-2.7,1.9-4.5,2.9-5.6,2.9
	c0,1.3,0.3,2.1,1,2.6c0.6,0.4,1.1,0.7,1.3,1l11.8-8v-5.1c0.8,0,1.7,0.2,2.6,0.6c0.8,0.4,1.5,0.6,1.9,0.6
	C1087.8,352.7,1088.3,351.4,1088.3,348.6z M1074.6,286.7c-1.5,0.9-2.2,1.5-2.2,1.9c0,1.1,0.3,2.2,1,3.5c0.6,1.3,1.4,1.9,2.2,1.9
	c2.6,0,5-2.3,7.3-7c2.3-4.7,3.5-8.4,3.5-11.2c0-0.6-0.3-1.4-0.8-2.2c-0.5-0.8-1-1.3-1.4-1.3l-9.6,9.6l-0.3,0.6
	c0,0.9,0.4,1.5,1.3,2.1c0.8,0.5,1.8,0.8,2.9,0.8C1077.3,285.4,1076.1,285.8,1074.6,286.7z M1078.1,263.7c0,0.4-0.9,1.6-2.7,3.5
	c-1.8,1.9-2.7,3.8-2.7,5.7c0,0.4,0.2,1,0.5,1.8c0.3,0.7,0.8,1.1,1.4,1.1c4.7-2.8,7.5-5.4,8.5-7.8c1-2.4,1.4-7.3,1.4-14.5
	c0-2.3-0.3-4.1-1-5.4c-0.6-1.3-2-1.9-4.1-1.9l-4.8,0.3l-1.9,14.7C1076.3,262,1078.1,262.9,1078.1,263.7z M1086.4,374.1v-1.6
	l-13.4,2.2l2.9,2.9L1086.4,374.1z M1077.3,305c0.7,1.4,1.9,2.1,3.3,2.1c-3,0-4.8,1.4-5.4,4.1c-0.6,2.8-1,6.3-1,10.5
	c3.2,0,5.9-1.3,8.1-3.8c2.2-2.6,3.3-5.4,3.3-8.6h-3.5c1.7-1.3,2.7-3.5,2.9-6.5c0.2-3.1,0.3-6.7,0.3-11c-2.8,0-5,1.1-6.7,3.2
	c-1.7,2.1-2.6,4.6-2.6,7.3C1076.2,302.8,1076.5,303.7,1077.3,305z M1088.3,363.9c0-1.9-0.2-3.3-0.5-4.3c-0.3-1-1-1.4-2.1-1.4
	c-2.3,0-4.7,1.2-7.2,3.5c-2.4,2.3-3.8,4.6-4,6.7l5.4,0.3C1085.5,368.7,1088.3,367.1,1088.3,363.9z M1076.2,336.8v2.2
	c0,2.3,0.7,3.6,2.2,3.8c4-4,6.1-6.3,6.1-6.7c0-0.6-0.7-1.3-2.2-2.1c-1.5-0.7-2.8-1.1-3.8-1.1C1076.9,333,1076.2,334.2,1076.2,336.8z
	 M1085.4,328c1.1-1,1.6-3.5,1.6-7.5c-2.1,0-4.1,0.9-6.1,2.7c-1.9,1.8-2.9,3.9-2.9,6.2C1081.9,329.4,1084.4,329,1085.4,328z"/>
<path d="M1159.7,444c-1.5,0-2.9,0.2-4.1,0.6c-1.3,0.4-2.1,0.7-2.6,1c-2.1,1.1-4.3,1.6-6.4,1.6c-2.8,0-4.1-0.9-4.1-2.6v-72.4
	c0-2.1-0.3-4.5-0.8-7.2c-0.5-2.7-0.8-4.3-0.8-4.9c0-3.2,0.3-7.8,1-13.7l0.6-13.7c0-6-0.3-11-1-15c-0.6-9.6-1-17-1-22.3
	c0-11.1,0.1-17.7,0.3-19.8l-2.2-1.6c0.4-1.9,0.8-4.3,1.3-7c0.4-2.8,0.7-5.1,1-7c0-0.4-0.7-4.4-2.2-11.8c0-5.3,1-8.6,2.9-9.9
	c1.9-1.3,6-1.9,12.1-1.9c3.8,0,6.4,0.1,7.7,0.3c1.3,0.2,2.4,1,3.5,2.2c1.1,1.3,2.2,3,3.5,5.1c7-3.6,14.4-6.7,22.2-9.4
	c7.8-2.7,14.7-4,20.9-4c21.5,0,38.3,6.3,50.6,18.8c12.2,12.6,18.3,29,18.3,49.5v14c0,13.8-1.3,23.7-3.8,29.7
	c-1.5,3.6-4.7,8.5-9.7,14.7c-5,6.2-10.3,11.6-15.8,16.3c-5.5,4.7-10.2,7-14,7c5.3-4.7,8-7.1,8-7.3c0-0.2-0.1-0.3-0.3-0.3
	c-0.4,0-3.1,1.6-8,4.8l-9.3,6.1c-0.6,0.8-1.3,1.3-1.9,1.3c-0.6,0-1.9-0.4-3.8-1.1c-1.9-0.7-3.5-1.1-4.8-1.1c-3.2,0-6.2,1.7-8.9,5.1
	c-1.5-0.2-7.4-1.6-17.9-4.1c-0.9-2.1-2.9-3.7-6.1-4.6s-5.9-1.4-8-1.4c-1.1,0-2.6,0.3-4.6,0.8c-2,0.5-3,1-3,1.4V443
	c1.3,3.4,1.9,7.1,1.9,11.2c0,1.3-1.7,2.4-5.1,3.3c-3.4,1-8.7,1.4-16,1.4c-3.6,0-6.4-0.1-8.3-0.3v-6.1
	C1153.4,451.3,1159.7,448.4,1159.7,444z M1147.1,292.3c1.2,1,2.1,1.4,2.7,1.4c0.4,0,1-0.5,1.6-1.6c0.6-1.1,1-2,1-2.9h-7.7
	C1145.1,290.3,1145.9,291.3,1147.1,292.3z M1148.2,254.6c0.8,2,1.6,3.1,2.2,3.4c1.3-1.1,2.6-2.3,4-3.8c1.4-1.5,2.1-2.6,2.1-3.2
	c0-1.3-1-2.4-3-3.4c-2-1-3.6-1.4-4.6-1.4c-0.4,0.2-0.9,0.7-1.4,1.6c-0.5,0.9-0.8,1.6-0.8,2.2
	C1146.8,251.1,1147.4,252.6,1148.2,254.6z M1153.3,437.9c0.4,0.4,0.8,0.7,1.3,1c4,0,6.1-1.2,6.1-3.5c0-2.6-0.2-5.3-0.5-8.3
	c-0.3-3-0.5-5.2-0.5-6.7c-0.9-6.8-1.3-11.9-1.3-15.3c0-4.9-2.3-7.3-7-7.3c-0.9,0-1.8,0.4-2.7,1.1c-1,0.7-1.6,1.2-2.1,1.4h5.7
	c-1.1,1.1-2,2.2-2.7,3.5c-0.7,1.3-1.1,2.2-1.1,2.9c0.4,1.7,1.5,4.2,3.2,7.5c1.7,3.3,2.7,5,2.9,5.3l-2.2,1.6v16
	C1152.6,437.2,1152.9,437.5,1153.3,437.9z M1150.5,349.4c-1.5,0.5-2.2,1.2-2.2,2.1l0.3,1c0.4-0.2,1.6-0.6,3.7-1.1
	c2-0.5,3.5-1.4,4.3-2.7h-1C1153.7,348.6,1152,348.9,1150.5,349.4z M1149.7,334.7c-0.7,1.4-1.1,3.4-1.1,5.9c2.6-1.5,4.2-2.9,4.9-4.1
	c0.7-1.3,1.1-3.2,1.1-5.7C1152.1,332,1150.4,333.3,1149.7,334.7z M1150.5,261.8h8v-4.5C1155.7,257.3,1153,258.8,1150.5,261.8z
	 M1150.5,374.1l5.4,0.3c3.2,0,4.8-1.2,4.8-3.5c0-1.1-0.4-2.3-1.3-3.7c-0.9-1.4-1.8-2.4-2.9-3
	C1153.1,365.9,1151.1,369.2,1150.5,374.1z M1153.2,384.8c0.7,1.4,1.4,2.4,2.1,3.2c0.6,0.7,1.7,1.2,3.2,1.4c1.7-1.7,2.6-4,2.6-7
	c-3.6,0-5.7-0.8-6.4-2.6c-0.2,0-1.6,0.6-4.1,1.9C1151.5,382.4,1152.4,383.4,1153.2,384.8z M1166.4,338.4c0-0.6-0.2-1.6-0.5-2.9
	c-0.3-1.3-0.9-1.9-1.8-1.9c-0.6,0-1.3,0.3-1.9,1l-7.7,8C1162.5,342.5,1166.4,341.1,1166.4,338.4z M1156.5,312.9h1.9V309
	L1156.5,312.9z M1160.8,288.8c1.4,1.4,2.5,2.3,3.4,2.7c1.5-0.8,2.7-2.8,3.7-5.9c1-3.1,1.8-5.1,2.4-5.9h-8l1.9-1.9l-1-0.3
	c-1.3,0-2.4,1-3.3,3c-1,2-1.4,3.7-1.4,4.9C1158.7,286.3,1159.4,287.4,1160.8,288.8z M1168.3,271.7c4.5,0,8.6-1.5,12.3-4.6
	c3.7-3.1,7.7-7.4,12-12.9c2.8-3.4,4.9-5.9,6.5-7.5c1.6-1.6,3.1-2.5,4.6-2.7c0,0.2-0.3,0.9-1,1.9c-0.6,1.1-1,1.8-1,2.2
	c0,0.4,0.3,1.1,0.8,2.1c0.5,1,0.9,1.5,1.1,1.8c2.3-1.3,4.4-2.2,6.1-2.9c4.3-1.1,7.4-3.3,9.6-6.7c-1.7-1.1-3.2-1.8-4.6-2.1
	c-1.4-0.3-3.2-0.5-5.6-0.5c-7.2,0-13.1,1.1-17.5,3.2c-4.5,2.1-8.9,5.9-13.4,11.2l0.6,0.3c0.6,0,1.4-0.3,2.4-1c1-0.6,2-1.2,3-1.6
	l0.3,1c0,1.5-1.1,3.1-3.2,4.9c-2.1,1.8-5.2,3.9-9.3,6.2c-4.7,3-7.3,4.9-8,5.7C1165,271.1,1166.4,271.7,1168.3,271.7z M1180.6,346.5
	c8.2,9.3,19.2,13.9,33,13.9c7,0,13-0.6,17.9-1.9c4.9-1.3,8.6-4,11.2-8.3c-0.6-0.2-1.1-0.7-1.3-1.4c-0.2-0.7-0.3-1.5-0.3-2.4
	c0-1.1,0.3-2.1,0.8-3c0.5-1,1.3-1.4,2.4-1.4c0-1.9,0.8-4.4,2.6-7.3c0.2-0.4,0.6-1.3,1.3-2.7c0.6-1.4,1-2.7,1-4c0-1.1-0.3-2.6-1-4.6
	c-0.6-2-1-3.6-1-4.6c0-0.6,0.4-1.5,1.1-2.6c0.7-1.1,1.2-1.7,1.4-1.9c0-0.6-1.2-2.2-3.5-4.8c-2.3-2.6-3.5-4.3-3.5-5.1
	c0-0.8,0.4-2,1.1-3.4c0.7-1.4,1.1-2.3,1.1-2.7c-0.4-0.6-1.2-2.1-2.2-4.5c-1.1-2.3-1.6-3.8-1.6-4.5v-5.4c0-1.9-0.3-3.3-1-4.3
	c-0.6-1-1.7-2.2-3.2-3.7c-2.8-1.9-4.1-4.4-4.1-7.3c-1.9,0-4.6-0.9-8-2.7c-3.4-1.8-5.7-3.1-7-4l-12.1,1.9v-2.2
	c-1.3,0-2.7,0.5-4.3,1.6c-1.6,1.1-3.1,2.2-4.6,3.5c-3.8,3.4-6.8,5.1-8.9,5.1c-0.9,0-1.5-0.1-1.9-0.3l-5.7,8.3h-1.9
	c-1.5,0-3.6,4.4-6.2,13.2c-2.7,8.8-4,15.3-4,19.3C1168.2,325.8,1172.4,337.3,1180.6,346.5z M1173.8,355c0.4-0.8,0.6-1.5,0.6-1.9
	c-0.4-1.5-1.3-2.6-2.6-3.3c-1.3-0.7-2.4-1.1-3.5-1.1l3.8,7.7C1172.8,356.2,1173.3,355.8,1173.8,355z M1184.3,376h7.7v-2.9
	C1187.3,373.2,1184.7,374.1,1184.3,376z M1211.1,374.1c-1.7-1.1-3.3-1.6-4.8-1.6c-3,0-4.8,1.7-5.4,5.1h14.7
	C1214.3,376.3,1212.8,375.2,1211.1,374.1z M1228,372.2h-6.7l3.8,3.8C1227,375,1228,373.7,1228,372.2z M1227.8,245.2
	c-0.7,0.9-1.1,1.8-1.1,2.9h6.7c0-1.1-0.3-2-0.8-2.9c-0.5-0.8-1.3-1.3-2.4-1.3C1229.4,243.9,1228.6,244.4,1227.8,245.2z
	 M1255.1,264.4c-0.9,0.6-1.6,1.8-2.2,3.5l3.8,0.3h1c3,0,4.7-0.8,5.1-2.6c-0.6-1.1-1.2-1.7-1.8-1.9c-0.5-0.2-1.3-0.3-2.4-0.3
	C1257.1,263.4,1256,263.7,1255.1,264.4z M1256.7,287.3c7.9,0,11.8-1.7,11.8-5.1c0-0.4-0.2-1.2-0.5-2.2c-0.3-1.1-0.8-1.8-1.4-2.2
	c-2.8,1.1-5.7,2.4-8.9,4.1c-3.2,1.7-4.8,2.9-4.8,3.5C1252.9,286.7,1254.2,287.3,1256.7,287.3z M1264.4,320.7c2.1,1,3.5,1.6,4.1,2.1
	h1c1.1,0,1.9-2.5,2.4-7.5c0.5-5,0.8-9,0.8-12c0-1.7-0.4-3.5-1.1-5.4c-0.7-1.9-1.8-2.9-3-2.9c-2.6,2.6-4.7,4.2-6.5,4.9
	c-1.8,0.7-3,1.3-3.7,1.8c-0.6,0.4-1,1.3-1,2.6h10.5c0,0.2,0.1,0.7,0.3,1.4c0.2,0.7,0.3,1.7,0.3,2.7c0,1.5-0.9,3.3-2.7,5.4
	c-1.8,2.1-3.5,3.7-4.9,4.8C1261.1,319,1262.2,319.7,1264.4,320.7z M1268.8,333.6l-0.3-2.9c-1.3,0.4-3,1.2-5.1,2.4
	c-2.1,1.2-3.7,2.4-4.8,3.7l6.1,5.7C1267.4,340.6,1268.8,337.6,1268.8,333.6z M1262.1,353.4c0,1.1,0.2,2,0.6,2.9l3.8-3.8l-3.5-0.3
	C1262.4,352.3,1262.1,352.7,1262.1,353.4z"/>
<g>
	<g>
		<path class="st0" d="M608.5,303.4c-1.8-4.1-2.5-8.5-2.2-12.9c0.1-2.5,1-4.8,2.5-6.7c1.3-1.5,2-3.5,1.8-5.5
			c-0.2-2.1-1.2-4.1-2.9-5.4l-1.2-0.9c-2.6-2.1-5.3-4-8-5.8c-6.1-4-13.8-5.1-20.8-2.8c-0.7,0.2-1.4,0.5-2,0.8c-1.9,1-4.1,1.4-6.2,1
			l-3.6-0.9c-2-0.5-4-1-6-1.5c-0.9-0.3-1.7-0.9-2.3-1.6c-4.4-5.3-9.1-6.2-15.2-2.8c-0.8,0.5-1.8,0.6-2.8,0.4
			c-2.3-0.9-4.6-2.1-6.7-3.5c-1.4-0.9-2.9-1.6-4.4,0.6c-0.4,0.4-0.9,0.5-1.5,0.5c-1.7-0.7-3.3-1.6-4.7-2.7l-0.5-0.4
			c-2.2-2-4.5-4.1-8.1-2.6l0,0c-3.8-0.5-7.5,1.6-9,5.1c-0.2,0.5-0.5,1-0.8,1.4c-0.5,0.8-0.9,1.5-1.2,2.3c-0.4,1.3-1.6,2.2-3,2.1
			l-2.6,0.2c-2.6,0.2-5.2,0.3-7.8,0.7c-1.3,0.2-2.6,0.6-3.9,1.1l-1.7,0.6c-0.3,0.1-0.5,0.2-0.8,0.3c-0.5,0.2-1,0.4-1.5,0.4
			c-4.3-0.4-5.9,0.5-8,4.2c-0.4,0.7-0.7,1.4-1,2c-0.3,0.7-0.8,1.6-1.2,2.3c-0.9,1.6-1.8,2.6-3.5,2.5h-1.2l0.5-1.4l-1,1.4l0,0
			c-2.1,0-4.2,0-6.3,0.1h-1.7c-1.9-0.1-3.5,1.3-3.8,3.1c-0.6,2.6-1.1,5.1-1.7,7.7l-0.3,1.3c-0.1,0.3,0.1,0.6,0.3,0.8
			c0.1,0,0.1,0.1,0.2,0.2l0.4,0.4l0.9-0.6l-0.4,2.7l1.7,1l0.4-1.2l7.8,3.1v2.9h1.5l0.8-2.3l0.3,0.1l0,0l0.3,0.4
			c0.1,0.2,0.2,0.4,0.4,0.6c0.2,0.5,0.5,0.9,0.8,1.3l-0.3,0.7l0.4-0.6l0,0c1.2,0.8,1.7,2.3,1,3.6c-0.1,0.6,0,1.2,0.4,1.8l0.3,0.8
			l-0.7,4l1.5,0.4l0.5-0.8l0,0c0.3,0.8,0.5,1.7,0.6,2.5c0.9,4.3,1.1,4.5,5.5,5.1c0.2,0,0.4,0,0.6,0c0.2,0,0.4,0,0.6,0l0.7,0.4
			c1,0.5,1.9,1.1,2.7,1.8c0.1,0.5,0.1,1,0,1.5c0,0.4,0,0.9,0,1.3v1.1l2.1-1.3c0.2,0.5,0.3,0.9,0.5,1.4c0.6,1.3,0.9,2.6,1.1,4
			c0.1,6.4,0,12.9,0,19.2v3.9l-1.4,0.6l1.3,2.9v0.1c-0.6,4.8-0.1,9.7,1.4,14.3c0.4,1.1,0.6,2.2,0.5,3.3c-0.5,2.7-1.1,5.5-1.7,8.1
			l-0.6,2.6l-2.7,12c-1.9,8.7-3.9,17.6-5.7,26.4c-2,10.7-5,21.3-9,31.5l-1.7,4c-1.3,3-2.7,6.2-3.7,9.4c-2.5,7.9-5,16-7.3,23.8
			l-4.2,13.8c-0.8,2.5-1.6,4.9-2.3,7.3l-0.6,1.8v-0.7c-0.3-3.4-0.5-6.7-0.8-10.1l-1.2-14.8l-0.6-7.4c-0.7-8.3-1.4-17-2.3-25.4
			c-0.2-1.8-0.3-3.6-0.4-5.3c-0.2-5.6-1.3-11.2-3.3-16.4c-0.8-1.8-1.5-3.7-2-5.6c-3.8-14-6.2-28.4-7.2-42.9c-0.3-4-0.9-8.1-1.8-12
			c-0.9-4.6-2-9.2-3-13.6c-0.5-2.2-1-4.3-1.5-6.5c-0.1-0.3-0.1-0.6-0.2-0.9c0.5-0.3,0.9-0.8,1.1-1.4c0-0.7-0.2-1.5-0.8-2
			c-0.2-0.2-0.3-0.5-0.5-0.7c-0.1-0.2-0.2-0.5-0.3-0.7c-0.2-0.4-0.4-0.9-0.5-1.3c-0.8-3.9-1.7-8.4-2.3-12.7
			c-0.1-0.9,0.2-1.8,0.6-2.7c0.8-1.7,1.7-3.3,2.5-4.9c1.3-2.5,2.7-5,3.8-7.7c1.5-3.3,2.8-6.7,4.1-10c0.7-1.8,1.4-3.7,2.2-5.5
			c0.8-1.8,1.7-4.2,2.6-6.3c1.4-3.3,2.8-6.7,4.1-10.1c0.1-0.3,0.3-0.7,0.4-1c0.4-2,1.7-3.7,3.4-4.7c0.6-0.3,1.1-0.9,1.4-1.5
			c0.2-0.7,0-1.5-0.4-2.1c-0.2-0.2-0.6-0.3-0.9-0.3c0.8-0.5,1.6-1,2.3-1.4l0.4-0.2c1.1-0.6,1.8-0.9,2.7-0.2c0.4,0.2,0.9,0.2,1.3,0
			h0.4h0.5c0.5,0,1,0,1.5,0.1c0.5,0.2,0.9,0.5,1.4,0.8c0.4,0.3,0.8,0.5,1.3,0.8c1.7,1.2,4,0.9,5.2-0.8c0.2-0.3,0.4-0.6,0.5-1
			c0.3-0.5,0.5-1,0.8-1.5c0.3-0.5,0.4-0.8,0.7-1.3c2.4-5.3,8.1-8.3,13.9-7.2c4.8,0.8,6.5-0.2,8.3-4.7c0.2-0.6,0.4-1.1,0.5-1.7
			c0.1-0.4,0.2-0.9,0.3-1.3l0.3-0.8c0.3-1,0.7-2,1.2-2.9c1.6-2.7,2.1-5.9,1.3-9c-0.6-2.6-2.3-4.8-4.7-6.1c-0.7-0.5-1.1-1.3-1.1-2.2
			c0-2.9,1.3-4.7,4.7-6.1c3.2-1.3,6.3-2.7,9.4-4.4c1.2-0.8,2-2,2.1-3.5c0-1.7-0.4-3.3-1.1-4.8c-0.8-1.7-1.8-3.3-3-4.9
			c-0.6-0.6-1.3-1.1-2.2-1.3c-0.7-0.3-1.4-0.4-2.1-0.4c-0.9-0.2-1.7-0.4-2.6-0.7c-1.7-0.5-3.2-1.7-3.9-3.3c-0.5-1.6-0.3-3.4,0.6-4.9
			c0.3-0.5,0.6-1,0.9-1.5c0.6-0.8,1-1.8,1.4-2.7c0.6-1.7,0.9-3.5,0.7-5.2c-0.3-1.8-0.8-3.5-1.4-5.2c-0.3-0.8-0.5-1.6-0.8-2.3
			c-0.4-1.5-1.6-2.7-3.1-3.2c-1.7-0.6-3.2-1.6-4.5-2.7c-1.1-1.3-2.7-2.1-4.3-2.1c-1.5,0.4-2.7,1.4-3.4,2.8c-0.8,1.3-1.5,2.6-2.3,4
			c-0.3,0.5-0.5,1-0.8,1.5c-0.4-0.4-0.9-0.7-1.4-1.1c-1.3-0.9-2.5-1.9-3.5-3.1c-2.7-3.6-5.8-6.7-9.4-9.4c-1.5-0.9-2.3-2.6-2-4.2
			c0.5-2.6,1.2-5.2,2.1-7.7c1.6-3.3,0.6-7.3-2.3-9.4c-1-0.8-2.1-1.5-3.2-2.1c-1.8-1.1-4-1.4-6-0.7c-1.5,0.6-2.8,1.8-3.3,3.3
			c-0.9,3.2-3.6,5.7-6.9,6.3l-0.8,0.2c-1.9,0.5-1.9,0.5-3.1-1.3c-1.3-2-3.5-3.3-6-3.4c-1.7-0.1-3.5-0.4-5.2-0.6
			c-1.2-0.2-2.3-0.3-3.5-0.4c-0.8-0.1-1.6-0.1-2.3,0h-1.6l-0.9-0.7c-0.8-0.6-1.7-1.3-2.5-1.9c-1.1-0.9-2.4-1.3-3.8-1.2
			c-1.2,0.3-2.3,1.2-2.8,2.3c-1,1.6-2.8,2.6-4.7,2.6h-1.3l-2.3,0.2c-3.1,0.3-6.6,0.6-8.1,4.7c-1.1,3-1.1,3-4.3,2.1l-0.8-0.2
			l-0.6-0.1c-4.4-1.6-8.4-4-12-7l-2.7-2l-2.3-1.8c-1.1-0.9-2.3-1.7-3.5-2.6c-1.7-1.4-4.2-1.1-5.6,0.6c-1.7,1.5-3.4,3-5.1,4.5
			l-3.3,2.9l-2.1,1.9c-2,1.8-4.1,3.6-6,5.6c-2.1,2.5-5.2,3.8-8.5,3.6c-2.4-0.1-4.9,0.1-7.3,0.5l-2.5,0.3c-1.8,0.1-3.1,1.5-3.2,3.3
			c0,0.9-0.1,1.8-0.2,2.7c0,0.9,0,2.2-0.2,3.3c-0.2,1.8-0.5,3.6-0.8,5.4l-0.3,1.9c0,0.1-0.1,0.3-0.1,0.4c-0.2,0.4-0.3,0.8-0.2,1.2
			c0.6,1.6-0.1,2.7-1.7,4c-0.5,0.4-1,0.8-1.5,1.2c-0.7,0.5-1.4,1.1-2,1.7c-1.9,1.9-4.8,2.6-7.3,1.6c-1-0.4-2-0.3-2.9,0.2
			c-0.9,0.8-1.3,1.9-1.3,3c0,0.9-0.3,1.8-0.4,2.7c-0.2,0.9-0.3,1.6-0.4,2.3c-0.4,3.6-0.8,6.6-1,9.6c-0.1,2.1,1.1,4,3,4.7
			c0.5,0.3,1,0.6,1.4,1c0.2,0.2,0.5,0.4,0.8,0.7l0.3,0.2l0.3-0.1c0.1,0,0.3-0.1,0.4-0.2c0.3-0.2,0.6-0.3,1-0.3
			c4.7,0.6,8.2,4.4,8.5,9.1c0,1.1-0.1,2.1-0.3,3.2c0,0.4,0,0.9,0,1.3c0,1-0.2,1.9-0.3,2.8c-0.2,2.1-0.5,4.3-0.5,6.5
			c0,1.4,0.1,2.8,0.4,4.2c0.1,0.9,0.3,1.9,0.4,2.9c0.4,6.3,1.2,6.6,7.2,7c2.3,0.3,4.5,0.7,6.7,1.4c0.8,0.2,1.7,0.4,2.5,0.6l-1.6,4
			l2.9-1.7l0.3,1.8c0.4,1.9,0.6,3.7,0.7,5.6c0,2.8,1.8,5.3,4.5,6c3,0.5,5.7,2,7.7,4.2c1.1,1.2,2,2.6,2.6,4.1
			c0.2,0.4,0.4,0.9,0.7,1.4c0.7,1.2,1.5,2.3,2.6,2.6c1.3,0,2.4-0.6,3.2-1.6l3.1-3c1.1-1.1,2.1-2.2,3.2-3.2l1-1
			c1.9-2.2,4.3-3.8,7-4.7v2.7l1-0.9c0.3-0.3,1.1-0.9,1.3-0.9c0.3,0,0.7,0.5,0.8,0.8l0.3,0.4l1.6-0.8l1.5,2.2c1.5,2.1,3,4.4,4.7,6.5
			c0.9,1.1,2,2.5,3.3,2.7c1.3,0.2,1.6,0.8,2.1,1.9l0.1,0.3c1.9,4.2,3.5,7.3,5.1,10.2c1.1,1.9,2.3,3.7,3.5,5.5
			c0.7,1.1,1.5,2.2,2.2,3.3c1.6,2.5,3.2,5.1,4.7,7.6c3.3,5.3,6.7,10.8,10.2,16.1c0.6,0.9,1.2,1.7,1.8,2.5c1.8,2.2,3.2,4.7,4.2,7.5
			c0.6,2,1.4,4,2.3,5.9l0.3,0.7c0.5,1.2,1.1,2.3,1.6,3.5c1,2,1.8,4.2,2.4,6.4c1.3,4.6,2.3,9.3,3.1,14.1c1.7,9.6,3.9,22.2,5.9,35.2
			c3.2,20.5,6.1,39,8.6,56.3c0.8,5,1.4,10.2,2,15.1c0.5,4.5,1.1,9.1,1.7,13.6c1.3,9,2.8,18.8,4.9,31.3c1.1,4.8,0.9,9.8-0.7,14.4
			c-0.5,0.9-0.5,2,0,3c0.8,0.9,2,1.4,3.2,1.3h0.6v-4l1.7,8.1l0.8-0.8c1.5-1.5,1.9-3.8,1.1-5.7c-0.4-1.1-0.3-1.8,0.3-2.3l1.6,1.5
			l1.5-1l-2.3-4.1l0.4-1.5c0.4-1.5,0.8-3.2,1.2-4.7l0.4-1.8c0.4-1.6,0.8-3.2,1.4-4.7c2.6-6.4,4.4-13.2,5.3-20
			c0.3-1.9,0.6-3.7,0.9-5.6c0.7-4.2,1.3-8.5,2.3-12.6c3.2-12.1,7.7-23.7,13.5-34.8c0.9-1.8,1.6-3.8,2.2-5.7
			c1.7-6.7,3.4-13.6,4.9-20.5c0.7-2.9,1.3-5.7,1.9-8.6c0.7-3.3,1.4-6.6,2.2-9.9l0.7-3.2c0.6-3.5,1.6-7,3-10.3
			c3.7-8,9.3-14.9,16.4-20.2c2-1.5,4.2-2.8,6.4-4.1c1.3-0.8,2.7-1.6,4-2.3c2.8-1.8,5.6-3.7,8.4-5.6l2.9-1.9c1-0.5,2.2-0.5,3.2,0
			c0.7,0.2,1.3,0.7,1.5,1.4c0.1,0.4,0.3,0.8,0.5,1.2l0.2,0.4l0.4,0.8l1.6-2l2.1,0.4l6,1.2c3.8,0.8,5.7,0,7.5-3.4
			c0.6-1.1,1.1-2.2,1.7-3.3c0.5-1.1,0.8-1.6,1.2-2.3l0.4-0.8c0.5-1.1,1.1-2.2,1.8-3.2c0.5-0.6,1.2-1,2-1c0.7,0,1.3,0.4,1.7,1
			l0.2,0.3h0.4l1-0.2c0.5-0.1,1-0.2,1.5-0.1c1,0.2,1.9,0.4,2.8,0.7c0.6,0.1,1.2,0.3,1.8,0.4c3.2,0.8,6.5,0.4,9.4-1.1
			c1.2-0.6,2.6-1.1,3.9-1.4c2.6-0.4,5.3,0.3,7.5,1.8c1.2,0.9,2.8,1.2,4.3,1c0.9-0.3,1.7-1,2.1-1.9c2.3-4.2,3.9-7.5,5.3-10.7l0.5-1.3
			c1.7-3.8,3.2-7.5,6.9-9.8c1.9-1.2,2.8-3.4,2.3-5.5C609.8,308,609.3,305.7,608.5,303.4z M568.8,335.4c-0.1,0.2-0.3,0.3-0.5,0.4
			c-1.2-0.2-2.5-0.5-3.8-0.8H564c0.9-0.7,1.9-1.1,3-1.2c0.6-0.1,1.2,0,1.7,0.4C569,334.5,569,335,568.8,335.4z M486.5,383l-1.1,4.7
			c0.3-1.5,0.6-2.9,1-4.4C486.5,383.2,486.5,383.1,486.5,383z M539.3,339c-0.9,1.8-1.7,3.7-2.5,5.5l-0.4,0.8l2.7-9
			C539.9,337.1,539.9,337.8,539.3,339L539.3,339z M537.5,333.1c0,0.1,0,0.2,0,0.4c-0.9,3.2-1.8,6.3-2.8,9.6l-0.8,2.7l-1.1-0.5
			L537.5,333.1z M528.2,341.7H528H528.2l0,0.2c0,0.1,0.1,0.1,0.2,0.2h-0.1h-0.1c-0.4-0.4-1.9-1.6-1.8-2c0.5-2.2,1.3-4.4,2.3-6.4
			c0.8-1.6,1.7-3.1,2.5-4.7c0.8-1.6,1.6-2.9,2.3-4.3c0.4-0.9,0.7-1.8,0.8-2.7c0,0,0,0,0-0.2c0.7,1.1,0.9,2.6,0.4,3.8
			c-1.3,3.3-2.8,6.5-4.3,9.7l-1.7,3.8c-0.2,0.4-0.4,0.8-0.5,1.1C528,340.7,528,341.2,528.2,341.7z M490.6,280.7
			c0.3-0.6,0.6-1.2,0.9-1.8c0.1-0.1,0.3-0.1,0.4-0.2c0,0.2,0,0.5,0,0.5C491.6,279.8,491.1,280.2,490.6,280.7L490.6,280.7z
			 M484.7,294.8c0.2,0,0.3,0.1,0.5,0.2l0.4,0.3l-6.7,17.1l-2.9-0.3L484.7,294.8z M488.3,296c0.3,0,0.6,0.1,0.9,0.3l0.5,0.2
			l-7.9,17.4c-0.2-0.1-0.4-0.2-0.5-0.4c-0.1-0.3-0.1-0.6,0-0.9c2-5.2,4-10.4,6-15.7C487.7,296.2,487.9,296,488.3,296z M531.6,339.7
			c0.9-2.1,1.8-4.1,2.7-6.2c0.4-0.9,0.9-1.9,1.4-2.9c-0.3,0.8-0.6,1.6-0.8,2.5c-0.5,1.4-1,2.9-1.5,4.3c-0.1,0.5-0.3,1-0.5,1.5
			c-0.4,0.9-1,1.7-1.9,2.2L531.6,339.7z M495.5,300.7c0.4-0.6,0.6-1.2,0.8-1.9c0.1-0.5,0.3-1,0.8-1.2c0.2-0.1,0.5-0.2,0.8-0.2
			c0.3,0,0.6,0,0.9,0l-12.2,21.9c0-0.4,0.1-0.8,0.2-1.1c2-4.2,4.1-8.4,6.2-12.6l2.1-4.3C495.3,301.2,495.3,300.9,495.5,300.7
			L495.5,300.7z M517.7,323.9c-1.3,2.8-2.6,5.7-3.9,8.5l-0.7,1.5c-1.3,2.8-2.7,5.7-4.2,8.5c-0.1,0.3-0.9,0.4-1.5,0.6l-0.5,0.1l0,0
			c-0.1-0.4-0.1-0.8,0-1.2c1.5-2.9,3-5.7,4.5-8.5c1.5-2.8,2.7-5,3.9-7.5c0.3-0.6,0.4-1.3,0.5-2c0-0.3,0-0.5,0-0.8l0.2-0.8l-1.6,0.3
			l-9.7,18.1c-1.3-1.4-1.5-3.6-0.4-5.2c1.6-2.8,3.1-5.6,4.7-8.4l1.7-3.2c0.4,0.3,0.8,0.4,1.3,0.4c0.9,0,1.5-0.9,2-1.6l0.2-0.2
			c0.6-0.8,1.3-1.6,1.9-2.3c0.8-0.8,1.3-1.2,1.7-1.2c0.4,0,0.8,0.5,1.4,1.4L517.7,323.9z M519.8,333.8c1.1-2.5,2.2-5.2,3.3-7.8
			c0.8-2,0.9-2.2,2.9-2.2v0.2c-0.1,0.6-0.3,1.1-0.6,1.7l-0.7,1.5c-1.3,2.9-2.7,5.9-4.2,8.8c-0.1,0.3-0.8,0.5-1.4,0.7l-0.5,0.2l0,0
			L519.8,333.8z M523.2,335.6c1.5-3.4,3.1-7,5.2-11.5l0,0c0.1-0.2,0.2-0.3,0.4-0.4h1.6h1.5l-8.1,14.8
			C522.3,337.5,522.4,337.4,523.2,335.6L523.2,335.6z M521.1,324.2L521.1,324.2c-1.7,4.2-3.5,8.7-5.6,12.8c-0.6,1-1.4,1.8-2.3,2.5
			l7.9-16.8C521.2,323.1,521.2,323.6,521.1,324.2z M509.2,321.8c-0.5,1.3-1.2,2.6-1.9,3.8l-0.4,0.7c-1.2,2.1-2.3,4.2-3.6,6.3
			l-1.2,2.1c-1.2-1.2-1.2-2.6-0.2-4.7s1.9-4.2,2.7-6.3c0.4-1.2,0.9-2.3,1.4-3.5c0.5-1.1,0.9-1.9,1.4-2.9c0.2-0.5,0.5-1,0.8-1.5
			l0.2-0.4C509.7,317.2,510,319.7,509.2,321.8L509.2,321.8z M503.6,304.6c-1.2,3.1-2.6,6.1-4,9c-1.2,2.3-2.5,4.9-3.8,7.4
			c-0.9,1.7-1.7,3.3-2.6,5c-0.3,0.6-0.4,1.3-0.3,2l-2.3-1.6l0.2-0.2l0.2-0.2c0.3-0.2,0.5-0.4,0.7-0.7l1.3-2.5
			c2.3-4.5,4.9-9.1,7.2-13.7c0.5-1,0.8-2,1.1-3.1c0.2-0.6,0.4-1.3,0.6-1.9c0.2-0.5,0.5-1,0.8-1.5h0.2v0.2
			C503.5,303.4,503.6,304,503.6,304.6L503.6,304.6z M496.8,328.4c-0.1,0.4-0.4,0.9-0.7,1.1s-0.8,0-1.2-0.4l-0.8-0.5v-0.1
			c2.5-3.8,4.8-7.8,6.7-11.9c-0.5,1.6-1.1,3.3-1.7,4.9C498.3,323.8,497.7,326.1,496.8,328.4L496.8,328.4z M498.9,307.1
			c-1.1,2.2-2.3,4.4-3.5,6.5c-0.7,1.3-1.5,2.6-2.2,3.9c-1,1.8-2,3.8-3,6c-0.3,0.7-0.4,1.6-0.2,2.3c-0.3-0.2-0.6-0.5-0.9-0.8
			c-1.2-0.8-1.5-2.5-0.7-3.7c0,0,0-0.1,0.1-0.1c2.7-4.7,5.4-9.7,8-14.5l2.6-4.8C500,303.6,500,304.6,498.9,307.1L498.9,307.1z
			 M499.7,327.9c1-3.1,2-6.3,3-9.4l1.9-5.9c0.1-0.3,0-0.7-0.1-1v-0.3V311l-0.9-0.2c0.4-0.8,0.7-1.7,1-2.6c0.1,0.5,0.3,0.9,0.5,1.4
			l0.4,0.7c0.7,1.6,1.6,3.2,2.6,4.7l0.2,0.2h-0.3c-1.9-0.5-2.5,1-2.9,1.9c-1,2.3-1.9,4.7-2.8,6.8l-1.9,4.7c-0.2,0.6-0.5,1.1-0.8,1.7
			C499.4,329.6,499.5,328.8,499.7,327.9L499.7,327.9z M487.4,352.2v-1.9c0-5.3,0-10.7,0-16c0-2.3,0-4.7,0-7c2.9,2.6,6.2,4.5,9.9,5.7
			c1.3,0.4,1,2.5,0.8,3.3c-1.4,5.8-3.2,12.2-5.3,19.4c-0.7,2.3-1.6,4.8-2.3,7.2l-1,2.6c-0.1,0.3-0.2,0.6-0.4,0.8
			C487.6,361.8,487,357,487.4,352.2z M501.6,340.5l2.6,5l0.2,0.2c3.4,2.3,6.1,0.2,9.1-2l0.4-0.3c1.3-0.9,2.4-1.9,3.4-3.1
			c0.4-0.4,1-0.6,1.5-0.7h0.3l-0.8,3.9l1.9,0.6l1.3-3.7l5,4.4l-31.9,19.5L501.6,340.5z M549.5,333.8l-0.2,0.4l-0.4,0.6
			c-0.2,0.2-0.3,0.4-0.4,0.7l-1.5,3.1c-1.3,2.9-2.7,5.8-4.2,8.6c-0.5,0.2-1,0.3-1.5,0.3h-0.7v-0.1c0.5-1,1-2,1.4-3
			c1.1-2.6,2.4-5.1,4-7.5C546.9,335.4,548.2,334.4,549.5,333.8z M546.9,346.8c1.1-1.6,2.2-3.2,3.2-4.7c0-0.2,0.2-0.3,0.3-0.5
			c-0.6,1.6-1.3,3.3-2,5.1c-0.3,1-1.3,1.7-2.3,1.6C546.2,347.8,546.5,347.3,546.9,346.8z M552.8,333.8c-1.1,0.3-2,1.2-2.2,2.3
			c-0.1,0.2-0.1,0.4-0.2,0.6c0.2-0.8,0.2-1.6,0-2.3l-0.2-0.9l0.2-0.1l1.3-0.8c0.5,0,1.1,0.2,1.5,0.5c0,0.2,0,0.4,0,0.5L552.8,333.8z
			 M493,268.7l1.4-3.5l-1.1-0.7h0.1c1,0,2.1,0,3.2-0.1L493,268.7z M492.2,264.6h0.4v0.2l-0.4,0.5c-0.2,0.3-0.4,0.6-0.6,0.9
			L492.2,264.6z M489.5,277.5c0,0.1,0,0.1,0,0.2c-4.8,10.6-9.7,21.1-14.6,31.6l-0.5,1l-0.2,0.4l-0.1-0.6L489.5,277.5z M484.8,316.2
			c2.3-4.7,4.7-9.2,7.2-13.7c-1,2.2-2.1,4.3-3.2,6.4c-1.4,2.6-2.7,5.3-3.9,8C484.8,316.5,484.7,316.2,484.8,316.2L484.8,316.2z
			 M556,334.2h1h-1.4l0,0H556z M520.1,255.2c1.6,1.2,3.2,2.3,5,3.2c3.2,1.7,3.7,1.6,6.1-1l1.1,0.6c1.1,0.6,2.3,1.2,3.4,1.9
			c2.6,2.2,6.3,2.3,9.1,0.4c3.4-2.1,7.9-1.2,10.3,2c1.4,1.5,3.1,2.7,5.1,3.4c2.1,0.7,4.2,1.2,6.3,1.5c1.1,0.2,2.2,0.4,3.2,0.7
			c2.5,0.4,5.1,0,7.4-1.1l1.8-0.6c6.3-2,13.1-1,18.6,2.7c2.9,1.9,5.6,3.9,8.2,6.1l0.2,0.2c0.9,0.7,1.5,1.8,1.7,3
			c0.1,1-0.2,1.9-0.9,2.7c-3.9,4.5-3.9,9.9-3.4,15c0.3,2.1,0.9,4.2,1.7,6.2c0.3,0.9,0.6,1.8,0.9,2.7l0.1,0.5l0.6,1.9
			c1.1,2.6,0.1,5.6-2.3,7c-2.5,1.9-4.3,4.6-5.2,7.6c-0.4,0.8-0.7,1.6-1.1,2.3c-1.4,2.9-2.8,5.8-4.2,8.7l-1,2.2
			c-0.4,0.9-0.9,1.1-1.8,0.6c-1.3-0.6-2.7-1.2-4-1.8c-1.5-0.6-3.1-1-4.7-1c-2.4,0.1-4.7,0.7-6.7,1.9l-1,0.5l-0.3,0.1
			c-1.5-3.1-4.8-4.9-8.3-4.7c-0.8,0-1.5,0.2-2.3,0.3c-1.2,0.2-2.3,0.3-3.5,0.3c-2.4-0.2-4.7-0.7-7-1.5c-2.1-0.5-4.3,0.1-5.9,1.5
			c-1,0.6-1.9,1.3-2.8,2.1l-0.7,0.5l-0.6-2l-2.3,2.7c-0.2-0.3-0.4-0.6-0.5-1c-0.5-1.8-0.9-3.6-1.4-5.4c-0.4-1.8-0.8-3.3-1.2-4.9
			c-0.2-0.7-0.4-1.4-0.8-2c0-0.3-0.2-0.5-0.3-0.8c-0.5-1.3-1-2.1-1.8-2.3c-0.8-0.2-1.6,0.3-2.6,1.3c-0.7,0.6-1.5,0.9-2.3,1.1
			c-2.1,0.2-4.2,0.3-6.4,0.3l0,0c-0.4-0.1-0.7-0.3-0.9-0.6c-0.2-0.2-0.4-0.5-0.5-0.7c0-0.2-0.2-0.4-0.3-0.6c-1.3-2-2.7-3-4.1-3.1
			c-1.4,0-2.9,0.9-4.3,2.9c-0.2,0.3-0.5,0.7-0.8,0.9c0-0.4,0.2-0.9,0.3-1.3s0.2-1.2,0.3-1.8l0.2-1.3l-1.6-0.3l-0.5,0.7l-0.3-0.4
			c-0.6-0.7-1.2-1.5-1.6-2.3c-1-2-1.8-4.2-2.6-6.3l-0.7-1.7c0-0.2,0-0.5,0-0.7c0-0.2,0-0.4,0-0.6c-0.1-1.2-0.6-2.3-1.5-3.1
			c-1-0.5-2.1-0.6-3.1-0.2l0.3-2.7c0.1-0.7-0.1-1.3-0.5-1.9c-0.5-0.5-1.1-0.7-1.7-0.7h-1.6c-1.1,0-2.2-0.1-3.3-0.2
			c-2.2-0.4-4.3-0.9-6.8-1.5l-2.5-0.6c0.7-1.1,1.4-2.1,2-3.1c1.8-2.8,3.4-5.4,5.3-7.8c1.1-1.5,1.7-2.5,1.5-3.5
			c-0.2-1-0.9-1.5-2.3-2.3c-0.6-0.3-1-0.6-1-1c-0.1-0.3,0.1-0.8,0.7-1.5c1.4-1.9,2.9-3.8,4.3-5.6l2-2.7l-1.3-1h0.9
			c3,0,6.2-0.4,7.5-4.4c0.3-0.9,0.7-1.8,1.2-2.6c0.2-0.3,0.4-0.6,0.5-0.9c1.9-3.4,4.6-4.6,9-3.7c1.4,0.3,2.8,1,3.8,2L520.1,255.2z
			 M491,267.3l-2.7,6.3c-1.9,4.5-3.9,9.2-6,13.8c-1.2,2.5-2.5,5.1-3.8,7.5s-2.3,4.4-3.3,6.6c-0.9,2-1.3,4.1-1.4,6.2v1.2
			c-0.4-1.9-0.9-3.7-1.2-5.5c0-0.7,0.2-1.4,0.5-2c1-1.9,2-3.9,3-5.9c1.7-3.4,3.5-7,5.2-10.6c1.6-3.5,3.1-7.2,4.5-10.7
			c0.8-2.1,1.7-4.2,2.5-6.2c0.4-0.9,0.8-1.7,1.3-2.5l0.1-0.3v1.6L491,267.3z M478.2,271.4l-0.5,0.3c-0.5,0.2-0.9,0.6-1.2,1l-0.4,0.7
			c-0.4,0.6-0.7,1.3-1,1.9c0.4-0.7,0.7-1.4,1-2.1c0.1-0.3,0.2-0.5,0.4-0.8c0.8-1.1,1-2.5,0.5-3.7c0.6-0.6,1.2-1.1,2-1.4
			c0.7-0.1,1.4-0.1,2.1,0h0.7l-0.3,0.8c-0.3,0.9-0.7,1.8-1.2,2.6c-0.3,0.4-0.5,0.7-0.8,1.1l-0.9-0.8L478.2,271.4z M465.5,282.1
			c-0.9,2.8-1.9,5.7-2.9,8.6h-0.4L465.5,282.1z M462.8,282.8l-2.8,7.5c-0.5-0.1-1.1-0.3-1.2-0.4s0-0.2,0.3-0.8l0.1-0.3
			C460.3,286.8,461.5,284.8,462.8,282.8L462.8,282.8z M456.7,284.3c0.6-1.7,1.6-3.2,2.9-4.5L456.7,284.3z M496.5,367.1l-4.2,5.3
			C492.9,370.1,494.5,368.3,496.5,367.1L496.5,367.1z M455.1,498c-0.8,4-2,7.9-3.4,11.7c-1.2,3.3-2.2,6.7-3.1,10.2
			c-0.3-1.5-0.2-3.1,0.4-4.5c1.7-4.7,3.3-9.4,4.9-13.9C454.3,500.2,454.7,499,455.1,498z M439,455.4c-1-4.9-2.1-9.8-3.2-14.5
			c-2.3-9.3-4.2-18.8-5.5-28.3l2.7,11.7c0.5,2.3,1.1,4.7,1.6,6.8c1.1,4.7,2.3,9.6,3.2,14.4C438.3,448.8,438.7,452.1,439,455.4z
			 M314,170.4v-0.1c0.1-1.5,0.3-3,0.5-4.5c0.1-0.3,0.4-0.5,0.6-0.6c1.5-0.3,3.1-0.5,4.7-0.8L314,170.4z M318,170.4
			c1.2-1.2,2.5-2.3,3.7-3.6c0.3-0.3,0.5-0.6,0.8-1c0.2-0.4,0.5-0.7,0.8-0.9l0,0c0.4-0.3,0.9-0.4,1.4-0.5h0.3l-7.9,6.9L318,170.4z
			 M458.3,267.1l0.6,0.3l-0.2,0.4c-0.3,0.8-0.6,1.6-1,2.3c-0.2,0.1-0.5,0.2-0.8,0.2c-1.1-0.5-2.2-1.1-3.2-1.7l-0.9-0.6l0,0l0.8-0.5
			c0.8-0.5,1.7-0.9,2.6-1.1C457,266.5,457.7,266.7,458.3,267.1z M445.6,268.1c-1,0.5-2,1.1-3.1,1.6l0,0l1.6-5.3
			c0.9,0.6,1.5,1.5,1.7,2.5l0.3,0.7C446,267.8,445.8,267.9,445.6,268.1z M374.3,273.6l0.8,1.8c-0.9-0.6-1.9-2.1-4.7-6.7l1.7-3
			c2-3.4,4-6.5,6-9.7c0.1-0.2,0.8-0.4,1.4-0.5l0,0l-7,16.1l1.6,0.9l0.3-0.5l0.5-0.7c0.4-0.6,0.8-1.1,1.1-1.8c0.9-2,1.8-3.9,2.7-5.9
			c1.3-3,2.7-6.1,4.1-9.1c1.2-2.2,3.4-3.6,5.9-3.7c1.3-0.1,2.5,0.4,3.2,1.5l-1.6-0.6l-1.4,3.1c-0.9,2-1.8,4-2.7,6.1
			s-1.6,3.8-2.3,5.7c-1,2.3-2,4.7-3,7c-0.5,1.1-1.1,1.8-1.8,1.9c-0.7,0.1-1.5-0.4-2.3-1.4c-0.1-0.1-0.2-0.3-0.2-0.5l-0.1-0.4
			l-0.3-0.7L374.3,273.6z M396.9,284.2l1.5,1.1l0.4-0.3l0.3-0.3c0.4-0.2,0.7-0.5,0.9-0.8c2.9-5.5,5.8-11,8.7-16.6
			c1.1-2.3,2.2-4.4,3.2-6.6c1-1.9,2.9-3.2,5-3.4l-0.7,1.9l-1.4-0.7l-0.3,0.3c-0.1,0.1-0.2,0.2-0.3,0.3c-0.4,0.2-0.7,0.6-0.8,1.1
			c-1,5.2-2.9,10.2-5.7,14.7c-1.1,2.1-2.3,4.3-3.3,6.6c-0.4,1-0.5,2.1-0.3,3.1c-2.6,2-4.1,2.7-5.3,2.5c-1.2-0.2-2.3-1.1-3.9-3.4
			l0.3-0.4l0.4-0.4c0.4-0.4,0.6-0.8,0.8-1.3c1.6-5,3.8-9.7,6.5-14.2c0.4-0.8,0.9-1.6,1.3-2.3c0.9-2,2.8-3.3,4.9-3.5L396.9,284.2z
			 M394,281.6l-0.2,0.4c-0.1-0.1-0.2-0.3-0.3-0.4H394z M406.6,283c0.1-0.5,0.2-0.9,0.4-1.3c0.6-1.2,1.2-2.3,1.9-3.6
			c1.1-2.1,2.3-4.3,3.2-6.5c0-0.1,0-0.2,0-0.3c-1,2.7-1.9,5.5-2.9,8.3C408.8,281,407.9,282.3,406.6,283z M400.4,266.6l-4,9.4
			c0.1-0.7,0.3-1.3,0.6-2l0.4-1.2c0.7-2.3,1.7-4.5,3.1-6.5L400.4,266.6z M396.4,269.4c-1.1,2.5-2,5.1-2.9,7.8
			c-0.3,0.9-0.6,1.9-1,2.8c-0.3-0.4-0.7-0.8-1.1-1.3c-0.4-0.4-0.6-1.2-0.2-2.1c1.2-2.6,2.3-5.3,3.6-8c0.6-1.3,1.1-2.6,1.7-3.8
			C397.3,266.3,397.3,268.1,396.4,269.4L396.4,269.4z M394.9,261.8c-1.1,5.2-3.3,10.1-6.3,14.5h-0.3l-1.5-0.7l0,0
			c3.7-4.7,6.4-10.1,7.9-15.9v0.2C394.9,260.6,395,261.2,394.9,261.8L394.9,261.8z M384.6,274.1c-0.2,0.2-0.9,0.4-1.5,0.5h-0.4
			c0.4-1,0.9-2,1.3-2.9c1.2-2.8,2.3-5.4,3.3-8.1c0.6-1.7,1.3-3.4,2.2-5c0.9-1.9,1.7-3.9,2.3-5.9v-0.4c0.4,0.6,0.7,1.2,1,1.8
			c0.3,0.7,0.5,1.4,0.7,1.8v0.2l-0.5,1.1c-0.5,0.7-0.8,1.5-1,2.3C390.5,264.9,388,269.9,384.6,274.1L384.6,274.1z M435.8,267.1
			c-1,2.9-1.8,5.8-2.3,8.8c-0.7,2.8-2,5.5-3.9,7.7l0.3-0.6c0.3-0.7,0.6-1.3,0.8-2c1.1-4,2.3-8,3.4-12l1.7-5.8l1.1,0.6
			C436.7,264.9,436.2,266,435.8,267.1L435.8,267.1z M433.8,262c-1.7,5.3-3.4,10.9-4.9,16.2l-1.1,3.5c-0.1,0.4-0.1,0.8,0,1.2v0.9
			l1.5,0.4v0.1c-0.7,1.6-2.5,2.3-4.1,1.6c-0.3-0.1-0.6-0.3-0.9-0.6c1-2.5,2-5,3.3-7.4c2.8-4.9,4.5-10.3,4.9-15.9v-2l-1.1,1.7
			l-0.3,0.4c-0.4,0.4-0.6,0.9-0.7,1.4c-0.8,4.6-2.4,9.1-4.7,13.1c-0.8,1.7-1.7,3.4-2.5,5.2c-0.3,0.6-0.7,1.1-1.2,1.5l-0.4,0.4
			c-2.2-1-2.2-1.1-1-3.7c0.9-2.1,2-4.2,3.1-6.3c2-3.4,4-6.8,6.1-10.1l2-3.3c0.6-1.1,0.8-1.2,1.4-0.8c0.9,0.4,1.2,1.4,0.8,2.3
			C433.8,262,433.8,262,433.8,262L433.8,262z M420.2,263.4l-1.4,3.2c-1.9,4.3-3.8,8.8-5.7,13.2c-0.1,0.3-0.7,0.6-1.2,0.8l-0.5,0.3
			l0,0c1.1-2.9,2.1-6,3.1-8.9c1.4-4.5,3-8.9,4.9-13.2C421.2,260.5,421.2,261.3,420.2,263.4z M415.6,280.8c1-3.6,2.4-7.1,4.2-10.4
			c1.1-2.3,2.2-4.6,3.1-7l2.7,1.9l-8.6,16L415.6,280.8z M436.2,274.6c0.1-0.5,0.3-1,0.4-1.5c0.9-3,1.8-5.9,2.9-8.7
			c0.5-0.2,1-0.3,1.6-0.4l0.7-0.1C440.7,268.6,439.3,272.1,436.2,274.6L436.2,274.6z M371,255.6l0.7-0.8c0.6-0.7,1.1-1.4,1.6-2.2
			c0.3-0.5,0.4-1.1,0.4-1.6v-0.2c0.5,0.7,0.9,1.4,1.4,2.2c-0.1,0.3-0.3,0.6-0.5,0.8c-2.9,3.3-5.5,6.3-8.1,9.2
			c-0.3,0.2-0.6,0.3-1,0.4h-0.2L365,263L371,255.6z M372.7,249.7c-0.7,0.8-1.3,1.6-1.9,2.3c-1.3,1.6-2.6,3.2-3.9,4.7
			c-0.7,0.8-1.3,1.6-1.8,2.5c-0.6,1.3-1.5,2.4-2.6,3.3c1.4-3,3.2-5.8,5.4-8.3c1.5-1.9,3-3.8,4.2-5.9l0.5,0.7c0,0.2,0.2,0.3,0.3,0.5
			L372.7,249.7z M375.6,255.8l-7,10.8l-1.3-1.5L375.6,255.8z M379.4,278.2c1.6-0.6,2.7-1,4,0c0.6,0.3,1.3,0.4,1.9,0.3
			c0.4-0.1,0.8-0.1,1.2,0c2.2,1,4,2.7,5.2,4.9l0.9,1.3l0.5,0.7c0.3,0.4,0.6,0.8,0.9,1.2c3.7,4.4,6.6,4.7,11.2,1.2l1.2-0.8l0.3-0.2
			l0.3,1c0.4,1,0.6,2,0.8,3c0.9,7.3,1.8,14.5,2.6,21.8l1.2,10.5c0.3,1.9,0.5,3.9,0.6,6l-0.3-0.5c-0.6-1.2-1.2-2.5-1.9-3.8
			c-1.2-2.6-2.6-5.2-4.1-7.7c-2.2-3.7-4.7-7.4-7-11l-3.1-4.7l-1.5-2c-1.1-1.5-2-3.1-2.9-4.7c-2.5-4.5-5.4-8.7-8.9-12.5l-1.8-2.2
			c-0.5-0.5-1-1.1-1.6-1.5l-0.2-0.2L379.4,278.2z M437.8,278.2c-2.4,4-4.5,8-6.4,12.2c-0.9,2.3-1.7,4.6-2.3,7
			c-0.6,2.3-1.3,4.5-2.2,6.6c-1.4,3.4-3.2,6.8-4.9,10.1c-0.8,1.6-1.7,3.2-2.5,4.7c-0.3,0.7-0.6,1.3-0.9,2v-1.1c0-0.4,0-0.8,0-1.3
			c-0.2-1.8-0.5-3.6-0.9-5.4c-0.3-1.4-0.7-2.9-1.1-4.3s-0.9-3.3-1.2-5c-1.3-6.1-2.5-12.2-3.7-17.9c-0.1-0.5-0.1-1,0-1.5l0,0l2,0.6
			l0.2-0.3c0.9-1.1,1-1.1,2.7-0.2c0.8,0.5,1.7,1,2.5,1.5c1.6,0.9,3.2,1.9,4.9,2.7c2.5,1.3,5.5,0.4,7-1.9c0.7-0.8,1.3-1.7,1.8-2.7
			c1.5-2.7,3.3-5.2,5.5-7.5L437.8,278.2z M340.5,252.6l-0.4,0.6c-1.1,1.4-2.4,2.7-3.8,3.8l-1.3,1.1c-0.6,0.6-1.3,1.1-1.9,1.6
			c-0.7,0.5-1.3,1-1.9,1.5c-0.5,0.6-0.7,1.3-0.7,2.1v1.3c-1.6-0.4-2.6-1.9-2.2-3.5c0.1-0.6,0.5-1.2,1-1.6c2.2-2.5,4.5-4.9,7-7
			c3.9-3.3,7.3-7.3,9.9-11.7c0.7-1.2,1.6-2.2,2.6-3.2l1.4-1.5l0.8-1l0.7-0.9l-1.7-1.4l-0.4,0.4l-1.5,1.5c-1.2,1.1-2.3,2.3-3.2,3.7
			c-3.2,5.4-7.4,10.2-12.4,14.1l-3.9,3.3l-1.1,1c-0.6-1.3-0.2-2.1,1.2-3.8c2.1-2.6,4.4-5,6.6-7.5c4.7-4.9,9-10.2,12.8-15.8
			c0.3-0.5,0.7-0.9,1.1-1.2c0.3,2.6,2.3,3.8,4.1,4.9l0.6,0.3c0.7,0.6,1.2,1.4,1.4,2.2c0.2,0.3,0.3,0.7,0.5,1
			C348.6,240.9,344.5,247,340.5,252.6z M341.8,199.4c-0.4-0.1-0.8-0.1-1.2,0l-0.6,0.4c-3.8,2.3-7.6,5-11.4,7.6
			c-0.9,0.6-1.7,1.4-2.5,2.1l-1.1,1.1l-4.5,3.9l-7.9,7l-2.7,2.5l-0.5,0.5c0.1-1.3,0.7-2.4,1.7-3.2c2.1-1.9,4.2-3.9,6.3-5.9
			c3-2.8,6-5.7,9.1-8.4s5.8-4.7,8.8-7l2.2-1.6c0.4-0.2,0.8-0.3,1.2-0.3c0.3,0,0.7,0,1,0c0.7,0.1,1.3,0.3,1.9,0.8
			C341.7,198.9,341.8,199.2,341.8,199.4L341.8,199.4z M312.6,224.6c3.9-2.7,7.5-5.8,10.8-9.1c2.3-2.3,4.9-4.7,7.5-6.7
			c1.6-1.2,3.3-2.3,5.1-3.4c1-0.6,2-1.2,2.9-1.8c0.9-0.6,1.7-1.2,2.6-1.9h0.2c-0.2,0.6-0.5,1.1-0.9,1.5c-4.2,3.8-8.5,7.7-12.6,11.5
			l-1.7,1.5c-5.5,5-10.9,10.1-16.4,15.2c-0.5,0.5-0.9,1-1.2,1.5l-0.3,0.4c0-0.4,0-0.8,0-1.1C308.4,229.1,310,226.2,312.6,224.6z
			 M309.4,235.2l32-29.7c0.4,2.2-0.3,4.4-1.9,6l-8.2,7.6c-4.5,4.2-9.2,8.6-13.8,12.8c-1.4,1.2-2.9,2.3-4.5,3.3
			c-0.7,0.5-1.5,1-2.2,1.5l-2.1,1.6c0-1.3-0.2-2.6-0.2-3.9L309.4,235.2z M308.9,240.4c0.3,0.2,0.7,0.2,1,0l2.8-1.9
			c2.3-1.5,4.6-3.2,6.7-5c5-4.5,9.9-9.1,14.7-13.7l4.4-4.2c-0.1,0.2-0.3,0.5-0.5,0.7c-1.4,1.1-1.9,3-1.3,4.7L310,244.6l0.8,1.2
			l0.4-0.2h0.3c0.3-0.1,0.6-0.3,0.8-0.6c7.6-5.6,14.8-11.9,21.4-18.6c0.8-0.8,1.7-1.5,2.5-2.2h0.2c1.8-1.5,2.2-1.7,4.3-1.4l-0.5,0.6
			c-0.7,1-1.4,1.9-2.2,2.8c-1.9,1.9-3.8,3.8-5.7,5.8c-1.6,1.6-3.1,3.1-4.7,4.7l-0.5,0.5c-2.5,2.6-5.1,5.2-7.4,8
			c-1.3,1.5-2.3,2.3-4.2,1.8c-0.9-0.2-1.8-0.3-2.7-0.4c-0.7,0-1.4-0.1-2.1-0.2c-0.5-0.1-1-0.4-1.3-0.8
			C309.3,244,309.1,242.2,308.9,240.4L308.9,240.4z M344.9,222.3h0.1c-0.7,1.1-1.4,2.1-2.1,3.2c-1.7,2.7-3.5,5.3-5.6,7.7
			c-4.7,4.8-8.8,10.1-12.5,15.6l-0.5,0.7l0,0l-4.2-1.7L344.9,222.3z M326.2,252.1c0-0.4,0-0.8,0.1-1.2l2.3-3c2.8-3.8,5.8-7.7,9-11.3
			c3.1-3.2,5.8-6.9,7.8-10.9c0.5-1.2,1.2-2.3,2.1-3.3c0.4-0.4,0.9-0.6,1.5-0.6c0.2,0.4,0.3,0.9,0.4,1.3c0,0.7-0.1,1.4-0.2,2.1l0,0
			l-0.3,0.3l-1,1.1c-0.8,0.8-1.6,1.6-2.2,2.6c-3.7,5.4-7.8,10.4-12.3,15.1c-2.3,2.5-4.7,5-6.7,7.7l-0.3,0.2L326.2,252.1z
			 M309.6,219.5c0-0.2-0.1-0.3-0.2-0.5c-0.3-0.8-0.6-1.7-0.8-2.6c0-0.4,0.2-0.8,0.5-1c2.1-1.9,4.3-3.8,6.4-5.7l4.7-4.2l10.8-9.6
			c0.5-0.4,0.9-0.8,1.4-1.3l0.4-0.3l2.3,2.2L309.6,219.5z M327.3,196.4c-2.9,2.6-5.8,5.3-8.8,7.8s-5.5,4.7-8.5,7l-3.5,2.9l-1.4-1.3
			l2.3-2.3c1.9-2.1,4-4,6.3-5.8c4.3-3.1,8.1-6.9,11.4-11c1.2-1.5,1.9-2.2,2.5-2.3c0.6-0.1,1.5,0.6,3,1.9L327.3,196.4z M312.1,203
			c-1.9,1.4-3.6,3-5.1,4.7l-2,2.1c-0.4,0.4-0.9,0.9-1.2,1.4l-0.3,0.3l-3.1-1.4c3.2-3.2,6.6-6.3,9.9-9.4c6.1-5.2,11.7-10.9,16.8-17.1
			l1.9-2.4l-2.7,1.6l-0.6,0.3c-0.5,0.2-1,0.5-1.4,0.9l-2.9,2.8c-7.4,7-15.1,14.4-22.5,21.6c-1,0.9-1.7,0.7-2.7,0.4l-0.7-0.2
			c-0.9-0.1-1.5-0.8-1.6-1.6l0.5,0.3c11.2-10.2,23.7-18.8,33.8-30.4c-0.9,0.2-1.7,0.6-2.3,1.3c-2.8,2.7-5.4,5.6-8.4,8.1
			c-7,6-14.4,11.7-21.6,17.7c-0.8,0.8-1.5,1.6-2.1,2.5c0-0.3,0-0.5,0-0.8c-0.6-2.4,0.7-4.9,3-5.8c2.2-1.3,4.2-2.8,6-4.5
			c0.9-0.7,1.7-1.5,2.6-2.2l3.3-2.6c2.5-2.1,5.1-4.1,7.9-5.9c4.2-2.8,7.9-6.3,11-10.3l0.6-0.7c0.2,0.8,0.6,1.6,1.1,2.2
			c2.2,2.9,0.7,5.5-0.9,8.5C324.5,192,318.9,198.3,312.1,203z M294.7,198.7c0-0.3,0-0.6,0.2-0.9c0.3-1.9,0.5-3.6,0.9-5.3
			c0.2-0.3,0.5-0.6,0.9-0.7c2.6,1,5.5,0.7,7.9-0.8C301.8,194.1,298.5,196.7,294.7,198.7z M325.9,172.4l2.1-1.9
			c-0.1,0.5-0.1,1-0.1,1.5l-0.5-0.6l-0.4,0.6c-3.7,4.9-8.3,9-13.6,12l0,0l6.3-5.7L325.9,172.4z M331.2,265l-0.8-0.2l1-0.8
			c1.1-0.9,2.2-1.8,3.3-2.6c3.6-2.4,6.7-5.5,9.1-9.2c2.6-4.8,6.3-8.8,10.9-11.7l1.3-0.8l1.6,2.3l-1.7,1.8c-1.5,1.5-3,3.1-4.7,4.6
			c-4.7,4-8.7,8.8-11.9,14.1c-0.4,0.7-0.8,1.3-1.3,1.9l-0.2,0.3c-1.6,2.3-1.6,2.3-4.2,1.1l0,0C332.8,265.4,332,265.1,331.2,265z
			 M357.3,245.8l-2.2,2.6c-1.4,1.6-2.8,3.3-4,5c-2.6,3.7-5.1,7.5-7.5,11.1l-3.1,4.7l-0.6,0.9l-1.6-1.6
			C342.8,259.5,350,252.5,357.3,245.8z M341.9,271.4c1.9-2.6,3.7-5.4,5.4-8.1c2.8-4.8,6.1-9.2,9.8-13.3c1.4-1.6,2.6-3.4,3.5-5.3
			c0.4-0.8,0.8-1.5,1.3-2.2c0.2-0.3,0.3-0.6,0.3-0.9c0-0.2,0-0.3,0-0.5l0.1-0.4c0.1-0.3,0.3-0.8,0.5-0.9h0.4c0.3,0,0.6,0.1,0.9,0.2
			c2.3,2.8,2.6,6.8,0.5,9.9c-1.5,2.5-3,5-4.5,7.5c-1.5,2.5-3.1,5.3-4.7,8c-0.4,0.5-0.9,1-1.4,1.4c-0.3,0.2-0.6,0.5-0.9,0.8l-2.7,2.7
			c-1.8,1.8-3.6,3.6-5.4,5.3c-0.4,0.4-0.8,0.7-1.3,1l-0.3,0.2c-0.1-0.3-0.3-0.5-0.4-0.8c-0.6-1.2-1.1-2.3-1.6-3.6
			C341.5,272,341.7,271.7,341.9,271.4z M369.5,247.4l-8.4,12.2l7.5-12.5L369.5,247.4z M407.9,149.1c0.1,0.6,0.4,1.1,0.9,1.3
			c0.5,0.1,1.5,0.3,2.2,0.5c1.9,0.5,3.9,0.8,5.8,0.9c3.5,0,6.6,0,8.6,3.4c0.5,1,1.4,1.7,2.5,2c1.1,0.2,2.2-0.1,3.1-0.7
			c0.8-0.5,1.6-0.8,2.5-1.1c2.6-0.3,4.7-2.2,5.3-4.7c0.2-0.7,0.5-1.3,0.9-1.9l0.3-0.5c0.6-1.5,2.4-2.2,3.9-1.6
			c1.4,0.5,2.6,1.2,3.8,2.1c1.9,1,2.6,3.3,1.6,5.2c0,0,0,0,0,0.1l-0.4,0.9c-0.5,1.4-1.1,2.8-1.5,4.2c-1,4-1.4,8.6,4.2,12.4
			c2.1,1.6,4,3.5,5.5,5.6c2.2,2.8,4.9,5.1,8,6.8c0.6,0.4,1.3,0.6,2,0.4c0.6-0.2,1.2-0.7,1.4-1.3l0.8-1.5c0.5-1,1-2,1.5-2.9
			c1-1.6,1.6-2.5,2.2-2.6c0.6-0.1,1.4,0.6,2.7,1.8c0.1,0.1,0.2,0.2,0.2,0.2c0.2,0.3,0.6,0.6,1,0.7c4.4,0.9,5.3,4.4,6.3,8.1l0.3,1
			c0,0.1,0.1,0.3,0.2,0.4c0,0.4,0,0.8,0,1.2c-0.1,0.9-0.3,1.8-0.6,2.7c-0.4,0.9-0.8,1.8-1.3,2.6c-0.3,0.6-0.7,1.1-1,1.7
			c-2.1,3.5-1.2,8,2.1,10.5c1.5,1,3.1,1.8,4.9,2.3c0.7,0.2,1.3,0.5,2,0.8c0.3,0.1,0.6,0.2,1,0.2c0.2,0,0.5,0.1,0.7,0.1
			c1.3,1.8,2.5,3.8,3.4,5.8c0.3,0.5,0.3,1.1,0.2,1.7c-0.3,0.7-0.9,1.1-1.6,1.4c-3.7,1.5-7.2,3.3-10.3,4.8c-2.4,1.3-4,3.7-4.1,6.4
			c-0.2,2.6,1,5.2,3.2,6.7c3,2.1,3.9,6.2,2.1,9.4c-1,2.1-1.8,4.4-2.3,6.7c-1.2,4.3-2.2,5-6.5,4.4c-3.9-0.7-8,0.3-11.1,2.8l-3.8,3.1
			l-1.4,1.1c-2.4-1.6-5.7-1.3-7.7,0.8c-0.7,0.8-1.7,1.3-2.7,1.2c-0.7-0.1-1.4-0.8-2-2.1c-0.7-2-2.6-3.3-4.7-3.3h-0.9
			c-2.2,0.2-3.3,0.1-3.8-0.4s-0.7-1.2-0.8-2.7c0-0.3-0.1-0.5-0.4-0.6c-0.1-0.1-0.2-0.2-0.3-0.3l-0.6-0.7l-0.4,0.8
			c-0.1,0.2-0.1,0.3-0.2,0.5c-0.2-0.1-0.3-0.2-0.4-0.3l-0.4-0.3c-0.3-0.2-2-1.1-2.9-0.5c-1.6,1-3,2.3-4.2,3.9
			c-0.2,0.4-0.8,1.3-1.1,1.4c-0.4,0-0.4,0-1.1-0.7c-0.4-0.5-0.6-1-0.8-1.5c0-0.3-0.2-0.6-0.3-0.9v-0.2h-0.2l-0.5-0.2
			c-0.3-0.1-0.6-0.2-0.8-0.5c-3.2-4.6-5-5-9.7-2.2l-1.5,0.9c-1.1,0.7-2.2,1.3-3.4,1.9c-1.7,0.7-3.4,1.4-5.2,2l-2.2,0.8l-1-0.8
			l-0.9,2.3l-1.9-5.7c-0.2-0.5-0.4-1.1-0.5-1.6c-0.4-1.3-0.8-2.5-1.4-3.7c-0.8-1.8-2.2-3.2-4.1-3.8c-1.9-0.6-3.9-0.4-5.6,0.6
			c-1.1,0.6-2.1,1.3-3.1,2l-0.8,0.6c-1.4,1-2.1,1.3-2.6,1.2c-0.5-0.1-1.2-0.9-2-2.2l-0.4-0.7c-0.9-1.7-2.2-3.2-3.9-4.1
			c-2.8-0.8-4.9-3.1-5.5-6c-0.1-0.4-0.3-0.8-0.5-1.1c-0.6-1.7-2.5-2.5-4.1-1.9c-0.3,0.1-0.6,0.3-0.8,0.4c-0.8,0.4-1.5,0.9-2.2,1.5
			l-0.4,0.3c0-0.4,0-0.8-0.1-1.2c0-0.1,0-0.2,0-0.3c0-0.4-0.1-0.8-0.3-1.1c-0.4-0.7-0.9-1.4-1.5-2l-0.8-0.9c-0.8-1-1.7-1.8-2.7-2.6
			c-1.4-0.9-1.9-1.7-1.8-2.9v-0.6c0.1-1.4,0.2-2.8,0.3-4.2c0.2-1.3-0.2-2.5-1-3.5c-1-0.7-2.3-1-3.5-0.6c-1.4,0.2-2.7,0.4-4.1,0.6
			l-0.8,0.1l0.5-0.9l-0.9-0.9l-2.6,1.2c0.4-0.6,0.8-1.1,1.2-1.7c3.7-5.6,3.8-11.9,3.5-17.9c0-2.3-1.7-3.9-4.5-4h-0.4
			c-0.8,0.1-1.7-0.1-2.5-0.5c-2.1-1.3-4.1-2.9-6.1-4.3l-1.9-1.4l0.6-1.5c0.5-1.6,1.2-3.2,1.9-4.7c1.4-2.5,1.2-5.6-0.5-7.9
			c-1.8-2.7-1.3-5.1,0.2-8.4c0.1-0.3,0.2-0.6,0.3-1l0.2-0.8l0.6-2.1L313,181.1c0-2.3,1.1-4.4,2.8-5.8c0.8-0.6,1.5-1.3,2.3-2
			c1.1-1,2.2-2,3.4-2.9c1-0.8,2-1.7,2.8-2.7c1.4-2,3.4-3.3,5.8-3.8c0.4,0,0.7-0.2,0.9-0.6v-0.1l2.3-2.3c1.7-1.6,3.4-3.2,5.2-4.7
			l5.7-4.9c2.3-1.9,4.7-4,6.9-6c1.3-1.2,2.2-1.3,3.4-0.3c2.6,2.1,5,4,7.4,5.8l0.8,0.5c4.6,3.4,9.4,6.9,15.4,7.9h0.3
			c3.2,0.5,3.5,0.3,4.5-2.9c0.4-2.4,2.4-4.2,4.9-4.2c0.7,0,1.4,0,2.1-0.2h0.4h1.1c3.2-0.3,6.6-0.6,8.6-4.4c0.2-0.4,0.5-0.7,0.8-0.8
			c0.7-0.2,1.7,0.4,2.7,1c0.9,0.6,1.5,0.9,2.3,1.4l1.5,1L407.9,149.1z"/>
		<path class="st0" d="M378.4,273.7c2-6.8,4.9-13.2,8.7-19.2c0.3-0.4,0-1.1,0-1.8c-0.4,0-0.6,0-0.7,0.2c-3.8,6.3-6.8,13-9,20
			c-0.1,0.4,0.1,0.8,0.3,1.6C377.9,274.3,378.2,274,378.4,273.7z"/>
		<path class="st0" d="M364.8,243.1l-0.8-0.4c-0.5,0.7-1,1.4-1.4,2.1c-2.3,3.9-4.7,8-7.4,11.7c-3.1,4.5-6.4,8.6-9.5,12.9
			c-0.4,0.7-0.7,1.3-0.9,2.1l0.6,0.3C352.2,262.4,360.2,254,364.8,243.1z"/>
	</g>
</g>
</svg>
