<?xml version="1.0" encoding="utf-8"?>
<!-- Generator: Adobe Illustrator 23.0.2, SVG Export Plug-In . SVG Version: 6.00 Build 0)  -->
<svg version="1.1" id="Слой_1" xmlns="http://www.w3.org/2000/svg" xmlns:xlink="http://www.w3.org/1999/xlink" x="0px" y="0px"
	 viewBox="0 0 1280 600" style="enable-background:new 0 0 1280 600;" xml:space="preserve">
<style type="text/css">
	.st0{fill:#FFFFFF;}
</style>
<path class="st0" d="M283.3,201.8c0,0-0.6,1.2-1.8,3.7c-1.2,2.4-2,4.1-2.4,4.9c-1.7,6.8-3.2,14.6-4.5,23.4
	c-1.3,8.8-1.9,16.4-1.9,22.8c0,3.4,0.1,5.7,0.3,7l-11.5,39.6l-3.2,11.8c-7.2,25.5-13.7,47.1-19.5,64.6
	c-5.7,17.5-10.3,26.3-13.7,26.3c-3.2,0-8-0.9-14.4-2.6c-7-1.5-11.6-2.2-13.7-2.2c0-0.8-0.6-1.9-1.8-3c-1.2-1.2-2.1-2-2.7-2.4
	l-9.9-31.6c0.2-0.4,0.3-1.1,0.3-1.9c0-2.8-1.7-7.3-5.1-13.7c-1.3-2.8-2.5-5.6-3.7-8.5c-1.2-2.9-1.8-5.3-1.8-7.2
	c0-1.1,0.1-1.8,0.3-2.2l-16-51.4c0-1.1,0.3-1.8,0.8-2.2c0.5-0.4,1-0.8,1.4-1.3l-3.8-2.2c-0.2-0.6-2-5.8-5.3-15.5
	c-3.3-9.7-5.9-14.5-7.8-14.5c-1.3,0-4.1,10.7-8.6,32.2l-3.5,12.4C108.9,365,95,403.4,88.4,403.4c-1.7,0-4.8-0.5-9.3-1.4
	c-4.5-1-6.7-1.9-6.7-2.7c-0.2,0-1.2,0.4-2.9,1.3c-1.7,0.9-3.6,1.3-5.7,1.3c-2.8,0-6.5-6.2-11.3-18.5c-4.8-12.3-8.7-23.9-11.6-34.8
	l-9.6-35.7l0.3-1.6c0-2.6-1.6-7.7-4.8-15.3c-1.5-3.6-2.9-7.3-4.1-11.2s-1.9-6.9-1.9-9.3l0.3-1.9c-1.7-4.9-3.7-11.1-5.9-18.7
	c-2.2-7.5-4.1-13.8-5.6-18.7c-0.6-2.3-2-6.3-4.1-11.8c-2.1-5.5-3.7-10-4.6-13.6c-1-3.5-1.4-6.9-1.4-10.1c0-2.8,1.9-4.5,5.7-5.3
	c3.8-0.7,9-1.1,15.6-1.1c4.3,0,7.7,0.3,10.4,0.8c2.7,0.5,4,1.8,4,3.7c0,0.2-0.1,1.7-0.2,4.5c-0.1,2.8-0.9,4.7-2.4,5.7
	c1.7,1.7,2.6,3.6,2.6,5.7c1.7,10.2,3.8,19.7,6.4,28.4c2.6,8.7,6,18.9,10.2,30.6c0.8,2.8,2.5,7.7,4.9,14.8c2.4,7.1,4.5,13.9,6.2,20.3
	v1.9l16,49.1c0,0.4,0.1,0.6,0.3,0.6c0.4,0,1.4-0.9,2.9-2.7c1.5-1.8,2.2-3,2.2-3.7l25.8-92.2v-8c0.6-2.8,1.9-7.5,3.8-14.4
	c1.9-6.8,3.8-13.2,5.7-19.1c2.3-8.1,4.5-15.3,6.4-21.7c1.9-1.9,4.1-3.1,6.5-3.7c2.4-0.5,5.8-0.8,10.1-0.8c17.7,0,26.5,1.5,26.5,4.5
	c0,1.7-1,3.5-3,5.4c-2,1.9-3,3.8-3,5.7c0,3,0.7,6.4,2.1,10.4c1.4,3.9,3.4,9.1,5.9,15.5c3,7.2,4.9,12.6,5.7,16
	c4.9,10,9.1,19.5,12.6,28.4c3.5,8.9,5.3,16.6,5.3,23l11.8,31.6c-0.2,0.4-0.3,1-0.3,1.6c0,2.3,1,5.1,2.9,8.1c1.9,3.1,3.7,5.1,5.4,5.9
	c3.6-6,6.9-15.8,9.7-29.7c2.9-13.8,6.7-34.6,11.6-62.2c3.6-22.1,6.6-38.4,8.9-49c2.3-10.5,4.6-16,6.7-16.4c1.5,0,3.2,0.3,5.3,1
	c2,0.6,4.3,1,6.9,1c1.9,0,4.2-0.7,6.9-2.1c2.7-1.4,4.6-2.1,5.9-2.1c1.7,0,3.3,1.2,4.8,3.5c1.5,2.3,2.2,4.3,2.2,5.7
	C283.3,201.2,283.3,201.8,283.3,201.8z M40.8,264.6c-0.2-0.6-0.6-1.9-1.3-3.7c-0.6-1.8-1.5-3.6-2.6-5.3c-1.5-2.3-3.1-8.3-4.8-17.9
	c-1.9-10.2-3.9-17.9-6.1-23.1c-2.1-5.2-5.7-7.8-10.8-7.8v-2.2c-0.9,0-2.1,0.2-3.8,0.6c-1.7,0.4-3.1,1-4.1,1.6
	c1.9,2.3,3.7,6.5,5.4,12.4c0.4,0.9,0.8,1.9,1.1,3.2c0.3,1.3,0.8,2.6,1.4,3.8c0.6,1.1,1.3,3.2,2.1,6.4c0.7,3.2,1.3,5.6,1.8,7.3
	c0.6,0,1.8-0.3,3.5-1c1.7-0.6,3.2-1.6,4.5-2.9l-8,7.7v1c0,2.3,0.8,5.4,2.4,9.3c1.6,3.8,3.5,5.7,5.6,5.7c0.4,0,1.4-0.3,2.9-1
	c1.5-0.6,2.6-1,3.2-1c-1.1,0.6-2,1.6-2.9,3c-0.9,1.4-1.3,2.6-1.3,3.7c0,2.3,1.5,3.5,4.5,3.5c0.6,0,1.2-0.1,1.6-0.3
	c-1.1,0.9-2.3,2.1-3.8,3.7c-1.5,1.6-2.2,2.7-2.2,3.4l-0.3,0.3c0,0.2,0.3,0.8,1,1.8c0.6,1,1.2,1.8,1.6,2.4
	C37.7,274.8,40.8,269.9,40.8,264.6z M37.3,308.5c1.5,4.8,3.3,8.9,5.4,12.3c1.9,0,3.7-0.9,5.3-2.7c1.6-1.8,2.9-3.7,3.8-5.6
	c1-1.9,1.5-3.3,1.8-4.1H40.8v-3.2h9.9v-8.6c-1.1,0-2.3,0.7-3.7,2.1c-1.4,1.4-2.5,2.1-3.4,2.1c0-1.9,0.6-4.1,1.9-6.7
	c0.2-0.6,0.5-1.6,1-2.9c0.4-1.3,0.6-2.6,0.6-3.8l-0.3-1.6c-0.2-0.8-0.9-3.1-2.1-6.9c-1.2-3.7-2.2-5.6-3-5.6c-1.7,0-3.2,1.2-4.5,3.5
	c-1.3,2.3-2.7,5.3-4.1,8.9l-0.6,2.6h10.2c-0.6,0.2-1.7,0.7-3,1.4c-1.4,0.7-2.5,1.5-3.4,2.4c-0.9,0.9-1.3,1.9-1.3,3.2
	C35.1,299.3,35.8,303.7,37.3,308.5z M47.5,338.9c0.6,2.8,1.5,4.8,2.6,6.1c1.1,1.3,3,1.9,5.7,1.9c2.1,0,3.8-0.3,5.1-0.8
	c1.3-0.5,1.9-1.8,1.9-3.7c0-1.3-0.4-2.8-1.3-4.5c-0.9-1.7-1.8-2.8-2.9-3.2c-0.2,1.1-1,2.3-2.2,3.7c-1.3,1.4-2.1,2.1-2.6,2.1l-1-0.3
	c0.4-1.3,1.2-3.2,2.4-5.9c1.2-2.7,1.8-5.3,1.8-7.8c0-6.6-1.2-9.9-3.5-9.9c-2.6,1.5-4.8,3.5-6.7,6.1c-1.9,2.6-2.9,4.1-2.9,4.8v0.3H53
	l-7.7,4.8C46.4,334.3,47.1,336.4,47.5,338.9z M53,360c2.1,0,4.4-1.2,6.7-3.7c2.3-2.4,3.5-4.6,3.5-6.5l-0.3-1.3l-12.1,1.9
	c-0.2,0-0.3,1.1-0.3,3.2v1.6C50.4,358.4,51.3,360,53,360z M55.2,368.6h3.5c3,0,5.1-0.6,6.2-1.8c1.2-1.2,1.8-4,1.8-8.5
	c0-2.6-0.6-3.9-1.9-4.1C58.4,358.1,55.2,362.9,55.2,368.6z M112,310.9c-3.2,1.1-5.9,4.3-8,9.7c-2.1,5.4-4.3,12.7-6.4,21.9
	c-3,12.3-5.5,20.2-7.7,23.6c-1.1,1.7-2.9,3.8-5.6,6.4c-2.7,2.6-4.9,3.8-6.9,3.8c-1.5,0-2.6-0.3-3.2-1c-0.6-0.6-1.4-1.7-2.4-3.2
	c-1-1.5-2.2-2.2-3.7-2.2h-1.9c-5.1,0-7.7,1-7.7,2.9c0,0.6,0.5,1.8,1.4,3.3c1,1.6,1.9,2.8,2.7,3.7c1.3,0,3.8-0.6,7.7-1.9l-3.8,6.1
	l1.9,0.3c3.4,0,6.5-0.6,9.4-1.9c2.9-1.3,6.9-3.3,12-6.1l22-60.9V310.9z M88.4,382c-5.1,0-11.1,1.8-17.9,5.4c0.6,1.3,2.4,2.3,5.3,3.2
	c2.9,0.9,5.7,1.3,8.5,1.3C87,390.2,88.4,386.9,88.4,382z M116,301.9c1.6-2.6,2.4-6.2,2.4-10.8c-4.5,0-7.3,1.6-8.6,4.9
	c-1.3,3.3-1.9,7.6-1.9,12.9C111.7,306.8,114.4,304.5,116,301.9z M123.5,275.8c-5.3,0-8,1.2-8,3.5c0,2.3,0.7,3.7,2.2,4.1
	c-0.9,0-2.1,0.4-3.7,1.1c-1.6,0.7-2.4,1.3-2.4,1.8c0,0.4,0.2,1,0.6,1.8c0.4,0.7,1,1.2,1.6,1.4C118.8,285.7,122,281.1,123.5,275.8z
	 M128.4,262.2c1-2.7,1.4-5.1,1.4-7.2c-4,0-7.4,2-10.2,5.9c-2.8,3.9-4.1,8.1-4.1,12.6c2.6,0,4.9-0.4,7.2-1.3c2.2-0.8,3.3-2.3,3.3-4.5
	l-4.1-2.2c0.8,0.4,1.5,0.6,1.9,0.6C125.9,266.2,127.5,264.9,128.4,262.2z M120.9,248.8c-0.9,0.7-1.3,2.5-1.3,5.3
	c1.9,0,4-0.4,6.4-1.3c2.3-0.8,3.5-2.1,3.5-3.8c0-0.8-1.2-1.3-3.5-1.3C123.5,247.7,121.8,248.1,120.9,248.8z M128.1,236.7
	c2.4-1.2,4.3-2.1,5.6-2.7c-0.4-0.8-1-1.4-1.8-1.6c-0.7-0.2-1.5-0.3-2.4-0.3c-2.3,0-4.4,2.1-6.1,6.4
	C124.1,238.4,125.7,237.9,128.1,236.7z M131.8,239.7c-3.2,0-6,1.4-8.3,4.1h8.3V239.7z M153.1,238.6c2.6,0.3,6,0.5,10.2,0.5
	c0-2.8-0.7-6.6-2.1-11.6c-1.4-5-3.2-9.4-5.6-13.2c-2.3-3.8-4.8-5.7-7.3-5.7c-2.3,0-4.4,0.3-6.1,0.8c-1.7,0.5-3.4,1.7-5.1,3.4
	l4.1-3.8c0-0.2-0.5-0.6-1.4-1.1c-1-0.5-1.9-0.8-2.7-0.8c-3,0-4.8,1.3-5.4,4c-0.6,2.7-1,5.9-1,9.7h4.8c-0.2,0.2-1.3,1.1-3.3,2.6
	c-2,1.5-3,3.4-3,5.7c1.5,0,3-0.4,4.6-1.3c1.6-0.8,2.7-1.9,3.4-3.2c0.4,1.7,1.8,3.5,4.1,5.3c2.3,1.8,4.4,2.7,6.1,2.7
	c2.3,0,4.4-2,6.1-6.1c1.5,1.5,2.2,2.4,2.2,2.9c0,0.4-0.7,1.5-2.2,3.2c-1.5,1.7-2.9,3-4.1,3.8C149.3,237.5,150.6,238.3,153.1,238.6z
	 M154.1,245.3c0.4,0.5,0.8,0.8,1.3,0.8c0.6,0,1.6-0.5,3-1.4c1.4-1,2.3-1.8,2.7-2.4l-1.9-0.3c-2.1,0-4,0.6-5.7,1.9
	C153.5,244.3,153.7,244.8,154.1,245.3z M160.6,261.9c0.5,0.3,1.3,0.5,2.4,0.5c1.7,0,3.2-0.9,4.5-2.7c1.3-1.8,1.9-3.7,1.9-5.6
	c0-3.2-1.5-7.1-4.5-11.8c-0.6,0.6-2.2,2.1-4.6,4.3c-2.4,2.2-3.7,3.7-3.7,4.3c0,2.3,1.9,3.5,5.7,3.5c2.6,0,4-0.1,4.5-0.3
	c-3.6,1.9-6.2,3.8-7.7,5.7C159.6,260.9,160.1,261.6,160.6,261.9z M167,265.4c-1.6,2.4-2.4,4.5-2.4,6.2h10.5
	c-0.2-0.2-0.4-1.7-0.6-4.5c-0.2-2.8-1.1-4.6-2.6-5.4C170.3,261.7,168.6,263,167,265.4z M166.5,281c1.1,0.5,1.9,0.8,2.6,0.8
	c3.6-3.6,5.5-5.6,5.7-6.1c-0.9-0.4-2.1-0.6-3.8-0.6c-2.1,0-3.7,0.2-4.6,0.6c-1,0.4-1.4,1.6-1.4,3.5C165,279.9,165.5,280.5,166.5,281
	z M174.8,303.2c2.3-1.3,3.9-2.4,4.8-3.5c0.8-1.1,1.3-2.4,1.3-4.1c0-0.8-0.1-1.7-0.3-2.6c-0.2-0.8-0.7-1.4-1.6-1.6
	c1.1-1.1,1.6-2.1,1.6-3.2c0-1.3-0.4-2.7-1.3-4.3c-0.9-1.6-2-2.4-3.5-2.4c-1.1,0-2.5,1-4.3,3c-1.8,2-2.7,3.2-2.7,3.7
	c0.2,0.6,0.6,1.5,1.3,2.6c0.6,1.1,1,1.9,1,2.6c-0.2,0.4-0.6,0.9-1.3,1.4c-0.6,0.5-1,1.1-1,1.8h-0.3
	C168.2,296.5,170.4,298.7,174.8,303.2z M180.6,312.8c-1.5,1.3-2.6,2.3-3.2,3.2c-0.6,0.9-1,2-1,3.5c1.7,0,2.9-0.3,3.7-0.8
	c0.7-0.5,1.4-1.2,2.1-2.1c1.1-2.3,3.3-3.6,6.7-3.8l-4.5-13.7c-2.6,0-5.7,3.3-9.6,9.9C176.1,310.4,178,311.7,180.6,312.8z M186.8,318
	c-1.4,1.2-3.5,3.5-6.2,6.9c4.3,0,7.3-0.5,9.3-1.6c1.9-1.1,2.9-3.4,2.9-7C190.2,316.3,188.2,316.9,186.8,318z M181.7,336.5
	c0.7,1.6,1.4,2.4,2.1,2.4c2.3,0,4.6-1.5,6.9-4.5c2.2-3,3.4-5.7,3.4-8.3c-8.9,0-13.4,2.1-13.4,6.4C180.6,333.6,181,335,181.7,336.5z
	 M187.3,345.2c0.4,0.5,1,1,1.6,1.4h2.6c2.3,0,4.1-0.3,5.4-1c1.3-0.6,1.9-1.9,1.9-3.8c0-4.3-1.4-7.3-4.1-9.3c-5.3,6.6-8,10.3-8,11.2
	C186.6,344.2,186.9,344.6,187.3,345.2z M192.7,360c5.3-5.3,8-9.8,8-13.4c-0.6,0.4-2.8,1.1-6.4,1.9c-3.6,0.9-5.4,1.7-5.4,2.6
	C188.9,356,190.2,358.9,192.7,360z M196.4,376.7c1.2,1,3.2,1.4,6.2,1.4l3.8-0.3l-3.8-1.6c0.4-0.6,1.2-1.8,2.4-3.5
	c1.2-1.7,1.8-3.3,1.8-4.8c-3.8,0-7.9,0.6-12.1,1.9C194.6,373.5,195.2,375.8,196.4,376.7z M204.5,358.1c0-2.3-0.6-3.6-1.9-3.8
	c-4.9,2.8-7.3,6.2-7.3,10.2c2.8,0,5-0.3,6.7-1c1.7-0.6,2.6-2,2.6-4.1V358.1z M206.4,391.9l11.5-9.9v-2.6c-1.9,0-4.8,0.4-8.6,1.3
	c-3.2,1.1-6.2,1.6-8.9,1.6c0,1.1,0.5,3,1.6,5.7c1.1,2.8,2.2,4.1,3.5,4.1C205.9,392.2,206.2,392.1,206.4,391.9z M224.3,391.1
	c1.3-2.2,1.9-5.6,1.9-10.1c-3,0-5.5,1.4-7.5,4.3c-2,2.9-3,5.9-3,9.1C220.1,394.5,223,393.3,224.3,391.1z M233.9,360
	c-1.1,0.6-3.9,3.1-8.6,7.3l-7.3,6.4C226.4,373.7,231.7,369.1,233.9,360z M235.5,354.6c3-5.1,4.5-9.9,4.5-14.4
	c-9.6,7.7-14.4,12.1-14.4,13.4c0,0.4,0.6,1,1.8,1.6c1.2,0.6,2.1,1,2.7,1c-1.5,0.2-3,0.6-4.5,1.3c-1.5,0.6-2.6,1.5-3.2,2.6
	c0,0.4,0.2,0.9,0.6,1.4c0.4,0.5,0.7,0.8,1,0.8C228.6,362.2,232.5,359.7,235.5,354.6z M239.9,334.8h-12.1v9.3
	C231.2,344,235.2,341,239.9,334.8z M247.9,315.3c-2.8,0.6-6.1,2.4-9.9,5.4c-3.8,3-5.7,5.7-5.7,8.3c0,1.3,1.6,1.9,4.8,1.9
	C244.3,331,247.9,325.8,247.9,315.3z M236.6,314.4c-1,1.1-1.9,2.6-2.7,4.5l1,0.3c1.1,0,2.3-0.7,3.7-2.2c1.4-1.5,2.1-2.9,2.1-4.1
	C238.9,312.8,237.5,313.3,236.6,314.4z M252.2,304.8c2.4-2.8,3.7-7.2,3.7-13.4c-4.3,1.7-8.2,4.6-12,8.8c-3.7,4.1-5.8,6.4-6.2,6.9
	l2.2,1.9C245.7,309,249.8,307.6,252.2,304.8z M246.6,293.3c2.6-1.5,4.9-3.5,7-6.1h-2.2c-4.7,0-7.8,0.7-9.3,2.1
	c-1.5,1.4-2.2,4.6-2.2,9.7C241.8,296.7,244.1,294.8,246.6,293.3z M253.5,282.9c2.7-0.7,4.7-2.4,6.1-5.1c1.4-2.7,2.1-6.8,2.1-12.3
	c-1.3,1.1-3.8,3-7.7,5.9c-3.8,2.9-6.9,5.4-9.1,7.7c-2.2,2.2-3.3,3.9-3.3,4.9C246.8,284.1,250.8,283.7,253.5,282.9z M244.9,265.1
	c-2,2.2-3,4.6-3,7.2c2.3,0,4.5-0.5,6.4-1.6c1.9-1.1,3.8-2.5,5.7-4.3c1.9-1.8,3.7-3.2,5.4-4.3l-5.7-0.3
	C249.8,261.7,246.9,262.9,244.9,265.1z M244.9,243.1c-1,2-1.4,3.7-1.4,4.9l0.3,1.9c2.8-1.1,6.1-2.7,9.9-4.9c3.8-2.2,6.5-3.9,8-4.9
	h-13.7C246.8,240,245.8,241.1,244.9,243.1z M262.1,254.4c2.4-2.3,3.7-6.4,3.7-12.1h-2.2l-17.9,13.4l3.8,2.2
	C255.4,257.9,259.6,256.7,262.1,254.4z M253.5,218c-2.9,1.1-4.3,3.2-4.3,6.4l0.3,4.1c8.3-5.1,13.6-9.1,16-12.1h-1
	C260,216.4,256.4,217,253.5,218z M251.4,206.9c0,1.3,0.4,2.1,1.1,2.4c0.7,0.3,1.1,0.7,1.1,1.1c0,0.6-0.3,1.5-0.8,2.6
	c-0.5,1.1-1,1.7-1.4,1.9c8.5,0,13.8-0.7,16-2.2v-7.7c-4.3,0-8.8-0.7-13.7-2.2C252.2,203.1,251.4,204.5,251.4,206.9z M264.8,233.7
	c3.2-1.9,4.8-5.3,4.8-10.2c0-0.6-0.3-1.3-0.8-1.9c-0.5-0.6-1-1-1.4-1c-1.3,1.1-3.3,2.5-6.2,4.3c-2.9,1.8-5.2,3.6-7,5.4
	c-1.8,1.8-2.7,3.9-2.7,6.2C257.2,236.5,261.6,235.6,264.8,233.7z"/>
<path class="st0" d="M788.7,328.1c-0.2,2.3-0.7,7.9-1.6,16.6c-0.9,8.7-1.3,16.9-1.3,24.6c0,3.4,0.4,8.5,1.3,15.3
	c0.8,7.2,1.3,12.4,1.3,15.6c0,2.8-0.3,4.6-1,5.4c-0.6,0.8-2.3,1.3-5.1,1.3c-7.2,0-12.2-0.5-15-1.6c-2.8-1.1-6.4-3.9-10.8-8.6
	c-1.9,0-6.6,1.4-14,4.1c-3.8,1.3-7.8,2.6-12,3.8c-4.1,1.3-7.6,1.9-10.4,1.9c-1.5,0-2.6-0.5-3.2-1.6c-1.7,0.2-4.5,0.3-8.3,0.3
	c-12.8,0-24-3.5-33.7-10.5c-9.7-7-17.2-16.3-22.5-27.8c-5.3-11.5-8-23.6-8-36.4c0-5.7,0.8-12.9,2.4-21.4c1.6-8.5,3.4-15.4,5.3-20.7
	c1.3-1.5,2.8-3.3,4.5-5.6c1.7-2.2,2.9-4,3.5-5.3v-1c4.3-6.6,9.1-11.2,14.7-13.7c5.5-2.6,13.1-4.6,22.7-6.1c1.3-0.2,2.4-0.5,3.5-1
	c1.1-0.4,2-0.7,2.9-1c3.4-1.5,6-2.2,7.7-2.2v2.2c1.3-1.5,3.3-2.2,6.1-2.2c3.2,0,6.3,0.4,9.3,1.3c3,0.9,6.7,2.1,11.2,3.8
	c3.2,1.3,6.5,2.4,10,3.3c3.5,1,6.7,1.4,9.7,1.4l0.6-35.7l0.3-11.8c0-15.3-1.4-26.3-4.1-32.9h31.3c0.4,0.9,0.8,2.5,1.3,4.9
	c0.4,2.4,0.7,4.7,1,6.9c-0.2,0.2-0.3,0.5-0.3,1c0,0.6,0.3,1.6,1,2.9c0.6,1.3,1.1,2.2,1.3,2.9c0,0.6-0.2,1.7-0.5,3
	c-0.3,1.4-0.8,2.7-1.4,4c0,8.7,0.6,22,1.9,39.9c1.3,17,1.9,29.9,1.9,38.6C791.8,295.4,790.8,309.4,788.7,328.1z M654.7,337.2
	c-0.6,1-1,2.7-1,5.3c1.9,0,3.7-1,5.3-3c1.6-2,2.6-3.2,3-3.7h-2.9C656.8,335.8,655.3,336.2,654.7,337.2z M655,352
	c5.1,0,8.9-0.6,11.3-1.9c2.4-1.3,3.7-4.1,3.7-8.6c0-2.1-0.5-3.3-1.6-3.5C659.4,342.7,655,347.3,655,352z M660.9,325.4
	c-3.5,1.4-5.3,3.2-5.3,5.6l0.3,1l12.4,1.6c0.6,0,1.2-1.1,1.6-3.2c0.4-2.1,0.6-4.5,0.6-7C667.6,323.3,664.4,324,660.9,325.4z
	 M669,280.2c-3.8,3.6-7,7.9-9.4,12.9c-2.4,5-3.7,9.4-3.7,13.2c0,0.2,0.4,0.6,1.1,1.1c0.7,0.5,1.4,0.8,2.1,0.8
	c2.6,0,6.5-2.4,11.8-7.2c5.3-4.8,8.2-8.3,8.6-10.7l2.2-4.1c0.6-0.4,2-1,4-1.6c2-0.6,3.6-1.3,4.6-2.1c1.1-0.7,1.6-1.8,1.6-3l-0.3-1
	c-3.2,1.3-7.9,1.9-14,1.9c1.7,0,2.9-0.3,3.5-1c0.6-0.6,1-1.6,1-2.9c0-0.8-0.1-1.4-0.3-1.6c-0.2-0.2-0.7-0.3-1.6-0.3
	C676.6,274.8,672.8,276.6,669,280.2z M655.9,318.2v5.7l12.4-5.7H655.9z M665.8,365.7c3.8,0,7.2-0.8,10.2-2.6l-2.2-3.8
	c-3.2,1.3-5,2.6-5.4,3.8l-0.3-1c0.2-0.6,0.7-1.8,1.4-3.3c0.7-1.6,1.5-2.8,2.4-3.7c-0.4-1.3-1.8-1.9-4.1-1.9c-6.4,0-9.6,1.1-9.6,3.2
	C658.2,362.7,660.7,365.7,665.8,365.7z M660.1,312.1l4.8,0.3h1.3c2.1,0,3.7-0.3,4.6-0.8c1-0.5,1.4-1.9,1.4-4
	C668.2,307.7,664.1,309.2,660.1,312.1z M666.1,373.7c1.1,0.9,1.9,1.4,2.6,1.6c1.7,0,3.5-0.7,5.3-2.1c1.8-1.4,3-2.8,3.7-4.3
	c-0.6-1.1-1.5-1.6-2.6-1.6c-0.9,0-2.6,0.6-5.3,1.8c-2.7,1.2-4.7,2-6.2,2.4C664.2,372.1,665.1,372.9,666.1,373.7z M673.3,381.1
	c0.5,0.2,1.4,0.3,2.7,0.3c1.3,0,2.7-0.4,4.1-1.3c1.5-0.8,2.7-1.9,3.5-3.2h-1.6c-3.6,0-7,0.7-10.2,2.2
	C672.3,380.2,672.8,380.8,673.3,381.1z M684.7,355.9c3.2,5.7,6,9.9,8.3,12.6c2.3,2.7,5.7,4.7,10.1,6.2c4.4,1.5,10.5,2.2,18.3,2.2
	c6.6,0,12.8-1.8,18.5-5.4c5.7-3.6,10.3-8.4,13.7-14.4c3.4-6,5.1-12.3,5.1-19.1c0-6.8-0.6-13.2-1.8-19.1c-1.2-6-3.9-11.5-8.1-16.6
	c-4.7-5.5-10.3-10.9-16.7-16.1c-6.5-5.2-12.1-7.8-16.7-7.8c-3.6,0-7.7,1.9-12.1,5.7c-4.5,3.8-7,6-7.7,6.4
	c-6.8,5.7-11.2,11.4-13.2,17.1c-2,5.6-3,13.1-3,22.5l0.3,17.5L684.7,355.9z M682.7,387.1c0.2,0,1.7-0.4,4.5-1.3
	c2.8-0.8,4.8-2.4,6.1-4.8c-1.7-1.5-3.6-2.2-5.7-2.2c-1.5,0-2.7,0.3-3.5,1c-0.9,0.6-1.7,1.5-2.6,2.7c-0.9,1.2-1.5,2-1.9,2.4
	C680.4,385.9,681.5,386.7,682.7,387.1z M689.8,271l-4.5,1.6c1.3,0.4,2.7,0.9,4.1,1.3c1.5,0.4,2.8,0.7,3.8,1c3,0,6.4-1.5,10.2-4.5
	c0.4-0.2,1.4-0.8,3-1.9c1.6-1.1,3.2-1.6,4.9-1.6h21.4c-1.5-0.4-3.6-1.1-6.4-1.9c-2.8-0.8-5.2-1.5-7.3-1.9c-2.3,0-4.8,0.3-7.3,1
	c-2.6,0.6-4.7,1.6-6.4,2.9v-1.9c-9.8,1.3-16.5,2.7-20.1,4.1L689.8,271z M695.8,391.1c0.6-1.2,1.2-3.2,1.6-6.2
	c-0.2,0.2-1.7,0.9-4.3,1.9c-2.7,1.1-4.4,2.6-5.3,4.5c0.2,1.1,1.6,1.6,4.1,1.6C693.9,392.9,695.2,392.3,695.8,391.1z M704.9,395.4
	c1-0.8,1.4-1.9,1.4-3.2c-1.5,0-2.8,0.2-3.8,0.6c-1.1,0.4-2.1,1.1-3.2,1.9c0,0.4,0.2,0.9,0.6,1.3c0.4,0.4,1,0.6,1.6,0.6
	C702.8,396.7,704,396.3,704.9,395.4z M709.2,394.8c1.5-0.2,2.7-0.7,3.7-1.4c1-0.7,1.4-1.8,1.4-3
	C711.1,390.3,709.4,391.8,709.2,394.8z M723.3,397.6c2.6-1.1,4.6-3.2,6.1-6.4l-4.5-0.3c-2.6,0-5.2,0.7-8,2.2
	c-2.8,1.5-4.1,3.5-4.1,6.1C717.2,399.2,720.7,398.7,723.3,397.6z M743,390.1c4.3-2.9,8-6.2,11.2-10.1c3.2-3.8,4.8-7.1,4.8-9.9
	l-0.3-1.3c-1.3,1.3-4.4,4-9.3,8.3c-9.8,7.7-15.3,13.5-16.6,17.5C735.4,394.6,738.8,393,743,390.1z M735.1,272.6
	c0.4,1.1,1.3,2.7,2.7,4.8c1.4,2.1,2.7,3.2,4,3.2l10.8-3.8c-1.9,0-3.2-0.2-3.8-0.6c-0.6-0.4-1.4-1.2-2.2-2.2
	c-0.6-1.1-1.4-1.9-2.4-2.4c-1-0.5-2.8-0.8-5.6-0.8C736.4,270.7,735.3,271.3,735.1,272.6z M760.6,279.6c-3.6,0.4-6.6,1-8.9,1.6
	c-2.3,0.6-4.6,1.8-6.7,3.5c0.8,1.5,2.2,3,4.1,4.6c1.9,1.6,3.7,2.6,5.4,3c7.9-6,15.7-10.5,23.6-13.7c-0.4-0.4-0.9-1-1.3-1.8
	c-0.4-0.7-0.6-1.4-0.6-2.1c0-1.1,0.7-3.2,2.1-6.4c1.4-3.2,2.1-5.6,2.1-7.3h-4.1l-9.9,11.5l-0.3,1.3c0,0.6,0.7,1.3,2.2,1.9
	c1.5,0.6,2.9,1,4.1,1C770,277.8,766.1,278.8,760.6,279.6z M756.4,301c5.1,0,9.1-1.5,12.1-4.5h-2.2c-1.5,0-3.5,0.3-5.9,0.8
	c-2.4,0.5-3.8,0.9-4,1.1V301z M771.3,373.1c1.6-0.2,3.2-0.7,4.9-1.6c0-1.7-0.3-2.8-0.8-3.3c-0.5-0.5-1.5-0.8-3-0.8
	c-3.2,0-6.5,1.9-9.9,5.7l3.8,0.3C768,373.4,769.7,373.3,771.3,373.1z M765.7,190.6c-0.9,0.6-1.3,2.4-1.3,5.4c0,5.7,1.3,8.6,3.8,8.6
	l1.9-0.6l-1.6,3.8h5.7c-2.1,0.4-3.9,1.4-5.3,2.9c-1.4,1.5-2.1,3.2-2.1,5.1c3.2,0,5.9-1.6,8.1-4.9c2.2-3.3,3.4-6.6,3.4-10.1
	c0-3.8-0.3-6.6-1-8.5c-0.6-1.8-2.6-2.7-5.7-2.7C768.6,189.6,766.5,190,765.7,190.6z M779.1,289.2c2.3-1.1,3.5-3.6,3.5-7.7
	c-3.4,0-6.4,0.7-8.9,2.1c-2.6,1.4-5.6,3.7-9.3,6.9l4.1,0.3C773.2,290.8,776.7,290.2,779.1,289.2z M768.6,355.5
	c2.1-1.1,3.9-2.3,5.4-3.8c1.5-1.5,2.2-3.1,2.2-4.8c-4,0-7,0.7-8.9,2.1c-1.9,1.4-2.9,4.2-2.9,8.5C765,357.2,766.4,356.6,768.6,355.5z
	 M768.7,383.4c1.4-1.4,2.1-2.8,2.1-4.3h-6.4v6.4C765.9,385.5,767.3,384.8,768.7,383.4z M776.1,302.4c3.1-1.4,4.6-3.8,4.6-7.2
	c-2.8,0-5.4,0.9-8,2.7c-2.6,1.8-4.7,4-6.4,6.5C769.7,304.5,773,303.8,776.1,302.4z M778.4,328.4c1.3-2.6,1.9-6.3,1.9-11.2l-0.3-10.8
	c-3,0.6-5.7,2.2-8.1,4.6c-2.4,2.4-3.7,5.2-3.7,8.1c0,2.1,0.3,3.5,1,4c0.6,0.5,2.3,0.8,5.1,0.8c-3.2,3.2-4.8,6-4.8,8.3
	C774.2,332.2,777.2,331,778.4,328.4z M769,235.7c0.3,1.8,0.7,2.9,1.1,3.3c4-2.3,6.1-5.8,6.1-10.5c-1.9,0-3.7,0.3-5.3,0.8
	c-1.6,0.5-2.4,1.2-2.4,2.1C768.6,232.5,768.7,233.9,769,235.7z M774.3,335.8h-1.9c-1.1,0-1.9,0.1-2.6,0.3c-0.6,0.2-1.1,0.9-1.3,1.9
	C769.4,338,771.3,337.2,774.3,335.8z M776.2,355.2c-2.3,0-4.9,1.4-7.7,4.1l2.6,0.3C774.5,359.7,776.2,358.2,776.2,355.2z
	 M776.2,396.7c-0.4-1.5-1.8-2.2-4.1-2.2l-3.5,0.3v1.9H776.2z M774.6,343.2c1.1-0.7,1.6-2.5,1.6-5.3c-1.7,0.4-3.3,1.2-4.8,2.2
	c-1.5,1.1-2.2,2.4-2.2,4.1C771.7,344.4,773.6,344,774.6,343.2z M778.8,213.6h-2.6l-6.1,9.9C775.9,223.4,778.8,220.2,778.8,213.6z
	 M775.3,252.5c0,1.3-0.2,2.1-0.5,2.6c-0.3,0.4-1,0.9-1.9,1.3c-1,0.4-1.9,1.3-2.7,2.6l2.2,2.2l5.7-6.1v-16.6c-1.7,0-3.5,1.5-5.3,4.5
	c-1.8,3-2.7,5.4-2.7,7.3c0,1.7,0.7,2.6,2.2,2.6L775.3,252.5z M776.2,382.6c-1.3,0-2.3,0.4-3.2,1.3c-0.9,0.9-1.3,2-1.3,3.5
	C774.7,387.4,776.2,385.8,776.2,382.6z"/>
<path class="st0" d="M822.8,352.3c-0.7-3.6-1.1-8.3-1.1-14c0-16.4,3.2-30.7,9.6-42.9c6.4-12.2,15.3-21.6,26.8-28.2
	c11.5-6.6,24.8-9.9,39.9-9.9l7,0.3l-4.1,1.9c0.6,0,3.2-0.3,7.7-1c2.3-0.6,4.6-1,6.7-1c14,0,22.4,1.8,25.2,5.4l0.3,8.3
	c0,2.6-0.4,6.2-1.3,10.8c-1.1,3.8-1.6,7.6-1.6,11.2c-9.1,0-19.5-3.5-30.9-10.5h-27.4c-1.9,0-4.6,1.6-8,4.9c-3.4,3.3-6.6,7.3-9.7,12
	c-3.1,4.7-5.1,8.9-5.9,12.8c-0.2,1.3-0.6,3.8-1.1,7.5c-0.5,3.7-1.5,6.5-3,8.5c2.1,12.6,5.2,22.3,9.1,29.4c3.9,7,10.8,13.6,20.6,19.8
	v2.2c2.1,0,4.9,0.2,8.3,0.6c3,0.6,5.7,1,8.3,1c7.7,0,14.6-0.5,20.9-1.6c6.3-1.1,12.2-3.2,17.7-6.4c0.4,1.7,1.5,5.2,3.4,10.5
	c1.8,5.3,2.7,9.5,2.7,12.4c0,3.6-2.1,6-6.2,7.2c-4.1,1.2-9.8,1.8-17.1,1.8c-13,0-24.5-0.5-34.6-1.4c-10.1-1-19.9-3.6-29.5-8
	c-9.6-4.4-16.6-11.1-21.1-20.3c-0.4-0.8-0.8-2.2-1.1-4c-0.3-1.8-0.7-3.2-1.3-4.1c-0.5-1-1.8-1.5-3.7-1.8
	C825.3,360.4,823.5,356,822.8,352.3z M836.8,360c3.1,7.7,5.4,11.5,6.9,11.5l8-5.7l0.3-1c0-3.4-1-7.9-3-13.6c-2-5.6-4.3-9.4-6.9-11.3
	l1.6-1.6c-0.2-0.8-0.3-2.2-0.3-4.1c0-8.3,1.3-17.5,3.8-27.8c2.6-10.2,5.4-15.3,8.6-15.3c2.1-4.7,4.6-8.2,7.5-10.5
	c2.9-2.3,5.8-3.9,8.8-4.6c3-0.7,7-1.4,12.1-2.1c8.7-0.4,15.6-2,20.7-4.8c-1.1-0.2-2.4-0.5-4-1c-1.6-0.4-2.9-0.6-4-0.6
	c-5.5,0-12.5,1.2-20.9,3.5c-8.4,2.3-15.2,5-20.3,8c-5.1,3-10.4,10.8-16,23.6c-1.3,3.4-3.2,10.8-5.7,22.3c-2.3,10-3.7,15-4.1,15
	C831.5,345.6,833.7,352.3,836.8,360z M852,377.5c1.9,0,3.3-0.4,4.1-1.3c0.8-0.8,1.9-2.4,3.2-4.8c0-0.4-0.4-1.1-1.3-1.9
	c-0.9-0.8-1.6-1.4-2.2-1.6l-1-0.3c-1.3,0-2.8,1.1-4.6,3.2c-1.8,2.1-2.7,3.4-2.7,3.8C847.5,376.6,849,377.5,852,377.5z M863.8,387.4
	c1.7,0,3-0.4,4-1.3c1-0.8,2.2-2.4,3.7-4.8c-0.2-1.1-0.6-1.7-1.3-1.9c-0.6-0.2-1.6-0.3-2.9-0.3c-2.1,0-4.3,0.4-6.5,1.3
	c-2.2,0.9-3.3,2.1-3.3,3.8C857.4,386.4,859.5,387.4,863.8,387.4z M873.5,392.4c1.4,0.5,2.6,0.8,3.7,0.8c0.6,0,1.4-0.2,2.4-0.6
	c1-0.4,1.5-0.8,1.8-1.3c0-1.7-0.3-2.8-0.8-3.3c-0.5-0.5-1.5-0.8-3-0.8c-4,0-6.1,1.1-6.1,3.2C871.4,391.2,872.1,391.9,873.5,392.4z
	 M887.9,390.6c-1.4,0.6-2.2,1.5-2.4,2.6l13.1,1.3c-0.2-1.1-1.2-2.1-2.9-3.2c-1.7-1.1-3-1.6-3.8-1.6
	C890.6,389.7,889.3,390,887.9,390.6z M903.5,394c0.5,0.7,1.2,1.1,2.1,1.1c1.3,0,2.6-0.4,4-1.1c1.4-0.7,2.4-1.6,3-2.7h-9.9
	C902.7,392.3,903,393.2,903.5,394z M913.9,275.1l12.4,3.8v-8.3l-6.7-1C915.8,272.1,913.9,273.9,913.9,275.1z M921.9,389.7
	c-2.1,1.1-3.8,2.9-5.1,5.4l2.9,0.3c3.2,0,5.7-0.5,7.5-1.6c1.8-1.1,2.7-3.1,2.7-6.1C926.6,388,924,388.6,921.9,389.7z"/>
<path class="st0" d="M1094.7,320c2.1,39.5,3.2,65.7,3.2,78.6c-1.1,3.8-3.6,6.3-7.7,7.3c-4,1.1-9.4,1.6-16,1.6
	c-4.5,0-7.4-0.7-8.9-2.2c-1.5-1.5-2.2-4.4-2.2-8.6l0.3-9.3c-0.9,0.6-3,2.9-6.4,6.9c-3.4,3.9-8.3,7.2-14.7,9.9
	c-6.4,2.7-15.1,4-26.2,4c-15.5,0-27.4-6.5-35.7-19.6c-8.3-13.1-13.1-28.8-14.4-47.1l-2.2-23.6v-4.1c2.6-12.8,3.8-19.9,3.8-21.4
	c0-2.6-0.3-6.4-1-11.5l-0.6-10.2v-3.2c0-3.2,0.6-6.4,1.8-9.7c1.2-3.3,3.1-4.9,5.9-4.9l19.8,2.2c1.5,0,2.6,2.2,3.4,6.5
	c0.7,4.4,1.1,8.6,1.1,12.6c0,4.7-0.2,9.4-0.6,14l1.9,1.9l-0.3,36.4c0,12.8,0.8,22.7,2.6,29.7c1.7,7,5.1,12.3,10.2,15.8
	c5.1,3.5,12.9,5.3,23.3,5.3c8.1,0,14.6-0.7,19.5-2.2c4.9-1.5,8.8-4.8,11.8-9.9l0.3-11.5c0-7.7-0.4-19.1-1.3-34.5
	c-1.1-12.8-1.6-24.4-1.6-34.8c0-4,0-8.2,0.2-12.6c0.1-4.4,0.3-7.4,0.5-9.1l3.5-1.9h22C1091,260.8,1092.5,280.5,1094.7,320z
	 M973.1,323.6c0,7.9,0.8,11.8,2.6,11.8l10.2-9.6v-2.2H973.1z M979,301c-1.8,0.4-3.1,1.6-4,3.5c-0.9,1.9-1.3,5-1.3,9.3
	c3.4-2.3,6.6-4.8,9.6-7.5c3-2.7,4.5-4.6,4.5-5.9C983.8,300.3,980.8,300.6,979,301z M973.8,345.3h17.9c0.2,0,0.6-0.7,1.1-2.1
	c0.5-1.4,0.8-2.6,0.8-3.7c0-2.6-0.3-4.9-1-7c-0.2-0.8-0.4-1.8-0.6-2.9c-0.2-1.1-0.3-2.3-0.3-3.8
	C986.1,330.8,980.1,337.2,973.8,345.3z M975.7,292.7c0,2.1,0.6,3.3,1.9,3.5c0.6-1.9,1.8-3.7,3.4-5.3c1.6-1.6,2.5-2.5,2.7-2.7
	c2.1-2.1,3.7-3.9,4.6-5.3c1-1.4,1.4-3.1,1.4-5.3c0-4.3-0.5-6.4-1.6-6.5c-1.1-0.1-1.6-0.4-1.6-0.8c0-0.8,0.4-2.4,1.3-4.8
	c0-2.1-4-3.2-12.1-3.2v12.1l1.6,7.3c0,0.9-0.3,2.2-0.8,4c-0.5,1.8-0.8,3.6-0.8,5.3V292.7z M991.3,305.1c-1.1,0-4.5,2.2-10.2,6.7
	c-2.8,2.3-4.6,3.7-5.4,4.1v1.9l11.2,1.6c0.6-0.2,1.4-0.6,2.4-1.1c1-0.5,1.8-0.8,2.4-0.8v-11.8C991.6,305.3,991.5,305.1,991.3,305.1z
	 M976.5,362.9c0.5,1.7,2.1,2.6,4.6,2.6c3.4,0,6.6-0.7,9.7-2.1c3.1-1.4,4.6-3.5,4.6-6.2c0-1.3-0.2-2.2-0.6-2.9c-0.4-0.6-1.5-1-3.2-1
	c-0.6,0.2-1.9,1.5-3.8,3.8c-1.9,2.3-3.3,4.4-4.1,6.1l-3.8-1.9c4.5-5.1,7-9,7.7-11.8c-1.5,0.2-3.3,0.3-5.6,0.3c-2.2,0-3.8,0.3-4.8,1
	c-1,0.6-1.4,2-1.4,4.1C975.7,358.5,975.9,361.2,976.5,362.9z M999.3,392.5l11.8-5.7v-1.9h-3.8v-4.1h-17.9v-2.2l4.1,0.3
	c5.1,0,7.7-1.3,7.7-3.8c0-0.6-0.2-1.4-0.6-2.2c-0.4-0.8-0.9-1.5-1.3-1.9l-5.7,4.1c0-1.3,0.3-2.9,1-4.8c0.6-1.9,1-3.6,1-5.1
	c-0.6,0.4-2.6,1-5.7,1.8c-3.2,0.7-5.7,1.5-7.5,2.4c-1.8,0.9-2.7,2.1-2.7,3.8l0.3,1.9l9.6,13.7C994.5,390.2,997.8,391.5,999.3,392.5z
	 M988.6,297.1c1.4-0.6,2.1-2.6,2.1-5.7c0-0.8-0.4-2.6-1.3-5.1c-5.7,4.9-8.9,8.8-9.6,11.8C984.3,298.1,987.2,297.8,988.6,297.1z
	 M1060.5,384.9l-4.1-0.3c-2.3,0-4.1,0.1-5.4,0.3c-1.3,0.2-2.8,0.9-4.5,1.9h-29.4c-0.9,0-2.9,1-6.2,3c-3.3,2-5.8,3.7-7.5,4.9
	c3.2,2.6,9.4,3.8,18.5,3.8c1.9,0,3.5-0.2,4.8-0.6c1.3-0.4,2.7-1.5,4.1-3.2v4.5c6.2,0,10.7-0.6,13.6-1.9c2.9-1.3,5.6-4.1,8.1-8.6
	l2.2,1.9L1060.5,384.9z M1088,370.8c-0.2-1.1-0.6-2.3-1.3-3.8c-0.6-1.5-1.1-2.2-1.3-2.2c-1.7,0-3.3,0.7-4.8,2.2
	c-1.5,1.5-2.3,2.2-2.6,2.2c0,0.9,0.2,1.6,0.6,2.4c0.4,0.7,1,1.2,1.6,1.4c-1.9,3-4.2,5.4-6.9,7.3c-2.7,1.9-4.5,2.9-5.6,2.9
	c0,1.3,0.3,2.1,1,2.6c0.6,0.4,1.1,0.7,1.3,1l11.8-8v-5.1c0.8,0,1.7,0.2,2.6,0.6c0.8,0.4,1.5,0.6,1.9,0.6
	C1087.4,375,1088,373.6,1088,370.8z M1074.3,309c-1.5,0.9-2.2,1.5-2.2,1.9c0,1.1,0.3,2.2,1,3.5c0.6,1.3,1.4,1.9,2.2,1.9
	c2.6,0,5-2.3,7.3-7c2.3-4.7,3.5-8.4,3.5-11.2c0-0.6-0.3-1.4-0.8-2.2c-0.5-0.8-1-1.3-1.4-1.3l-9.6,9.6l-0.3,0.6
	c0,0.9,0.4,1.5,1.3,2.1c0.8,0.5,1.8,0.8,2.9,0.8C1077,307.7,1075.7,308.1,1074.3,309z M1077.8,286c0,0.4-0.9,1.6-2.7,3.5
	c-1.8,1.9-2.7,3.8-2.7,5.7c0,0.4,0.2,1,0.5,1.8c0.3,0.7,0.8,1.1,1.4,1.1c4.7-2.8,7.5-5.4,8.5-7.8c1-2.4,1.4-7.3,1.4-14.5
	c0-2.3-0.3-4.1-1-5.4c-0.6-1.3-2-1.9-4.1-1.9l-4.8,0.3l-1.9,14.7C1076,284.3,1077.8,285.1,1077.8,286z M1086.1,396.4v-1.6l-13.4,2.2
	l2.9,2.9L1086.1,396.4z M1077,327.3c0.7,1.4,1.9,2.1,3.3,2.1c-3,0-4.8,1.4-5.4,4.1c-0.6,2.8-1,6.3-1,10.5c3.2,0,5.9-1.3,8.1-3.8
	c2.2-2.6,3.3-5.4,3.3-8.6h-3.5c1.7-1.3,2.7-3.5,2.9-6.5c0.2-3.1,0.3-6.7,0.3-11c-2.8,0-5,1.1-6.7,3.2c-1.7,2.1-2.6,4.6-2.6,7.3
	C1075.9,325,1076.2,325.9,1077,327.3z M1088,386.2c0-1.9-0.2-3.3-0.5-4.3c-0.3-1-1-1.4-2.1-1.4c-2.3,0-4.7,1.2-7.2,3.5
	c-2.4,2.3-3.8,4.6-4,6.7l5.4,0.3C1085.2,390.9,1088,389.3,1088,386.2z M1075.9,359v2.2c0,2.3,0.7,3.6,2.2,3.8c4-4,6.1-6.3,6.1-6.7
	c0-0.6-0.7-1.3-2.2-2.1c-1.5-0.7-2.8-1.1-3.8-1.1C1076.6,355.2,1075.9,356.5,1075.9,359z M1085.1,350.3c1.1-1,1.6-3.5,1.6-7.5
	c-2.1,0-4.1,0.9-6.1,2.7c-1.9,1.8-2.9,3.9-2.9,6.2C1081.6,351.7,1084,351.2,1085.1,350.3z"/>
<path class="st0" d="M1159.4,466.2c-1.5,0-2.9,0.2-4.1,0.6c-1.3,0.4-2.1,0.7-2.6,1c-2.1,1.1-4.3,1.6-6.4,1.6c-2.8,0-4.1-0.9-4.1-2.6
	v-72.4c0-2.1-0.3-4.5-0.8-7.2c-0.5-2.7-0.8-4.3-0.8-4.9c0-3.2,0.3-7.8,1-13.7l0.6-13.7c0-6-0.3-11-1-15c-0.6-9.6-1-17-1-22.3
	c0-11.1,0.1-17.7,0.3-19.8l-2.2-1.6c0.4-1.9,0.8-4.3,1.3-7c0.4-2.8,0.7-5.1,1-7c0-0.4-0.7-4.4-2.2-11.8c0-5.3,1-8.6,2.9-9.9
	c1.9-1.3,6-1.9,12.1-1.9c3.8,0,6.4,0.1,7.7,0.3c1.3,0.2,2.4,1,3.5,2.2c1.1,1.3,2.2,3,3.5,5.1c7-3.6,14.4-6.7,22.2-9.4
	c7.8-2.7,14.7-4,20.9-4c21.5,0,38.3,6.3,50.6,18.8c12.2,12.6,18.3,29,18.3,49.5v14c0,13.8-1.3,23.7-3.8,29.7
	c-1.5,3.6-4.7,8.5-9.7,14.7c-5,6.2-10.3,11.6-15.8,16.3c-5.5,4.7-10.2,7-14,7c5.3-4.7,8-7.1,8-7.3c0-0.2-0.1-0.3-0.3-0.3
	c-0.4,0-3.1,1.6-8,4.8l-9.3,6.1c-0.6,0.8-1.3,1.3-1.9,1.3c-0.6,0-1.9-0.4-3.8-1.1c-1.9-0.7-3.5-1.1-4.8-1.1c-3.2,0-6.2,1.7-8.9,5.1
	c-1.5-0.2-7.4-1.6-17.9-4.1c-0.9-2.1-2.9-3.7-6.1-4.6s-5.9-1.4-8-1.4c-1.1,0-2.6,0.3-4.6,0.8c-2,0.5-3,1-3,1.4v63.2
	c1.3,3.4,1.9,7.1,1.9,11.2c0,1.3-1.7,2.4-5.1,3.3c-3.4,1-8.7,1.4-16,1.4c-3.6,0-6.4-0.1-8.3-0.3v-6.1
	C1153.1,473.6,1159.4,470.7,1159.4,466.2z M1146.8,314.5c1.2,1,2.1,1.4,2.7,1.4c0.4,0,1-0.5,1.6-1.6c0.6-1.1,1-2,1-2.9h-7.7
	C1144.8,312.6,1145.6,313.6,1146.8,314.5z M1147.9,276.9c0.8,2,1.6,3.1,2.2,3.4c1.3-1.1,2.6-2.3,4-3.8c1.4-1.5,2.1-2.6,2.1-3.2
	c0-1.3-1-2.4-3-3.4c-2-1-3.6-1.4-4.6-1.4c-0.4,0.2-0.9,0.7-1.4,1.6c-0.5,0.9-0.8,1.6-0.8,2.2
	C1146.5,273.3,1147.1,274.9,1147.9,276.9z M1153,460.2c0.4,0.4,0.8,0.7,1.3,1c4,0,6.1-1.2,6.1-3.5c0-2.6-0.2-5.3-0.5-8.3
	c-0.3-3-0.5-5.2-0.5-6.7c-0.9-6.8-1.3-11.9-1.3-15.3c0-4.9-2.3-7.3-7-7.3c-0.9,0-1.8,0.4-2.7,1.1c-1,0.7-1.6,1.2-2.1,1.4h5.7
	c-1.1,1.1-2,2.2-2.7,3.5c-0.7,1.3-1.1,2.2-1.1,2.9c0.4,1.7,1.5,4.2,3.2,7.5c1.7,3.3,2.7,5,2.9,5.3l-2.2,1.6v16
	C1152.3,459.4,1152.6,459.7,1153,460.2z M1150.2,371.6c-1.5,0.5-2.2,1.2-2.2,2.1l0.3,1c0.4-0.2,1.6-0.6,3.7-1.1
	c2-0.5,3.5-1.4,4.3-2.7h-1C1153.3,370.8,1151.6,371.1,1150.2,371.6z M1149.4,357c-0.7,1.4-1.1,3.4-1.1,5.9c2.6-1.5,4.2-2.9,4.9-4.1
	c0.7-1.3,1.1-3.2,1.1-5.7C1151.7,354.3,1150.1,355.6,1149.4,357z M1150.2,284.1h8v-4.5C1155.4,279.6,1152.7,281.1,1150.2,284.1z
	 M1150.2,396.4l5.4,0.3c3.2,0,4.8-1.2,4.8-3.5c0-1.1-0.4-2.3-1.3-3.7c-0.9-1.4-1.8-2.4-2.9-3
	C1152.8,388.2,1150.8,391.5,1150.2,396.4z M1152.9,407.1c0.7,1.4,1.4,2.4,2.1,3.2c0.6,0.7,1.7,1.2,3.2,1.4c1.7-1.7,2.6-4,2.6-7
	c-3.6,0-5.7-0.8-6.4-2.6c-0.2,0-1.6,0.6-4.1,1.9C1151.2,404.7,1152.1,405.7,1152.9,407.1z M1166.1,360.6c0-0.6-0.2-1.6-0.5-2.9
	c-0.3-1.3-0.9-1.9-1.8-1.9c-0.6,0-1.3,0.3-1.9,1l-7.7,8C1162.2,364.8,1166.1,363.4,1166.1,360.6z M1156.2,335.1h1.9v-3.8
	L1156.2,335.1z M1160.5,311c1.4,1.4,2.5,2.3,3.4,2.7c1.5-0.8,2.7-2.8,3.7-5.9c1-3.1,1.8-5.1,2.4-5.9h-8l1.9-1.9l-1-0.3
	c-1.3,0-2.4,1-3.3,3c-1,2-1.4,3.7-1.4,4.9C1158.3,308.5,1159.1,309.6,1160.5,311z M1168,294c4.5,0,8.6-1.5,12.3-4.6
	c3.7-3.1,7.7-7.4,12-12.9c2.8-3.4,4.9-5.9,6.5-7.5c1.6-1.6,3.1-2.5,4.6-2.7c0,0.2-0.3,0.9-1,1.9c-0.6,1.1-1,1.8-1,2.2
	c0,0.4,0.3,1.1,0.8,2.1c0.5,1,0.9,1.5,1.1,1.8c2.3-1.3,4.4-2.2,6.1-2.9c4.3-1.1,7.4-3.3,9.6-6.7c-1.7-1.1-3.2-1.8-4.6-2.1
	c-1.4-0.3-3.2-0.5-5.6-0.5c-7.2,0-13.1,1.1-17.5,3.2c-4.5,2.1-8.9,5.9-13.4,11.2l0.6,0.3c0.6,0,1.4-0.3,2.4-1c1-0.6,2-1.2,3-1.6
	l0.3,1c0,1.5-1.1,3.1-3.2,4.9c-2.1,1.8-5.2,3.9-9.3,6.2c-4.7,3-7.3,4.9-8,5.7C1164.7,293.3,1166.1,294,1168,294z M1180.3,368.8
	c8.2,9.3,19.2,13.9,33,13.9c7,0,13-0.6,17.9-1.9c4.9-1.3,8.6-4,11.2-8.3c-0.6-0.2-1.1-0.7-1.3-1.4c-0.2-0.7-0.3-1.5-0.3-2.4
	c0-1.1,0.3-2.1,0.8-3c0.5-1,1.3-1.4,2.4-1.4c0-1.9,0.8-4.4,2.6-7.3c0.2-0.4,0.6-1.3,1.3-2.7c0.6-1.4,1-2.7,1-4c0-1.1-0.3-2.6-1-4.6
	c-0.6-2-1-3.6-1-4.6c0-0.6,0.4-1.5,1.1-2.6c0.7-1.1,1.2-1.7,1.4-1.9c0-0.6-1.2-2.2-3.5-4.8c-2.3-2.6-3.5-4.3-3.5-5.1
	c0-0.8,0.4-2,1.1-3.4c0.7-1.4,1.1-2.3,1.1-2.7c-0.4-0.6-1.2-2.1-2.2-4.5c-1.1-2.3-1.6-3.8-1.6-4.5v-5.4c0-1.9-0.3-3.3-1-4.3
	c-0.6-1-1.7-2.2-3.2-3.7c-2.8-1.9-4.1-4.4-4.1-7.3c-1.9,0-4.6-0.9-8-2.7c-3.4-1.8-5.7-3.1-7-4l-12.1,1.9v-2.2
	c-1.3,0-2.7,0.5-4.3,1.6c-1.6,1.1-3.1,2.2-4.6,3.5c-3.8,3.4-6.8,5.1-8.9,5.1c-0.9,0-1.5-0.1-1.9-0.3l-5.7,8.3h-1.9
	c-1.5,0-3.6,4.4-6.2,13.2c-2.7,8.8-4,15.3-4,19.3C1167.9,348.1,1172.1,359.5,1180.3,368.8z M1173.4,377.2c0.4-0.8,0.6-1.5,0.6-1.9
	c-0.4-1.5-1.3-2.6-2.6-3.3c-1.3-0.7-2.4-1.1-3.5-1.1l3.8,7.7C1172.5,378.5,1173,378.1,1173.4,377.2z M1184,398.3h7.7v-2.9
	C1186.9,395.4,1184.4,396.4,1184,398.3z M1210.8,396.4c-1.7-1.1-3.3-1.6-4.8-1.6c-3,0-4.8,1.7-5.4,5.1h14.7
	C1214,398.6,1212.5,397.4,1210.8,396.4z M1227.7,394.5h-6.7l3.8,3.8C1226.7,397.2,1227.7,395.9,1227.7,394.5z M1227.5,267.5
	c-0.7,0.9-1.1,1.8-1.1,2.9h6.7c0-1.1-0.3-2-0.8-2.9c-0.5-0.8-1.3-1.3-2.4-1.3C1229.1,266.2,1228.3,266.6,1227.5,267.5z
	 M1254.8,286.6c-0.9,0.6-1.6,1.8-2.2,3.5l3.8,0.3h1c3,0,4.7-0.8,5.1-2.6c-0.6-1.1-1.2-1.7-1.8-1.9c-0.5-0.2-1.3-0.3-2.4-0.3
	C1256.8,285.7,1255.6,286,1254.8,286.6z M1256.4,309.6c7.9,0,11.8-1.7,11.8-5.1c0-0.4-0.2-1.2-0.5-2.2c-0.3-1.1-0.8-1.8-1.4-2.2
	c-2.8,1.1-5.7,2.4-8.9,4.1c-3.2,1.7-4.8,2.9-4.8,3.5C1252.6,309,1253.8,309.6,1256.4,309.6z M1264,342.9c2.1,1,3.5,1.6,4.1,2.1h1
	c1.1,0,1.9-2.5,2.4-7.5c0.5-5,0.8-9,0.8-12c0-1.7-0.4-3.5-1.1-5.4c-0.7-1.9-1.8-2.9-3-2.9c-2.6,2.6-4.7,4.2-6.5,4.9
	c-1.8,0.7-3,1.3-3.7,1.8c-0.6,0.4-1,1.3-1,2.6h10.5c0,0.2,0.1,0.7,0.3,1.4c0.2,0.7,0.3,1.7,0.3,2.7c0,1.5-0.9,3.3-2.7,5.4
	c-1.8,2.1-3.5,3.7-4.9,4.8C1260.7,341.3,1261.9,342,1264,342.9z M1268.5,355.9l-0.3-2.9c-1.3,0.4-3,1.2-5.1,2.4
	c-2.1,1.2-3.7,2.4-4.8,3.7l6.1,5.7C1267.1,362.9,1268.5,359.9,1268.5,355.9z M1261.8,375.6c0,1.1,0.2,2,0.6,2.9l3.8-3.8l-3.5-0.3
	C1262.1,374.6,1261.8,375,1261.8,375.6z"/>
<g>
	<g>
		<path class="st0" d="M527.6,113.4c1.2,0.3,2.3,0.1,3.3,0.4c1.6,0.6,4.4,1.6,4.4,2.5c0.1,3.4,2.3,4.7,4.5,6.6
			c4.4,3.8,9.4,7.5,10.4,14c0.3,1.8,1.5,2.2,3.1,1c1.6-1.2,3.3-2.4,4.8-3.7c0,0,0.1-0.1,0.1-0.1c1.5-1.4,3.8-1.3,5.1,0.2
			c1.4,1.2,2.6,2.5,4,3.8c0.9-1.8,1.7-3.5,2.8-5.3c0.5-0.8,0.9-1.9,2-2.2c1-0.3,2.8-0.6,3.3,0c3.1,3,5.8,6.4,8.2,10
			c1.5,2.4,3.6,5.7,0.8,8.7c-4.4,4.5-3.8,9.2-1,14.1c0.3,0.6,0.9,0.9,1,1.4c1.4,5.4,4.8,8,10.4,8.3c1,0.1,1.9,0.4,2.7,0.9
			c2.7,1.7,3.5,5.3,1.8,7.9c-1.9,2.7-4.2,5.1-6.9,7.1c-3,2.6-3.5,6.9-1.4,10.2c1.3,1.8,2.7,3.7,4.2,5.4c1.7,1.7,2.4,4.1,1.9,6.4
			c-0.1,1.7,0.7,3.2,2,4.2c3.2,1.8,6.8,2.7,9.9,4.5c2.5,1.4,4.7,3.7,3.7,7.1c-0.6,2.3-1.6,4.6-2.9,6.6c-2.6,3.6,0.3,10.1,3,12.1
			c3.1,2.7,6,5.5,8.7,8.6c1.1,1.4,2.4,2.7,3.9,3.7c2.5,1.3,3.7,3.4,2.6,5.6c-1.4,2.9-3.3,5.5-5.7,7.7c-1.8,1.4-2.7,3.6-2.4,5.8
			c0.5,3,1.6,5.8,3,8.5c2.1,3.8,2.4,8,0.1,10.1c-1.8,1.8-3.8,3.5-5.8,5.1c-2.9,2.1-2.8,3.8,0.2,6.1c2.7,1.8,5.2,3.9,7.4,6.4
			c2.6,3,2.4,7.5-0.4,10.2c-1.4,1.5-2.8,3.1-4,4.8c-2,2.7-4.2,5.2-6.7,7.5c-1.6,0.9-3.6,1-5.3,0.4c-3.4-1.2-4.2-0.9-4.7,2.8
			c-0.6,4.3-1.3,7.8-5.5,11.2c-3.6,3.1-5.5,3.7-8.9,1.3c-0.8-0.7-1.8-1.3-2.8-1.8c-1.5-0.4-3.7-1.4-3.5,1.8
			c0.1,3.7,0.5,7.4,0.6,11.1c0,1.8-0.2,3.7-0.6,5.5c0,0.4-1,0.6-1.5,0.8c-0.3-0.5-0.5-1-0.6-1.5c0.2-1.4,0.5-2.8,0.6-4.2
			c-0.1-0.7-0.6-1.3-1-2c-0.3,0.4-0.6,1.1-1.1,1.3c-1.1,0.8-2.5,1.3-3.8,1.5c-2.9-0.1-6.3-1.9-8.5-0.9c-3.5,1.7-6.3,0.4-9.4-0.1
			c-0.8,0-1.6,0.1-2.3,0.2c-6.4,1.2-10.5-0.8-13.2-7c-0.9-3.1-3.8-5.1-7-4.9c-4.4,0-8.6-1.6-11.9-4.4c-1.6-1.3-3.1-1.6-4.6,0
			c-1.4,1.6-3.7,2.2-5.8,1.5c-2-0.5-3.6,0.3-3.9,2.4s-0.5,4.4-0.9,6.4c-0.7,3.9-1.7,7.8-2.2,11.7c-1.5,12-2.8,23.9-4.1,35.9
			c-0.1,1.8-0.9,3.1-2.3,2.9c-2.2-0.2-4.3-1.1-6.1-2.5c-0.8-0.8,0-3.2,0.2-4.9c0.1-0.7,0.2-1.3,0.4-2l4.8-35.7
			c0.4-2.9,0.6-5.8,1.2-8.6c0.8-3.9,0.7-7.1-3.5-9.3c-1.1-0.6-1.5-2.9-1.8-4.5c-0.3-3.2-0.1-6.5-0.8-9.6c-1.2-5.7-2.9-11.3-4.6-16.9
			c-0.6-1-1.3-1.9-2.2-2.6c-0.4,1.2-1.2,2.5-1,3.5c1.8,6.7,3.7,13.4,5.5,20.1c0.8,3.1-0.2,4.1-3.2,4.8c-4.5,1.1-9.6-0.6-13.5,3.6
			c-1.7,1-3.7,1-5.5,0.1c-3.4-2-6.3-4.7-8.6-7.9c-1.8-3-3.5-2.3-5.3-1.7c-2.6,1-5.2,2.2-7.6,3.7c-6,3.3-8.8,3.1-13.8-1.6
			c-2.9-3-5.3-6.5-8.1-9.7c-3.4-3.8-6.7-7.5-10.3-11.1c-2.1-2.2-1.1-3.5,1-4.6c3.2-1.7,6.4-3.5,9.5-5.3c0.2-0.1,0.2-1.3,0-1.3
			c-2.2-0.6-4.5-0.9-6.8-1.1c-2.5-0.2-5.9,0.2-5.7-3.2c0.3-5.1,1.1-10.2,2.3-15.1c0.6-2.5,1.1-4.1-2.1-5.4c-4.6-2-9.1-4.2-11.5-9.1
			c-2.7-5.3-2.4-6.9,2.9-8c0.2,0,0.3-0.8,0.4-1c-1.1-3.3-2.3-6.7-3.2-10.1c-1.1-4.5,0.4-7.7,3.8-8.9c5.5-1.9,11.1-3.5,16.8-4.8
			c3.4-0.6,3.2-2.2,2.4-4.2c-1.2-3.3-2.8-6.6-4.2-9.9c-0.7-1.6-2.2-3.2-2.3-4.8c-0.1-2.3-0.1-5.3,1.2-6.7c1.9-2.1,5.1-2.5,7.5-0.9
			c0,0,0.1,0,0.1,0.1c2,1.6,4.9,1.3,6.5-0.7c3.7-3.6,7.7-6.8,12-9.6c2.4-1.1,3.9-3.6,3.7-6.3c0-4.5,0.2-9.1-0.2-13.6
			c-0.6-5.9,1.8-10.2,7.4-11.5c3-0.6,6-0.8,9-0.4c9.4,1.1,9.4,1.2,10.7-8.1c0,0,0,0,0,0c0.1-2.5,2.2-4.5,4.7-4.4
			c2.7-0.2,5.2-1.1,7.4-2.6c6.5-5,12.5-10.5,18.6-15.9c0.7-0.9,0.9-2.2,0.4-3.3c-2.9-4.5-3.1-6.8,0-10.8c1.8-2.3,4.8-3.8,6.3-6.3
			c3.5-5.4,8.2-5,13.3-3.3 M431,304.4c-0.7,0.4-1.3,0.9-1.9,1.4c-0.9,1.3-2.9,3.4-2.6,3.9c1.3,1.9,3.1,4.2,5.1,4.6
			c4.2,0.9,8.2,1.5,10.7,5.6c1.2,0.7,2.8,0.8,4.1,0.3c4.3-2.7,8.7-1.1,12.9-0.3c2,0.4,2.6,0.3,2.8-1.6c0.3-2.3,0.9-4.7,1-7.1
			c0.1-3.2,2.2-4.6,4.9-3.9c3.1,0.7,6.1,2.1,8.6,4c4.6,3.6,7.4,2.9,8.8-2.9c1.2-4.9,1.2-6,8-3.6c0.7,0.3,1.5,0.4,2.3,0.3
			c4.8-1.5,10-1.6,14.8-0.1c0.1,0,0.2,0,0.3,0c4.2,0.5,8-2.5,8.4-6.7c0.3-1.4,1-2.8,1.2-4.2c0.3-4,1.6-2.7,3.4-1
			c1.4,1.5,2.6,3.1,4.1,4.5c2.7,2.6,5.7,5,8.8,7.2c1.9,1.2,4.8-2.3,4.6-5.3c-0.4-7-0.7-13.8-0.9-20.7c-0.1-5.8,3.6-6.7,9.1-5.2
			c1.6,0.5,3.1,1.1,4.6,1.9c4.4,1.8,6.3,0.1,6.2-4.7c0-2.4-0.5-5.5,3.3-6.5c0.7-0.2,1.1-3.2,1.1-4.7c0-5.8-1.1-11.5-0.5-17.2
			c0.6-6.8,2.7-7.9,9.6-7.3c2.6,0.2,5.3,0.7,8.1,1.1c3.5,0.4,10.3-4.2,10.3-7.5c0.1-5.5-0.4-10.9-0.7-16.4c0-4.7-2.3-9.1-6.1-11.8
			c-2.2-1.5-2.7-4.5-1-7.8c2.4-4.7,6.6-7.3,10.4-10.3c1.9-1.5,1.6-3-0.2-3.4c-8.4-2.1-12.7-8-15.1-15.7c-0.5-1.1-1.2-2-1.6-3
			c-1.8-3.2-1.2-7.1,1.3-9.7c2.1-2,2.4-5.3,0.8-7.7c-1.5-2.7-3.3-5.1-5.4-7.4c-0.2-0.3-1.9,0-2.1,0.4c-1.2,2.1-2,4.4-3.1,6.6
			c-0.6,1.1-1.3,2.1-2.1,3c-0.4-0.7-0.8-1.5-1.2-2.2c-0.2-0.3-0.4-0.6-0.7-0.9c-1.7-1.6-4.1-5-5-4.6c-3,1.5-5.8,3.4-8.3,5.7
			c-0.7,0.6-1.4,1.2-2,1.8c-0.4-0.7-0.7-1.4-1-2.1c-2-6.8-5.8-12.9-11-17.8c-2.2-2-3.5,0.3-5.3,0.6c-0.5,0.1-1.1,0.3-1.6,0.4
			c-0.1-0.7-0.5-1.4-0.4-1.9c2.1-7.6,2.1-7.4-5.5-8.6c-3.1-0.4-5.4-0.3-7.6,2.4c-2.3,2.3-4.8,4.4-7.4,6.4c-2.4,2.2-1.8,4.5,0,6.9
			c3.4,4.4,3.1,5-1.2,8.6c-5.2,4.4-10.2,9.1-15.4,13.6c-3.1,3-7.2,5-11.5,5.6c-0.8,0.1-2,1.7-2.4,2.9c-0.1,1.4-0.1,2.7,0,4.1
			c-0.8,6-5.2,8.2-11.1,5.8c-3.8-1.4-8-1.4-11.7,0.1c-3.5,1.3-3.5,4.3-3.5,7c-0.1,6,0.5,12,0.3,18c-0.2,1.8-1.3,3.4-2.9,4.2
			c-6.3,2.1-10,7.7-14.9,11.5c-2.3,1.8-4.6,3-7.5,1.4c-0.5-0.3-1-0.5-1.6-0.6l-4.6-0.4c-0.1,1.7,0.1,3.3,0.5,5
			c1.8,4.5,4.3,8.7,5.9,13.1c2,5.5,1.5,7.6-4.9,8.7c-5.4,1-10.6,2.9-15.9,4.3c-0.3,0-0.5,0.1-0.8,0.2c-1.7,0.7-2.5,2.6-1.9,4.3
			c1.2,3.8,2.9,7.7,4.3,11.5c0.6,1.7,2.4,4.1-1.9,3.5c-1.1-0.1-2.3,0.8-3.3,1.3c0.7,1.4,1,3.4,2,4c4.2,2.6,8.6,4.9,13.2,6.8
			c2.3,1,3,1.3,1.5,3.7c-2.5,4.5-4,9.5-4.3,14.7c-0.2,3.2,0.8,4.1,4,3.8c4.4-0.6,7.5,2.2,11,4.1c0.1,0-0.5,1.3-0.8,2 M557.7,311.2
			c3.4,7,6.6,13.8,9.8,20.4c3.9,8,7.7,16.2,11.5,24.2c0.2,0.3,0.4,0.6,0.7,0.9c0.3-0.5,0.5-1.1,0.6-1.6c0.1-4.7-1.7-8.7-3.7-12.8
			c-8.7-18.4-17.2-36.8-25.8-55.2c-0.8-1.7-1.9-3.3-2.6-5.1c-0.2-1.1-0.3-2.3-0.1-3.4c1,0.7,2.3,1.2,2.8,2.2c1.7,3.1,3,6.4,4.6,9.7
			c5.7,12.5,11.5,25,17.3,37.5c2.2,4.8,4.5,9.7,6.8,14.5c0.2,0.5,1.1,0.7,1.6,1.1c0-0.7,0.4-1.7,0-2.2c-4.4-6.5-5.7-14.3-8.7-21.3
			c-2.7-6.2-6.4-11.8-9.4-18.2c-3-6.5-5.7-13-8.3-19.6c-1.6-3.7-5.5-6-9.5-5.4c-0.7,0.3-1.2,0.8-1.5,1.5c-0.5,3-1.1,6.1,2.5,8.1
			c1.3,1,2.3,2.5,2.8,4.1c2.8,6.9,5.5,13.8,8.2,20.7 M593.9,272.7c-4.5-9.3-8.7-18.2-13-27.1c-0.9-1.4-1.6-2.8-2.1-4.4
			c-0.4-2.6-2.3-1.9-3.7-2.3c0,1.1,0.2,2.1,0.6,3.2c3.9,8.3,8.2,16.5,11.7,24.9c3.5,7.6,6.2,15.5,8,23.7c1.5,8.1,6.2,15.6,9.7,23.3
			c2,4.5,4.6,8.8,6.8,13.2c0.3,0.7,0.1,1.2,0.3,2.1c0.2,0.9,0.6,1.7,0.9,2.6c0.8-0.5,1.5-1.2,2.1-2c1.5-2.1,1.7-4.9,0.7-7.2
			c-2.5-5.5-4.5-11.3-7-16.9c-4.1-9.1-8.4-18.2-12.5-27.3C595.5,276.6,594.7,274.6,593.9,272.7 M571.5,280.9
			c-2.5-4.6-4.6-8.8-6.8-13c-0.2-0.3-0.5-0.6-0.9-0.8c-0.1,0.3-0.2,0.6-0.3,1c-0.8,3.2,0.1,6.6,2.3,9c1.9,2.6,3.4,5.5,4.2,8.6
			c1.8,5.8,4.3,11.3,7.3,16.5c3.4,5.5,5.3,12,8,17.9c2.2,5.1,4.2,10.3,6.6,15.3c1.6,3.2,3.4,6.2,5.4,9.2c0.3,0.5,1,0.8,1.5,1.1
			c0.2-0.5,0.4-1,0.5-1.6c1.1-5,0.1-10.3-2.9-14.6c-3.2-5.5-5.9-11.3-8.2-17.3c-3.2-7.1-7.9-13.7-11.6-20.6
			C574.6,288.2,573.2,284.5,571.5,280.9 M608.9,278.5c1.6,4.3,3,8.3,4.3,12.3c0.1,0.5,0.2,0.9,0.1,1.4c-1.4,0.5-3.2,0.8-1.4,2.6
			c0.1,0.2,0.2,0.3,0.4,0.4c1.5,1.4,3.8,1.3,5.2-0.2c3.4-3.1,3.3-5.6-0.2-8.7c-0.7-0.5-1.2-1.1-1.6-1.7c-0.6-1-2.3-1.4-0.3-3.6
			c1.4-1.5,0.6-6.2-0.6-9c-4.6-9.6-9.8-18.8-14.9-28.2c-1.5-2.7-3.1-5.3-4.8-7.8c-0.5-0.7-1.8-1-2.7-1.4c-0.4,1.2-1.4,2.7-1.1,3.6
			c0.9,2.7,2.6,5,3.7,7.6c3.9,8.8,7.9,17.7,11.8,26.5c0.9,1.9,1.4,3.9,2.2,5.9 M568.2,358.3c0.7,0.3,1.4,0.6,2,1
			c0.8,0.3,1.6,0.5,2.4,0.7c0-0.7-0.2-1.4-0.4-2.1c-4.5-8.8-9.1-17.5-13.7-26.3c-4.6-8.7-9.2-17.3-13.9-26c-0.3-0.6-0.9-1-1.4-1.6
			c-0.2,0.6-0.9,1.4-0.7,2c0.5,1.9,1.4,3.8,2,5.6c2.4,6.6,4.4,13.2,6.8,19.7c1.6,4.4,3.5,8.5,5.3,12.9c1.7,3.8,3.6,7.4,5,11.3
			c0.9,2.5,1.7,4.2,4.7,2.8C566.9,358,567.6,358.3,568.2,358.3 M569.9,252.1c-0.1-0.6-0.4-1.3-0.8-1.8c-0.6-1-1.2-2.1-1.8-3.1
			c-0.3,1.4-0.4,2.8-0.4,4.3c0.3,5.6,3.1,10.1,5.8,14.9c5.6,9.9,10,20.5,15,30.8c3.5,7.3,7.2,14.5,10.8,21.7
			c1.7,3.3,3.2,6.7,5.1,9.9c0.5,0.9,1.9,1.5,2.9,2.2c0.2-1.2,0.2-2.4,0-3.6c-2.4-5.5-5-11-7.7-16.4c-5.5-11.2-11-22.5-16.5-33.5
			C578.2,269.1,574,260.6,569.9,252.1 M579.3,319.4c-6.4-12.7-12.3-25-18.4-37.3c-0.4-0.9-1.6-1.5-2.5-2.2c0,1.2,0.1,2.4,0.3,3.5
			c3.1,11.4,9.6,21.2,15,31.5c1.4,3,2.5,6.1,3.5,9.3c2.4,6.7,5.1,13.2,8.2,19.6c1.4,2.6,5.3,3.8,8,5.5c0.1,0,0.8-0.8,0.9-1
			c-0.5-1.4-0.9-3.5-1.9-3.9c-4.7-1.7-5.2-6-6.8-9.8C583.8,329.6,581.5,324.5,579.3,319.4 M520.2,316.2c3.8,9.7,7.2,19,10.6,28.3
			c0.7,2.1,3,3.3,5.2,2.8c1-0.2,2.5-0.5,1.6-2.7c-4.5-11.2-8.7-22.4-13.1-33.6c-0.8-2.1-1.7-4.1-2.8-6.1c-0.5-1-1.6-3-2.1,0.1
			c-0.3,2.1-0.5,4.2-0.5,6.3C519.3,312.9,519.7,314.5,520.2,316.2 M611,297.8c-2.7-6.8-4.8-13.2-7.2-19.5c-1.4-3.8-3.1-7.6-4.9-11.3
			c-3.4-7.2-7-14.3-10.6-21.4c-0.6-1.7-1.4-3.3-2.5-4.7c-0.9-1.1-2.7-1-4.1-1.5c0.2,0.9,0.5,1.9,0.8,2.8c3.4,7.4,6.7,14.6,10.2,21.9
			c5.3,11.7,10.7,23.4,16,35c0.6,0.9,1.3,1.8,2.1,2.6C610.9,300.3,610.9,299,611,297.8 M608.9,254.8l8,13c0.2,0.4,0.5,0.7,0.9,1.1
			c1.4-1.6,2.7-3.2,3.8-5c0.4-1,0.2-2.1-0.4-2.9c-2.7-2-5.2-4.2-7.5-6.6c-3.3-3.9-6.1-8.2-8.4-12.7c-3.2-7.1-5.6-14.5-8.5-21.7
			c-0.2-0.5-0.8-0.9-1.3-1.4c-0.2,1-0.4,2-0.4,3c0.3,5.8,2,11.5,4.8,16.5C603,243.7,605.9,249.3,608.9,254.8 M524.8,303.7
			c2.1,5.8,4.4,10.9,6.4,16c4.6,11.3,9,22.7,13.5,34c0.4,0.9,0.9,1.6,1.6,2.3c0.8,0.9,1.7,1.7,2.6,2.4c0-1.3,0.5-3-0.2-3.8
			c-2.5-3.4-2.1-7-2.8-10.9c-0.8-3.9-3.2-7.6-5-11.3c-3.3-6.4-7-12.6-10-19.2c-2.3-5-3.9-10.6-5.9-15.8c-0.2-0.5-0.9-1.3-1.4-1.3
			c-0.5,0-1.2,0.8-1.4,1.3C521.2,300.2,522.6,302.1,524.8,303.7 M573.8,351.4c-2.8-5.6-5.1-11-7.9-16.1
			c-7.3-14.1-13.8-28.7-19.3-43.6c-0.6-1.3-1.4-2.5-2.2-3.6c-0.1,1.4-0.3,2.9-0.4,4.3c0.2,9,5.6,16,9.2,23.5
			c4.1,8.5,9.1,16.4,13.5,24.7c2.8,5.4,5.2,10.9,7.8,16.3c0.5,0.6,1.1,1.2,1.7,1.6c0-0.9,0.5-2,0.2-2.6
			C575.8,354.3,574.7,352.9,573.8,351.4 M504.4,336.9c0.6,2.2,0.7,3.9,1.1,5.6c0.3,1.1,1.1,2.8,1.5,2.9c1.4-0.1,2.8-0.6,3.9-1.5
			c0.7-1,0.8-2.3,0.5-3.4c-3.1-8.9-6.4-17.7-9.7-26.5c-0.5-1.7-1.2-3.3-2.1-4.8c-0.4-0.8-1.6-1.1-2.4-1.6c-0.3,0.9-0.4,1.9-0.4,2.8
			c0.9,3.8,2.1,7.6,3.1,11.4c1.4,5,3,10.1,4.4,15.2 M579.3,255.3c-2.8-5.6-5.2-10.8-7.7-15.9c-0.6-0.6-1.5-0.8-2.3-0.6
			c-1.9,1.2-1.8,4.2-0.5,6.1c3.2,4.8,6.1,9.9,8.8,15c4.1,8.3,7.9,16.8,11.8,25.1c0.1,0.2,0.2,0.4,0.4,0.6l1.7,1.5
			c0.1-0.8,0.1-1.6,0-2.4c-2.3-6-4.7-11.9-7.3-18c-1.6-3.9-3.4-7.7-5-11.6 M518.2,336.6c1.5,2.2,3.2,4.2,5.2,6
			c0.3-0.6,1-1.4,0.8-1.9c-1.3-4.1-2.9-8.1-4.2-12.3c-1.9-5.7-3.7-11.4-5.6-17.2c-0.3-0.8-0.8-1.6-1.3-2.2c-0.3,0.9-1.1,1.9-0.9,2.7
			c0.6,3,1.1,5.8,1.8,8.8c1,4.2,2.2,8.5,3.3,12.8l0.8,3.6 M467.6,321.1c1.7,6.2,3.7,11.7,5.6,17.2c0.2,0.5,0.4,0.9,0.6,1.3
			c0.5-0.3,1.4-0.5,1.4-0.8c0.6-1.5,0.8-3.1,0.6-4.7c-1.7-7-3.7-14-5.8-20.9c-0.3-1-1.7-1.7-2.7-2.6c-0.5,1.1-1.6,2.2-1.5,3.2
			C466.3,316.3,466.9,318.7,467.6,321.1 M513.5,337.2c1.9,0.3,2.2,0,1.7-1.8c-1-4.2-2.1-8.2-3.1-12.5c-1.1-3.4-2-6.9-2.7-10.5
			c-0.7-3.3-2.9-4.7-5.3-6.1c-0.6-0.1-1.1-0.2-1.7-0.1c0,0.6,0.2,1.2,0.3,1.8C506.2,317.7,509.8,327.5,513.5,337.2 M501.2,334.4
			c-2.5-8.2-4.7-16.1-6.9-23.9c-0.1-0.9-0.4-1.7-1-2.4c-1-0.6-2.1-1.1-3.2-1.4c0.2,0.8,0.5,1.5,0.8,2.3c2.2,7.5,4.4,14.9,6.4,22.4
			c0.7,2.9,2.6,5.8,1.1,9.1c-0.1,0.3,1.6,1.4,2.5,2.1c0.3-0.6,0.9-1.3,1-1.9C501.7,338.6,501.4,336.5,501.2,334.4 M572.5,278.2
			c3,5.4,5.6,10.5,8.3,15.5c1.1,1.6,2.2,3.1,3.5,4.6c-0.2-1.8-0.6-3.6-1.2-5.3c-3-6.2-6.2-12.2-9.4-18.3c-1.5-2.8-2.9-5.6-4.6-8.3
			c-0.2-0.5-1.3-0.5-2-0.8c0.1,0.6,0.2,1.3,0.5,1.9c1.6,3.5,3.2,7.1,4.9,10.6 M436.6,319l-2.9-0.4c-3-0.6-3.5,0.2-3.3,3.5
			c0.4,5,3.3,7.9,6.6,10.8c0.5,0.4,1,0.7,1.6,1c0.3-0.8,1-1.6,0.9-2.5c-0.3-2.4-1.1-4.9-1.7-7.4c-0.3-1.7-0.8-3.4-1.2-5.1
			 M455.6,325.3c0.7,0.7,1.5,1.5,2.3,2.1c1.6,1.2,3.2,2.5,4.6,4c2,2.1,3.7,4.6,5.5,6.9c0.4,0.3,0.9,0.6,1.4,0.8
			c0.2-0.5,0.4-1.1,0.4-1.6c-0.3-1.2-0.7-2.3-1.3-3.3c-0.8-1.6-2.7-3-2.5-4.4c0.5-7.4-5.1-6-9.1-6.6c-2.6-0.4-2.2,0.9-1.3,2.3
			 M449.1,322.8c-2.8,1.2-4.6,2.3-4.2,5.5c0.4,1.3-1.3,2.9-2.1,4.3c-0.5,1.1-1,2.2-1.6,3.2c1,0,2.1-0.2,3-0.6
			c2.7-1.1,5.2-2.5,7.6-4.2c2.2-1.8,1.1-4,0.2-6.1c-0.6-1.3-0.4-3.6-3-2.2 M477.6,317c1.6,4.6,3.4,9.1,5.4,13.5
			c0.8,1.7,1.8,3.3,2.9,4.9c0.2,0.3,1.3,0.2,2,0.3c0.1-0.7,0.5-1.5,0.3-2c-1.5-4.9-2.8-9.9-4.7-14.6c-1.2-2.1-3.6-3-5.9-2.2
			 M555.8,351.7c-2.1,2.1-2.2,2.1-2.9-0.4c-0.9-2.8-1.4-5.7-2.2-8.5c-0.4-0.8-1-1.6-1.6-2.3c0,0.8,0,1.5-0.1,2.3
			c-0.7,4-0.8,7.8,2.4,10.9c0.4,0.5,0.7,1.2,0.8,1.8c0.8,2.5,3.4,4,6,3.3c0.4-0.1,0.9-0.8,0.8-1.1c-0.8-2.3-1.7-4.6-2.5-6.8
			c-0.2,0.3-0.4,0.6-0.6,0.9 M536.8,319.2c2.5,4.2,4.8,8,7.1,11.9c0.4,0.7,0.9,1.4,1.5,2l2.4,3.1c-0.4-1.3-0.4-3-1.2-4
			c-5.8-6.8-8-15.3-11.8-23.1c-0.8-1.2-1.7-2.4-2.8-3.4c0.1,1.3,0.3,2.7,0.7,4C533.9,312.9,535.4,316.1,536.8,319.2 M542.9,323.6
			l3,4.8c0.3,0.3,0.7,0.6,1.1,0.9c0-0.4,0-0.8-0.1-1.2c-2.1-6-4.4-12-6.6-18c-0.2-0.6-0.6-1.2-1-1.7c-0.6-0.4-1.3-0.6-1.9-0.8
			c-0.1,0.7,0,1.4,0.2,2.1c1.7,4.7,3.6,9.3,5.5,13.9 M615.2,312.4c0.8,2.8,1.9,5.6,3.1,8.3c0.6,0.8,1.3,1.5,2.1,2.2
			c0.6-0.7,1.1-1.6,1.5-2.5c1.1-3.7-2.9-10.2-6.7-11.2c-0.3-0.1-0.9,0.7-0.9,1C614.5,310.9,614.8,311.7,615.2,312.4 M601.4,219.4
			c-1.1,0.4-1.7,1-1.5,1.2c1.6,3.3,3.2,6.6,4.9,9.9c0.3,0.6,0.8,1.2,1.2,1.7c0.5-0.5,1-1.1,1.4-1.7c1.9-3.6,1.6-5.2-1.6-7.7
			L601.4,219.4 M419.9,312c-0.7,0.8-1.3,1.6-1.1,1.6c2.2,2.5,4.4,5,6.7,7.4c0.2,0.3,0.7,0.6,0.9,0.6c0.4-0.2,0.8-0.5,0.9-1
			c0-0.3,0.1-0.6,0.1-1C427.4,315.5,424.1,312.1,419.9,312 M481.1,336.5c-1.1-4.3-2.4-8.6-4-12.7c-0.1-0.3-0.6-0.5-0.9-0.7
			c-0.2,0.3-0.4,0.7-0.3,1c1.3,3.9,2.5,7.8,4,11.8C480.1,336.1,480.7,336.3,481.1,336.5 M598.4,324.5c-1.2-2.4-2.6-4.8-4.1-7
			c-0.2-0.3-0.3-0.7-0.4-1.1c-0.1,0.5-0.5,1-0.4,1.2c1.3,2.8,2.6,5.5,3.9,8.2c0.2,0.2,0.9,0.1,1.4,0.2
			C598.7,325.5,598.5,325,598.4,324.5 M565,280.7c-0.4-0.8-0.3-1.2-0.5-1.4c-0.7-0.6-1.5-1.1-2.2-1.7c0.1,0.9,0.3,1.9,0.6,2.7
			c0.6,1.2,1.2,2.3,2,3.4c0.5,0.7,1.1,1.3,1.7,2c-0.1-0.9-0.2-1.8-0.4-2.7C565.8,282.3,565.4,281.5,565,280.7 M497.9,395.9
			c0.7-1.2,1.1-2.6,1.4-3.9c0-0.1-0.3-0.3-0.4-0.5c-0.2,0.2-0.4,0.4-0.5,0.7C498.3,393.4,498.1,394.7,497.9,395.9 M584.8,195.2
			c0.2,0.3,0.4,0.7,0.5,1c0.2,0.8,0.4,1.6,0.5,2.4c0.3-0.4,0.9-1,0.8-1.2C586.1,196.5,585.5,195.8,584.8,195.2 M474.4,313.6
			c-0.6,0.5-0.9,1.2-1,1.9c0,0.1,0.7,0.4,1.1,0.6C474.5,315.3,474.4,314.4,474.4,313.6 M592.4,176.7c0.6,0.3,1.2,0.4,1.9,0.4
			c0-0.1-0.1-0.4-0.1-0.4C593.7,176.6,593,176.7,592.4,176.7"/>
	</g>
</g>
<g>
	<g>
		<path class="st0" d="M589.6,291.1c-0.1-0.3-0.2-0.7-0.1-1.1C589.6,290.3,589.6,290.7,589.6,291.1"/>
		<path class="st0" d="M391.7,329.2c2.8,0.5,5.7,0.9,8.6,1.1c3.3,0.6,5.6,3.8,5,7.2c-0.4,1.3-1.4,2.7,1.3,3c1.1,0.1,2.1,1.6,2.9,2.7
			c0.9,1.6,2.9,2.1,4.5,1.2c0.5-0.3,0.9-0.8,1.2-1.3c2.4-3.3,4.8-6.7,7.6-9.7c1.1-0.6,2.4-0.7,3.6-0.3c3,1.6,6.2,3.2,7.4,6.8
			c0.5,1.4,0.8,2.8,1,4.3c0.3,1.8,0.5,2.6,2.5,1.2c4-3,7.6-6.7,12.8-7.4c6.7-0.9,7.2-7.1,9.8-11.5c1-1.6,1.6-3.3,2.6-4.9
			c0.6-0.3,1.4-0.3,2,0c1.9,3,4.6,2.6,7.5,2c1.1-0.2,2.2,0.2,3,1.1c1.8,2.6,3.5,3,6.1,1.2c4.5-3.1,4.5-3.1,8.3,0.5
			c1.4,1.3,1.8,1,2.5-0.5c2.4-5,1.6-9.9,0-14.9c-1.5-4.3-0.9-6.2,3.2-8.4c3.1-1.6,2.3-4.8,3.3-7.4l1-2.5c0.9,0.4,1.8,0.8,2.6,1.3
			c0.4,0.3,0.8,0.7,1.1,1.1c1,1.1,1.8,2.1,2.5-0.3c0.4-1.6,2.1-2.6,3.7-2.2c0.2,0.1,0.4,0.1,0.6,0.2c3.4,1.5,4.1-1.3,4.1-2.9
			c0-4.2,1.8-8.8-1.6-12.6c-0.2-0.5-0.2-1,0.1-1.5c0.4-0.3,0.9-0.3,1.4-0.1c2.8,1.7,4.3,0.9,5.5-2.1c0.3-0.7,2.8-0.6,4.2-0.8
			c0.9-0.2,1.8-0.2,2.8-0.3c0-0.9-0.2-1.8-0.6-2.6c-4-6-6.9-13.2-14.4-16.2c-1.4-0.5-2.9-1-4.4-1.4c-1-0.1-1.9-0.4-2.8-0.9
			c-0.6-0.5-0.6-1.6-0.8-2.5c0.6-0.2,1.3-0.4,2-0.4c1.3,0.1,2.5,0.4,3.8,0.6c0.7,0.1,1.5,0.3,2.2,0.5c0-1,0.3-2.2-0.2-3
			c-1.4-3.1-3.1-6.1-5.1-8.9c-3-3.8-4-8.2-5.2-12.7c-0.3-0.9,0.7-2.1,1.1-3.1c0.6,0.7,1.8,1.5,1.8,2.2c0,8.1,6.2,13.2,9.3,19.7
			c1,2,2.3,3.6,1.6,6.1c-0.1,1.2,0.4,2.3,1.3,3.1c6.2,4.2,9.2,10.9,13,16.9c0.7,1.3,0.8,2.8,0.2,4.1c-1.4,1.2-3.2,1.8-5,1.6
			c-2.1-0.6-2.7,0-3.3,1.6c0,0.3-0.2,0.6-0.4,0.8c-4.5,2.2-3.5,6.2-3.3,9.9c0.2,2.9-1.1,5.7-3.3,7.5c-0.4,0.4-0.9,0.7-1.5,0.8
			c-2.6,0-5.2-0.4-6.6,2.7c0,0.3-2.2-0.3-3.3-0.6c-1.4-0.6-2.3-0.9-2.4,1.2c0.2,2.9-1.6,5.6-4.4,6.6c-2.5,1-1.3,3.1-0.9,4.6
			c1.2,5.1,2.4,10,0.3,15.2c-1.8,4.7-4.2,5.8-7.8,2.4c-2-1.8-3.3-1-5.1,0c-1.9,0.8-3.8,1.5-5.8,1.9c-0.7,0.1-1.3-0.2-1.8-0.7
			c-0.7-2.2-3.1-3.5-5.4-2.8c-0.3,0.1-0.5,0.2-0.8,0.3c-0.5,0.2-1,0.2-1.5,0c-3.4-3.2-4-0.6-5.4,2.1c-1.8,3.7-3.9,7.2-6.2,10.6
			c-0.5,0.7-1.2,1.1-2,1.1c-6-1.3-9.3,3.1-13.3,6.1c-1.2,1-2.6,1.7-4.2,2.1c-2.3,0.4-3.5-1.1-3.9-3.3c-0.6-3-0.3-6.7-5-6.8
			c-0.4,0-0.8-1.3-1.3-2c-0.5-0.7-1-1.1-1.4-1.7c-0.6,0.6-1.6,1.1-1.6,1.8c0,2.5,0.2,5,0.6,7.4c1,4.9,2,9.8,3.2,14.7
			c1,4.4,2.3,8.7,3.3,13.2c1.8,8.7,6.6,16.2,10.8,23.8c0.9,1.1,2.3,1.9,3.8,2c2.5,0.4,5-0.1,7.6,0.2c4,0.4,7.9,1.1,11.8,1.9
			c0.8,0.1,1.3,1.2,1.8,1.9c-0.7,0.4-1.5,1.1-2.2,1.1c-6.4-0.1-12.8-0.6-19.3-0.5c-3.3,0.2-6.6,0.6-9.8,1.3c-1,0.1-2,0.4-3,0.5
			s-1.8-0.3-2.5,0c-4.8,3.2-10.2-0.8-15.2,1.1c-2.8,0.9-5.7,1.3-8.6,1.3c-2.2-0.1-4.4-0.2-6.6-0.6c-2.4,0-4.7,0-7,0
			c-0.5,0-1.4-0.4-1.3-0.6c0.1-0.7,0.3-1.7,0.8-1.8c2.6-1.1,5.3-1.9,8.1-2.5c5.8-0.8,6-0.9,6.9-6.6c0.6-4.3,1.9-8.5,2.5-12.8
			c0.6-4.8,0.8-9.6,1.3-14.4c0.3-3.2,0.8-6.4,1.3-9.5c0-0.7,0.6-1.3,0.5-2c-0.2-0.9-0.4-1.7-0.8-2.5c-0.5,0.6-1,1.3-1.6,1.8
			c0,0-0.1,0.2-0.2,0.3c-0.6,1.1-9.8,5.7-11,5.2c-0.7-0.3-1.2-0.8-1.5-1.5c-1.1-2.4-2-4.8-2.9-7.3c-0.4-1.3-0.8-1.4-2.1-0.7
			c-2.7,1.5-4.4,0.3-4.6-2.9c-0.1-1.6-0.3-3.2-0.6-4.8c-0.2-0.6-0.6-1.3-1-1.8c-0.6,0.5-1.1,1-1.5,1.6c-1.3,2.9-2.5,5.9-3.7,8.8
			c-0.7,1.6-4.6,3.8-5.4,2.6c-2.3-3.6-6.6-5.9-6.6-10.8c0-2.3,0-4.6,0-6.9c0-1.2,0.8-3-1.8-1.2c-2.4,1.8-5.3,2.8-8.4,2.8
			c-1.7,0-3.6,2-4.8,3.6c-1.5,2-3.3,4.1-5.4,3.6c-2.1-0.6-3.6-2.8-4.8-4.7c-1.6-2.5-2.6-5.4-3.9-8.1c-0.1-0.4-0.6-0.6-0.9-0.9
			c-1.5-1.7-5.2-0.8-5-4.3c-0.6,0.2-1.2,0.4-1.8,0.7c-1.7,0.9-3.1,2.1-4.8,2.8c-2.9,1.3-4.3,0.3-4.3-2.8c0-5.4,0-10.8-2.7-15.5
			c-1.3-2.7-1.5-5.7-0.7-8.6c0.2-0.9,0.3-1.8,0.2-2.7c-0.2-1.3-0.7-2.3-2.2-0.9c-1.3,1.3-2.7,2.4-4.2,3.4c-1.1,0.5-2.2,0.8-3.4,1
			c0.1-1.1,0.1-2.1,0-3.2c0-1.8-0.1-3.5-0.4-5.3c-0.9-5.7-2.4-11.3-2.9-17c-0.4-3.5-0.3-6.7-3.3-8.9c-1.1-0.6-2.4-0.7-3.6-0.2
			c-4,2.3-7.7,2.5-9.5-0.4c-0.4-0.5-0.7-1.1-0.8-1.8c-0.3-3.9-0.3-7.8,0.1-11.7c0.4-2.1,2.6-3.9,4-5.8c0.5-0.8,1.5-1.5,1.4-2.1
			c0-2.3,1-4.4,2.7-5.9c2.2-2.3,4.4-4.6,6.4-7.2c0.8-0.9,1.5-1.8-0.6-2.7c-3.1-1.3-4.5-3.7-2.9-7.4c0.3-1.3,0.2-2.6-0.4-3.8
			c-1.5-4-1.4-4.9,2.5-5.2c3.8-0.3,6.5-2.6,9.7-4.1c2.3-1,4.7-1.6,7.2-1.8c1.5-0.2,1-0.6,0.8-1.5c-1.6-6.3-1.1-8.3,5.7-10.6
			c1.9-0.4,3.6-1.7,4.5-3.5c1.5-2.3,4.2-3.6,7-3.4c2.6,0,4.2-0.6,4.9-3.6c1.1-4.7,4-6.1,9-4.6c1.7,0.6,3.6-0.2,4.5-1.8
			c2.9-4.2,7-7.6,11.7-9.7c0.5-0.2,0.9-0.4,1.3-0.7c4.1-3,7-2.4,9,2.3c1.2,2.5,2.2,2.5,3.9,0.6c1.1-1.2,2.3-2.3,3.7-3.1
			c1.5-1.3,3.5-1.9,5.5-1.6c2.5,0.4,5.2-1.3,7.9-1.8c2.3-0.4,4.8-0.3,5.9,2.1c1.4,2.8,3.5,2.1,5.4,1.6c1.9-0.4,3.8-1.1,5.4-2.3
			c3.6-3.3,7.6-2.4,11.6-1.7c2.4,0.6,4.6,1.6,6.6,3c1.3,1,3.1,1.2,4.6,0.7c2.6-1,5.6,0.2,6.7,2.8c1.3,1.9,2.9,3.5,4.8,4.8
			c0.4,0.4,1.5,0.3,2.1,0c1.5-0.5,2.8-1.3,4.1-2.2c2.7-2,6.4-2.2,8.2,1.7c1.8,3.8,5,5.4,9.4,5.5c2.4,0.4,4.7,1.2,6.8,2.4
			c4.1,1.8,8.1,3.8,12.1,5.8c0.5,0.3,0.8,1.3,0.9,2.1c0.7,4.3,1.3,8.6,1.9,12.8c0.1,0.7,0.4,1.3,0.9,1.8c4.2,3.9,8.6,7.7,12.7,11.7
			c0.6,0.6,0.5,1.8,0.8,2.8c-0.9-0.2-2.2,0-2.8-0.6c-2.1-2.1-4-4.4-6-6.5c-1.3-1.7-2.9-3.2-4.8-4.1c-3.2-1-3.8-3.6-4.4-6
			c-0.5-2.4-0.7-4.8-0.7-7.2c-0.1-2.4-0.3-4.2-3.1-5.4c-4.5-1.8-8.5-4.8-13.1-6.2c-2.1-0.7-5.2,0.8-7.6,1.9c-1.7,0.8-2.8,2-5.1,1.1
			c-3.4-1.3-7.6,3.4-6.6,6.9c1.8,6.1,3.6,12.2,5,18.4c0.5,2.1,0.8,4.5-1.5,6.2c-0.8,0.6-0.9,2.1-1.5,3.1c-0.6,0.8-1.2,1.6-2,2.4
			c-0.9-1.2-1.7-2.5-2.3-3.9c-0.2-0.5,0.7-1.8,1.3-2.2c4.2-2,3.3-5.5,2.3-8.6c-3.2-9.1-5.3-18.5-6.3-28c-0.2-1.5-1.8-2.8-2.9-4
			c-1.5-1.6-3.3-2.8-4.5-4.5c-1.4-2-2.7-2.5-4.8-1.3c-1.7,1.2-4.1,0.8-5.4-0.9c0,0,0,0,0,0c-4-4.1-10.2-5-15.2-2.2
			c-3.2,1.6-6.6,2.8-10.1,3.6c-1.6,0.1-3-0.7-3.9-2c-1.7-3.3-3.7-3.1-6.6-1.9c-2.2,0.7-4.3,1.2-6.6,1.6c-1.5,0.4-2.9,1.1-4.2,1.9
			c-1.5,1.1-2.9,2.3-4.2,3.6c-0.9,1.2-2.6,1.4-3.8,0.5c-0.3-0.2-0.5-0.5-0.7-0.7c-0.4-0.6-0.8-1.2-1.1-1.8c-2.5-3.8-2.3-3.3-6.5-1.3
			c-3.6,1.4-6.8,3.6-9.4,6.4c-0.7,0.8-1.4,1.7-2,2.6c-1.7,2.2-4.6,3.2-7.3,2.4c-1.7-0.4-3.5-0.2-5,0.6c-1.7,1.3-2,3.7-0.7,5.4
			c0,0.1,0.1,0.1,0.2,0.2c1,1.5,0.3,1.5-0.9,1.5c-2.8,0.2-5.7,0.3-8.6,0.7c-1.6,0.2-3.1,1-2.7,3.2c0.3,1.6-0.4,2.3-2.2,2.4
			c-1.8,0.2-3.6,0.6-5.4,1.2c-2.5,0.6-4,3.2-3.3,5.7c0.1,0.2,0.1,0.4,0.2,0.6c1.1,3.6,0.4,5-3.1,5.7c-3.7,0.4-6.6,3.4-6.9,7.2
			c-0.4,2.7-0.4,5.4-0.7,7.9c-0.2,1.8,0.2,2.6,2.4,2.6c9.3,0,15.9,10,12.7,18.6c-0.9,2.3-1.3,4.9-1,7.4c0.2,1.3,2.4,2.6,4,3.4
			c1.6,0.8,2.1-0.5,2.8-1.8c2.1-3.5,4.3-6.9,6.7-10.1c0.5-0.7,2.2-0.6,3.3-1c0,1.1-0.2,2.1-0.6,3.1c-2.2,3.4-4.7,6.7-6.9,10.1
			c-0.2,0.3,0.3,1.7,0.4,1.7c1.7-0.4,3.4,0.7,3.8,2.4c0,0.2,0.1,0.4,0.1,0.6c-0.1,2.1-0.7,4.1-1.9,5.8c-1.8,2.6-4.3,4.6-5.9,7.2
			c-1.6,3.2-0.3,7,2.9,8.6c0.5,0.3,1.1,0.5,1.7,0.6c4,0.8,8,1.4,12.1,1.8c3,0.5,5.3,3.1,5.3,6.2c0.1,1.2,0.2,2.4,0.4,3.6
			c0.6,4,2.8,5,6.9,3.6c0.6-0.3,1.3-0.5,2-0.6c1.1,0.1,2.1,0.4,3.1,0.8c-0.7,0.6-1.4,1.2-2.1,1.8c-2.2,1.6-4,6-2.7,8.2
			c1.6,2.7,4.5,1.6,7,1.8c3.8,0.3,7.7,0.3,11.5,0.8c0.9,0.1,1.5,2,2.3,3.1l3.2,4.3c0.4,0.6,1.3,1.5,1.1,1.8c-1.5,4.2,1.6,3,3.6,3.2
			C390,328.9,390.9,329,391.7,329.2 M415.2,368.3c-0.2,0-0.4,0-0.6,0c0.3,0.2,0.5,0.4,0.6,0.7c0,0.3,0.1,0.5,0.2,0.8
			c0.1-0.1,0.3-0.1,0.4-0.1C415.5,369.2,415.3,368.8,415.2,368.3 M421.8,391.3c0.3-0.5,0.8-0.9,1.3-1.3c0.1-0.3,0.4-0.5,0.6-0.6
			c1.5-0.9,3-1.9,4.3-3.1c0.4-0.4,0-1.8,0-2.7c-0.8,0.3-1.8,0.2-2.1,0.6c-1,1.7-1.8,3.5-2.8,5.2c-0.1,0.3-0.3,0.5-0.6,0.6
			c-0.3,0.5-0.8,0.9-1.3,1.3v0.6C421.3,391.7,421.5,391.5,421.8,391.3 M416.7,347.3c0.1,0.8,0.3,1.8,0.3,2.8
			c0.3,1.6,0.4,3.1,0.7,4.6c0,0.1,0.5,0.1,0.8,0.1c0.2-1.2,0.3-2.4,0.3-3.6c0-0.6-1.1-1-1.8-1.8c-0.1-0.8,0.1-1.5,0.3-2.2
			c0-0.2,0-0.4,0-0.6C417.2,347,416.9,347.3,416.7,347.3 M346.8,329l1.5-2.4c-0.2,0-0.6-0.2-0.6-0.1c-0.4,0.9-0.9,1.7-1.5,2.5
			c-0.1,0.3-0.3,0.5-0.6,0.6c-0.9,0.6-1.8,1.2-2.8,1.6c1.8-3.5,3.6-6.9,5.4-10.4c1.8-3.5,3.1-6.4,4.8-9.7c0.3-0.6,0.6-1.1,1-1.7
			c0.3,0.6,0.6,1.2,0.8,1.8c0.4,1.1,0.8,2.1,1.2,3.2c0.4-1.1,1-2.1,1.3-3.3c0.1-0.4,0-0.8,0-1.3c0.6-3-2.2-2.1-3.4-2.8
			c-0.2-0.1-1.1,1.1-1.6,1.6c-0.4,0.4-0.8,0.9-1.1,1.5c-3.5,5.4-7,10.5-10.2,15.9c-1.7,2.7-0.9,5,1.2,6.2c1.1,2.8,2.1,5.6,3.4,8.3
			c0.5,0.9,1.8,1.4,2.8,2.1c0.6-1.1,2.1-2.5,1.8-3.3c-1-2.6,0.6-4.2,1.6-6.1c2.5-4.1,5-8.2,7.2-12.4c0.4-0.8,0-2.1,0-3.2
			c-1,0-2.5-0.3-3,0.3c-1.4,2-2.7,4.1-3.8,6.2c-2,3.3-3.8,6.8-5.7,10.2c-0.1,0.3-0.4,0.4-0.7,0.7c-0.2-0.3-0.6-0.6-0.5-0.9
			c0.1-1.6,0.4-3.2,0.9-4.8c0.1-0.3,0.4-0.5,0.6-0.6 M435.2,395.4c0.2,0,0.4,0,0.6,0c-0.3-0.2-0.5-0.4-0.6-0.7
			c-0.8-2.3-1.8-4.7-2.6-7.1c-0.1-0.3-0.6-0.5-0.8-0.8c-0.1,0.4-0.4,0.8-0.3,1.1C432.7,390.4,433.9,392.7,435.2,395.4 M319.8,289.4
			c2.5-2.9,5-5.8,7.5-8.7c0.3-0.5,0.4-1.2,0.4-1.8c0-0.3-0.3-0.6-0.6-0.9c-0.2,0.1-0.5,0.2-0.6,0.4c-2.3,3.6-4.7,7.2-7.3,10.9v0.6
			C319.3,289.7,319.5,289.5,319.8,289.4 M304.4,261.3c-0.4,0.4-1.1,0.8-1.3,1.3c-0.6,1.5-1.1,3-1.8,4.5c2.4,0.8,3.6-1.1,4.5-2.5
			c4.4-5.9,8.6-12,13-18c0.7-0.8,1.4-1.5,2.2-2.1c0,1.1,0.3,2.2,0.3,3.3c0,0.3-0.6,0.6-0.8,0.9c-4,5.8-7.9,11.6-11.8,17.4
			c-1.3,1.9-3,3.7-1.3,6.2c0.3,0.2,0.7,0.3,1.1,0.3c4.5-7.7,11.1-13.7,14.5-22.3c2.3-5.6-1.7-14.4-6.7-15.5c-2.8-0.6-6-1.6-8.4,0.9
			c-2.8,2.9-5.4,6.1-8.1,9.3c-0.7,0.6-1.2,1.3-1.5,2.1c0,1,0.2,2,0.6,3c0.6-0.5,1.2-1.1,1.8-1.6c3.2-3.6,6.4-7.2,9.6-10.8
			c0.4-0.4,1.2-0.5,1.9-0.8c0,0.7-0.1,1.4-0.2,2.1c-0.1,0.5-0.4,0.9-0.7,1.3c-3.1,3.6-6.4,6.9-9.2,10.6c-2.1,3.1-4.1,6.3-5.9,9.6
			c-0.4,0.8-1,1.4-1.5,2.2c-0.3-0.9-1.1-1.8-0.9-2.6c0.4-1.6,1.1-3.2,1.9-4.6c0.4-0.9,0.8-1.8,1.1-2.6c-1,0.2-1.9,0.6-2.8,1.1
			c-2.1,1.4-3.3,3.9-2.8,6.4c0.3,2.3,0.5,4.7,0.6,7c0.1,2.3,2,3.2,3.7,1.9c1.1-0.9,2-2.1,2.7-3.3c1.8-3.1,3.6-6.3,5.6-9.3
			c3.9-5.7,7.9-11.4,12-17.1c0.8-1,1.6-1.9,2.5-2.7c0,1.5,0.2,2.9,0.2,4.3c0,0.4-0.2,0.8-0.4,1.1
			C313.6,248.5,308.9,254.7,304.4,261.3 M399.1,336c-2.3,2.9-4.8,5.9-6.9,9c-0.4,0.6,0.2,2.1,0.7,2.9c1.6,2.4,4,4.5,4.8,7.1
			s1.4,3.6,3.6,1.2c0.6-0.6,1.3-0.9,2.1-1.1c4.1-0.3,5.9-3.3,7.6-6.4c0.3-0.6,0.5-1.3,0.8-2c-0.9,0-2-0.3-2.7,0.2
			c-0.8,0.7-1.5,1.6-2.1,2.5c-0.5,0.9-1.1,1.7-1.8,2.4c-0.8,0.4-1.6,0.7-2.5,0.9c0-0.9,0.2-1.7,0.6-2.5c1.5-1.7,1.7-4.2,0.6-6.2
			c-0.4-0.6-0.8-1.2-1.3-1.8c-0.4,0.6-1,1.1-1.2,1.8c-0.7,2.1-1.3,4.3-2,6.4c-0.2,0.5-0.8,0.8-1.3,1.2c-0.2-0.5-0.4-1-0.6-1.4
			c-1.7-2.9,0.4-5,1.6-7.3C400.2,340.6,401.8,338.5,399.1,336 M343.4,302.2c1.6-2,3.2-3.9,4.7-6c0.4-0.8,0.6-1.6,0.7-2.5
			c-1,0-2,0.2-2.9,0.6c-0.8,0.5-1.5,1.1-2,1.9c-1.6,2.3-3.1,4.8-4.8,7.1c-4.4,5.8-7.4,12.7-13.3,17.4c-0.3,0.2-0.5,0.6-0.5,1
			c-0.3,2-0.5,4-0.6,6c0.1,0.6,0.3,1.1,0.6,1.6c0.4-0.3,1.1-0.4,1.3-0.7c0.7-0.9,1.3-2,1.8-3c0.6-1.5,1.2-3,2-4.5
			C334.5,314.9,338.8,308.7,343.4,302.2 M373.6,341.3c0.1-0.6,0.3-1.2,0.5-1.8c1.6-2.7,3.3-5.4,4.8-8.1c0.6-1.4,1.1-2.8,1.5-4.3
			c-1.1,1-2.2,2-3.3,3c-0.3,0.2-0.5,0.4-0.7,0.6c-2.1,4.3-6.4,7.7-5.3,13.2c0.4,1.3,0.9,2.6,1.5,3.8c1.1-0.4,2.1-1,3-1.7
			c3.4-3.9,6.6-8.2,9.8-12.2c0.4-0.6,0.8-1.2,1.1-1.8c-0.8-0.2-1.6-0.7-2.3-0.5c-1.2,0.4-2.2,1-3,1.9c-2,2.8-3.8,5.9-5.7,9
			c-0.3,0.5-1.1,0.6-1.6,0.9C373.8,343,373.7,342.5,373.6,341.3 M321.7,277.4c-1.7,2.1-3.4,4.2-5.1,6.4c-3.5,4.5-7.2,9-4.6,15.2
			c0.2,0.4,0.4,0.8,0.6,1.1c0.4-0.3,1.1-0.5,1.2-0.9c0.6-2.2,3.1-4,1.4-6.8c-0.3-0.4,0.3-1.5,0.6-2.2c2.1-3.4,4.3-6.7,6.8-9.8
			c2.6-3.2,4.1-7.9,9.5-7.8c0.4,0,0.9-0.4,1.3-0.6c-0.9-1.1-1.8-2.2-2.6-3.3c0,0-0.6,0.3-0.9,0.6
			C327.2,271.9,324.6,274.5,321.7,277.4 M338.4,321.1c0.5-0.4,0.9-0.9,1.3-1.4c2.7-4.4,5.6-8.8,8.2-13.2c1-2,1.8-4.1,2.5-6.2
			c0-0.4-0.6-1-0.8-1.5c-0.4,0.3-0.7,0.6-1,1c-2.4,3.3-4.7,6.6-7,10c-3,4.3-5.9,8.8-8.8,13.3c-0.4,0.5-0.2,1.4-0.3,2.1
			c0.9,0,2,0.4,2.5,0C336.2,324,337.3,322.6,338.4,321.1 M316.6,267.3c-2.4,2.8-4.8,5.7-7.3,8.6c-0.3,0.4-0.5,0.9-0.5,1.4
			c0.2,2.9,0.4,5.9,0.8,8.7c0,0.5,0.6,0.9,0.9,1.3c0.3-0.5,0.6-1,0.8-1.5c0.1-1.2,0.3-2.4,0.5-3.6c2.5-7.2,7.7-12.7,12.2-18.5
			c0.3-0.5,0.7-0.9,1-1.4c-0.6-0.3-1.2-0.6-1.9-0.8C319.3,261.2,318.8,264.9,316.6,267.3 M321,292.4c-2,2.4-4,4.8-0.1,7.5
			c0.4,0.3,0.3,1.3,0.5,2c0.1,0.4,0.3,0.9,0.5,1.3c0.4-0.3,1-0.4,1.2-0.8c1.2-1.9,2.4-3.8,3.8-5.6c2.8-2.9,3.3-7.3,1.4-10.8
			c-0.2-0.5-0.5-0.9-0.6-1.4c-0.5,0.3-0.9,0.7-1.3,1.1c-1.7,2.3-3.4,4.5-5.4,7.1 M333.3,301.6c-0.9,1.1-1.8,2.1-2.6,3.3
			c-2.3,3.3-4.7,6.4-6.7,9.8c-0.6,1,0,2.7,0,4.1c0.8-0.8,1.6-1.5,2.3-2.3c0,0,0-0.2,0-0.3c5-7.2,10.1-14.5,15.2-21.7
			c0.4-0.6,0.6-1.3,1-1.9c-0.8-0.2-1.6-0.2-2.4,0c-0.7,0.3-1.4,0.9-1.8,1.6C336.7,296.5,335.1,298.9,333.3,301.6 M456.1,180.7
			c-3.3,1.6-4.3,4.4-3.1,8.4c0,0.1,0.6,0.2,0.8,0.1c3.1-0.6,6.2-1.3,9.2-2c0.7-0.2,1.8-0.5,1.8-0.9c0.1-0.8-0.2-1.5-0.7-2.1
			c-0.9-1.1-2.3-1.8-2.8-3C460,178.5,458.4,178.8,456.1,180.7 M333,297.5c0.8-1.2,1.6-2.3,2.2-3.6c0.3-0.8,0.6-1.6,0.8-2.4
			c-0.9,0.2-1.8,0.6-2.6,1.2c-2.3,2.8-4.5,5.7-6.7,8.5c-1.9,2.3-3.6,4.8-5.2,7.3c-0.6,1,0,2.7,0.2,4c0.6-0.8,1.1-1.5,1.8-2.3
			c0.2-0.3,0.4-0.4,0.6-0.7C327,305.7,329.9,301.7,333,297.5 M395.7,334.3c1.6,0.1,3.1,0.3,4.6,0.3c0.4,0,0.7-0.4,1-0.7
			c-0.3-0.2-0.6-0.4-0.9-0.5c-1.7-0.6-3.4-1-5.2-1.2c-2.1-0.1-4.2,0.4-6,1.3c-1.4,0.8-2,2.8-3,4.3c-1.8,2.6,2,2.8,2,4.7
			c0,0.4,0.7,0.6,1,0.9c0.3-0.4,0.6-0.8,0.8-1.2C391.8,339.6,393.6,337.1,395.7,334.3 M362.6,326.5c0.9-1.9,1.9-3.8,2.6-5.8
			c0.2-0.8,0.3-1.6,0.3-2.4c-0.9,0.6-2.1,0.9-2.7,1.8c-1.7,2.5-3.1,5.1-4.7,7.7c-1.6,2.6-3.2,5.7-4.8,8.7c-0.1,0.4-0.2,0.8-0.2,1.3
			c0.4-0.1,0.8-0.2,1.1-0.3c2.4-0.9,4.3-2.9,5-5.4C360.2,330.1,361.3,328.2,362.6,326.5 M418.9,381c-1.8,2.3-3.7,4.5-5.5,6.8
			c-0.4,0.5-0.7,1.1-0.8,1.8c0,0.6,0.1,1.6,0.4,1.6c0.6,0.1,1.8,0.1,2-0.3c3.5-5,6.9-10.1,10.2-15.2c0.4-0.5,0.2-1.4,0.3-2.1
			c-0.7,0.3-1.6,0.4-2.1,1C421.8,376.5,420.2,378.6,418.9,381 M367,323.4c-1.6,2.9-3.2,5.8-4.7,8.7c-0.6,1.3-1.1,2.6-1.6,3.8
			c1.4-1,3.2-1.6,4-2.8c3-4,5.5-8.3,8.3-12.6c0.2-0.4,0.4-0.9,0.6-1.3c-0.5-0.1-1-0.2-1.5-0.3C369.5,319,368.3,320.9,367,323.4
			 M373,331.2c1.2-1.4,2.3-3,3.3-4.6c0.8-1.8,1.4-3.6,1.8-5.5c0-0.4-0.5-1-0.8-1.5c-0.5,0.3-0.9,0.7-1.3,1.2
			c-1.3,2.1-2.7,4.2-3.8,6.4c-0.9,1.7-1.7,3.5-2.2,5.4c-0.2,0.8,0.6,1.9,0.9,2.9c0.5-0.9,1-1.8,1.6-2.8c0.3-0.4,0.5-0.8,0.6-1.3
			 M423.1,366.8c-0.1-0.6-0.3-1.1-0.4-1.8c-0.3,0.4-0.6,0.8-0.9,1.2c-1.8,2.6-3.6,5.2-5.2,7.8c-1.2,1.9-2.3,3.9-3.3,5.9
			c-0.3,0.6,0,1.5,0,2.3c0.6-0.5,1.5-0.8,1.8-1.4c2.1-3.6,4.2-7.2,6.3-10.8c0.5-0.9,0.9-1.9,1.6-3.2 M328.9,266.4
			c0-0.8,0-1.5,0.1-2.2c-0.9,0.1-1.7,0.4-2.5,0.9c-1.1,1.1-2.2,2.3-3.1,3.6c-2.4,3.2-4.7,6.4-7.1,9.6c-0.3,0.6-0.5,1.3-0.6,2
			c0.5-0.3,1-0.7,1.5-1.1C321.1,275,324.9,270.8,328.9,266.4 M306.2,225.4c-0.7,1.4-1.4,3-1.8,4.5c-0.1,0.6-2.6,1.2-0.3,2
			c1.1,0.5,2.7,1.8,3.3-0.6c0.6-1.7,1-3.4,1.2-5.1C308.8,225.1,308.3,223.6,306.2,225.4 M429,396.7c0-1.8-0.1-3.6-0.3-5.4
			c0-0.3-0.6-0.7-0.6-0.6c-0.1,0.1-0.9,0.5-0.8,0.8c0.1,0.8,0.2,1.7,0.4,2.5c0,0.3,0.1,0.8,0,1c-1.1,0.8-2.3,1.6-3.6,2.3l4.4-0.2
			C428.5,397.1,428.6,397,429,396.7 M304.4,224.8c1-1.4,2-2.7,2.8-4.1c0-0.1-0.3-0.6-0.3-0.6c-1.4,0.1-2.9,0.3-4.4,0.4
			C302.9,222,303.5,223.5,304.4,224.8 M429.9,400.7c2.8,0,5.5,0,8.2,0c0.1,0,0.3-0.8,0.3-0.8c-0.3-0.2-0.6-0.3-1-0.4
			C434.9,399.8,432.4,400.2,429.9,400.7 M335.8,266.4l-2.3-1.4c0.2,1.5,0.3,3.1,0.6,4.6c0,0.3,0.7,0.4,1.1,0.6
			C335.5,269,335.7,267.7,335.8,266.4 M408.2,399.8c0.6,0.7,1.2,1.3,1.8,2c0.4-1,0.8-2,1.1-3c0-0.2-0.7-0.8-0.8-0.8
			C409.4,398.5,408.7,399.1,408.2,399.8 M420.6,364.3c0.6-0.9,1.1-1.9,1.6-2.8c0.2-0.6,0.2-1.2,0.2-1.8c-0.5,0.2-1,0.3-1.5,0.6
			C418.8,361.2,420.6,362.7,420.6,364.3 M414.8,398.9l2.8-1.5c-0.2-0.1-0.4-0.4-0.6-0.4c-1.1,0.3-2.2,0.7-3.3,1.1
			c0,0-0.2,0.1-0.2,0.3l-0.8,1.8C413.5,399.8,414.2,399.4,414.8,398.9 M417.4,366.8l2.1-2c-0.8-0.2-1.6-0.4-2.4-0.5
			C416.8,365.2,416.9,366.1,417.4,366.8 M417,356.4c-0.3-0.3-0.7-0.6-1-0.9c-0.3,1.1-0.5,2.1-0.6,3.2c0,0.1,0.5,0.5,0.6,0.4
			c0.4-0.2,0.8-0.5,1.1-1C417.2,358,417,357.5,417,356.4 M415.2,361.5c0.4-0.3,0.9-0.6,1.3-1c-0.1-0.2-0.3-0.4-0.4-0.6
			C415.6,360.4,415.3,360.9,415.2,361.5 M421.5,401.8c-0.1,0-0.3-0.2-0.4-0.3S421.1,401.9,421.5,401.8 M420.2,401.8
			c-0.1,0-0.3-0.2-0.4-0.3S419.9,401.9,420.2,401.8 M412,401.8c-0.1,0-0.3-0.2-0.4-0.3C411.5,401.5,411.7,401.9,412,401.8
			 M420.6,397.1c-0.1,0.1-0.1,0.3-0.3,0.4C420.5,397.5,420.7,397.5,420.6,397.1 M415.5,363c0.1-0.1,0.2-0.2,0.3-0.4
			C415.5,362.7,415.3,362.7,415.5,363"/>
		<path class="st0" d="M436.1,285.1c2.5-0.6,4-3,3.6-5.5c-0.2-2.5,0-5,0-7.5c0-6-1.6-7.4-7.1-10c-3-1.4-5-4.5-7.3-7.2
			c-0.4-0.4,0.3-1.8,0.4-2.8c1,0.6,2.3,0.9,2.6,1.6c1.3,3.4,4.3,5.9,7.9,6.7c4.2,1.1,6.5,5.1,6.7,9.6c0,3.7,0.2,7.4,0.7,11
			c0.4,3-3.6,7.5-7,7.5c-1.1,0-2.1-1-3.2-1.4C434.3,286.5,435.2,285.8,436.1,285.1"/>
		<path class="st0" d="M368.6,243.4c-0.1-4.7,0.1-9.1,3.8-12.2c0.9-0.7,2.4-0.6,3.6-0.8c-0.3,1.1-0.4,2.5-1.1,3.1
			c-2.1,2-3.2,4.9-3.1,7.8c-0.3,3.1,0,6.3,0.8,9.4c0.6,1.8-2.3,4.6-3.6,7c-0.3-0.6-1-1.3-1-1.8c0-2.1,0.4-4.3,0.6-6.4
			C368.7,247.4,368.6,245.6,368.6,243.4"/>
		<path class="st0" d="M320.9,175.8c0-0.1,0.2-0.2,0.4-0.2C321.2,175.8,321.1,175.9,320.9,175.8
			C320.9,175.8,320.9,175.8,320.9,175.8"/>
		<path class="st0" d="M342.3,332.2c0-0.2,0-0.4,0.3-0.6C342.7,331.8,342.5,332,342.3,332.2"/>
	</g>
</g>
<g>
	<path class="st0" d="M73.6,473.2c0.1,0.4,0.2,0.8,0.3,1.3c0.1,0.5,0.2,0.8,0.2,1c0,0.3-0.2,0.7-0.6,1c-0.4,0.3-0.8,0.4-1.3,0.4
		c-0.3,0-0.6-0.3-0.8-0.8c-0.3-0.5-0.5-1.2-0.6-2.1c-0.6-3.2-1.1-8.3-1.5-15.1l-0.6-9.9c-2.4,2.4-4.9,4.5-7.5,6.1
		c-0.7,0.4-1.2,0.6-1.4,0.6c-0.3,0-0.6-0.1-0.7-0.3c-0.2-0.2-0.3-0.4-0.3-0.6c0-0.4,0.4-0.8,1.1-1.3c1.6-1,3-2.1,4.2-3.2
		c1.3-1.1,2.5-2.4,3.8-3.7l0.6-0.7v0v-0.7v-0.5c0-0.2,0-0.4,0.1-0.4c0.1-0.1,0.1-0.1,0.2-0.1c0.2-0.1,0.4-0.1,0.6-0.1
		c0.6,0,1.1,0.1,1.5,0.3c0.4,0.2,0.6,0.5,0.6,0.8s-0.2,0.8-0.6,1.3c0.2,0.7,0.2,1.5,0.3,2.2c0.1,1.8,0.3,5.3,0.7,10.6
		c0.4,5.2,0.7,8.6,0.9,10.3C73,470.5,73.2,471.7,73.6,473.2z"/>
	<path class="st0" d="M101.5,466.3c-1.4,2.7-3.3,5-5.6,6.7c-2.3,1.7-4.7,2.6-7.2,2.6c-2.2,0-3.9-0.8-5.1-2.5
		c-1.2-1.7-1.8-3.8-1.8-6.5c0-3.2,0.4-6.4,1.2-9.7c0.8-3.3,1.8-6.2,3.2-8.8c-0.2,0-0.5-0.1-0.7-0.3c-0.2-0.2-0.3-0.4-0.3-0.7
		c0-0.4,0.2-0.8,0.7-1.1c0.5-0.3,1-0.6,1.7-0.7c0.1-0.1,0.2-0.2,0.3-0.4c0.2-0.2,0.4-0.3,0.6-0.3c0.3,0,0.6,0.1,0.9,0.2
		c0.3,0.1,0.4,0.2,0.5,0.3c0.9-0.2,1.7-0.2,2.6-0.2c2.1,0,4,0.6,5.7,1.7c1.7,1.1,3,2.7,3.9,4.8c1,2,1.4,4.3,1.4,6.8
		C103.6,460.8,102.9,463.6,101.5,466.3z M100.2,453c-0.8-1.6-1.9-2.9-3.2-3.8c-1.3-0.9-2.8-1.4-4.2-1.4c-0.7,0-1.7,0.1-2.8,0.3
		l-1,0.1c-1.4,2.5-2.5,5.5-3.3,9c-0.8,3.4-1.2,6.6-1.2,9.5c0,1.9,0.4,3.5,1.1,4.8c0.8,1.3,2,1.9,3.6,1.9c1.9,0,3.8-0.8,5.7-2.4
		c1.9-1.6,3.5-3.6,4.7-5.9c1.2-2.4,1.9-4.6,1.9-6.7C101.5,456.3,101,454.6,100.2,453z"/>
	<path class="st0" d="M129.6,466.3c-1.4,2.7-3.3,5-5.6,6.7c-2.3,1.7-4.7,2.6-7.2,2.6c-2.2,0-3.9-0.8-5.1-2.5
		c-1.2-1.7-1.8-3.8-1.8-6.5c0-3.2,0.4-6.4,1.2-9.7c0.8-3.3,1.8-6.2,3.2-8.8c-0.2,0-0.5-0.1-0.7-0.3c-0.2-0.2-0.3-0.4-0.3-0.7
		c0-0.4,0.2-0.8,0.7-1.1c0.5-0.3,1-0.6,1.7-0.7c0.1-0.1,0.2-0.2,0.3-0.4c0.2-0.2,0.4-0.3,0.6-0.3c0.3,0,0.6,0.1,0.9,0.2
		c0.3,0.1,0.4,0.2,0.5,0.3c0.9-0.2,1.7-0.2,2.6-0.2c2.1,0,4,0.6,5.7,1.7c1.7,1.1,3,2.7,3.9,4.8c1,2,1.4,4.3,1.4,6.8
		C131.7,460.8,131,463.6,129.6,466.3z M128.3,453c-0.8-1.6-1.9-2.9-3.2-3.8c-1.3-0.9-2.8-1.4-4.2-1.4c-0.7,0-1.7,0.1-2.8,0.3l-1,0.1
		c-1.4,2.5-2.5,5.5-3.3,9c-0.8,3.4-1.2,6.6-1.2,9.5c0,1.9,0.4,3.5,1.1,4.8c0.8,1.3,2,1.9,3.6,1.9c1.9,0,3.8-0.8,5.7-2.4
		c1.9-1.6,3.5-3.6,4.7-5.9c1.2-2.4,1.9-4.6,1.9-6.7C129.5,456.3,129.1,454.6,128.3,453z"/>
	<path class="st0" d="M160.7,454.8c-0.4,1.3-1.1,3.1-1.9,5.3c-0.2,0.4-0.6,1.5-1.2,3.3c-0.7,1.8-1.2,3.5-1.6,5
		c-0.2,0.6-0.8,0.9-1.9,0.9c-0.5,0-0.7-0.5-0.7-1.5c0-0.2,0.4-1.3,1.3-3.3c1.7-3.9,3.1-7.4,4.2-10.5c1.1-3.1,1.7-5.8,1.7-8.1
		c0-0.5-0.1-0.8-0.2-1c-0.1-0.2-0.3-0.3-0.5-0.3c-1.2,0-2.6,0.3-4.2,0.8s-3.3,1.3-4.8,2.2c-0.8,1.5-1.8,2.9-3,4.5
		c-1.2,1.5-2.6,2.8-4.1,3.8c-1.5,1-2.9,1.5-4.4,1.5c-0.7,0-1.3-0.3-1.8-1c-0.5-0.7-0.8-1.6-0.8-2.8c0-1.3,0.4-2.8,1.3-4.5
		c0.9-1.7,1.9-3.2,3-4.5c1.1-1.3,2-1.9,2.5-1.9s1,0.1,1.3,0.3c0.3,0.2,0.4,0.5,0.4,0.8c0,0.1-0.2,0.3-0.7,0.7
		c-1.5,1.3-2.7,2.7-3.8,4.1c-1.1,1.4-1.6,3-1.6,4.7c0,0.5,0.1,0.9,0.4,1.1c0.2,0.3,0.6,0.4,1,0.4c0.6,0,1.4-0.4,2.6-1.2
		c1.1-0.8,2.1-1.7,3-2.8c0.9-1,1.3-2,1.3-2.7c0-0.2-0.1-0.5-0.4-0.9c-0.3-0.4-0.4-0.7-0.4-1c0-0.5,0.2-0.9,0.6-1.2
		c0.4-0.3,1-0.5,1.6-0.5c0.5,0,1.1,0.2,1.9,0.5c1.5-0.8,3.3-1.5,5.4-2.1c2.1-0.6,3.6-1,4.4-1c1.1,0,1.7,0.2,2.1,0.7
		c0.3,0.4,0.5,1.1,0.5,2.1C162.9,446.8,162.2,450,160.7,454.8z M177.1,466.7c-0.6,1.7-1.4,3.1-2.6,4.2c-1.1,1.1-2.5,1.7-4.2,1.7
		c-2.1,0-3.8-0.7-4.8-2c-1.1-1.3-1.6-3-1.6-4.8c0-1.2,0.2-2.3,0.6-3.5c0.4-1.1,0.8-2.1,1.3-2.8c0.5-0.7,0.9-1.1,1.3-1.1
		c0.6,0,1,0.2,1.3,0.7s0.4,0.9,0.4,1.4c0,0.2-0.1,0.4-0.2,0.7c-0.2,0.3-0.3,0.6-0.6,0.9c-0.5,0.8-0.9,1.5-1.2,2.2
		c-0.3,0.6-0.4,1.3-0.4,2.1c0,1.1,0.3,2.1,1,2.9c0.6,0.8,1.6,1.2,2.9,1.2c1.2,0,2.3-0.5,3.2-1.4c0.9-0.9,1.5-2,2-3.4
		c0.4-1.4,0.7-2.7,0.7-3.9c0-1.3-0.3-2.5-0.9-3.4c-0.6-0.9-1.2-1.4-1.9-1.4c-0.6,0-1.5,0.2-2.5,0.7c-0.7,0.3-1.3,0.5-1.8,0.5
		c-0.3,0-0.5-0.1-0.7-0.3c-0.2-0.2-0.3-0.4-0.3-0.7c0-0.7,0.5-1.2,1.4-1.7c0.9-0.5,1.9-0.7,3.1-0.7c1.9,0,3.3,0.6,4.2,1.9
		s1.4,3,1.4,5.1C178,463.3,177.7,465,177.1,466.7z"/>
	<path class="st0" d="M212.5,462.4c-2.1,3.1-4.8,5.9-8,8.2c-1.4,1-2.4,1.5-3.1,1.5c-0.3,0-0.6-0.1-0.8-0.4c-0.2-0.2-0.3-0.5-0.3-0.9
		c0-0.3,0.1-0.7,0.4-1c0.3-0.3,0.7-0.6,1.3-0.9c2.1-0.9,4.1-2.3,5.8-4c1.8-1.7,3.1-3.6,4.1-5.5c1-1.9,1.5-3.7,1.5-5.1
		c0-0.6-0.1-1-0.4-1.3c-0.3-0.3-0.7-0.4-1.3-0.4c-1.3,0-2.6,0.5-4,1.6c-1.4,1.1-2.6,2.4-3.8,4.1c-0.9,1.3-1.8,2.9-2.6,4.7
		c-0.8,1.8-1.5,3.8-1.9,5.8c-0.2,1.1-0.8,1.6-1.6,1.6c-0.2,0-0.4-0.2-0.7-0.6c-0.2-0.4-0.4-0.7-0.4-1c0-3.6-0.1-8.9-0.4-15.8
		c-0.2-7-0.4-10.9-0.5-11.9c0-0.2,0-0.4,0-0.5s-0.1-0.3-0.1-0.5c0-0.2-0.1-0.4-0.1-0.6c0-0.2,0-0.4,0-0.6c0-0.7,0.3-1.1,1-1.1
		c0.5,0,1,0.3,1.3,1c0.3,0.7,0.5,1.4,0.5,2.2v2.5c0,7.4,0.1,13,0.3,17c0.1,1.9,0.2,3,0.4,3.2c0.3-1,0.9-2.2,1.6-3.4
		c0.7-1.3,1.5-2.4,2.3-3.5c1.5-2,3-3.6,4.7-4.8c1.7-1.2,3.2-1.8,4.6-1.8c1,0,1.7,0.3,2.3,0.9s0.9,1.5,0.9,2.7
		C215.7,456.4,214.6,459.3,212.5,462.4z"/>
	<path class="st0" d="M222.1,443.4c0,0-0.5,0-1.5,0c-0.5,0-1.1-0.2-1.6-0.6c-0.5-0.4-0.8-0.8-0.8-1.1c0-0.3,0.2-0.7,0.5-1
		s0.7-0.5,1-0.5c0.5,0.2,0.8,0.4,1.2,0.7c0.2,0.2,0.5,0.6,0.8,1c0.3,0.4,0.5,0.6,0.5,0.7C222.1,443.2,222.1,443.4,222.1,443.4z
		 M222.9,472.6c-0.3,0.2-0.6,0.2-0.9,0.2c-0.4,0-0.8-0.7-1-2.1c-0.2-1.4-0.4-3.9-0.6-7.7c-0.1-2.5-0.2-5-0.3-7.4
		c-0.1-2.4-0.2-4.2-0.2-5.5c0-0.3,0.1-0.6,0.2-0.8c0.1-0.2,0.3-0.3,0.6-0.3c0.7,0,1.2,0.3,1.3,0.9c0.2,0.6,0.3,1.7,0.3,3.4l0,5.5
		c0,3.1,0.1,5.6,0.3,7.5c0,0.1,0.1,1.1,0.4,3c0.2,1.3,0.3,2.2,0.3,2.6C223.3,472.2,223.1,472.5,222.9,472.6z"/>
	<path class="st0" d="M243.9,466.3c-0.9,1.6-2.2,2.9-3.8,4.1c-1.6,1.1-3.5,1.7-5.6,1.7c-2.1,0-3.6-0.6-4.6-1.7
		c-1-1.1-1.5-2.6-1.5-4.3c0-1.5,0.3-3.3,0.8-5.5c0.5-2.2,1.3-4.2,2.3-5.9c0.1-0.1,0.3-0.6,0.8-1.4s1-1.4,1.5-1.8
		c0.6-0.4,1.1-0.6,1.8-0.6c0.3,0,0.5,0.1,0.8,0.2c0.2,0.1,0.3,0.3,0.3,0.5c0,0.1-0.1,0.2-0.3,0.4c-0.2,0.2-0.3,0.4-0.4,0.5
		c-1.1,1.3-1.9,2.5-2.6,3.8c-0.9,1.6-1.5,3.1-2,4.7c-0.5,1.5-0.7,3.2-0.7,5.1c0,2.4,1.5,3.7,4.5,3.7c1.4,0,2.7-0.4,3.9-1.2
		c1.2-0.8,2.1-1.8,2.9-2.9c0.7-1.2,1.1-2.2,1.1-3.2c0-1.1-0.4-2-1.1-2.8c-0.7-0.8-1.7-1.7-2.9-2.5c-0.8-0.6-1.4-1.1-1.8-1.4
		c-0.4-0.4-0.6-0.7-0.6-0.9c0-0.4,0.3-0.7,0.8-0.9c0.5-0.2,1.1-0.3,1.9-0.3c0.4,0,0.7,0,0.8,0.1c0.1,0,0.2,0.1,0.2,0.3
		c0,0.1-0.1,0.2-0.2,0.3c-0.1,0.1-0.2,0.3-0.2,0.3c0,0.1,0.3,0.4,0.9,0.9c1.2,1,2.3,2.1,3.1,3.1c0.8,1.1,1.3,2.3,1.3,3.7
		C245.2,463.4,244.8,464.8,243.9,466.3z"/>
	<path class="st0" d="M260.8,460.8c-0.4,0.2-1.3,0.4-2.5,0.5l-3.1,0.4c-0.7,0.1-1.4,0.2-2.1,0.2c-0.6,0-1.4,0.1-2.4,0.1
		c-0.4,0-0.8-0.1-1.1-0.2c-0.3-0.2-0.5-0.4-0.5-0.8c0-0.4,0.1-0.7,0.4-0.8c0.3-0.1,0.7-0.2,1.4-0.2c1.2,0,2,0,2.5,0
		c0.5,0,0.9-0.1,1.3-0.2c0.1,0,0.5-0.1,1.1-0.2c0.6-0.1,1.5-0.3,2.8-0.4c0.2,0,0.5-0.2,0.6-0.6c0.2-0.4,0.3-0.6,0.5-0.6
		c0.3,0,0.7,0.2,1,0.6c0.4,0.4,0.5,0.8,0.5,1.2C261.4,460.3,261.2,460.6,260.8,460.8z"/>
	<path class="st0" d="M283.3,462.4c-2.1,3.1-4.8,5.9-8,8.2c-1.4,1-2.4,1.5-3.1,1.5c-0.3,0-0.6-0.1-0.8-0.4s-0.3-0.5-0.3-0.9
		c0-0.3,0.1-0.7,0.4-1c0.3-0.3,0.7-0.6,1.3-0.9c2.1-0.9,4.1-2.3,5.8-4c1.8-1.7,3.1-3.6,4.1-5.5c1-1.9,1.5-3.7,1.5-5.1
		c0-0.6-0.1-1-0.4-1.3c-0.3-0.3-0.7-0.4-1.3-0.4c-1.3,0-2.6,0.5-4,1.6c-1.4,1.1-2.6,2.4-3.8,4.1c-0.9,1.3-1.8,2.9-2.6,4.7
		c-0.8,1.8-1.5,3.8-1.9,5.8c-0.2,1.1-0.8,1.6-1.6,1.6c-0.2,0-0.4-0.2-0.7-0.6c-0.2-0.4-0.4-0.7-0.4-1c0-3.6-0.1-8.9-0.4-15.8
		c-0.2-7-0.4-10.9-0.5-11.9c0-0.2,0-0.4,0-0.5c0-0.2-0.1-0.3-0.1-0.5c0-0.2-0.1-0.4-0.1-0.6c0-0.2,0-0.4,0-0.6c0-0.7,0.3-1.1,1-1.1
		c0.5,0,1,0.3,1.3,1c0.3,0.7,0.5,1.4,0.5,2.2v2.5c0,7.4,0.1,13,0.3,17c0.1,1.9,0.2,3,0.4,3.2c0.3-1,0.9-2.2,1.6-3.4s1.5-2.4,2.3-3.5
		c1.5-2,3-3.6,4.7-4.8c1.7-1.2,3.2-1.8,4.6-1.8c1,0,1.7,0.3,2.3,0.9s0.9,1.5,0.9,2.7C286.4,456.4,285.4,459.3,283.3,462.4z"/>
	<path class="st0" d="M308.2,469.5c0.2,0.2,0.3,0.4,0.3,0.6c0,0.4-0.2,0.8-0.5,1.3c-0.3,0.5-0.6,0.7-0.9,0.7c-0.5,0-0.9-0.3-1.2-1
		c-0.3-0.6-0.4-1.4-0.4-2.3c0-0.7,0-3,0.1-6.7l0-1.8c0-0.7-0.2-1.2-0.6-1.5c-1.4,2.4-2.7,4.4-3.9,6.1s-2.7,3.4-4.6,4.9
		c-1.9,1.5-3.8,2.3-5.8,2.3c-1,0-1.8-0.3-2.3-0.9c-0.5-0.6-0.8-1.4-0.8-2.4c0-1.2,0.6-2.9,1.7-5.1c1.1-2.1,2.5-4.3,4.3-6.5
		c1.7-2.2,3.5-4,5.2-5.4c1.1-0.9,2.1-1.6,2.7-1.9c0.7-0.3,1.3-0.5,1.8-0.5c0.5,0,1,0.2,1.5,0.5c0.5,0.3,1,0.7,1.3,1.3
		c0.4,0.6,0.6,1.2,0.6,1.9c0,1-0.3,1.9-0.8,2.7l0.8-0.2c0.3,0,0.5,0.4,0.6,1.3c0,0.5,0.1,1.5,0.1,3c0,1.5,0.1,2.8,0.1,3.8
		c0,1,0.1,2,0.1,3c0,1,0.1,1.7,0.1,2.3C307.9,469,308,469.2,308.2,469.5z M296.3,467.8c1.5-1.2,2.9-2.7,4.2-4.4
		c1.2-1.7,2.6-3.8,4.1-6.3c0.4-0.9,0.6-1.9,0.6-3c0-0.7-0.2-1.2-0.6-1.7c-0.4-0.5-0.9-0.7-1.6-0.7c-0.8,0-1.8,0.5-3,1.6
		c-1.4,1.2-2.9,2.7-4.4,4.7c-1.5,2-2.8,3.9-3.8,5.8c-1,1.9-1.5,3.4-1.5,4.5c0,0.9,0.4,1.4,1.3,1.4
		C293.1,469.6,294.7,469,296.3,467.8z"/>
	<path class="st0" d="M327.8,469.2c-1.1,1.3-2.5,2.3-4.3,3c-1.8,0.8-3.7,1.1-5.6,1.1c-1.3,0-2.2-0.1-2.7-0.4c-0.5-0.2-0.7-0.6-0.7-1
		c0-0.3,0.4-0.8,1.1-1.5c0.7-0.7,1.2-1,1.4-1c0.4,0,0.6,0.1,0.6,0.2c0,0.1-0.1,0.2-0.2,0.4c-0.2,0.1-0.2,0.2-0.2,0.3
		c0,0.1,0.2,0.2,0.6,0.4c0.4,0.1,0.9,0.2,1.4,0.2c1.3,0,2.6-0.2,3.9-0.7c1.3-0.5,2.4-1.1,3.2-1.9c0.8-0.8,1.3-1.6,1.3-2.5
		c0-0.8-0.3-1.5-0.8-2c-0.5-0.5-1.2-0.9-2-1.1c-0.8-0.2-2.1-0.6-4-1c-2-0.5-3.6-0.9-4.8-1.2c-1.1-0.4-2-0.8-2.7-1.3
		c-0.7-0.5-1-1.2-1-2.1c0-1.5,0.7-2.8,2.2-4.1c1.5-1.2,3.1-2.2,5-2.9c1.9-0.7,3.3-1.1,4.4-1.1c1.1,0,1.6,0.3,1.6,0.9
		c0,0.4-0.1,0.8-0.4,1.2s-0.6,0.7-1.1,0.7c-0.2,0-0.4-0.1-0.6-0.2c-0.2-0.1-0.4-0.2-0.6-0.2c-0.6,0-1.6,0.2-2.9,0.6
		c-1.3,0.4-2.5,1-3.6,1.8c-1.1,0.8-1.6,1.8-1.6,2.9c0,0.7,0.4,1.3,1.3,1.6c0.8,0.4,2.4,0.8,4.8,1.3c0.3,0.1,0.6,0.2,0.8,0.2
		c0.3,0,0.5,0.1,0.7,0.2c2.4,0.6,4.2,1.2,5.5,1.9c1.3,0.7,1.9,1.8,1.9,3.2C329.5,466.6,328.9,467.9,327.8,469.2z"/>
	<path class="st0" d="M350.9,460.6c0,0.6-0.4,1.8-1.2,3.7c-0.8,1.9-2.1,3.6-3.7,5.2c-1.7,1.6-3.7,2.4-6.1,2.4c-2,0-3.6-0.6-5-1.9
		c-1.3-1.2-2-3.1-2-5.7c0-2.4,0.6-4.8,1.7-7.2c1.1-2.4,2.6-4.3,4.4-5.8c1.8-1.5,3.6-2.2,5.6-2.2c1.1,0,2.1,0.3,2.9,0.8
		c0.8,0.5,1.2,1.2,1.2,2.2c0,1.1-0.6,2.1-1.8,3.2c-1.2,1-2.8,1.9-4.8,2.7c-1.9,0.8-4,1.3-6,1.7c-0.4,1.4-0.6,2.8-0.6,4.2
		c0,1.8,0.4,3.2,1.3,4.2c0.8,1,2.1,1.5,3.6,1.5c2.4,0,4.3-0.8,5.8-2.6c1.5-1.7,2.7-3.6,3.7-5.8c0.1-0.1,0.2-0.4,0.3-0.7
		c0.2-0.4,0.3-0.5,0.4-0.5C350.8,459.9,350.9,460.2,350.9,460.6z M345.7,451.5c-0.5-0.3-1.1-0.4-1.8-0.4c-1.2,0-2.3,0.4-3.4,1.2
		c-1.1,0.8-2,1.7-2.7,2.8c-0.7,1.1-1.2,2-1.4,2.9c1.4-0.2,2.9-0.6,4.5-1.2c1.6-0.7,2.9-1.4,4-2.1c1.1-0.8,1.6-1.4,1.6-1.9
		C346.5,452.2,346.2,451.8,345.7,451.5z"/>
	<path class="st0" d="M371.1,440c0,0.6,0,1.8-0.1,3.6c-0.1,1.8-0.1,3.6-0.1,5.4c0,3.5,0.1,7.1,0.2,10.8s0.3,6.1,0.4,7.2
		c0,0.2,0,0.4,0,0.6c0,0.2,0.1,0.4,0.1,0.6c0.1,0.9,0.2,1.4,0.2,1.6c0,0.3-0.2,0.6-0.7,0.9c-0.4,0.3-0.8,0.4-1,0.4
		c-0.3,0-0.6-0.1-0.7-0.4c-0.1-0.3-0.2-0.6-0.2-1.1c0-1.7,0-3.5,0.1-5.3l0-2.6c0-0.9,0-2,0-3.4c0-1.4-0.1-2.6-0.1-3.5
		c-1.6,5.1-3.4,9.3-5.4,12.6c-2,3.3-4.2,5-6.5,5c-1.1,0-1.9-0.5-2.7-1.5c-0.7-1-1.1-2.4-1.1-4.3c0-2.4,0.8-5.1,2.5-8
		c1.7-2.9,3.5-5.3,5.7-7.4c2.1-2.1,3.7-3.1,4.7-3.1c1,0,1.5,0.3,1.5,1c0,0.4-0.1,0.9-0.4,1.5c-0.3,0.6-0.6,1.1-1,1.6
		c-0.4,0.5-0.6,0.7-0.6,0.7c-0.1,0-0.1,0-0.2-0.1c-0.1,0-0.1-0.1-0.1-0.2c0-0.2,0.1-0.4,0.2-0.8c0.2-0.4,0.2-0.6,0.2-0.7
		c0-0.2,0-0.3,0-0.3c0-0.1-0.1-0.1-0.3-0.1c-0.6,0-1.8,0.9-3.5,2.7c-1.7,1.8-3.2,3.9-4.5,6.3c-1.3,2.4-2,4.7-2,6.8
		c0,0.7,0.2,1.4,0.5,2.1c0.3,0.7,0.8,1,1.5,1c2.3,0,4.4-1.9,6.3-5.7c1.9-3.8,3.6-8.2,5-13L369,447c-0.1-3.4-0.1-5.3-0.1-5.5
		c0-1.9,0.1-3.2,0.2-4c0.1-0.3,0.1-0.5,0.2-0.7c0.1-0.1,0.2-0.2,0.5-0.2c0.3,0,0.6,0.1,0.9,0.3c0.3,0.2,0.5,0.5,0.5,0.8L371.1,440z"
		/>
	<path class="st0" d="M409.4,469.5c0.2,0.2,0.3,0.4,0.3,0.6c0,0.4-0.2,0.8-0.5,1.3c-0.3,0.5-0.6,0.7-0.9,0.7c-0.5,0-0.9-0.3-1.2-1
		c-0.3-0.6-0.4-1.4-0.4-2.3c0-0.7,0-3,0.1-6.7l0-1.8c0-0.7-0.2-1.2-0.6-1.5c-1.4,2.4-2.7,4.4-3.9,6.1c-1.2,1.7-2.7,3.4-4.6,4.9
		c-1.9,1.5-3.8,2.3-5.8,2.3c-1,0-1.8-0.3-2.3-0.9c-0.5-0.6-0.8-1.4-0.8-2.4c0-1.2,0.6-2.9,1.7-5.1c1.1-2.1,2.5-4.3,4.3-6.5
		c1.7-2.2,3.5-4,5.2-5.4c1.1-0.9,2.1-1.6,2.7-1.9c0.7-0.3,1.3-0.5,1.8-0.5c0.5,0,1,0.2,1.5,0.5c0.5,0.3,1,0.7,1.3,1.3
		c0.4,0.6,0.6,1.2,0.6,1.9c0,1-0.3,1.9-0.8,2.7l0.8-0.2c0.3,0,0.5,0.4,0.6,1.3c0,0.5,0.1,1.5,0.1,3c0,1.5,0.1,2.8,0.1,3.8
		c0,1,0.1,2,0.1,3c0,1,0.1,1.7,0.1,2.3C409.1,469,409.2,469.2,409.4,469.5z M397.5,467.8c1.5-1.2,2.9-2.7,4.2-4.4
		c1.2-1.7,2.6-3.8,4.1-6.3c0.4-0.9,0.6-1.9,0.6-3c0-0.7-0.2-1.2-0.6-1.7c-0.4-0.5-0.9-0.7-1.6-0.7c-0.8,0-1.8,0.5-3,1.6
		c-1.4,1.2-2.9,2.7-4.4,4.7c-1.5,2-2.8,3.9-3.8,5.8c-1,1.9-1.5,3.4-1.5,4.5c0,0.9,0.4,1.4,1.3,1.4C394.4,469.6,396,469,397.5,467.8z
		"/>
	<path class="st0" d="M430.2,473c-0.3,0.3-0.7,0.4-1.1,0.4c-0.3,0-0.6-0.1-0.8-0.2s-0.3-0.3-0.3-0.6c0-1.3,0.1-3.2,0.3-5.9
		c0.2-2.8,0.3-5.2,0.3-7.1c0-1.8-0.1-3.3-0.2-4.5c-0.1-1.2-0.4-1.7-0.8-1.7c-1.1,0-2.2,1.3-3.5,3.9c-1.3,2.6-2.7,6.1-4.3,10.3
		l-0.7,1.9c-0.1,0.3-0.3,0.6-0.6,0.7c-0.3,0.2-0.6,0.3-0.9,0.3c-0.4,0-0.6,0-0.7-0.1c-0.1-0.1-0.2-0.2-0.2-0.6l-0.4-3.8l-0.7-6.7
		c-0.2-2.7-0.5-5-0.8-7c-0.1-0.5-0.1-0.8-0.1-1.1c0-0.5,0.2-0.8,0.6-1.1c0.4-0.3,0.9-0.4,1.4-0.4c0.3,0,0.5,0.7,0.7,2.2
		c0.1,1.5,0.3,3.9,0.4,7.2l0.2,2.5c0.2,3.1,0.4,5.1,0.4,5.9c0.1-0.2,0.2-0.4,0.3-0.6c0.1-0.2,0.2-0.5,0.3-0.8
		c1.7-4.3,3.2-7.9,4.7-10.8c1.5-2.9,2.9-4.3,4.2-4.3c1,0,1.6,0.8,2,2.4c0.4,1.6,0.6,3.7,0.7,6.2c0.1,2.8,0.1,6.9,0.1,12.3
		C430.6,472.5,430.5,472.8,430.2,473z"/>
	<path class="st0" d="M453,440c0,0.6,0,1.8-0.1,3.6c-0.1,1.8-0.1,3.6-0.1,5.4c0,3.5,0.1,7.1,0.2,10.8s0.3,6.1,0.4,7.2
		c0,0.2,0,0.4,0,0.6c0,0.2,0.1,0.4,0.1,0.6c0.1,0.9,0.2,1.4,0.2,1.6c0,0.3-0.2,0.6-0.7,0.9c-0.4,0.3-0.8,0.4-1,0.4
		c-0.3,0-0.6-0.1-0.7-0.4c-0.1-0.3-0.2-0.6-0.2-1.1c0-1.7,0-3.5,0.1-5.3l0-2.6c0-0.9,0-2,0-3.4c0-1.4-0.1-2.6-0.1-3.5
		c-1.6,5.1-3.4,9.3-5.4,12.6c-2,3.3-4.2,5-6.5,5c-1.1,0-1.9-0.5-2.7-1.5c-0.7-1-1.1-2.4-1.1-4.3c0-2.4,0.8-5.1,2.5-8
		c1.7-2.9,3.5-5.3,5.7-7.4c2.1-2.1,3.7-3.1,4.7-3.1c1,0,1.5,0.3,1.5,1c0,0.4-0.1,0.9-0.4,1.5c-0.3,0.6-0.6,1.1-1,1.6
		c-0.4,0.5-0.6,0.7-0.6,0.7s-0.1,0-0.2-0.1c-0.1,0-0.1-0.1-0.1-0.2c0-0.2,0.1-0.4,0.2-0.8c0.2-0.4,0.2-0.6,0.2-0.7
		c0-0.2,0-0.3,0-0.3c0-0.1-0.1-0.1-0.3-0.1c-0.6,0-1.8,0.9-3.5,2.7c-1.7,1.8-3.2,3.9-4.5,6.3c-1.3,2.4-2,4.7-2,6.8
		c0,0.7,0.2,1.4,0.5,2.1c0.3,0.7,0.8,1,1.5,1c2.3,0,4.4-1.9,6.3-5.7c1.9-3.8,3.6-8.2,5-13l-0.1-3.9c-0.1-3.4-0.1-5.3-0.1-5.5
		c0-1.9,0.1-3.2,0.2-4c0.1-0.3,0.1-0.5,0.2-0.7c0.1-0.1,0.2-0.2,0.5-0.2c0.3,0,0.6,0.1,0.9,0.3c0.3,0.2,0.5,0.5,0.5,0.8L453,440z"/>
	<path class="st0" d="M488.4,462.4c-2.1,3.1-4.8,5.9-8,8.2c-1.4,1-2.4,1.5-3.1,1.5c-0.3,0-0.6-0.1-0.8-0.4s-0.3-0.5-0.3-0.9
		c0-0.3,0.1-0.7,0.4-1c0.3-0.3,0.7-0.6,1.3-0.9c2.1-0.9,4.1-2.3,5.8-4c1.8-1.7,3.1-3.6,4.1-5.5c1-1.9,1.5-3.7,1.5-5.1
		c0-0.6-0.1-1-0.4-1.3c-0.3-0.3-0.7-0.4-1.3-0.4c-1.3,0-2.6,0.5-4,1.6c-1.4,1.1-2.6,2.4-3.8,4.1c-0.9,1.3-1.8,2.9-2.6,4.7
		c-0.8,1.8-1.5,3.8-1.9,5.8c-0.2,1.1-0.8,1.6-1.6,1.6c-0.2,0-0.4-0.2-0.7-0.6c-0.2-0.4-0.4-0.7-0.4-1c0-3.6-0.1-8.9-0.4-15.8
		c-0.2-7-0.4-10.9-0.5-11.9c0-0.2,0-0.4,0-0.5c0-0.2-0.1-0.3-0.1-0.5c0-0.2-0.1-0.4-0.1-0.6c0-0.2,0-0.4,0-0.6c0-0.7,0.3-1.1,1-1.1
		c0.5,0,1,0.3,1.3,1c0.3,0.7,0.5,1.4,0.5,2.2v2.5c0,7.4,0.1,13,0.3,17c0.1,1.9,0.2,3,0.4,3.2c0.3-1,0.9-2.2,1.6-3.4
		c0.7-1.3,1.5-2.4,2.3-3.5c1.5-2,3-3.6,4.7-4.8c1.7-1.2,3.2-1.8,4.6-1.8c1,0,1.7,0.3,2.3,0.9c0.6,0.6,0.9,1.5,0.9,2.7
		C491.6,456.4,490.6,459.3,488.4,462.4z"/>
	<path class="st0" d="M498,443.4c0,0-0.5,0-1.5,0c-0.5,0-1.1-0.2-1.6-0.6c-0.5-0.4-0.8-0.8-0.8-1.1c0-0.3,0.2-0.7,0.5-1
		s0.7-0.5,1-0.5c0.5,0.2,0.8,0.4,1.2,0.7c0.2,0.2,0.5,0.6,0.8,1c0.3,0.4,0.5,0.6,0.5,0.7C498,443.2,498,443.4,498,443.4z
		 M498.8,472.6c-0.3,0.2-0.6,0.2-0.9,0.2c-0.4,0-0.8-0.7-1-2.1c-0.2-1.4-0.4-3.9-0.6-7.7c-0.1-2.5-0.2-5-0.3-7.4s-0.2-4.2-0.2-5.5
		c0-0.3,0.1-0.6,0.2-0.8c0.1-0.2,0.3-0.3,0.6-0.3c0.7,0,1.2,0.3,1.3,0.9c0.2,0.6,0.3,1.7,0.3,3.4l0,5.5c0,3.1,0.1,5.6,0.3,7.5
		c0,0.1,0.1,1.1,0.4,3c0.2,1.3,0.3,2.2,0.3,2.6C499.2,472.2,499.1,472.5,498.8,472.6z"/>
	<path class="st0" d="M519.8,466.3c-0.9,1.6-2.2,2.9-3.8,4.1c-1.6,1.1-3.5,1.7-5.6,1.7c-2.1,0-3.6-0.6-4.6-1.7
		c-1-1.1-1.5-2.6-1.5-4.3c0-1.5,0.3-3.3,0.8-5.5c0.5-2.2,1.3-4.2,2.3-5.9c0.1-0.1,0.3-0.6,0.8-1.4c0.4-0.8,1-1.4,1.5-1.8
		c0.6-0.4,1.1-0.6,1.8-0.6c0.3,0,0.5,0.1,0.8,0.2c0.2,0.1,0.3,0.3,0.3,0.5c0,0.1-0.1,0.2-0.3,0.4c-0.2,0.2-0.3,0.4-0.4,0.5
		c-1.1,1.3-1.9,2.5-2.6,3.8c-0.9,1.6-1.5,3.1-2,4.7c-0.5,1.5-0.7,3.2-0.7,5.1c0,2.4,1.5,3.7,4.5,3.7c1.4,0,2.7-0.4,3.9-1.2
		c1.2-0.8,2.1-1.8,2.9-2.9c0.7-1.2,1.1-2.2,1.1-3.2c0-1.1-0.4-2-1.1-2.8c-0.7-0.8-1.7-1.7-2.9-2.5c-0.8-0.6-1.4-1.1-1.8-1.4
		c-0.4-0.4-0.6-0.7-0.6-0.9c0-0.4,0.3-0.7,0.8-0.9c0.5-0.2,1.1-0.3,1.9-0.3c0.4,0,0.7,0,0.8,0.1c0.1,0,0.2,0.1,0.2,0.3
		c0,0.1-0.1,0.2-0.2,0.3c-0.1,0.1-0.2,0.3-0.2,0.3c0,0.1,0.3,0.4,0.9,0.9c1.2,1,2.3,2.1,3.1,3.1c0.8,1.1,1.3,2.3,1.3,3.7
		C521.2,463.4,520.7,464.8,519.8,466.3z"/>
	<path class="st0" d="M541.7,440c0,0.6,0,1.8-0.1,3.6c-0.1,1.8-0.1,3.6-0.1,5.4c0,3.5,0.1,7.1,0.2,10.8c0.2,3.7,0.3,6.1,0.4,7.2
		c0,0.2,0,0.4,0,0.6c0,0.2,0.1,0.4,0.1,0.6c0.1,0.9,0.2,1.4,0.2,1.6c0,0.3-0.2,0.6-0.7,0.9c-0.4,0.3-0.8,0.4-1,0.4
		c-0.3,0-0.6-0.1-0.7-0.4c-0.1-0.3-0.2-0.6-0.2-1.1c0-1.7,0-3.5,0.1-5.3l0-2.6c0-0.9,0-2,0-3.4c0-1.4-0.1-2.6-0.1-3.5
		c-1.6,5.1-3.4,9.3-5.4,12.6c-2,3.3-4.2,5-6.5,5c-1.1,0-1.9-0.5-2.7-1.5c-0.7-1-1.1-2.4-1.1-4.3c0-2.4,0.8-5.1,2.5-8
		c1.7-2.9,3.5-5.3,5.7-7.4c2.1-2.1,3.7-3.1,4.7-3.1c1,0,1.5,0.3,1.5,1c0,0.4-0.1,0.9-0.4,1.5c-0.3,0.6-0.6,1.1-1,1.6
		c-0.4,0.5-0.6,0.7-0.6,0.7c-0.1,0-0.1,0-0.2-0.1c-0.1,0-0.1-0.1-0.1-0.2c0-0.2,0.1-0.4,0.2-0.8c0.2-0.4,0.2-0.6,0.2-0.7
		c0-0.2,0-0.3,0-0.3c0-0.1-0.1-0.1-0.3-0.1c-0.6,0-1.8,0.9-3.5,2.7c-1.7,1.8-3.2,3.9-4.5,6.3c-1.3,2.4-2,4.7-2,6.8
		c0,0.7,0.2,1.4,0.5,2.1c0.3,0.7,0.8,1,1.5,1c2.3,0,4.4-1.9,6.3-5.7c1.9-3.8,3.6-8.2,5-13l-0.1-3.9c-0.1-3.4-0.1-5.3-0.1-5.5
		c0-1.9,0.1-3.2,0.2-4c0.1-0.3,0.1-0.5,0.2-0.7c0.1-0.1,0.2-0.2,0.5-0.2c0.3,0,0.6,0.1,0.9,0.3c0.3,0.2,0.5,0.5,0.5,0.8L541.7,440z"
		/>
	<path class="st0" d="M565.3,460.6c0,0.6-0.4,1.8-1.2,3.7c-0.8,1.9-2.1,3.6-3.7,5.2s-3.7,2.4-6.1,2.4c-2,0-3.6-0.6-5-1.9
		c-1.3-1.2-2-3.1-2-5.7c0-2.4,0.6-4.8,1.7-7.2c1.1-2.4,2.6-4.3,4.4-5.8c1.8-1.5,3.6-2.2,5.6-2.2c1.1,0,2.1,0.3,2.9,0.8
		c0.8,0.5,1.2,1.2,1.2,2.2c0,1.1-0.6,2.1-1.8,3.2c-1.2,1-2.8,1.9-4.8,2.7c-1.9,0.8-4,1.3-6,1.7c-0.4,1.4-0.6,2.8-0.6,4.2
		c0,1.8,0.4,3.2,1.3,4.2c0.8,1,2.1,1.5,3.6,1.5c2.4,0,4.3-0.8,5.8-2.6c1.5-1.7,2.7-3.6,3.7-5.8c0.1-0.1,0.2-0.4,0.3-0.7
		c0.2-0.4,0.3-0.5,0.4-0.5C565.2,459.9,565.3,460.2,565.3,460.6z M560.2,451.5c-0.5-0.3-1.1-0.4-1.8-0.4c-1.2,0-2.3,0.4-3.4,1.2
		c-1.1,0.8-2,1.7-2.7,2.8c-0.7,1.1-1.2,2-1.4,2.9c1.4-0.2,2.9-0.6,4.5-1.2c1.6-0.7,2.9-1.4,4-2.1c1.1-0.8,1.6-1.4,1.6-1.9
		C560.9,452.2,560.7,451.8,560.2,451.5z"/>
	<path class="st0" d="M588.1,477.9c-1,2-2.1,3.6-3.4,4.8c-1.3,1.3-2.7,2.3-4.2,3.1c-1.4,0.8-2.7,1.2-3.7,1.2c-0.6,0-1-0.1-1.3-0.4
		c-0.2-0.3-0.4-0.6-0.4-1c0-0.4,0.7-0.8,2.1-1.3c2.1-0.7,4.1-1.8,5.8-3.4c1.4-1.2,2.4-2.6,3.1-4.2c0.6-1.6,1-3.2,1-4.8
		c0-1.9-0.1-3.6-0.3-5.1c-0.2-1.5-0.6-3.4-1.1-5.7c-0.6-2.4-0.9-4.4-1.2-6.1c-0.5,1.4-1.3,3.1-2.4,5.1c-1.1,2-2.4,3.9-3.9,5.8
		c-1.4,1.8-2.7,3.1-3.9,3.9c-1.2,0.9-2.3,1.3-3.4,1.3c-0.9,0-1.6-0.4-2.1-1.1c-0.4-0.7-0.7-1.7-0.7-3c0-2.1,0.6-4.6,1.9-7.4
		c1.3-2.8,2.9-5.3,4.9-7.3c1.9-2,3.9-3.1,5.8-3.1c0.6,0,1.2,0.2,1.5,0.7c0.4,0.5,0.5,1,0.5,1.7c0,0.8-0.2,1.3-0.5,1.3
		c-0.1,0-0.2-0.1-0.3-0.3c-0.1-0.2-0.3-0.4-0.5-0.6c-0.2-0.2-0.4-0.3-0.6-0.3c-1.6,0-3.2,0.9-4.8,2.6c-1.6,1.8-3,3.8-4,6.2
		c-1.1,2.4-1.6,4.3-1.6,5.8c0,0.8,0.1,1.4,0.3,1.8c0.2,0.4,0.6,0.6,1.1,0.6c0.7,0,1.6-0.4,2.7-1.3c1.1-0.9,2.3-2.2,3.8-4.1
		c1.3-1.6,2.5-3.5,3.5-5.7c1.1-2.2,1.9-4.3,2.4-6.2c0.1-0.2,0.2-0.3,0.3-0.5c0.1-0.1,0.3-0.2,0.5-0.2c0.3,0,0.6,0.1,0.9,0.3
		c0.3,0.2,0.4,0.3,0.4,0.5c0,0.1,0,0.3-0.1,0.4c0,0.1-0.1,0.2-0.1,0.3c0.2,1.7,0.7,4.3,1.5,7.9c0.6,2.5,1,4.7,1.3,6.4
		c0.3,1.7,0.4,3.4,0.4,5C589.5,473.7,589.1,475.9,588.1,477.9z"/>
	<path class="st0" d="M609.6,453.2c-0.4,0.4-0.7,0.5-1,0.5c-0.2,0-0.4-0.1-0.6-0.3c-0.2-0.2-0.4-0.4-0.7-0.8
		c-0.2-0.3-0.5-0.6-0.9-0.8c-0.4-0.2-0.7-0.3-1.1-0.3c-0.9,0-2.1,1.2-3.6,3.5c-1.5,2.4-3,5.3-4.5,8.9c0,0.7,0.1,1.6,0.2,2.7
		c0.1,1.1,0.1,1.9,0.2,2.4l0.1,1.9c0,0.4-0.1,0.8-0.3,1.1c-0.2,0.3-0.5,0.5-1,0.5c-0.5,0-0.9-0.7-1-2.1c-0.2-1.4-0.2-3.5-0.3-6.1
		c0-0.7-0.1-1.7-0.1-2.9c0-1.3-0.1-2.8-0.1-4.5c-0.1-2.7-0.1-4.6-0.1-5.7c0-0.7,0.4-1.1,1.3-1.1c0.5,0,0.8,0.2,1,0.7
		c0.1,0.4,0.2,1.3,0.2,2.6v7.4c0.9-2.4,1.9-4.4,3-6.2c1.1-1.7,2.1-3.1,3.2-4c1-0.9,2-1.4,2.8-1.4c0.7,0,1.3,0.2,1.9,0.5
		c0.6,0.3,1.1,0.7,1.5,1.2c0.4,0.5,0.6,0.9,0.6,1.4C610.2,452.5,610,452.8,609.6,453.2z"/>
	<path class="st0" d="M629.9,469.5c0.2,0.2,0.3,0.4,0.3,0.6c0,0.4-0.2,0.8-0.5,1.3c-0.3,0.5-0.6,0.7-0.9,0.7c-0.5,0-0.9-0.3-1.2-1
		c-0.3-0.6-0.4-1.4-0.4-2.3c0-0.7,0-3,0.1-6.7l0-1.8c0-0.7-0.2-1.2-0.6-1.5c-1.4,2.4-2.7,4.4-3.9,6.1c-1.2,1.7-2.7,3.4-4.6,4.9
		c-1.9,1.5-3.8,2.3-5.8,2.3c-1,0-1.8-0.3-2.3-0.9c-0.5-0.6-0.8-1.4-0.8-2.4c0-1.2,0.6-2.9,1.7-5.1c1.1-2.1,2.5-4.3,4.3-6.5
		c1.7-2.2,3.5-4,5.2-5.4c1.1-0.9,2.1-1.6,2.7-1.9c0.7-0.3,1.3-0.5,1.8-0.5c0.5,0,1,0.2,1.5,0.5c0.5,0.3,1,0.7,1.3,1.3
		c0.4,0.6,0.6,1.2,0.6,1.9c0,1-0.3,1.9-0.8,2.7l0.8-0.2c0.3,0,0.5,0.4,0.6,1.3c0,0.5,0.1,1.5,0.1,3c0,1.5,0.1,2.8,0.1,3.8
		c0,1,0.1,2,0.1,3c0,1,0.1,1.7,0.1,2.3C629.6,469,629.7,469.2,629.9,469.5z M618,467.8c1.5-1.2,2.9-2.7,4.2-4.4
		c1.2-1.7,2.6-3.8,4.1-6.3c0.4-0.9,0.6-1.9,0.6-3c0-0.7-0.2-1.2-0.6-1.7c-0.4-0.5-0.9-0.7-1.6-0.7c-0.8,0-1.8,0.5-3,1.6
		c-1.4,1.2-2.9,2.7-4.4,4.7c-1.5,2-2.8,3.9-3.8,5.8c-1,1.9-1.5,3.4-1.5,4.5c0,0.9,0.4,1.4,1.3,1.4C614.9,469.6,616.5,469,618,467.8z
		"/>
	<path class="st0" d="M651.6,440c0,0.6,0,1.8-0.1,3.6c-0.1,1.8-0.1,3.6-0.1,5.4c0,3.5,0.1,7.1,0.2,10.8c0.2,3.7,0.3,6.1,0.4,7.2
		c0,0.2,0,0.4,0,0.6c0,0.2,0.1,0.4,0.1,0.6c0.1,0.9,0.2,1.4,0.2,1.6c0,0.3-0.2,0.6-0.7,0.9c-0.4,0.3-0.8,0.4-1,0.4
		c-0.3,0-0.6-0.1-0.7-0.4c-0.1-0.3-0.2-0.6-0.2-1.1c0-1.7,0-3.5,0.1-5.3l0-2.6c0-0.9,0-2,0-3.4c0-1.4-0.1-2.6-0.1-3.5
		c-1.6,5.1-3.4,9.3-5.4,12.6c-2,3.3-4.2,5-6.5,5c-1.1,0-1.9-0.5-2.7-1.5c-0.7-1-1.1-2.4-1.1-4.3c0-2.4,0.8-5.1,2.5-8
		c1.7-2.9,3.5-5.3,5.7-7.4s3.7-3.1,4.7-3.1c1,0,1.5,0.3,1.5,1c0,0.4-0.1,0.9-0.4,1.5c-0.3,0.6-0.6,1.1-1,1.6
		c-0.4,0.5-0.6,0.7-0.6,0.7c-0.1,0-0.1,0-0.2-0.1c-0.1,0-0.1-0.1-0.1-0.2c0-0.2,0.1-0.4,0.2-0.8c0.2-0.4,0.2-0.6,0.2-0.7
		c0-0.2,0-0.3,0-0.3c0-0.1-0.1-0.1-0.3-0.1c-0.6,0-1.8,0.9-3.5,2.7c-1.7,1.8-3.2,3.9-4.5,6.3c-1.3,2.4-2,4.7-2,6.8
		c0,0.7,0.2,1.4,0.5,2.1c0.3,0.7,0.8,1,1.5,1c2.3,0,4.4-1.9,6.3-5.7c1.9-3.8,3.6-8.2,5-13l-0.1-3.9c-0.1-3.4-0.1-5.3-0.1-5.5
		c0-1.9,0.1-3.2,0.2-4c0.1-0.3,0.1-0.5,0.2-0.7c0.1-0.1,0.2-0.2,0.5-0.2c0.3,0,0.6,0.1,0.9,0.3c0.3,0.2,0.5,0.5,0.5,0.8L651.6,440z"
		/>
	<path class="st0" d="M676.5,469.5c0.2,0.2,0.3,0.4,0.3,0.6c0,0.4-0.2,0.8-0.5,1.3c-0.3,0.5-0.6,0.7-0.9,0.7c-0.5,0-0.9-0.3-1.2-1
		c-0.3-0.6-0.4-1.4-0.4-2.3c0-0.7,0-3,0.1-6.7l0-1.8c0-0.7-0.2-1.2-0.6-1.5c-1.4,2.4-2.7,4.4-3.9,6.1c-1.2,1.7-2.7,3.4-4.6,4.9
		c-1.9,1.5-3.8,2.3-5.8,2.3c-1,0-1.8-0.3-2.3-0.9c-0.5-0.6-0.8-1.4-0.8-2.4c0-1.2,0.6-2.9,1.7-5.1c1.1-2.1,2.5-4.3,4.3-6.5
		c1.7-2.2,3.5-4,5.2-5.4c1.1-0.9,2.1-1.6,2.7-1.9c0.7-0.3,1.3-0.5,1.8-0.5c0.5,0,1,0.2,1.5,0.5c0.5,0.3,1,0.7,1.3,1.3
		c0.4,0.6,0.6,1.2,0.6,1.9c0,1-0.3,1.9-0.8,2.7l0.8-0.2c0.3,0,0.5,0.4,0.6,1.3c0,0.5,0.1,1.5,0.1,3c0,1.5,0.1,2.8,0.1,3.8
		c0,1,0.1,2,0.1,3c0,1,0.1,1.7,0.1,2.3C676.2,469,676.3,469.2,676.5,469.5z M664.6,467.8c1.5-1.2,2.9-2.7,4.2-4.4
		c1.2-1.7,2.6-3.8,4.1-6.3c0.4-0.9,0.6-1.9,0.6-3c0-0.7-0.2-1.2-0.6-1.7c-0.4-0.5-0.9-0.7-1.6-0.7c-0.8,0-1.8,0.5-3,1.6
		c-1.4,1.2-2.9,2.7-4.4,4.7c-1.5,2-2.8,3.9-3.8,5.8c-1,1.9-1.5,3.4-1.5,4.5c0,0.9,0.4,1.4,1.3,1.4
		C661.5,469.6,663.1,469,664.6,467.8z"/>
	<path class="st0" d="M698.5,462.4c-2.1,3.1-4.8,5.9-8,8.2c-1.4,1-2.4,1.5-3.1,1.5c-0.3,0-0.6-0.1-0.8-0.4s-0.3-0.5-0.3-0.9
		c0-0.3,0.1-0.7,0.4-1c0.3-0.3,0.7-0.6,1.3-0.9c2.1-0.9,4.1-2.3,5.8-4c1.8-1.7,3.1-3.6,4.1-5.5c1-1.9,1.5-3.7,1.5-5.1
		c0-0.6-0.1-1-0.4-1.3c-0.3-0.3-0.7-0.4-1.3-0.4c-1.3,0-2.6,0.5-4,1.6c-1.4,1.1-2.6,2.4-3.8,4.1c-0.9,1.3-1.8,2.9-2.6,4.7
		c-0.8,1.8-1.5,3.8-1.9,5.8c-0.2,1.1-0.8,1.6-1.6,1.6c-0.2,0-0.4-0.2-0.7-0.6c-0.2-0.4-0.4-0.7-0.4-1c0-3.6-0.1-8.9-0.4-15.8
		c-0.2-7-0.4-10.9-0.5-11.9c0-0.2,0-0.4,0-0.5s-0.1-0.3-0.1-0.5c0-0.2-0.1-0.4-0.1-0.6c0-0.2,0-0.4,0-0.6c0-0.7,0.3-1.1,1-1.1
		c0.5,0,1,0.3,1.3,1c0.3,0.7,0.5,1.4,0.5,2.2v2.5c0,7.4,0.1,13,0.3,17c0.1,1.9,0.2,3,0.4,3.2c0.3-1,0.9-2.2,1.6-3.4
		c0.7-1.3,1.5-2.4,2.3-3.5c1.5-2,3-3.6,4.7-4.8s3.2-1.8,4.6-1.8c1,0,1.7,0.3,2.3,0.9c0.6,0.6,0.9,1.5,0.9,2.7
		C701.6,456.4,700.6,459.3,698.5,462.4z"/>
	<path class="st0" d="M709.1,471.3c-0.4,0.2-0.8,0.3-1.3,0.3c-0.4,0-0.7-0.4-1-1.3c-0.3-0.9-0.5-2.2-0.5-4c0-3.5,0.1-7.7,0.2-12.7
		c0.1-4.9,0.1-8.7,0.2-11.2c0-0.9,0.2-1.7,0.5-2.5c0.3-0.8,0.8-1.2,1.6-1.2c0.2,0,0.4,0.1,0.5,0.4c0.1,0.3,0.1,0.8,0.1,1.5
		c0,0,0,0.1,0,0.3s0,0.5,0,0.9c-0.6,8.1-0.8,16.1-0.8,23.8c0,1,0.2,2,0.7,3.2c0.4,1.1,0.7,1.7,0.7,1.8
		C709.7,470.8,709.5,471.1,709.1,471.3z"/>
	<path class="st0" d="M732.3,460.6c0,0.6-0.4,1.8-1.2,3.7c-0.8,1.9-2.1,3.6-3.7,5.2s-3.7,2.4-6.1,2.4c-2,0-3.6-0.6-5-1.9
		c-1.3-1.2-2-3.1-2-5.7c0-2.4,0.6-4.8,1.7-7.2c1.1-2.4,2.6-4.3,4.4-5.8s3.6-2.2,5.6-2.2c1.1,0,2.1,0.3,2.9,0.8
		c0.8,0.5,1.2,1.2,1.2,2.2c0,1.1-0.6,2.1-1.8,3.2c-1.2,1-2.8,1.9-4.8,2.7c-1.9,0.8-4,1.3-6,1.7c-0.4,1.4-0.6,2.8-0.6,4.2
		c0,1.8,0.4,3.2,1.3,4.2s2.1,1.5,3.6,1.5c2.4,0,4.3-0.8,5.8-2.6c1.5-1.7,2.7-3.6,3.7-5.8c0.1-0.1,0.2-0.4,0.3-0.7
		c0.2-0.4,0.3-0.5,0.4-0.5C732.2,459.9,732.3,460.2,732.3,460.6z M727.2,451.5c-0.5-0.3-1.1-0.4-1.8-0.4c-1.2,0-2.3,0.4-3.4,1.2
		c-1.1,0.8-2,1.7-2.7,2.8c-0.7,1.1-1.2,2-1.4,2.9c1.4-0.2,2.9-0.6,4.5-1.2c1.6-0.7,2.9-1.4,4-2.1c1.1-0.8,1.6-1.4,1.6-1.9
		C727.9,452.2,727.7,451.8,727.2,451.5z"/>
	<path class="st0" d="M765.9,440c0,0.6,0,1.8-0.1,3.6c-0.1,1.8-0.1,3.6-0.1,5.4c0,3.5,0.1,7.1,0.2,10.8c0.2,3.7,0.3,6.1,0.4,7.2
		c0,0.2,0,0.4,0,0.6c0,0.2,0.1,0.4,0.1,0.6c0.1,0.9,0.2,1.4,0.2,1.6c0,0.3-0.2,0.6-0.7,0.9c-0.4,0.3-0.8,0.4-1,0.4
		c-0.3,0-0.6-0.1-0.7-0.4c-0.1-0.3-0.2-0.6-0.2-1.1c0-1.7,0-3.5,0.1-5.3l0-2.6c0-0.9,0-2,0-3.4c0-1.4-0.1-2.6-0.1-3.5
		c-1.6,5.1-3.4,9.3-5.4,12.6c-2,3.3-4.2,5-6.5,5c-1.1,0-1.9-0.5-2.7-1.5c-0.7-1-1.1-2.4-1.1-4.3c0-2.4,0.8-5.1,2.5-8
		c1.7-2.9,3.5-5.3,5.7-7.4c2.1-2.1,3.7-3.1,4.7-3.1c1,0,1.5,0.3,1.5,1c0,0.4-0.1,0.9-0.4,1.5c-0.3,0.6-0.6,1.1-1,1.6
		c-0.4,0.5-0.6,0.7-0.6,0.7c-0.1,0-0.1,0-0.2-0.1c-0.1,0-0.1-0.1-0.1-0.2c0-0.2,0.1-0.4,0.2-0.8c0.2-0.4,0.2-0.6,0.2-0.7
		c0-0.2,0-0.3,0-0.3c0-0.1-0.1-0.1-0.3-0.1c-0.7,0-1.8,0.9-3.5,2.7c-1.7,1.8-3.2,3.9-4.5,6.3c-1.3,2.4-2,4.7-2,6.8
		c0,0.7,0.2,1.4,0.5,2.1c0.3,0.7,0.8,1,1.5,1c2.3,0,4.4-1.9,6.3-5.7c1.9-3.8,3.6-8.2,5-13l-0.1-3.9c-0.1-3.4-0.1-5.3-0.1-5.5
		c0-1.9,0.1-3.2,0.2-4c0.1-0.3,0.1-0.5,0.2-0.7c0.1-0.1,0.2-0.2,0.5-0.2c0.3,0,0.6,0.1,0.9,0.3c0.3,0.2,0.5,0.5,0.5,0.8L765.9,440z"
		/>
	<path class="st0" d="M774.8,443.4c0,0-0.5,0-1.5,0c-0.5,0-1.1-0.2-1.6-0.6c-0.5-0.4-0.8-0.8-0.8-1.1c0-0.3,0.2-0.7,0.5-1
		c0.3-0.3,0.7-0.5,1-0.5c0.5,0.2,0.8,0.4,1.2,0.7c0.2,0.2,0.5,0.6,0.8,1c0.3,0.4,0.5,0.6,0.5,0.7
		C774.8,443.2,774.8,443.4,774.8,443.4z M775.5,472.6c-0.3,0.2-0.6,0.2-0.9,0.2c-0.4,0-0.7-0.7-1-2.1c-0.2-1.4-0.4-3.9-0.6-7.7
		c-0.1-2.5-0.2-5-0.3-7.4c-0.1-2.4-0.2-4.2-0.2-5.5c0-0.3,0.1-0.6,0.2-0.8c0.1-0.2,0.3-0.3,0.6-0.3c0.7,0,1.2,0.3,1.3,0.9
		c0.2,0.6,0.3,1.7,0.3,3.4l0,5.5c0,3.1,0.1,5.6,0.3,7.5c0,0.1,0.1,1.1,0.4,3c0.2,1.3,0.3,2.2,0.3,2.6
		C775.9,472.2,775.8,472.5,775.5,472.6z"/>
	<path class="st0" d="M796,469.2c-1.1,1.3-2.5,2.3-4.3,3c-1.8,0.8-3.7,1.1-5.6,1.1c-1.3,0-2.2-0.1-2.7-0.4c-0.5-0.2-0.7-0.6-0.7-1
		c0-0.3,0.4-0.8,1.1-1.5c0.7-0.7,1.2-1,1.4-1c0.4,0,0.6,0.1,0.6,0.2c0,0.1-0.1,0.2-0.2,0.4c-0.2,0.1-0.2,0.2-0.2,0.3
		c0,0.1,0.2,0.2,0.6,0.4c0.4,0.1,0.9,0.2,1.4,0.2c1.3,0,2.6-0.2,3.9-0.7c1.3-0.5,2.4-1.1,3.2-1.9c0.8-0.8,1.3-1.6,1.3-2.5
		c0-0.8-0.3-1.5-0.8-2c-0.5-0.5-1.2-0.9-2-1.1c-0.8-0.2-2.1-0.6-4-1c-2-0.5-3.6-0.9-4.8-1.2c-1.1-0.4-2-0.8-2.7-1.3
		c-0.7-0.5-1-1.2-1-2.1c0-1.5,0.7-2.8,2.2-4.1c1.5-1.2,3.1-2.2,5-2.9c1.9-0.7,3.3-1.1,4.4-1.1c1.1,0,1.6,0.3,1.6,0.9
		c0,0.4-0.1,0.8-0.4,1.2c-0.2,0.4-0.6,0.7-1.1,0.7c-0.2,0-0.4-0.1-0.6-0.2c-0.2-0.1-0.4-0.2-0.7-0.2c-0.6,0-1.6,0.2-2.9,0.6
		c-1.3,0.4-2.5,1-3.6,1.8c-1.1,0.8-1.6,1.8-1.6,2.9c0,0.7,0.4,1.3,1.3,1.6c0.9,0.4,2.4,0.8,4.8,1.3c0.3,0.1,0.6,0.2,0.8,0.2
		c0.3,0,0.5,0.1,0.7,0.2c2.4,0.6,4.2,1.2,5.5,1.9c1.3,0.7,1.9,1.8,1.9,3.2C797.6,466.6,797.1,467.9,796,469.2z"/>
	<path class="st0" d="M817.3,465.7c-2.8,1.2-6.6,2-11.1,2.3c-0.1,2.1-0.1,3.8-0.1,5.1c0,1.8,0.1,3.4,0.2,4.8
		c0.1,0.6,0.1,0.9,0.1,1.2c0,0.5-0.1,0.9-0.3,1.3c-0.2,0.4-0.5,0.5-0.9,0.5c-0.6,0-0.9-0.2-0.9-0.6c0-0.5-0.1-1.3-0.1-2.4
		c0-1.1-0.1-2.2-0.1-3.3l0-6.5c-0.2,0-0.4,0-0.9,0c-0.4,0-0.8,0-1.2,0c-0.7,0-1.1-0.5-1.1-1.5c0-0.7,0.2-1.1,0.6-1.1
		c0.1,0,0.5,0.1,1.1,0.3c0.6,0.2,1.1,0.3,1.6,0.3l0-13.1c-0.2,0-0.8-0.1-1.5-0.2c-0.8-0.1-1.3-0.2-1.7-0.4c-0.4-0.2-0.5-0.5-0.5-0.9
		c0-0.8,0.2-1.2,0.5-1.2c0.3,0,0.8,0.1,1.3,0.4c0.1,0,0.2,0.1,0.6,0.3s0.7,0.2,1.3,0.3c0.2-0.5,0.4-0.8,0.5-1c0.2-0.2,0.5-0.3,1-0.3
		c0.6,0,0.9,0.1,0.9,0.4c0,0.1,0,0.3-0.1,0.5c-0.1,0.2-0.1,0.5-0.1,0.7c1.9,0.3,4.1,0.8,6.5,1.7c2.4,0.8,4.5,1.9,6.3,3.2
		c1.8,1.3,2.7,2.7,2.7,4.3C821.6,462.8,820.1,464.5,817.3,465.7z M817.3,457.3c-1.5-1.1-3.3-1.9-5.4-2.6c-2.1-0.7-4.1-1.2-6-1.5
		c0.1,1.8,0.1,4.2,0.1,7.1c0,3,0,4.9,0,5.9c1.9,0,3.8-0.2,5.9-0.7c2.1-0.5,3.9-1.1,5.3-1.9c1.4-0.8,2.2-1.7,2.2-2.7
		C819.6,459.5,818.8,458.3,817.3,457.3z"/>
	<path class="st0" d="M840,466.3c-0.9,1.6-2.2,2.9-3.8,4.1c-1.6,1.1-3.5,1.7-5.6,1.7c-2.1,0-3.6-0.6-4.6-1.7c-1-1.1-1.5-2.6-1.5-4.3
		c0-1.5,0.3-3.3,0.8-5.5c0.5-2.2,1.3-4.2,2.3-5.9c0.1-0.1,0.3-0.6,0.8-1.4c0.4-0.8,1-1.4,1.5-1.8c0.6-0.4,1.1-0.6,1.8-0.6
		c0.3,0,0.5,0.1,0.8,0.2c0.2,0.1,0.3,0.3,0.3,0.5c0,0.1-0.1,0.2-0.3,0.4c-0.2,0.2-0.3,0.4-0.4,0.5c-1.1,1.3-1.9,2.5-2.5,3.8
		c-0.9,1.6-1.5,3.1-2,4.7c-0.5,1.5-0.7,3.2-0.7,5.1c0,2.4,1.5,3.7,4.5,3.7c1.4,0,2.7-0.4,3.9-1.2c1.2-0.8,2.1-1.8,2.9-2.9
		c0.7-1.2,1.1-2.2,1.1-3.2c0-1.1-0.4-2-1.1-2.8c-0.7-0.8-1.7-1.7-2.9-2.5c-0.8-0.6-1.4-1.1-1.8-1.4c-0.4-0.4-0.6-0.7-0.6-0.9
		c0-0.4,0.3-0.7,0.8-0.9c0.5-0.2,1.1-0.3,1.9-0.3c0.4,0,0.7,0,0.8,0.1c0.1,0,0.2,0.1,0.2,0.3c0,0.1-0.1,0.2-0.2,0.3
		c-0.1,0.1-0.2,0.3-0.2,0.3c0,0.1,0.3,0.4,0.9,0.9c1.2,1,2.3,2.1,3.1,3.1c0.8,1.1,1.3,2.3,1.3,3.7
		C841.4,463.4,840.9,464.8,840,466.3z"/>
	<path class="st0" d="M859.5,469.2c-1.1,1.3-2.5,2.3-4.3,3c-1.8,0.8-3.7,1.1-5.6,1.1c-1.3,0-2.2-0.1-2.7-0.4c-0.5-0.2-0.7-0.6-0.7-1
		c0-0.3,0.4-0.8,1.1-1.5c0.7-0.7,1.2-1,1.4-1c0.4,0,0.6,0.1,0.6,0.2c0,0.1-0.1,0.2-0.2,0.4c-0.2,0.1-0.2,0.2-0.2,0.3
		c0,0.1,0.2,0.2,0.6,0.4c0.4,0.1,0.9,0.2,1.4,0.2c1.3,0,2.6-0.2,3.9-0.7c1.3-0.5,2.4-1.1,3.2-1.9c0.8-0.8,1.3-1.6,1.3-2.5
		c0-0.8-0.3-1.5-0.8-2c-0.5-0.5-1.2-0.9-2-1.1c-0.8-0.2-2.1-0.6-4-1c-2-0.5-3.6-0.9-4.8-1.2c-1.1-0.4-2-0.8-2.7-1.3
		c-0.7-0.5-1-1.2-1-2.1c0-1.5,0.7-2.8,2.2-4.1c1.5-1.2,3.1-2.2,5-2.9c1.9-0.7,3.3-1.1,4.4-1.1c1.1,0,1.6,0.3,1.6,0.9
		c0,0.4-0.1,0.8-0.4,1.2c-0.2,0.4-0.6,0.7-1.1,0.7c-0.2,0-0.4-0.1-0.6-0.2c-0.2-0.1-0.4-0.2-0.7-0.2c-0.6,0-1.6,0.2-2.9,0.6
		c-1.3,0.4-2.5,1-3.6,1.8c-1.1,0.8-1.6,1.8-1.6,2.9c0,0.7,0.4,1.3,1.3,1.6c0.9,0.4,2.4,0.8,4.8,1.3c0.3,0.1,0.6,0.2,0.8,0.2
		c0.3,0,0.5,0.1,0.7,0.2c2.4,0.6,4.2,1.2,5.5,1.9c1.3,0.7,1.9,1.8,1.9,3.2C861.2,466.6,860.6,467.9,859.5,469.2z"/>
	<path class="st0" d="M884.4,469.5c0.2,0.2,0.3,0.4,0.3,0.6c0,0.4-0.2,0.8-0.5,1.3s-0.6,0.7-0.9,0.7c-0.5,0-0.9-0.3-1.2-1
		c-0.3-0.6-0.4-1.4-0.4-2.3c0-0.7,0-3,0.1-6.7l0-1.8c0-0.7-0.2-1.2-0.6-1.5c-1.4,2.4-2.7,4.4-3.9,6.1c-1.2,1.7-2.7,3.4-4.6,4.9
		s-3.8,2.3-5.8,2.3c-1,0-1.8-0.3-2.3-0.9s-0.8-1.4-0.8-2.4c0-1.2,0.6-2.9,1.7-5.1c1.1-2.1,2.5-4.3,4.3-6.5c1.7-2.2,3.5-4,5.2-5.4
		c1.1-0.9,2.1-1.6,2.7-1.9c0.7-0.3,1.3-0.5,1.8-0.5c0.5,0,1,0.2,1.5,0.5c0.5,0.3,1,0.7,1.3,1.3c0.4,0.6,0.6,1.2,0.6,1.9
		c0,1-0.3,1.9-0.8,2.7l0.8-0.2c0.3,0,0.5,0.4,0.6,1.3c0,0.5,0.1,1.5,0.1,3c0,1.5,0.1,2.8,0.1,3.8c0,1,0.1,2,0.1,3
		c0,1,0.1,1.7,0.1,2.3C884.1,469,884.2,469.2,884.4,469.5z M872.5,467.8c1.5-1.2,2.9-2.7,4.2-4.4c1.2-1.7,2.6-3.8,4.1-6.3
		c0.4-0.9,0.6-1.9,0.6-3c0-0.7-0.2-1.2-0.6-1.7c-0.4-0.5-0.9-0.7-1.6-0.7c-0.8,0-1.8,0.5-3,1.6c-1.4,1.2-2.9,2.7-4.4,4.7
		c-1.5,2-2.8,3.9-3.8,5.8c-1,1.9-1.5,3.4-1.5,4.5c0,0.9,0.4,1.4,1.3,1.4C869.3,469.6,870.9,469,872.5,467.8z"/>
	<path class="st0" d="M906.3,462.4c-2.1,3.1-4.8,5.9-8,8.2c-1.4,1-2.4,1.5-3.1,1.5c-0.3,0-0.6-0.1-0.8-0.4s-0.3-0.5-0.3-0.9
		c0-0.3,0.1-0.7,0.4-1c0.3-0.3,0.7-0.6,1.3-0.9c2.1-0.9,4.1-2.3,5.8-4c1.8-1.7,3.1-3.6,4.1-5.5c1-1.9,1.5-3.7,1.5-5.1
		c0-0.6-0.1-1-0.4-1.3c-0.3-0.3-0.7-0.4-1.3-0.4c-1.3,0-2.6,0.5-4,1.6c-1.4,1.1-2.6,2.4-3.8,4.1c-0.9,1.3-1.8,2.9-2.6,4.7
		c-0.8,1.8-1.5,3.8-1.9,5.8c-0.2,1.1-0.8,1.6-1.6,1.6c-0.2,0-0.4-0.2-0.7-0.6c-0.2-0.4-0.4-0.7-0.4-1c0-3.6-0.1-8.9-0.4-15.8
		c-0.2-7-0.4-10.9-0.5-11.9c0-0.2,0-0.4,0-0.5c0-0.2-0.1-0.3-0.1-0.5c0-0.2-0.1-0.4-0.1-0.6c0-0.2,0-0.4,0-0.6c0-0.7,0.3-1.1,1-1.1
		c0.5,0,1,0.3,1.3,1c0.3,0.7,0.5,1.4,0.5,2.2v2.5c0,7.4,0.1,13,0.3,17c0.1,1.9,0.2,3,0.4,3.2c0.3-1,0.9-2.2,1.6-3.4s1.5-2.4,2.3-3.5
		c1.5-2,3-3.6,4.7-4.8c1.7-1.2,3.2-1.8,4.6-1.8c1,0,1.7,0.3,2.3,0.9c0.6,0.6,0.9,1.5,0.9,2.7C909.5,456.4,908.4,459.3,906.3,462.4z"
		/>
	<path class="st0" d="M917,471.3c-0.4,0.2-0.8,0.3-1.3,0.3c-0.4,0-0.7-0.4-1-1.3c-0.3-0.9-0.5-2.2-0.5-4c0-3.5,0.1-7.7,0.2-12.7
		c0.1-4.9,0.1-8.7,0.2-11.2c0-0.9,0.2-1.7,0.5-2.5c0.3-0.8,0.8-1.2,1.6-1.2c0.2,0,0.4,0.1,0.5,0.4c0.1,0.3,0.1,0.8,0.1,1.5
		c0,0,0,0.1,0,0.3c0,0.2,0,0.5,0,0.9c-0.6,8.1-0.8,16.1-0.8,23.8c0,1,0.2,2,0.7,3.2c0.4,1.1,0.7,1.7,0.7,1.8
		C917.6,470.8,917.4,471.1,917,471.3z"/>
	<path class="st0" d="M940.2,460.6c0,0.6-0.4,1.8-1.2,3.7c-0.8,1.9-2.1,3.6-3.7,5.2c-1.7,1.6-3.7,2.4-6.1,2.4c-2,0-3.6-0.6-5-1.9
		c-1.3-1.2-2-3.1-2-5.7c0-2.4,0.6-4.8,1.7-7.2c1.1-2.4,2.6-4.3,4.4-5.8c1.8-1.5,3.6-2.2,5.6-2.2c1.1,0,2.1,0.3,2.9,0.8
		c0.8,0.5,1.2,1.2,1.2,2.2c0,1.1-0.6,2.1-1.8,3.2c-1.2,1-2.8,1.9-4.8,2.7c-1.9,0.8-4,1.3-6,1.7c-0.4,1.4-0.6,2.8-0.6,4.2
		c0,1.8,0.4,3.2,1.3,4.2s2.1,1.5,3.6,1.5c2.4,0,4.3-0.8,5.8-2.6c1.5-1.7,2.7-3.6,3.7-5.8c0.1-0.1,0.2-0.4,0.3-0.7
		c0.2-0.4,0.3-0.5,0.4-0.5C940.1,459.9,940.2,460.2,940.2,460.6z M935,451.5c-0.5-0.3-1.1-0.4-1.8-0.4c-1.2,0-2.3,0.4-3.4,1.2
		c-1.1,0.8-2,1.7-2.7,2.8c-0.7,1.1-1.2,2-1.4,2.9c1.4-0.2,2.9-0.6,4.5-1.2c1.6-0.7,2.9-1.4,4-2.1c1.1-0.8,1.6-1.4,1.6-1.9
		C935.8,452.2,935.5,451.8,935,451.5z"/>
	<path class="st0" d="M970.3,463.3c-0.6,1-1.3,1.8-1.9,2.6c-1.6,1.9-3.1,3.4-4.3,4.5s-2.6,1.6-4,1.6c-1.2,0-2.1-0.5-2.9-1.5
		c-0.8-1-1.1-2.2-1.1-3.5c0-2,0.5-4.5,1.6-7.5c1-3,2.4-5.7,4-7.9c1.6-2.2,3.2-3.3,4.8-3.3c0.7,0,1.3,0.2,1.8,0.7
		c0.3,0.3,0.5,0.7,0.8,1.1c0.2,0.5,0.4,0.9,0.4,1.3c0,0.5-0.1,1.1-0.2,1.8c-0.1,0.7-0.3,1-0.4,1c-0.3,0-0.5-0.2-0.6-0.5
		c-0.1-0.3-0.2-0.8-0.2-1.3c-0.1-0.8-0.2-1.3-0.3-1.6c-0.1-0.3-0.2-0.4-0.4-0.4c-1.5,0-2.9,1-4.2,3c-1.4,2-2.5,4.4-3.3,7.1
		c-0.9,2.7-1.3,4.7-1.3,6.2c0,2,0.7,3.1,2,3.1c1,0,1.9-0.2,2.7-0.7c0.8-0.5,1.7-1.2,2.6-2.1c1.7-1.7,3-3.2,3.9-4.4
		c0.1-0.1,0.2-0.3,0.5-0.7s0.5-0.6,0.6-0.6c0.4,0,0.6,0.1,0.6,0.4C971.2,461.7,970.9,462.3,970.3,463.3z"/>
	<path class="st0" d="M993.6,472.1c-0.3,0.3-0.7,0.4-1.2,0.4c-0.6,0-1.2-0.6-1.7-1.9s-0.8-2.6-1-4c-0.1-1.3-0.2-4-0.3-8.1
		c0-0.6,0-1.3,0-2c0-0.7,0-1.2,0-1.7c-0.9,2.1-2.1,4.6-3.7,7.3c-1.5,2.7-3.1,5.1-4.7,7c-1.6,1.9-2.8,2.9-3.8,2.9c-1,0-1.7-0.5-2-1.6
		c-0.3-1.1-0.5-2.8-0.5-5.1c0-2.2,0.3-4.7,0.9-7.5c0.6-2.8,1.2-4.9,2-6.4c0.3-0.6,0.6-1.1,0.8-1.3c0.2-0.2,0.5-0.3,0.7-0.3
		c0.8,0,1.2,0.2,1.2,0.5c0,0.2-0.2,0.5-0.5,1.1c-0.8,1.5-1.6,3.4-2.2,5.6s-0.9,5.1-0.9,8.7c0,2.4,0.3,3.7,1,3.7
		c0.8,0,1.9-0.9,3.3-2.7c1.4-1.8,2.7-3.9,4.1-6.4c1.4-2.5,2.4-4.6,3.1-6.4c0.2-0.6,0.5-1.6,0.8-2.9c0.1-0.5,0.2-0.9,0.3-1.1
		c0.1-0.2,0.2-0.3,0.3-0.3c0.3,0,0.7,0.1,1.1,0.4c0.4,0.3,0.6,0.6,0.6,0.9c0,1.5,0.1,4,0.2,7.6c0.1,3.6,0.2,6.1,0.4,7.5
		c0.1,1.2,0.3,2.2,0.7,2.8c0.3,0.7,0.6,1.2,1,1.6c0.3,0.4,0.5,0.6,0.5,0.7C994,471.5,993.9,471.9,993.6,472.1z"/>
	<path class="st0" d="M1017.3,453.8c-0.4,0.3-1.3,0.5-2.4,0.7c-2.8,0.5-4.4,0.8-4.8,0.8l-3,0.5c0,1.6,0,3.3,0.1,5.1
		c0,1.8,0.1,3.3,0.2,4.6c0.1,1.8,0.3,3.2,0.7,4.1c0.3,1,0.5,1.5,0.5,1.6c0,0.3-0.2,0.6-0.6,0.9c-0.4,0.3-0.7,0.4-1.1,0.4
		c-0.2,0-0.3-0.1-0.5-0.2c-0.1-0.1-0.2-0.3-0.3-0.5c-0.2-0.4-0.4-1.2-0.5-2.4c-0.2-1.2-0.3-2.5-0.4-3.9c-0.1-1.3-0.2-2.7-0.2-4.4
		c0-1.7-0.1-3.3-0.1-4.9c-1.7,0.3-3.5,0.6-5.3,1c-1.6,0.3-2.6,0.5-2.9,0.5c-0.4,0-0.7-0.1-1-0.3c-0.3-0.2-0.5-0.5-0.5-0.9
		c0-0.4,0.1-0.7,0.4-0.8c0.3-0.1,0.7-0.2,1.4-0.2c0.5,0,1.1-0.1,2-0.3c0.9-0.2,1.5-0.3,1.7-0.3c2.1-0.4,3.5-0.7,4.2-0.8
		c0-0.6,0-1.5-0.1-2.5c-0.1-1.4-0.1-2.5-0.1-3.2c0-1.2,0-2.1,0.1-2.8c0.1-0.7,0.2-1.3,0.4-1.8c0.2-0.6,0.7-0.9,1.4-0.9
		c0.3,0,0.5,0,0.6,0.1c0.1,0.1,0.1,0.3,0.1,0.5c0,0.2-0.1,0.7-0.2,1.6c-0.2,0.9-0.2,2.1-0.2,3.6c0,1.1,0,2.4,0.1,3.8l0,1.3
		c1.4-0.2,4.1-0.8,8.3-1.7c0.2-0.1,0.5-0.3,0.6-0.6c0.2-0.4,0.3-0.6,0.5-0.6c0.3,0,0.7,0.2,1,0.6c0.4,0.4,0.5,0.8,0.5,1.2
		C1017.9,453.1,1017.7,453.5,1017.3,453.8z"/>
	<path class="st0" d="M1023.8,471.3c-0.4,0.2-0.8,0.3-1.3,0.3c-0.4,0-0.7-0.4-1-1.3c-0.3-0.9-0.5-2.2-0.5-4c0-3.5,0.1-7.7,0.2-12.7
		c0.1-4.9,0.1-8.7,0.2-11.2c0-0.9,0.2-1.7,0.5-2.5c0.3-0.8,0.8-1.2,1.6-1.2c0.2,0,0.4,0.1,0.5,0.4c0.1,0.3,0.1,0.8,0.1,1.5
		c0,0,0,0.1,0,0.3s0,0.5,0,0.9c-0.6,8.1-0.8,16.1-0.8,23.8c0,1,0.2,2,0.7,3.2c0.4,1.1,0.7,1.7,0.7,1.8
		C1024.4,470.8,1024.2,471.1,1023.8,471.3z"/>
	<path class="st0" d="M1047,460.6c0,0.6-0.4,1.8-1.2,3.7c-0.8,1.9-2.1,3.6-3.7,5.2c-1.7,1.6-3.7,2.4-6.1,2.4c-2,0-3.6-0.6-5-1.9
		c-1.3-1.2-2-3.1-2-5.7c0-2.4,0.6-4.8,1.7-7.2c1.1-2.4,2.6-4.3,4.4-5.8c1.8-1.5,3.6-2.2,5.6-2.2c1.1,0,2.1,0.3,2.9,0.8
		c0.8,0.5,1.2,1.2,1.2,2.2c0,1.1-0.6,2.1-1.8,3.2c-1.2,1-2.8,1.9-4.8,2.7c-1.9,0.8-4,1.3-6,1.7c-0.4,1.4-0.6,2.8-0.6,4.2
		c0,1.8,0.4,3.2,1.3,4.2c0.8,1,2.1,1.5,3.6,1.5c2.4,0,4.3-0.8,5.8-2.6c1.5-1.7,2.7-3.6,3.7-5.8c0.1-0.1,0.2-0.4,0.3-0.7
		c0.2-0.4,0.3-0.5,0.4-0.5C1046.9,459.9,1047,460.2,1047,460.6z M1041.8,451.5c-0.5-0.3-1.1-0.4-1.8-0.4c-1.2,0-2.3,0.4-3.4,1.2
		c-1.1,0.8-2,1.7-2.7,2.8c-0.7,1.1-1.2,2-1.4,2.9c1.4-0.2,2.9-0.6,4.5-1.2c1.6-0.7,2.9-1.4,4-2.1c1.1-0.8,1.6-1.4,1.6-1.9
		C1042.6,452.2,1042.4,451.8,1041.8,451.5z"/>
	<path class="st0" d="M1066.3,453.2c-0.4,0.4-0.7,0.5-1,0.5c-0.2,0-0.4-0.1-0.6-0.3c-0.2-0.2-0.4-0.4-0.7-0.8
		c-0.2-0.3-0.5-0.6-0.9-0.8c-0.4-0.2-0.7-0.3-1.1-0.3c-0.9,0-2.1,1.2-3.6,3.5c-1.5,2.4-3,5.3-4.5,8.9c0,0.7,0.1,1.6,0.2,2.7
		c0.1,1.1,0.1,1.9,0.2,2.4l0.1,1.9c0,0.4-0.1,0.8-0.3,1.1c-0.2,0.3-0.5,0.5-1,0.5c-0.5,0-0.9-0.7-1-2.1c-0.2-1.4-0.2-3.5-0.3-6.1
		c0-0.7-0.1-1.7-0.1-2.9c0-1.3-0.1-2.8-0.1-4.5c-0.1-2.7-0.1-4.6-0.1-5.7c0-0.7,0.4-1.1,1.3-1.1c0.5,0,0.8,0.2,1,0.7
		c0.1,0.4,0.2,1.3,0.2,2.6v7.4c0.9-2.4,1.9-4.4,3-6.2c1.1-1.7,2.1-3.1,3.2-4c1-0.9,2-1.4,2.8-1.4c0.7,0,1.3,0.2,1.9,0.5
		s1.1,0.7,1.5,1.2s0.6,0.9,0.6,1.4C1066.9,452.5,1066.7,452.8,1066.3,453.2z"/>
	<path class="st0" d="M1085.3,455.9c-0.4,2.7-0.6,4.3-0.6,4.6c-0.4,3.8-0.7,6.7-0.9,8.7c-0.2,2-0.3,3.8-0.3,5.4
		c0,1.3,0.1,2.4,0.3,3.2c0.2,0.8,0.4,1.4,0.6,1.8c0.2,0.4,0.3,0.7,0.3,0.8c0,0.3-0.2,0.5-0.7,0.7c-0.5,0.2-1,0.3-1.5,0.3
		c-0.4,0-0.7-0.5-1-1.6c-0.2-1.1-0.3-2.8-0.3-5.1c0-1.7,0.2-4.1,0.5-7l0.7-6.4c-0.8,1.6-1.9,3.1-3.1,4.6c-1.2,1.5-2.5,2.2-3.8,2.2
		c-1.2,0-2.3-1.1-3.2-3.2c-1-2.1-1.7-4.5-2.2-7.1c-0.5-2.7-0.8-4.6-0.8-5.8c0-0.8,0.2-1.2,0.7-1.2c0.7,0,1.1,0.6,1.3,1.9
		c1.2,8.6,2.8,12.9,4.9,12.9c0.8,0,1.6-0.3,2.2-1c0.6-0.7,1.4-1.7,2.2-3.1c0.4-0.6,0.8-1.5,1.3-2.6c0.5-1.1,0.8-2,1.1-2.7l0.3-4.7
		c0.1-0.7,0.2-1.2,0.3-1.5c0.1-0.3,0.4-0.4,0.7-0.4c0.3,0,0.6,0.2,0.9,0.5c0.3,0.4,0.5,0.7,0.5,1
		C1085.9,452,1085.7,453.5,1085.3,455.9z"/>
</g>
</svg>
