<?xml version="1.0" encoding="utf-8"?>
<!-- Generator: Adobe Illustrator 19.0.0, SVG Export Plug-In . SVG Version: 6.00 Build 0)  -->
<svg version="1.1" id="Layer_1" xmlns="http://www.w3.org/2000/svg" xmlns:xlink="http://www.w3.org/1999/xlink" x="0px" y="0px"
	 viewBox="0 0 200 200" style="enable-background:new 0 0 200 200;" xml:space="preserve">
<g>
	<path id="XMLID_46_" d="M166.6,77.4c-0.7,0.1-1.6-0.1-1.9,0.8c-0.2,0.7,0.3,1.2,0.8,1.7c0.4,0.4,0.9,0.9,1.5,1.1
		c2.9,1.1,5.5,2.8,8.3,4.2c0.4,0.2,0.8,0.6,1.2,0.2c0.5-0.5,0.1-1-0.2-1.4c-1.7-1.9-3.7-3.6-5.9-4.8
		C169.2,78.4,168.2,77.2,166.6,77.4z"/>
	<path id="XMLID_45_" d="M173.3,87.8c-0.3,0.7,0.2,1.5,0.7,1.9c2.2,1.6,4.5,3.1,6.8,4.6c1,0.7,1.3,0.1,1.5-0.9
		c-0.1-0.3-0.3-0.7-0.5-1.1c-1.7-2.3-3.9-3.8-6.5-4.8C174.6,87.3,173.7,87,173.3,87.8z"/>
	<path id="XMLID_44_" d="M180.1,97.6c-0.6,0.7-0.1,1.9,0.4,2.2c2.7,1.4,4.8,3.7,7.6,5c-0.9-3.5-3.6-5.2-6.3-6.9
		C181.3,97.7,180.6,97,180.1,97.6z"/>
	<path d="M183.9,143.7c-2.1,0.7-4.1,1.5-6.2,2.2c-0.8,0.3-2.1-0.1-2.4,0.9c-0.5,1.3,1.3,1.4,1.8,2.6c-2.7,1.3-5.1,3-7.8,3.6
		c-12.9,3.2-25.8,6.9-39.1,8.3c-12,1.3-23.8,3.8-35.7,5.8c-6.1,1.1-12.5,1.1-18.6,2.2c-5.7,1-11.3,1.7-17,1.2
		c-4.9-0.4-9.8-1.4-14.1-4.3c-9.7-6.7-11.5-16.6-11.2-27.3c0.2-7.2,2.3-14,5-20.8c2.7-6.8,6.7-12.2,12-16.9c1.9-1.7,3.8-1.6,5.2,0.3
		c2.6,3.7,5,7.5,5.1,12.2c0,1.7-0.2,4.3,1.9,4.2c2.1-0.1,2-2.7,1.9-4.5c-0.3-6-2.9-11.4-5.6-16.6c-0.9-1.7-0.5-2.2,0.7-3.3
		c5.5-5.1,11.3-9.7,18.2-12.8c3.3-1.5,6.2-3.6,9.7-4.8c2.6-0.9,4.8-2.9,7.9-2.8c0.1,0,0.4-0.2,0.4-0.3c1-2.2,3.2-2.1,5.1-2.8
		c2.8-1.1,4.1,0.2,4.6,2.5c0.7,3.1,1.8,6,2.6,9c1.1,4.1,4,5.5,7.6,3.1c6.6-4.4,13.3-8.9,18.1-15.6c1.5-2.1,3.6-3,6-2.5
		c6.2,1.2,12.5,2.3,18.2,5.3c3.2,1.7,6.3,3.3,9.9,4c1.9,0.4,3.2,2.5,5.8,2.2c-2.7-3.6-6.4-5.6-9.9-7.5c-7-3.8-14.4-6.6-22.4-7.1
		c-1.6-0.1-2.2-0.6-0.8-2.2c3.7-4.5,6.7-9.4,8.3-15.1c2.3-8.5,3-16.8-2.5-24.6c-2.8-3.9-6.5-5.4-11.1-4.1c-7.1,2-13.6,4.6-18.5,10.7
		c-3,3.8-6.3,7.4-8.6,11.6c-3.9,7.5-4.7,15.7-4.7,24c0,2.1-2.1,3.7-5.3,3.7c-2.5,0-1.7-2-1.7-3.2c-0.2-6.6-1.5-13.2-4.9-18.8
		c-3.2-5.4-8.4-9.3-14.5-10.8c-4.5-1.1-9.3-0.1-12.6,4.2c-4.5,6.1-5.1,12.8-3.3,19.9c1.8,7.3,5.6,13.5,10.5,19.1
		c1,1.2,1.1,1.6-0.4,2.3c-1.7,0.8-3.3,2.1-5,3c-3.8,2-5.8,5.8-9.1,8.4c-1.6,1.2-2.9,1.6-4.7,0.4c-2.6-1.7-5.4-1.5-8.1,0.1
		c-3,1.9-5.6,4.2-7.7,7.3c-2.2,3.4-2.5,5.3,0.6,7.7c1.4,1.1,1.6,2,0.6,3.4c-0.6,0.8-1.2,1.6-1.7,2.5c-0.8,1.6-1.4,1.4-2.2,0
		c-1.5-2.4-2.6-5.1-4.8-6.9c-1.8-1.6-3.6-3.9-6.4-3.2c-8.1,2.1-11.4,7.3-10.2,15.6c0.5,3.3,1.9,4,4.9,2.4c3.6-1.9,5.5-5,6.7-8.8
		c0.8-2.5,3.2-3,4.8-0.9c1.5,2,3.2,4,4,6.5c0.3,0.8,0.5,1.5,0.2,2.4c-0.8,2.1-1.5,4.1-2.1,6.3c-3,12.1-3.8,24,2.9,35.2
		c2.9,4.8,7,8.5,12.4,10.4c6.6,2.4,13.4,3.2,20.4,2.3c1.3-0.2,2.5-0.3,1.8,1.8c-0.6,1.9,0.6,2.8,2.5,3.1c2.7,0.4,3.9-1.4,5-3.1
		c1.6-2.4,3.6-3.5,6.6-3.6c5-0.3,10.1-0.9,15.1-2c2.6-0.6,4.4,0,6.3,1.6c3.1,2.6,5.9,5.5,9.4,7.6c1.3,0.7,2.8,2.4,4.2,1
		c1.4-1.3,1.1-3.4,0.4-5.2c-0.3-0.8-0.8-1.5-1.2-2.2c-1-2-2.9-3.2-5-5c7-1.1,13.4-2.2,19.8-3.2c0.6-0.1,0.9,0.3,1.4,0.6
		c3.5,3.1,7.1,6.1,11.4,8.2c1.3,0.6,2.7,1.9,4,0.9c1.2-1,1.3-2.8,1.2-4.4c-0.2-1.7-1-3.2-2.3-4.3c-0.9-0.8-1.9-1.5-2.9-2.3
		c6.5-2.3,12.5-3.8,18.4-5.3c1.1-0.3,2-0.1,2.7,0.8c2.4,3.3,5.9,5.2,9.4,7.1c1.2,0.6,2.5,1.6,3.8,0.4c1.4-1.3,1.4-2.9,0.7-4.6
		c-1-2.5-2.9-4.2-5.1-5.6c-1.2-0.7-1.4-1.2,0.1-2c2.3-1.1,4.5-2.5,6.7-3.8c1-0.6,2.3-1.3,2.2-2.6c-0.1-1.5,0.2-2.4,1.5-3
		c0.6-0.3,1-1,0.6-1.7C185.1,143,184.4,143.6,183.9,143.7z M115,79.8c-0.9,0.2-1.5-0.1-1.6-1c-1.4-7.1-3.4-14.3-0.1-21.4
		c0.4-0.9,0.8-1.9,2.2-2.3c0.2,2.8,1.7,5.1,1.3,8c-0.5,4,0.9,7.8,1.7,11.6C118.8,77.1,117.2,79.4,115,79.8z M125.7,69.2
		c-0.9,1-1.5,2.3-2.4,3.3c-0.4,0.4-1.1,0.9-1.6,0.8c-0.5,0-0.5-0.9-0.6-1.4c-0.1-5.1-2-9.9-2.2-15c-0.1-1.6-1.5-3.7,1.1-4.8
		c2.5-1,5.8-0.4,7.4,1.3c1.8,1.8,1.6,4.2,1.9,6.6C129,63.4,128.1,66.5,125.7,69.2z M132.8,64.6c0.3-3,0.5-5.2,0.8-7.5
		c0.1-0.8,0.6-1.4,1.3-1.7c2-1.1,4.2-2.1,6.8-3.4C140,57.4,136.5,60.6,132.8,64.6z M140.2,26.7c0.3-0.8,0.4-2,1.5-2
		c1,0,1.4,0.9,1.9,1.8c1.8,3,2.5,6.3,2.3,9.8c-0.3,3.7,0.1,7.4-1.6,11c-0.7,1.4-1.5,2.4-3.2,2.5c-2.1,0.1-4,1.1-5.9,1.9
		c-1,0.4-2.3,1.4-3.2,0.2c-0.9-1.2-2.6-2.1-1.8-4.2c1.6-4.4,3.9-8.5,6-12.6C137.7,32.1,139.1,29.5,140.2,26.7z M123.4,27.5
		c0-0.8,0.5-1.1,1-1.4c3.6-2.1,7.5-3.5,11.6-4.2c2.4-0.4,2.8,0.2,1.8,2.5c-2.4,5.5-5,11-7.4,16.5c-0.6,1.3-1,2.5-1.5,3.8
		c-0.6,2-1.7,3-4,2.7c-2.3-0.3-2.6-1.6-2.5-3.4c0-1.3,0-2.6,0-4.3C121.5,35.9,123.4,31.7,123.4,27.5z M113.2,37.5
		c2-2.6,3.8-5.4,6.6-7.9c1.2,6.2-0.5,11.8-0.9,17.4c-0.1,1.9-2,2.3-3.2,2.4c-1.4,0.1-1.4-1.7-1.2-2.5c0.5-2.5-0.8-4.6-1.4-6.8
		C112.8,39.1,112.6,38.3,113.2,37.5z M110.3,44.4c0.6,3.7,3.8,6.9,0.6,11c-1.9,2.3-1.6,6-3.7,8.8C106.1,57.1,108,50.7,110.3,44.4z
		 M80.7,75.3c-1.4,0.6-1.5-0.7-1.5-1.5c-0.3-3.1-0.9-6.2,0.5-9.6c2.5,2.6,3.2,5.7,4.2,8.4C84.5,74.6,82,74.7,80.7,75.3z M90.1,52.6
		c1.4,2.7,2.6,5.4,2.1,9.2C88.6,58.9,90.3,55.5,90.1,52.6z M91.5,69.4c-0.1,0.9-0.8,1.2-1.5,1.4c-0.8,0.2-1.6,0.6-2.2-0.4
		c-1.4-2.2-2.8-4.3-3.6-6.8c-0.3-0.9-0.1-1.2,0.8-1.2C87.2,62.3,91.9,67.2,91.5,69.4z M74.8,38.4c4.9,0.4,8.5,3.2,11.5,6.8
		c1.3,1.5,0.2,3.8,0.5,5.4c0,1.2,0.2,2.3,0,3.2c-0.3,1.5,1.7,3.6-0.4,4.4c-3,1.1-5.9-0.4-7.1-3.2c-2.1-4.8-4.3-9.5-6-14.5
		C72.7,38.8,72.9,38.2,74.8,38.4z M63.9,51.2c0.4-3.9,0.7-7.5,3-10.6c1.1-1.5,2.2-2,3.1,0.2c2.3,6.3,4.9,12.4,7.8,18.4
		c0.6,1.3,0,2.3-1,3.1c-1.1,0.9-1.7-0.3-2.2-0.8c-2.5-2.7-5.8-4.5-8.5-6.9C65,53.6,63.9,52.6,63.9,51.2z M65.5,59
		c4.6,0.7,12.7,8.8,10,16.5C70.9,70.7,67,65.6,65.5,59z"/>
	<path d="M48,156.1c0.1,1.2,0.2,2.4,0.2,3.6c0,1.4,0.9,2.4,2.1,2.5c4,0.6,7.8,1.5,12,1c6.1-0.8,11.5-3.1,17-5.5
		c4.9-2.1,8.6-5.6,11.7-9.8c0.9-1.3,1.7-2.6,1.7-4.3c-0.1-5-2.4-8.7-6.6-11.3c-2.1-1.3-4.4-2.3-6.8-2.9c-8.3-2.2-15.9-0.5-22.4,4.9
		C50,139.8,49.2,148.1,48,156.1z M75.2,151.1c2.8-2.9,2.5-6.3,2.8-9.8c0.2-3.6,0.1-3.9-4.2-9.4c3.7,0.1,6.8,1.1,9.9,2.9
		c3.8,2.2,6.3,5.2,5.2,9.5c-0.9,3.5-3.6,6.3-6.7,8.1c-6.5,3.8-13.5,6.6-21.3,6.8c-1.5,0-3.1-0.1-4.6-0.3c-4-0.7-5-2.7-3.7-6.9
		C57.5,156.8,68.7,157.8,75.2,151.1z"/>
	<path id="XMLID_27_" d="M152,109.7c-3.1,0.2-6.2,0.8-9,2.1c-0.7,0.3-1.6,0.9-0.9,1.9c0.6,0.9,1,2.4,2.6,1.7
		c2.3-0.9,4.6-1.8,6.8-2.8c0.9-0.4,1.5-1,1.8-2.1C153.2,109.9,152.7,109.6,152,109.7z"/>
	<path id="XMLID_26_" d="M146.6,119.2c-1.3,0.4-2,1.4-1.3,3c0.6,1.5,1.5,1.6,2.8,1c1.5-0.7,3-1.3,4.4-2.2c0.7-0.4,1.9-0.8,1.4-2
		c-0.4-0.9-1.4-0.7-2.2-0.8C150,118.5,148.2,118.6,146.6,119.2z"/>
	<path id="XMLID_25_" d="M137.3,99.5c1.9-0.5,3.6-1.1,5.3-2.1c0.7-0.4,1.2-1,1-1.8c-0.2-1.1-1.2-0.9-2.2-1c-1.6,0.4-3.4,0.8-5.1,1.3
		c-0.9,0.3-1.9,0.9-1.4,2C135.2,98.7,135.9,99.8,137.3,99.5z"/>
	<path id="XMLID_24_" d="M154.2,127c-0.3-0.6-0.9-0.9-1.6-0.9c-1.8,0.1-3.6,0.2-5.3,0.9c-0.8,0.3-1.9,0.5-1.6,1.4
		c0.3,0.9,0.7,2.2,2.5,2c1.8,0,3.5-1.1,5.4-1.8C154.2,128.3,154.5,127.6,154.2,127z"/>
	<path id="XMLID_23_" d="M112.9,148.8c-0.5-1-1.4-0.8-2.2-0.6c-1.5,0.4-3,0.9-4.4,1.4c-0.8,0.3-1.9,0.5-1.6,1.5
		c0.3,0.9,0.9,2.1,2.6,1.9c1.5-0.4,3.4-0.9,4.8-2.3C112.8,150.2,113.3,149.7,112.9,148.8z"/>
	<path id="XMLID_22_" d="M104.8,136.9c2-0.9,4.1-2,5.5-3.8c0.7-0.9-0.3-1.8-1.4-1.6c-1.7,0.3-3.4,0.8-5,1.4c-1,0.4-1.2,1.4-0.9,2.3
		C103.3,136,103.7,136.7,104.8,136.9z"/>
	<path id="XMLID_21_" d="M185.9,134.8c-1.5,0.5-3,0.9-4.4,1.5c-0.9,0.3-1.8,0.7-1.6,1.9c0.2,1.1,1.2,1.2,2.4,1.2
		c1.7-0.5,3.8-0.7,5-2.6c0.3-0.5,0.8-1.1,0.3-1.8C187.1,134.3,186.5,134.5,185.9,134.8z"/>
	<path id="XMLID_20_" d="M132.8,92.7c1.3-0.5,2.5-1,3.8-1.6c0.8-0.3,1.6-0.8,1.3-1.8c-0.2-1.1-1.2-1-2.5-1c-1,0.2-2.5,0.4-3.9,0.8
		c-0.9,0.2-1.9,0.8-1.5,1.9C130.5,92.1,131.2,93.4,132.8,92.7z"/>
	<path id="XMLID_19_" d="M95.8,106.3c-0.1-0.9-0.6-1.5-1.5-1.2c-1.8,0.7-3.5,1.7-4.4,3.5c-0.6,1,0.7,2.8,1.8,2.7
		C92.9,111,95.9,107.4,95.8,106.3z"/>
	<path id="XMLID_18_" d="M153.4,141.7c-0.2-0.2-0.4-0.5-0.7-0.6c-1.2-0.7-5.5,0.1-6.6,1.1c-0.7,0.7-0.4,1.2,0,1.9
		c1.4,2.2,2.9,0.8,4.3,0.1C151.5,143.6,152.8,143.3,153.4,141.7z"/>
	<path id="XMLID_17_" d="M102.3,127.5c1.8-0.4,2.5-2.1,3.6-3.2c0.6-0.6,1.2-1.6,0.5-2.4c-0.7-0.8-1.5-0.1-2.2,0.3
		c-1.1,0.5-2.2,0.9-3.2,1.5c-0.6,0.4-1.1,1.1-0.6,1.9C100.9,126.3,101.3,127.2,102.3,127.5z"/>
	<path id="XMLID_16_" d="M142.9,107.6c1.6-0.7,3.4-0.9,4.7-2.1c0.5-0.5,1.4-0.8,1-1.8c-0.4-0.8-1.2-0.7-1.9-0.8
		c-1.6,0.2-3.3,0.3-4.7,1.2c-0.9,0.6-1.1,1.3-0.5,2.3C141.9,107,141.9,108,142.9,107.6z"/>
	<path id="XMLID_15_" d="M105,143c0.6,1.1,1.3,2.3,2.7,1.5c1.4-0.8,2.7-1.9,3.9-2.9c0.4-0.3,0.6-0.8,0.3-1.2
		c-0.3-0.5-0.7-0.8-1.5-0.8c-1.3,0.4-2.8,0.8-4.2,1.4C105.4,141.4,104.3,141.8,105,143z"/>
	<path id="XMLID_14_" d="M105.7,163.4c1.7-0.7,3.3-1.6,4.5-2.9c0.5-0.5,0.8-1.3,0.3-2c-0.5-0.6-1.2-0.2-1.8,0
		c-1.4,0.5-2.7,1.2-4,1.8c-0.7,0.3-1.3,0.8-0.9,1.7C104.3,162.5,104.7,163.3,105.7,163.4z"/>
	<path id="XMLID_13_" d="M151.2,134c-1.7-0.1-3.8-0.6-4.5,1.5c-0.3,0.9,0.4,2.2,1.7,2.5c0.9,0.2,5.1-2,5.2-2.9
		C153.3,133.9,152.1,134,151.2,134z"/>
	<path id="XMLID_12_" d="M126.7,88.3c1.2,0,5.3-2.8,5.3-3.7c0-1-0.9-1-1.5-1.1c-2.2-0.1-5.7,1.8-5.5,3
		C125.2,87.2,125.4,88.3,126.7,88.3z"/>
	<path id="XMLID_11_" d="M95.9,118.6c0.2,0.1,0.5,0.1,0.6,0.1c1.3-0.1,4-3.1,3.9-4.3c0-0.3,0-0.6-0.2-0.8c-0.4-0.5-1.1-0.5-1.5-0.2
		c-1.4,1-3.5,1.3-4.1,3.2C94.5,117.3,95.2,118.2,95.9,118.6z"/>
	<path id="XMLID_10_" d="M84.8,104.2c2.3-0.4,2.3-2.8,3.2-4.2c0.1-1.2-0.5-1.9-1.2-1.6c-1.7,0.7-3.6,1.5-4,3.4
		C82.5,102.8,83.3,104.5,84.8,104.2z"/>
	<path id="XMLID_9_" d="M187.4,126.6c-1.4,0-2.8,0.3-4.1,1c-1.3,0.8-1.2,1.5-0.2,2.5c1.3,1.2,4.4,0.2,5.5-1.8
		C189.2,127.1,189.2,126.3,187.4,126.6z"/>
	<path id="XMLID_8_" d="M182.5,106.3c1.3,1.6,2.7,3.2,4.9,3.6c0.8,0.1,1.5,0.2,1.5-0.7c-0.1-1.3-4.9-4.9-5.9-4.6
		C182.1,104.8,182,105.6,182.5,106.3z"/>
	<path id="XMLID_7_" d="M79.1,99.6c1.2-0.1,1.4-1,1.6-1.9c0.1-0.6,0.4-1.2,0.5-1.8c0-0.8,0.2-1.8-0.7-1.9c-1.2-0.2-1.8,1-2.7,1.6
		c-0.9,0.6-1,1.5-0.4,2.4C77.9,98.7,78,99.7,79.1,99.6z"/>
	<path id="XMLID_6_" d="M76.2,91c-0.1-0.7-0.5-0.9-1.4-0.7c-1.2,0.7-3.3,0.8-3.5,2.9c-0.1,1,0.8,2.1,2.1,2.2
		C74.1,95.4,76.3,91.9,76.2,91z"/>
	<path id="XMLID_5_" d="M185.4,113.8c-0.9-0.1-1.8,0.1-1.7,1.2c0.2,1.7,1.4,2.2,2.6,2.1c1.6-0.1,3.5-0.2,3.3-1.4
		C189.1,113.8,187,114,185.4,113.8z"/>
	<path id="XMLID_4_" d="M186.5,118.9c-1.3,0.1-2.8,0.2-2.8,1.7c0,0.8,0.8,2,2.1,1.7c1.4-0.3,3.5-0.3,3.6-1.9
		C189.6,118.9,187.6,119.3,186.5,118.9z"/>
	<path id="XMLID_3_" d="M149.9,150.6c0.2-0.7-1.3-1-2.3-1.1c-0.9,0.4-2.7-0.3-2.6,1.5c0,0.8,0.6,2.1,1.6,1.9
		C147.9,152.6,149.5,152,149.9,150.6z"/>
	<path id="XMLID_2_" d="M143.8,157.7c1.2-0.1,2.4-0.7,2.6-2c0.2-1.1-0.8-1-1.6-1.1c-1.1,0.6-3.2-0.2-3.6,1.5
		C141.1,156.9,142.6,157.8,143.8,157.7z"/>
	<path id="XMLID_1_" d="M127.2,81.4c-0.1-0.9-0.4-1.3-1.2-1.1c-1.2,0.2-2.8,0.2-3,1.8c-0.1,0.6,0.7,2,1.6,1.8
		C125.9,83.7,126.6,82.5,127.2,81.4z"/>
</g>
<g id="XMLID_47_">
</g>
<g id="XMLID_48_">
</g>
<g id="XMLID_49_">
</g>
<g id="XMLID_50_">
</g>
<g id="XMLID_51_">
</g>
<g id="XMLID_52_">
</g>
</svg>
