<?xml version="1.0" encoding="utf-8"?>
<!-- Generator: Adobe Illustrator 23.0.2, SVG Export Plug-In . SVG Version: 6.00 Build 0)  -->
<svg version="1.1" id="Слой_1" xmlns="http://www.w3.org/2000/svg" xmlns:xlink="http://www.w3.org/1999/xlink" x="0px" y="0px"
	 viewBox="0 0 822 620" style="enable-background:new 0 0 822 620;" xml:space="preserve">
<style type="text/css">
	.st0{fill:#E1B12C;}
	.st1{fill:#7FB970;fill-opacity:0.5;}
</style>
<path class="st0" d="M505.9,0H944v395.5c0,133.6-128.5,229.6-256.6,191.8L609,564.2l-46.8-12.7l-14.2-4.3
	c-47.3-14.3-98.3-10.6-143,10.5l-48.4,22.8l-50.6,19.3l-12.2,5c-84.1,34.4-180.9,7.7-235.5-65l-17.5-23.3
	c-42.1-56-51.8-130-25.6-195l8.6-21.4c30.8-76.3,105.1-126,187.3-125.2l75,0.7c71.4,0.7,137.7-36.8,174-98.2L505.9,0z"/>
<path class="st1" d="M265.1,476.5c17.1-16.9,24.1-41.6,18.3-65l-1.2-4.8c-10.4-41.9,15.8-84.1,57.9-93.6c11-2.5,21.8-6.2,32-11
	l57.2-27.1c43.6-20.6,93.2-24.8,139.6-11.8l91.6,25.7c45.1,12.7,80.5,47.7,93.7,92.7l16,60.3l3.1,25.6
	c8.7,72.2-60,129.2-129.3,107.4l-33.8-10.7l-29.4-8.4l-16.6-5.8c-5.1-1.8-10.4-3.1-15.7-4.1l-16.3-2.8l-28.8-1.8L486,541
	c-6-0.1-11.9,0.3-17.8,1.2l-25.7,4l-25.5,6.4c-6.9,1.7-13.6,4.2-19.9,7.4L358,579.4l-46.2,18.4c-5.5,2.2-11.1,3.9-16.9,5.1
	l-26.5,5.5c-51,14.3-87.6-48.7-49.9-85.9L265.1,476.5z"/>
<image style="overflow:visible;" width="2596" height="3003" xlink:href="6FA891BF.png"  transform="matrix(0.24 0 0 0.24 22.32 -45.76)">
</image>
</svg>
